G04 #@! TF.GenerationSoftware,KiCad,Pcbnew,6.0.0-rc1-unknown-15e0771~66~ubuntu18.04.1*
G04 #@! TF.CreationDate,2018-08-29T16:09:40+02:00*
G04 #@! TF.ProjectId,esp32-gateway,65737033322D676174657761792E6B69,v3*
G04 #@! TF.SameCoordinates,Original*
G04 #@! TF.FileFunction,Soldermask,Top*
G04 #@! TF.FilePolarity,Negative*
%FSLAX46Y46*%
G04 Gerber Fmt 4.6, Leading zero omitted, Abs format (unit mm)*
G04 Created by KiCad (PCBNEW 6.0.0-rc1-unknown-15e0771~66~ubuntu18.04.1) date Wed Aug 29 16:09:40 2018*
%MOMM*%
%LPD*%
G01*
G04 APERTURE LIST*
%ADD10C,0.100000*%
%ADD11C,1.275000*%
%ADD12C,2.082800*%
%ADD13C,1.924000*%
%ADD14R,1.924000X1.924000*%
%ADD15R,1.900000X1.900000*%
%ADD16C,3.600000*%
%ADD17C,1.650000*%
%ADD18R,1.710000X1.330000*%
%ADD19R,1.710000X3.640000*%
%ADD20R,1.700000X1.300000*%
%ADD21R,0.800000X2.000000*%
%ADD22C,1.750000*%
%ADD23O,1.750000X2.200000*%
%ADD24R,1.400000X1.400000*%
%ADD25R,1.450000X2.600000*%
%ADD26R,4.400000X4.400000*%
%ADD27R,2.100000X1.300000*%
%ADD28R,1.300000X2.100000*%
%ADD29R,0.802640X1.402080*%
%ADD30R,3.202940X1.402080*%
%ADD31R,2.900000X1.400000*%
%ADD32R,0.800000X2.300000*%
%ADD33R,1.300000X1.200000*%
G04 APERTURE END LIST*
D10*
G04 #@! TO.C,R6*
G36*
X127507493Y-137106535D02*
X127538435Y-137111125D01*
X127568778Y-137118725D01*
X127598230Y-137129263D01*
X127626508Y-137142638D01*
X127653338Y-137158719D01*
X127678463Y-137177353D01*
X127701640Y-137198360D01*
X127722647Y-137221537D01*
X127741281Y-137246662D01*
X127757362Y-137273492D01*
X127770737Y-137301770D01*
X127781275Y-137331222D01*
X127788875Y-137361565D01*
X127793465Y-137392507D01*
X127795000Y-137423750D01*
X127795000Y-138136250D01*
X127793465Y-138167493D01*
X127788875Y-138198435D01*
X127781275Y-138228778D01*
X127770737Y-138258230D01*
X127757362Y-138286508D01*
X127741281Y-138313338D01*
X127722647Y-138338463D01*
X127701640Y-138361640D01*
X127678463Y-138382647D01*
X127653338Y-138401281D01*
X127626508Y-138417362D01*
X127598230Y-138430737D01*
X127568778Y-138441275D01*
X127538435Y-138448875D01*
X127507493Y-138453465D01*
X127476250Y-138455000D01*
X126838750Y-138455000D01*
X126807507Y-138453465D01*
X126776565Y-138448875D01*
X126746222Y-138441275D01*
X126716770Y-138430737D01*
X126688492Y-138417362D01*
X126661662Y-138401281D01*
X126636537Y-138382647D01*
X126613360Y-138361640D01*
X126592353Y-138338463D01*
X126573719Y-138313338D01*
X126557638Y-138286508D01*
X126544263Y-138258230D01*
X126533725Y-138228778D01*
X126526125Y-138198435D01*
X126521535Y-138167493D01*
X126520000Y-138136250D01*
X126520000Y-137423750D01*
X126521535Y-137392507D01*
X126526125Y-137361565D01*
X126533725Y-137331222D01*
X126544263Y-137301770D01*
X126557638Y-137273492D01*
X126573719Y-137246662D01*
X126592353Y-137221537D01*
X126613360Y-137198360D01*
X126636537Y-137177353D01*
X126661662Y-137158719D01*
X126688492Y-137142638D01*
X126716770Y-137129263D01*
X126746222Y-137118725D01*
X126776565Y-137111125D01*
X126807507Y-137106535D01*
X126838750Y-137105000D01*
X127476250Y-137105000D01*
X127507493Y-137106535D01*
X127507493Y-137106535D01*
G37*
D11*
X127157500Y-137780000D03*
D10*
G36*
X125932493Y-137106535D02*
X125963435Y-137111125D01*
X125993778Y-137118725D01*
X126023230Y-137129263D01*
X126051508Y-137142638D01*
X126078338Y-137158719D01*
X126103463Y-137177353D01*
X126126640Y-137198360D01*
X126147647Y-137221537D01*
X126166281Y-137246662D01*
X126182362Y-137273492D01*
X126195737Y-137301770D01*
X126206275Y-137331222D01*
X126213875Y-137361565D01*
X126218465Y-137392507D01*
X126220000Y-137423750D01*
X126220000Y-138136250D01*
X126218465Y-138167493D01*
X126213875Y-138198435D01*
X126206275Y-138228778D01*
X126195737Y-138258230D01*
X126182362Y-138286508D01*
X126166281Y-138313338D01*
X126147647Y-138338463D01*
X126126640Y-138361640D01*
X126103463Y-138382647D01*
X126078338Y-138401281D01*
X126051508Y-138417362D01*
X126023230Y-138430737D01*
X125993778Y-138441275D01*
X125963435Y-138448875D01*
X125932493Y-138453465D01*
X125901250Y-138455000D01*
X125263750Y-138455000D01*
X125232507Y-138453465D01*
X125201565Y-138448875D01*
X125171222Y-138441275D01*
X125141770Y-138430737D01*
X125113492Y-138417362D01*
X125086662Y-138401281D01*
X125061537Y-138382647D01*
X125038360Y-138361640D01*
X125017353Y-138338463D01*
X124998719Y-138313338D01*
X124982638Y-138286508D01*
X124969263Y-138258230D01*
X124958725Y-138228778D01*
X124951125Y-138198435D01*
X124946535Y-138167493D01*
X124945000Y-138136250D01*
X124945000Y-137423750D01*
X124946535Y-137392507D01*
X124951125Y-137361565D01*
X124958725Y-137331222D01*
X124969263Y-137301770D01*
X124982638Y-137273492D01*
X124998719Y-137246662D01*
X125017353Y-137221537D01*
X125038360Y-137198360D01*
X125061537Y-137177353D01*
X125086662Y-137158719D01*
X125113492Y-137142638D01*
X125141770Y-137129263D01*
X125171222Y-137118725D01*
X125201565Y-137111125D01*
X125232507Y-137106535D01*
X125263750Y-137105000D01*
X125901250Y-137105000D01*
X125932493Y-137106535D01*
X125932493Y-137106535D01*
G37*
D11*
X125582500Y-137780000D03*
G04 #@! TD*
D10*
G04 #@! TO.C,R1*
G36*
X129142492Y-76961536D02*
X129173434Y-76966126D01*
X129203777Y-76973726D01*
X129233229Y-76984264D01*
X129261507Y-76997639D01*
X129288337Y-77013720D01*
X129313462Y-77032354D01*
X129336639Y-77053361D01*
X129357646Y-77076538D01*
X129376280Y-77101663D01*
X129392361Y-77128493D01*
X129405736Y-77156771D01*
X129416274Y-77186223D01*
X129423874Y-77216566D01*
X129428464Y-77247508D01*
X129429999Y-77278751D01*
X129429999Y-77916251D01*
X129428464Y-77947494D01*
X129423874Y-77978436D01*
X129416274Y-78008779D01*
X129405736Y-78038231D01*
X129392361Y-78066509D01*
X129376280Y-78093339D01*
X129357646Y-78118464D01*
X129336639Y-78141641D01*
X129313462Y-78162648D01*
X129288337Y-78181282D01*
X129261507Y-78197363D01*
X129233229Y-78210738D01*
X129203777Y-78221276D01*
X129173434Y-78228876D01*
X129142492Y-78233466D01*
X129111249Y-78235001D01*
X128398749Y-78235001D01*
X128367506Y-78233466D01*
X128336564Y-78228876D01*
X128306221Y-78221276D01*
X128276769Y-78210738D01*
X128248491Y-78197363D01*
X128221661Y-78181282D01*
X128196536Y-78162648D01*
X128173359Y-78141641D01*
X128152352Y-78118464D01*
X128133718Y-78093339D01*
X128117637Y-78066509D01*
X128104262Y-78038231D01*
X128093724Y-78008779D01*
X128086124Y-77978436D01*
X128081534Y-77947494D01*
X128079999Y-77916251D01*
X128079999Y-77278751D01*
X128081534Y-77247508D01*
X128086124Y-77216566D01*
X128093724Y-77186223D01*
X128104262Y-77156771D01*
X128117637Y-77128493D01*
X128133718Y-77101663D01*
X128152352Y-77076538D01*
X128173359Y-77053361D01*
X128196536Y-77032354D01*
X128221661Y-77013720D01*
X128248491Y-76997639D01*
X128276769Y-76984264D01*
X128306221Y-76973726D01*
X128336564Y-76966126D01*
X128367506Y-76961536D01*
X128398749Y-76960001D01*
X129111249Y-76960001D01*
X129142492Y-76961536D01*
X129142492Y-76961536D01*
G37*
D11*
X128754999Y-77597501D03*
D10*
G36*
X129142492Y-78536536D02*
X129173434Y-78541126D01*
X129203777Y-78548726D01*
X129233229Y-78559264D01*
X129261507Y-78572639D01*
X129288337Y-78588720D01*
X129313462Y-78607354D01*
X129336639Y-78628361D01*
X129357646Y-78651538D01*
X129376280Y-78676663D01*
X129392361Y-78703493D01*
X129405736Y-78731771D01*
X129416274Y-78761223D01*
X129423874Y-78791566D01*
X129428464Y-78822508D01*
X129429999Y-78853751D01*
X129429999Y-79491251D01*
X129428464Y-79522494D01*
X129423874Y-79553436D01*
X129416274Y-79583779D01*
X129405736Y-79613231D01*
X129392361Y-79641509D01*
X129376280Y-79668339D01*
X129357646Y-79693464D01*
X129336639Y-79716641D01*
X129313462Y-79737648D01*
X129288337Y-79756282D01*
X129261507Y-79772363D01*
X129233229Y-79785738D01*
X129203777Y-79796276D01*
X129173434Y-79803876D01*
X129142492Y-79808466D01*
X129111249Y-79810001D01*
X128398749Y-79810001D01*
X128367506Y-79808466D01*
X128336564Y-79803876D01*
X128306221Y-79796276D01*
X128276769Y-79785738D01*
X128248491Y-79772363D01*
X128221661Y-79756282D01*
X128196536Y-79737648D01*
X128173359Y-79716641D01*
X128152352Y-79693464D01*
X128133718Y-79668339D01*
X128117637Y-79641509D01*
X128104262Y-79613231D01*
X128093724Y-79583779D01*
X128086124Y-79553436D01*
X128081534Y-79522494D01*
X128079999Y-79491251D01*
X128079999Y-78853751D01*
X128081534Y-78822508D01*
X128086124Y-78791566D01*
X128093724Y-78761223D01*
X128104262Y-78731771D01*
X128117637Y-78703493D01*
X128133718Y-78676663D01*
X128152352Y-78651538D01*
X128173359Y-78628361D01*
X128196536Y-78607354D01*
X128221661Y-78588720D01*
X128248491Y-78572639D01*
X128276769Y-78559264D01*
X128306221Y-78548726D01*
X128336564Y-78541126D01*
X128367506Y-78536536D01*
X128398749Y-78535001D01*
X129111249Y-78535001D01*
X129142492Y-78536536D01*
X129142492Y-78536536D01*
G37*
D11*
X128754999Y-79172501D03*
G04 #@! TD*
D10*
G04 #@! TO.C,R2*
G36*
X127487968Y-147290195D02*
X127518910Y-147294785D01*
X127549253Y-147302385D01*
X127578705Y-147312923D01*
X127606983Y-147326298D01*
X127633813Y-147342379D01*
X127658938Y-147361013D01*
X127682115Y-147382020D01*
X127703122Y-147405197D01*
X127721756Y-147430322D01*
X127737837Y-147457152D01*
X127751212Y-147485430D01*
X127761750Y-147514882D01*
X127769350Y-147545225D01*
X127773940Y-147576167D01*
X127775475Y-147607410D01*
X127775475Y-148319910D01*
X127773940Y-148351153D01*
X127769350Y-148382095D01*
X127761750Y-148412438D01*
X127751212Y-148441890D01*
X127737837Y-148470168D01*
X127721756Y-148496998D01*
X127703122Y-148522123D01*
X127682115Y-148545300D01*
X127658938Y-148566307D01*
X127633813Y-148584941D01*
X127606983Y-148601022D01*
X127578705Y-148614397D01*
X127549253Y-148624935D01*
X127518910Y-148632535D01*
X127487968Y-148637125D01*
X127456725Y-148638660D01*
X126819225Y-148638660D01*
X126787982Y-148637125D01*
X126757040Y-148632535D01*
X126726697Y-148624935D01*
X126697245Y-148614397D01*
X126668967Y-148601022D01*
X126642137Y-148584941D01*
X126617012Y-148566307D01*
X126593835Y-148545300D01*
X126572828Y-148522123D01*
X126554194Y-148496998D01*
X126538113Y-148470168D01*
X126524738Y-148441890D01*
X126514200Y-148412438D01*
X126506600Y-148382095D01*
X126502010Y-148351153D01*
X126500475Y-148319910D01*
X126500475Y-147607410D01*
X126502010Y-147576167D01*
X126506600Y-147545225D01*
X126514200Y-147514882D01*
X126524738Y-147485430D01*
X126538113Y-147457152D01*
X126554194Y-147430322D01*
X126572828Y-147405197D01*
X126593835Y-147382020D01*
X126617012Y-147361013D01*
X126642137Y-147342379D01*
X126668967Y-147326298D01*
X126697245Y-147312923D01*
X126726697Y-147302385D01*
X126757040Y-147294785D01*
X126787982Y-147290195D01*
X126819225Y-147288660D01*
X127456725Y-147288660D01*
X127487968Y-147290195D01*
X127487968Y-147290195D01*
G37*
D11*
X127137975Y-147963660D03*
D10*
G36*
X125912968Y-147290195D02*
X125943910Y-147294785D01*
X125974253Y-147302385D01*
X126003705Y-147312923D01*
X126031983Y-147326298D01*
X126058813Y-147342379D01*
X126083938Y-147361013D01*
X126107115Y-147382020D01*
X126128122Y-147405197D01*
X126146756Y-147430322D01*
X126162837Y-147457152D01*
X126176212Y-147485430D01*
X126186750Y-147514882D01*
X126194350Y-147545225D01*
X126198940Y-147576167D01*
X126200475Y-147607410D01*
X126200475Y-148319910D01*
X126198940Y-148351153D01*
X126194350Y-148382095D01*
X126186750Y-148412438D01*
X126176212Y-148441890D01*
X126162837Y-148470168D01*
X126146756Y-148496998D01*
X126128122Y-148522123D01*
X126107115Y-148545300D01*
X126083938Y-148566307D01*
X126058813Y-148584941D01*
X126031983Y-148601022D01*
X126003705Y-148614397D01*
X125974253Y-148624935D01*
X125943910Y-148632535D01*
X125912968Y-148637125D01*
X125881725Y-148638660D01*
X125244225Y-148638660D01*
X125212982Y-148637125D01*
X125182040Y-148632535D01*
X125151697Y-148624935D01*
X125122245Y-148614397D01*
X125093967Y-148601022D01*
X125067137Y-148584941D01*
X125042012Y-148566307D01*
X125018835Y-148545300D01*
X124997828Y-148522123D01*
X124979194Y-148496998D01*
X124963113Y-148470168D01*
X124949738Y-148441890D01*
X124939200Y-148412438D01*
X124931600Y-148382095D01*
X124927010Y-148351153D01*
X124925475Y-148319910D01*
X124925475Y-147607410D01*
X124927010Y-147576167D01*
X124931600Y-147545225D01*
X124939200Y-147514882D01*
X124949738Y-147485430D01*
X124963113Y-147457152D01*
X124979194Y-147430322D01*
X124997828Y-147405197D01*
X125018835Y-147382020D01*
X125042012Y-147361013D01*
X125067137Y-147342379D01*
X125093967Y-147326298D01*
X125122245Y-147312923D01*
X125151697Y-147302385D01*
X125182040Y-147294785D01*
X125212982Y-147290195D01*
X125244225Y-147288660D01*
X125881725Y-147288660D01*
X125912968Y-147290195D01*
X125912968Y-147290195D01*
G37*
D11*
X125562975Y-147963660D03*
G04 #@! TD*
D10*
G04 #@! TO.C,R3*
G36*
X125932968Y-144830195D02*
X125963910Y-144834785D01*
X125994253Y-144842385D01*
X126023705Y-144852923D01*
X126051983Y-144866298D01*
X126078813Y-144882379D01*
X126103938Y-144901013D01*
X126127115Y-144922020D01*
X126148122Y-144945197D01*
X126166756Y-144970322D01*
X126182837Y-144997152D01*
X126196212Y-145025430D01*
X126206750Y-145054882D01*
X126214350Y-145085225D01*
X126218940Y-145116167D01*
X126220475Y-145147410D01*
X126220475Y-145859910D01*
X126218940Y-145891153D01*
X126214350Y-145922095D01*
X126206750Y-145952438D01*
X126196212Y-145981890D01*
X126182837Y-146010168D01*
X126166756Y-146036998D01*
X126148122Y-146062123D01*
X126127115Y-146085300D01*
X126103938Y-146106307D01*
X126078813Y-146124941D01*
X126051983Y-146141022D01*
X126023705Y-146154397D01*
X125994253Y-146164935D01*
X125963910Y-146172535D01*
X125932968Y-146177125D01*
X125901725Y-146178660D01*
X125264225Y-146178660D01*
X125232982Y-146177125D01*
X125202040Y-146172535D01*
X125171697Y-146164935D01*
X125142245Y-146154397D01*
X125113967Y-146141022D01*
X125087137Y-146124941D01*
X125062012Y-146106307D01*
X125038835Y-146085300D01*
X125017828Y-146062123D01*
X124999194Y-146036998D01*
X124983113Y-146010168D01*
X124969738Y-145981890D01*
X124959200Y-145952438D01*
X124951600Y-145922095D01*
X124947010Y-145891153D01*
X124945475Y-145859910D01*
X124945475Y-145147410D01*
X124947010Y-145116167D01*
X124951600Y-145085225D01*
X124959200Y-145054882D01*
X124969738Y-145025430D01*
X124983113Y-144997152D01*
X124999194Y-144970322D01*
X125017828Y-144945197D01*
X125038835Y-144922020D01*
X125062012Y-144901013D01*
X125087137Y-144882379D01*
X125113967Y-144866298D01*
X125142245Y-144852923D01*
X125171697Y-144842385D01*
X125202040Y-144834785D01*
X125232982Y-144830195D01*
X125264225Y-144828660D01*
X125901725Y-144828660D01*
X125932968Y-144830195D01*
X125932968Y-144830195D01*
G37*
D11*
X125582975Y-145503660D03*
D10*
G36*
X127507968Y-144830195D02*
X127538910Y-144834785D01*
X127569253Y-144842385D01*
X127598705Y-144852923D01*
X127626983Y-144866298D01*
X127653813Y-144882379D01*
X127678938Y-144901013D01*
X127702115Y-144922020D01*
X127723122Y-144945197D01*
X127741756Y-144970322D01*
X127757837Y-144997152D01*
X127771212Y-145025430D01*
X127781750Y-145054882D01*
X127789350Y-145085225D01*
X127793940Y-145116167D01*
X127795475Y-145147410D01*
X127795475Y-145859910D01*
X127793940Y-145891153D01*
X127789350Y-145922095D01*
X127781750Y-145952438D01*
X127771212Y-145981890D01*
X127757837Y-146010168D01*
X127741756Y-146036998D01*
X127723122Y-146062123D01*
X127702115Y-146085300D01*
X127678938Y-146106307D01*
X127653813Y-146124941D01*
X127626983Y-146141022D01*
X127598705Y-146154397D01*
X127569253Y-146164935D01*
X127538910Y-146172535D01*
X127507968Y-146177125D01*
X127476725Y-146178660D01*
X126839225Y-146178660D01*
X126807982Y-146177125D01*
X126777040Y-146172535D01*
X126746697Y-146164935D01*
X126717245Y-146154397D01*
X126688967Y-146141022D01*
X126662137Y-146124941D01*
X126637012Y-146106307D01*
X126613835Y-146085300D01*
X126592828Y-146062123D01*
X126574194Y-146036998D01*
X126558113Y-146010168D01*
X126544738Y-145981890D01*
X126534200Y-145952438D01*
X126526600Y-145922095D01*
X126522010Y-145891153D01*
X126520475Y-145859910D01*
X126520475Y-145147410D01*
X126522010Y-145116167D01*
X126526600Y-145085225D01*
X126534200Y-145054882D01*
X126544738Y-145025430D01*
X126558113Y-144997152D01*
X126574194Y-144970322D01*
X126592828Y-144945197D01*
X126613835Y-144922020D01*
X126637012Y-144901013D01*
X126662137Y-144882379D01*
X126688967Y-144866298D01*
X126717245Y-144852923D01*
X126746697Y-144842385D01*
X126777040Y-144834785D01*
X126807982Y-144830195D01*
X126839225Y-144828660D01*
X127476725Y-144828660D01*
X127507968Y-144830195D01*
X127507968Y-144830195D01*
G37*
D11*
X127157975Y-145503660D03*
G04 #@! TD*
D10*
G04 #@! TO.C,R4*
G36*
X127507968Y-142430195D02*
X127538910Y-142434785D01*
X127569253Y-142442385D01*
X127598705Y-142452923D01*
X127626983Y-142466298D01*
X127653813Y-142482379D01*
X127678938Y-142501013D01*
X127702115Y-142522020D01*
X127723122Y-142545197D01*
X127741756Y-142570322D01*
X127757837Y-142597152D01*
X127771212Y-142625430D01*
X127781750Y-142654882D01*
X127789350Y-142685225D01*
X127793940Y-142716167D01*
X127795475Y-142747410D01*
X127795475Y-143459910D01*
X127793940Y-143491153D01*
X127789350Y-143522095D01*
X127781750Y-143552438D01*
X127771212Y-143581890D01*
X127757837Y-143610168D01*
X127741756Y-143636998D01*
X127723122Y-143662123D01*
X127702115Y-143685300D01*
X127678938Y-143706307D01*
X127653813Y-143724941D01*
X127626983Y-143741022D01*
X127598705Y-143754397D01*
X127569253Y-143764935D01*
X127538910Y-143772535D01*
X127507968Y-143777125D01*
X127476725Y-143778660D01*
X126839225Y-143778660D01*
X126807982Y-143777125D01*
X126777040Y-143772535D01*
X126746697Y-143764935D01*
X126717245Y-143754397D01*
X126688967Y-143741022D01*
X126662137Y-143724941D01*
X126637012Y-143706307D01*
X126613835Y-143685300D01*
X126592828Y-143662123D01*
X126574194Y-143636998D01*
X126558113Y-143610168D01*
X126544738Y-143581890D01*
X126534200Y-143552438D01*
X126526600Y-143522095D01*
X126522010Y-143491153D01*
X126520475Y-143459910D01*
X126520475Y-142747410D01*
X126522010Y-142716167D01*
X126526600Y-142685225D01*
X126534200Y-142654882D01*
X126544738Y-142625430D01*
X126558113Y-142597152D01*
X126574194Y-142570322D01*
X126592828Y-142545197D01*
X126613835Y-142522020D01*
X126637012Y-142501013D01*
X126662137Y-142482379D01*
X126688967Y-142466298D01*
X126717245Y-142452923D01*
X126746697Y-142442385D01*
X126777040Y-142434785D01*
X126807982Y-142430195D01*
X126839225Y-142428660D01*
X127476725Y-142428660D01*
X127507968Y-142430195D01*
X127507968Y-142430195D01*
G37*
D11*
X127157975Y-143103660D03*
D10*
G36*
X125932968Y-142430195D02*
X125963910Y-142434785D01*
X125994253Y-142442385D01*
X126023705Y-142452923D01*
X126051983Y-142466298D01*
X126078813Y-142482379D01*
X126103938Y-142501013D01*
X126127115Y-142522020D01*
X126148122Y-142545197D01*
X126166756Y-142570322D01*
X126182837Y-142597152D01*
X126196212Y-142625430D01*
X126206750Y-142654882D01*
X126214350Y-142685225D01*
X126218940Y-142716167D01*
X126220475Y-142747410D01*
X126220475Y-143459910D01*
X126218940Y-143491153D01*
X126214350Y-143522095D01*
X126206750Y-143552438D01*
X126196212Y-143581890D01*
X126182837Y-143610168D01*
X126166756Y-143636998D01*
X126148122Y-143662123D01*
X126127115Y-143685300D01*
X126103938Y-143706307D01*
X126078813Y-143724941D01*
X126051983Y-143741022D01*
X126023705Y-143754397D01*
X125994253Y-143764935D01*
X125963910Y-143772535D01*
X125932968Y-143777125D01*
X125901725Y-143778660D01*
X125264225Y-143778660D01*
X125232982Y-143777125D01*
X125202040Y-143772535D01*
X125171697Y-143764935D01*
X125142245Y-143754397D01*
X125113967Y-143741022D01*
X125087137Y-143724941D01*
X125062012Y-143706307D01*
X125038835Y-143685300D01*
X125017828Y-143662123D01*
X124999194Y-143636998D01*
X124983113Y-143610168D01*
X124969738Y-143581890D01*
X124959200Y-143552438D01*
X124951600Y-143522095D01*
X124947010Y-143491153D01*
X124945475Y-143459910D01*
X124945475Y-142747410D01*
X124947010Y-142716167D01*
X124951600Y-142685225D01*
X124959200Y-142654882D01*
X124969738Y-142625430D01*
X124983113Y-142597152D01*
X124999194Y-142570322D01*
X125017828Y-142545197D01*
X125038835Y-142522020D01*
X125062012Y-142501013D01*
X125087137Y-142482379D01*
X125113967Y-142466298D01*
X125142245Y-142452923D01*
X125171697Y-142442385D01*
X125202040Y-142434785D01*
X125232982Y-142430195D01*
X125264225Y-142428660D01*
X125901725Y-142428660D01*
X125932968Y-142430195D01*
X125932968Y-142430195D01*
G37*
D11*
X125582975Y-143103660D03*
G04 #@! TD*
D10*
G04 #@! TO.C,R5*
G36*
X125932968Y-139730195D02*
X125963910Y-139734785D01*
X125994253Y-139742385D01*
X126023705Y-139752923D01*
X126051983Y-139766298D01*
X126078813Y-139782379D01*
X126103938Y-139801013D01*
X126127115Y-139822020D01*
X126148122Y-139845197D01*
X126166756Y-139870322D01*
X126182837Y-139897152D01*
X126196212Y-139925430D01*
X126206750Y-139954882D01*
X126214350Y-139985225D01*
X126218940Y-140016167D01*
X126220475Y-140047410D01*
X126220475Y-140759910D01*
X126218940Y-140791153D01*
X126214350Y-140822095D01*
X126206750Y-140852438D01*
X126196212Y-140881890D01*
X126182837Y-140910168D01*
X126166756Y-140936998D01*
X126148122Y-140962123D01*
X126127115Y-140985300D01*
X126103938Y-141006307D01*
X126078813Y-141024941D01*
X126051983Y-141041022D01*
X126023705Y-141054397D01*
X125994253Y-141064935D01*
X125963910Y-141072535D01*
X125932968Y-141077125D01*
X125901725Y-141078660D01*
X125264225Y-141078660D01*
X125232982Y-141077125D01*
X125202040Y-141072535D01*
X125171697Y-141064935D01*
X125142245Y-141054397D01*
X125113967Y-141041022D01*
X125087137Y-141024941D01*
X125062012Y-141006307D01*
X125038835Y-140985300D01*
X125017828Y-140962123D01*
X124999194Y-140936998D01*
X124983113Y-140910168D01*
X124969738Y-140881890D01*
X124959200Y-140852438D01*
X124951600Y-140822095D01*
X124947010Y-140791153D01*
X124945475Y-140759910D01*
X124945475Y-140047410D01*
X124947010Y-140016167D01*
X124951600Y-139985225D01*
X124959200Y-139954882D01*
X124969738Y-139925430D01*
X124983113Y-139897152D01*
X124999194Y-139870322D01*
X125017828Y-139845197D01*
X125038835Y-139822020D01*
X125062012Y-139801013D01*
X125087137Y-139782379D01*
X125113967Y-139766298D01*
X125142245Y-139752923D01*
X125171697Y-139742385D01*
X125202040Y-139734785D01*
X125232982Y-139730195D01*
X125264225Y-139728660D01*
X125901725Y-139728660D01*
X125932968Y-139730195D01*
X125932968Y-139730195D01*
G37*
D11*
X125582975Y-140403660D03*
D10*
G36*
X127507968Y-139730195D02*
X127538910Y-139734785D01*
X127569253Y-139742385D01*
X127598705Y-139752923D01*
X127626983Y-139766298D01*
X127653813Y-139782379D01*
X127678938Y-139801013D01*
X127702115Y-139822020D01*
X127723122Y-139845197D01*
X127741756Y-139870322D01*
X127757837Y-139897152D01*
X127771212Y-139925430D01*
X127781750Y-139954882D01*
X127789350Y-139985225D01*
X127793940Y-140016167D01*
X127795475Y-140047410D01*
X127795475Y-140759910D01*
X127793940Y-140791153D01*
X127789350Y-140822095D01*
X127781750Y-140852438D01*
X127771212Y-140881890D01*
X127757837Y-140910168D01*
X127741756Y-140936998D01*
X127723122Y-140962123D01*
X127702115Y-140985300D01*
X127678938Y-141006307D01*
X127653813Y-141024941D01*
X127626983Y-141041022D01*
X127598705Y-141054397D01*
X127569253Y-141064935D01*
X127538910Y-141072535D01*
X127507968Y-141077125D01*
X127476725Y-141078660D01*
X126839225Y-141078660D01*
X126807982Y-141077125D01*
X126777040Y-141072535D01*
X126746697Y-141064935D01*
X126717245Y-141054397D01*
X126688967Y-141041022D01*
X126662137Y-141024941D01*
X126637012Y-141006307D01*
X126613835Y-140985300D01*
X126592828Y-140962123D01*
X126574194Y-140936998D01*
X126558113Y-140910168D01*
X126544738Y-140881890D01*
X126534200Y-140852438D01*
X126526600Y-140822095D01*
X126522010Y-140791153D01*
X126520475Y-140759910D01*
X126520475Y-140047410D01*
X126522010Y-140016167D01*
X126526600Y-139985225D01*
X126534200Y-139954882D01*
X126544738Y-139925430D01*
X126558113Y-139897152D01*
X126574194Y-139870322D01*
X126592828Y-139845197D01*
X126613835Y-139822020D01*
X126637012Y-139801013D01*
X126662137Y-139782379D01*
X126688967Y-139766298D01*
X126717245Y-139752923D01*
X126746697Y-139742385D01*
X126777040Y-139734785D01*
X126807982Y-139730195D01*
X126839225Y-139728660D01*
X127476725Y-139728660D01*
X127507968Y-139730195D01*
X127507968Y-139730195D01*
G37*
D11*
X127157975Y-140403660D03*
G04 #@! TD*
D10*
G04 #@! TO.C,R7*
G36*
X159137853Y-141886508D02*
X159168795Y-141891098D01*
X159199138Y-141898698D01*
X159228590Y-141909236D01*
X159256868Y-141922611D01*
X159283698Y-141938692D01*
X159308823Y-141957326D01*
X159332000Y-141978333D01*
X159353007Y-142001510D01*
X159371641Y-142026635D01*
X159387722Y-142053465D01*
X159401097Y-142081743D01*
X159411635Y-142111195D01*
X159419235Y-142141538D01*
X159423825Y-142172480D01*
X159425360Y-142203723D01*
X159425360Y-142916223D01*
X159423825Y-142947466D01*
X159419235Y-142978408D01*
X159411635Y-143008751D01*
X159401097Y-143038203D01*
X159387722Y-143066481D01*
X159371641Y-143093311D01*
X159353007Y-143118436D01*
X159332000Y-143141613D01*
X159308823Y-143162620D01*
X159283698Y-143181254D01*
X159256868Y-143197335D01*
X159228590Y-143210710D01*
X159199138Y-143221248D01*
X159168795Y-143228848D01*
X159137853Y-143233438D01*
X159106610Y-143234973D01*
X158469110Y-143234973D01*
X158437867Y-143233438D01*
X158406925Y-143228848D01*
X158376582Y-143221248D01*
X158347130Y-143210710D01*
X158318852Y-143197335D01*
X158292022Y-143181254D01*
X158266897Y-143162620D01*
X158243720Y-143141613D01*
X158222713Y-143118436D01*
X158204079Y-143093311D01*
X158187998Y-143066481D01*
X158174623Y-143038203D01*
X158164085Y-143008751D01*
X158156485Y-142978408D01*
X158151895Y-142947466D01*
X158150360Y-142916223D01*
X158150360Y-142203723D01*
X158151895Y-142172480D01*
X158156485Y-142141538D01*
X158164085Y-142111195D01*
X158174623Y-142081743D01*
X158187998Y-142053465D01*
X158204079Y-142026635D01*
X158222713Y-142001510D01*
X158243720Y-141978333D01*
X158266897Y-141957326D01*
X158292022Y-141938692D01*
X158318852Y-141922611D01*
X158347130Y-141909236D01*
X158376582Y-141898698D01*
X158406925Y-141891098D01*
X158437867Y-141886508D01*
X158469110Y-141884973D01*
X159106610Y-141884973D01*
X159137853Y-141886508D01*
X159137853Y-141886508D01*
G37*
D11*
X158787860Y-142559973D03*
D10*
G36*
X160712853Y-141886508D02*
X160743795Y-141891098D01*
X160774138Y-141898698D01*
X160803590Y-141909236D01*
X160831868Y-141922611D01*
X160858698Y-141938692D01*
X160883823Y-141957326D01*
X160907000Y-141978333D01*
X160928007Y-142001510D01*
X160946641Y-142026635D01*
X160962722Y-142053465D01*
X160976097Y-142081743D01*
X160986635Y-142111195D01*
X160994235Y-142141538D01*
X160998825Y-142172480D01*
X161000360Y-142203723D01*
X161000360Y-142916223D01*
X160998825Y-142947466D01*
X160994235Y-142978408D01*
X160986635Y-143008751D01*
X160976097Y-143038203D01*
X160962722Y-143066481D01*
X160946641Y-143093311D01*
X160928007Y-143118436D01*
X160907000Y-143141613D01*
X160883823Y-143162620D01*
X160858698Y-143181254D01*
X160831868Y-143197335D01*
X160803590Y-143210710D01*
X160774138Y-143221248D01*
X160743795Y-143228848D01*
X160712853Y-143233438D01*
X160681610Y-143234973D01*
X160044110Y-143234973D01*
X160012867Y-143233438D01*
X159981925Y-143228848D01*
X159951582Y-143221248D01*
X159922130Y-143210710D01*
X159893852Y-143197335D01*
X159867022Y-143181254D01*
X159841897Y-143162620D01*
X159818720Y-143141613D01*
X159797713Y-143118436D01*
X159779079Y-143093311D01*
X159762998Y-143066481D01*
X159749623Y-143038203D01*
X159739085Y-143008751D01*
X159731485Y-142978408D01*
X159726895Y-142947466D01*
X159725360Y-142916223D01*
X159725360Y-142203723D01*
X159726895Y-142172480D01*
X159731485Y-142141538D01*
X159739085Y-142111195D01*
X159749623Y-142081743D01*
X159762998Y-142053465D01*
X159779079Y-142026635D01*
X159797713Y-142001510D01*
X159818720Y-141978333D01*
X159841897Y-141957326D01*
X159867022Y-141938692D01*
X159893852Y-141922611D01*
X159922130Y-141909236D01*
X159951582Y-141898698D01*
X159981925Y-141891098D01*
X160012867Y-141886508D01*
X160044110Y-141884973D01*
X160681610Y-141884973D01*
X160712853Y-141886508D01*
X160712853Y-141886508D01*
G37*
D11*
X160362860Y-142559973D03*
G04 #@! TD*
D10*
G04 #@! TO.C,R8*
G36*
X159137853Y-143664508D02*
X159168795Y-143669098D01*
X159199138Y-143676698D01*
X159228590Y-143687236D01*
X159256868Y-143700611D01*
X159283698Y-143716692D01*
X159308823Y-143735326D01*
X159332000Y-143756333D01*
X159353007Y-143779510D01*
X159371641Y-143804635D01*
X159387722Y-143831465D01*
X159401097Y-143859743D01*
X159411635Y-143889195D01*
X159419235Y-143919538D01*
X159423825Y-143950480D01*
X159425360Y-143981723D01*
X159425360Y-144694223D01*
X159423825Y-144725466D01*
X159419235Y-144756408D01*
X159411635Y-144786751D01*
X159401097Y-144816203D01*
X159387722Y-144844481D01*
X159371641Y-144871311D01*
X159353007Y-144896436D01*
X159332000Y-144919613D01*
X159308823Y-144940620D01*
X159283698Y-144959254D01*
X159256868Y-144975335D01*
X159228590Y-144988710D01*
X159199138Y-144999248D01*
X159168795Y-145006848D01*
X159137853Y-145011438D01*
X159106610Y-145012973D01*
X158469110Y-145012973D01*
X158437867Y-145011438D01*
X158406925Y-145006848D01*
X158376582Y-144999248D01*
X158347130Y-144988710D01*
X158318852Y-144975335D01*
X158292022Y-144959254D01*
X158266897Y-144940620D01*
X158243720Y-144919613D01*
X158222713Y-144896436D01*
X158204079Y-144871311D01*
X158187998Y-144844481D01*
X158174623Y-144816203D01*
X158164085Y-144786751D01*
X158156485Y-144756408D01*
X158151895Y-144725466D01*
X158150360Y-144694223D01*
X158150360Y-143981723D01*
X158151895Y-143950480D01*
X158156485Y-143919538D01*
X158164085Y-143889195D01*
X158174623Y-143859743D01*
X158187998Y-143831465D01*
X158204079Y-143804635D01*
X158222713Y-143779510D01*
X158243720Y-143756333D01*
X158266897Y-143735326D01*
X158292022Y-143716692D01*
X158318852Y-143700611D01*
X158347130Y-143687236D01*
X158376582Y-143676698D01*
X158406925Y-143669098D01*
X158437867Y-143664508D01*
X158469110Y-143662973D01*
X159106610Y-143662973D01*
X159137853Y-143664508D01*
X159137853Y-143664508D01*
G37*
D11*
X158787860Y-144337973D03*
D10*
G36*
X160712853Y-143664508D02*
X160743795Y-143669098D01*
X160774138Y-143676698D01*
X160803590Y-143687236D01*
X160831868Y-143700611D01*
X160858698Y-143716692D01*
X160883823Y-143735326D01*
X160907000Y-143756333D01*
X160928007Y-143779510D01*
X160946641Y-143804635D01*
X160962722Y-143831465D01*
X160976097Y-143859743D01*
X160986635Y-143889195D01*
X160994235Y-143919538D01*
X160998825Y-143950480D01*
X161000360Y-143981723D01*
X161000360Y-144694223D01*
X160998825Y-144725466D01*
X160994235Y-144756408D01*
X160986635Y-144786751D01*
X160976097Y-144816203D01*
X160962722Y-144844481D01*
X160946641Y-144871311D01*
X160928007Y-144896436D01*
X160907000Y-144919613D01*
X160883823Y-144940620D01*
X160858698Y-144959254D01*
X160831868Y-144975335D01*
X160803590Y-144988710D01*
X160774138Y-144999248D01*
X160743795Y-145006848D01*
X160712853Y-145011438D01*
X160681610Y-145012973D01*
X160044110Y-145012973D01*
X160012867Y-145011438D01*
X159981925Y-145006848D01*
X159951582Y-144999248D01*
X159922130Y-144988710D01*
X159893852Y-144975335D01*
X159867022Y-144959254D01*
X159841897Y-144940620D01*
X159818720Y-144919613D01*
X159797713Y-144896436D01*
X159779079Y-144871311D01*
X159762998Y-144844481D01*
X159749623Y-144816203D01*
X159739085Y-144786751D01*
X159731485Y-144756408D01*
X159726895Y-144725466D01*
X159725360Y-144694223D01*
X159725360Y-143981723D01*
X159726895Y-143950480D01*
X159731485Y-143919538D01*
X159739085Y-143889195D01*
X159749623Y-143859743D01*
X159762998Y-143831465D01*
X159779079Y-143804635D01*
X159797713Y-143779510D01*
X159818720Y-143756333D01*
X159841897Y-143735326D01*
X159867022Y-143716692D01*
X159893852Y-143700611D01*
X159922130Y-143687236D01*
X159951582Y-143676698D01*
X159981925Y-143669098D01*
X160012867Y-143664508D01*
X160044110Y-143662973D01*
X160681610Y-143662973D01*
X160712853Y-143664508D01*
X160712853Y-143664508D01*
G37*
D11*
X160362860Y-144337973D03*
G04 #@! TD*
D10*
G04 #@! TO.C,D4*
G36*
X123987968Y-139730195D02*
X124018910Y-139734785D01*
X124049253Y-139742385D01*
X124078705Y-139752923D01*
X124106983Y-139766298D01*
X124133813Y-139782379D01*
X124158938Y-139801013D01*
X124182115Y-139822020D01*
X124203122Y-139845197D01*
X124221756Y-139870322D01*
X124237837Y-139897152D01*
X124251212Y-139925430D01*
X124261750Y-139954882D01*
X124269350Y-139985225D01*
X124273940Y-140016167D01*
X124275475Y-140047410D01*
X124275475Y-140759910D01*
X124273940Y-140791153D01*
X124269350Y-140822095D01*
X124261750Y-140852438D01*
X124251212Y-140881890D01*
X124237837Y-140910168D01*
X124221756Y-140936998D01*
X124203122Y-140962123D01*
X124182115Y-140985300D01*
X124158938Y-141006307D01*
X124133813Y-141024941D01*
X124106983Y-141041022D01*
X124078705Y-141054397D01*
X124049253Y-141064935D01*
X124018910Y-141072535D01*
X123987968Y-141077125D01*
X123956725Y-141078660D01*
X123319225Y-141078660D01*
X123287982Y-141077125D01*
X123257040Y-141072535D01*
X123226697Y-141064935D01*
X123197245Y-141054397D01*
X123168967Y-141041022D01*
X123142137Y-141024941D01*
X123117012Y-141006307D01*
X123093835Y-140985300D01*
X123072828Y-140962123D01*
X123054194Y-140936998D01*
X123038113Y-140910168D01*
X123024738Y-140881890D01*
X123014200Y-140852438D01*
X123006600Y-140822095D01*
X123002010Y-140791153D01*
X123000475Y-140759910D01*
X123000475Y-140047410D01*
X123002010Y-140016167D01*
X123006600Y-139985225D01*
X123014200Y-139954882D01*
X123024738Y-139925430D01*
X123038113Y-139897152D01*
X123054194Y-139870322D01*
X123072828Y-139845197D01*
X123093835Y-139822020D01*
X123117012Y-139801013D01*
X123142137Y-139782379D01*
X123168967Y-139766298D01*
X123197245Y-139752923D01*
X123226697Y-139742385D01*
X123257040Y-139734785D01*
X123287982Y-139730195D01*
X123319225Y-139728660D01*
X123956725Y-139728660D01*
X123987968Y-139730195D01*
X123987968Y-139730195D01*
G37*
D11*
X123637975Y-140403660D03*
D10*
G36*
X122412968Y-139730195D02*
X122443910Y-139734785D01*
X122474253Y-139742385D01*
X122503705Y-139752923D01*
X122531983Y-139766298D01*
X122558813Y-139782379D01*
X122583938Y-139801013D01*
X122607115Y-139822020D01*
X122628122Y-139845197D01*
X122646756Y-139870322D01*
X122662837Y-139897152D01*
X122676212Y-139925430D01*
X122686750Y-139954882D01*
X122694350Y-139985225D01*
X122698940Y-140016167D01*
X122700475Y-140047410D01*
X122700475Y-140759910D01*
X122698940Y-140791153D01*
X122694350Y-140822095D01*
X122686750Y-140852438D01*
X122676212Y-140881890D01*
X122662837Y-140910168D01*
X122646756Y-140936998D01*
X122628122Y-140962123D01*
X122607115Y-140985300D01*
X122583938Y-141006307D01*
X122558813Y-141024941D01*
X122531983Y-141041022D01*
X122503705Y-141054397D01*
X122474253Y-141064935D01*
X122443910Y-141072535D01*
X122412968Y-141077125D01*
X122381725Y-141078660D01*
X121744225Y-141078660D01*
X121712982Y-141077125D01*
X121682040Y-141072535D01*
X121651697Y-141064935D01*
X121622245Y-141054397D01*
X121593967Y-141041022D01*
X121567137Y-141024941D01*
X121542012Y-141006307D01*
X121518835Y-140985300D01*
X121497828Y-140962123D01*
X121479194Y-140936998D01*
X121463113Y-140910168D01*
X121449738Y-140881890D01*
X121439200Y-140852438D01*
X121431600Y-140822095D01*
X121427010Y-140791153D01*
X121425475Y-140759910D01*
X121425475Y-140047410D01*
X121427010Y-140016167D01*
X121431600Y-139985225D01*
X121439200Y-139954882D01*
X121449738Y-139925430D01*
X121463113Y-139897152D01*
X121479194Y-139870322D01*
X121497828Y-139845197D01*
X121518835Y-139822020D01*
X121542012Y-139801013D01*
X121567137Y-139782379D01*
X121593967Y-139766298D01*
X121622245Y-139752923D01*
X121651697Y-139742385D01*
X121682040Y-139734785D01*
X121712982Y-139730195D01*
X121744225Y-139728660D01*
X122381725Y-139728660D01*
X122412968Y-139730195D01*
X122412968Y-139730195D01*
G37*
D11*
X122062975Y-140403660D03*
G04 #@! TD*
D10*
G04 #@! TO.C,D3*
G36*
X122422968Y-142360195D02*
X122453910Y-142364785D01*
X122484253Y-142372385D01*
X122513705Y-142382923D01*
X122541983Y-142396298D01*
X122568813Y-142412379D01*
X122593938Y-142431013D01*
X122617115Y-142452020D01*
X122638122Y-142475197D01*
X122656756Y-142500322D01*
X122672837Y-142527152D01*
X122686212Y-142555430D01*
X122696750Y-142584882D01*
X122704350Y-142615225D01*
X122708940Y-142646167D01*
X122710475Y-142677410D01*
X122710475Y-143389910D01*
X122708940Y-143421153D01*
X122704350Y-143452095D01*
X122696750Y-143482438D01*
X122686212Y-143511890D01*
X122672837Y-143540168D01*
X122656756Y-143566998D01*
X122638122Y-143592123D01*
X122617115Y-143615300D01*
X122593938Y-143636307D01*
X122568813Y-143654941D01*
X122541983Y-143671022D01*
X122513705Y-143684397D01*
X122484253Y-143694935D01*
X122453910Y-143702535D01*
X122422968Y-143707125D01*
X122391725Y-143708660D01*
X121754225Y-143708660D01*
X121722982Y-143707125D01*
X121692040Y-143702535D01*
X121661697Y-143694935D01*
X121632245Y-143684397D01*
X121603967Y-143671022D01*
X121577137Y-143654941D01*
X121552012Y-143636307D01*
X121528835Y-143615300D01*
X121507828Y-143592123D01*
X121489194Y-143566998D01*
X121473113Y-143540168D01*
X121459738Y-143511890D01*
X121449200Y-143482438D01*
X121441600Y-143452095D01*
X121437010Y-143421153D01*
X121435475Y-143389910D01*
X121435475Y-142677410D01*
X121437010Y-142646167D01*
X121441600Y-142615225D01*
X121449200Y-142584882D01*
X121459738Y-142555430D01*
X121473113Y-142527152D01*
X121489194Y-142500322D01*
X121507828Y-142475197D01*
X121528835Y-142452020D01*
X121552012Y-142431013D01*
X121577137Y-142412379D01*
X121603967Y-142396298D01*
X121632245Y-142382923D01*
X121661697Y-142372385D01*
X121692040Y-142364785D01*
X121722982Y-142360195D01*
X121754225Y-142358660D01*
X122391725Y-142358660D01*
X122422968Y-142360195D01*
X122422968Y-142360195D01*
G37*
D11*
X122072975Y-143033660D03*
D10*
G36*
X123997968Y-142360195D02*
X124028910Y-142364785D01*
X124059253Y-142372385D01*
X124088705Y-142382923D01*
X124116983Y-142396298D01*
X124143813Y-142412379D01*
X124168938Y-142431013D01*
X124192115Y-142452020D01*
X124213122Y-142475197D01*
X124231756Y-142500322D01*
X124247837Y-142527152D01*
X124261212Y-142555430D01*
X124271750Y-142584882D01*
X124279350Y-142615225D01*
X124283940Y-142646167D01*
X124285475Y-142677410D01*
X124285475Y-143389910D01*
X124283940Y-143421153D01*
X124279350Y-143452095D01*
X124271750Y-143482438D01*
X124261212Y-143511890D01*
X124247837Y-143540168D01*
X124231756Y-143566998D01*
X124213122Y-143592123D01*
X124192115Y-143615300D01*
X124168938Y-143636307D01*
X124143813Y-143654941D01*
X124116983Y-143671022D01*
X124088705Y-143684397D01*
X124059253Y-143694935D01*
X124028910Y-143702535D01*
X123997968Y-143707125D01*
X123966725Y-143708660D01*
X123329225Y-143708660D01*
X123297982Y-143707125D01*
X123267040Y-143702535D01*
X123236697Y-143694935D01*
X123207245Y-143684397D01*
X123178967Y-143671022D01*
X123152137Y-143654941D01*
X123127012Y-143636307D01*
X123103835Y-143615300D01*
X123082828Y-143592123D01*
X123064194Y-143566998D01*
X123048113Y-143540168D01*
X123034738Y-143511890D01*
X123024200Y-143482438D01*
X123016600Y-143452095D01*
X123012010Y-143421153D01*
X123010475Y-143389910D01*
X123010475Y-142677410D01*
X123012010Y-142646167D01*
X123016600Y-142615225D01*
X123024200Y-142584882D01*
X123034738Y-142555430D01*
X123048113Y-142527152D01*
X123064194Y-142500322D01*
X123082828Y-142475197D01*
X123103835Y-142452020D01*
X123127012Y-142431013D01*
X123152137Y-142412379D01*
X123178967Y-142396298D01*
X123207245Y-142382923D01*
X123236697Y-142372385D01*
X123267040Y-142364785D01*
X123297982Y-142360195D01*
X123329225Y-142358660D01*
X123966725Y-142358660D01*
X123997968Y-142360195D01*
X123997968Y-142360195D01*
G37*
D11*
X123647975Y-143033660D03*
G04 #@! TD*
D10*
G04 #@! TO.C,D2*
G36*
X123947968Y-144800195D02*
X123978910Y-144804785D01*
X124009253Y-144812385D01*
X124038705Y-144822923D01*
X124066983Y-144836298D01*
X124093813Y-144852379D01*
X124118938Y-144871013D01*
X124142115Y-144892020D01*
X124163122Y-144915197D01*
X124181756Y-144940322D01*
X124197837Y-144967152D01*
X124211212Y-144995430D01*
X124221750Y-145024882D01*
X124229350Y-145055225D01*
X124233940Y-145086167D01*
X124235475Y-145117410D01*
X124235475Y-145829910D01*
X124233940Y-145861153D01*
X124229350Y-145892095D01*
X124221750Y-145922438D01*
X124211212Y-145951890D01*
X124197837Y-145980168D01*
X124181756Y-146006998D01*
X124163122Y-146032123D01*
X124142115Y-146055300D01*
X124118938Y-146076307D01*
X124093813Y-146094941D01*
X124066983Y-146111022D01*
X124038705Y-146124397D01*
X124009253Y-146134935D01*
X123978910Y-146142535D01*
X123947968Y-146147125D01*
X123916725Y-146148660D01*
X123279225Y-146148660D01*
X123247982Y-146147125D01*
X123217040Y-146142535D01*
X123186697Y-146134935D01*
X123157245Y-146124397D01*
X123128967Y-146111022D01*
X123102137Y-146094941D01*
X123077012Y-146076307D01*
X123053835Y-146055300D01*
X123032828Y-146032123D01*
X123014194Y-146006998D01*
X122998113Y-145980168D01*
X122984738Y-145951890D01*
X122974200Y-145922438D01*
X122966600Y-145892095D01*
X122962010Y-145861153D01*
X122960475Y-145829910D01*
X122960475Y-145117410D01*
X122962010Y-145086167D01*
X122966600Y-145055225D01*
X122974200Y-145024882D01*
X122984738Y-144995430D01*
X122998113Y-144967152D01*
X123014194Y-144940322D01*
X123032828Y-144915197D01*
X123053835Y-144892020D01*
X123077012Y-144871013D01*
X123102137Y-144852379D01*
X123128967Y-144836298D01*
X123157245Y-144822923D01*
X123186697Y-144812385D01*
X123217040Y-144804785D01*
X123247982Y-144800195D01*
X123279225Y-144798660D01*
X123916725Y-144798660D01*
X123947968Y-144800195D01*
X123947968Y-144800195D01*
G37*
D11*
X123597975Y-145473660D03*
D10*
G36*
X122372968Y-144800195D02*
X122403910Y-144804785D01*
X122434253Y-144812385D01*
X122463705Y-144822923D01*
X122491983Y-144836298D01*
X122518813Y-144852379D01*
X122543938Y-144871013D01*
X122567115Y-144892020D01*
X122588122Y-144915197D01*
X122606756Y-144940322D01*
X122622837Y-144967152D01*
X122636212Y-144995430D01*
X122646750Y-145024882D01*
X122654350Y-145055225D01*
X122658940Y-145086167D01*
X122660475Y-145117410D01*
X122660475Y-145829910D01*
X122658940Y-145861153D01*
X122654350Y-145892095D01*
X122646750Y-145922438D01*
X122636212Y-145951890D01*
X122622837Y-145980168D01*
X122606756Y-146006998D01*
X122588122Y-146032123D01*
X122567115Y-146055300D01*
X122543938Y-146076307D01*
X122518813Y-146094941D01*
X122491983Y-146111022D01*
X122463705Y-146124397D01*
X122434253Y-146134935D01*
X122403910Y-146142535D01*
X122372968Y-146147125D01*
X122341725Y-146148660D01*
X121704225Y-146148660D01*
X121672982Y-146147125D01*
X121642040Y-146142535D01*
X121611697Y-146134935D01*
X121582245Y-146124397D01*
X121553967Y-146111022D01*
X121527137Y-146094941D01*
X121502012Y-146076307D01*
X121478835Y-146055300D01*
X121457828Y-146032123D01*
X121439194Y-146006998D01*
X121423113Y-145980168D01*
X121409738Y-145951890D01*
X121399200Y-145922438D01*
X121391600Y-145892095D01*
X121387010Y-145861153D01*
X121385475Y-145829910D01*
X121385475Y-145117410D01*
X121387010Y-145086167D01*
X121391600Y-145055225D01*
X121399200Y-145024882D01*
X121409738Y-144995430D01*
X121423113Y-144967152D01*
X121439194Y-144940322D01*
X121457828Y-144915197D01*
X121478835Y-144892020D01*
X121502012Y-144871013D01*
X121527137Y-144852379D01*
X121553967Y-144836298D01*
X121582245Y-144822923D01*
X121611697Y-144812385D01*
X121642040Y-144804785D01*
X121672982Y-144800195D01*
X121704225Y-144798660D01*
X122341725Y-144798660D01*
X122372968Y-144800195D01*
X122372968Y-144800195D01*
G37*
D11*
X122022975Y-145473660D03*
G04 #@! TD*
D10*
G04 #@! TO.C,D1*
G36*
X122372968Y-147330195D02*
X122403910Y-147334785D01*
X122434253Y-147342385D01*
X122463705Y-147352923D01*
X122491983Y-147366298D01*
X122518813Y-147382379D01*
X122543938Y-147401013D01*
X122567115Y-147422020D01*
X122588122Y-147445197D01*
X122606756Y-147470322D01*
X122622837Y-147497152D01*
X122636212Y-147525430D01*
X122646750Y-147554882D01*
X122654350Y-147585225D01*
X122658940Y-147616167D01*
X122660475Y-147647410D01*
X122660475Y-148359910D01*
X122658940Y-148391153D01*
X122654350Y-148422095D01*
X122646750Y-148452438D01*
X122636212Y-148481890D01*
X122622837Y-148510168D01*
X122606756Y-148536998D01*
X122588122Y-148562123D01*
X122567115Y-148585300D01*
X122543938Y-148606307D01*
X122518813Y-148624941D01*
X122491983Y-148641022D01*
X122463705Y-148654397D01*
X122434253Y-148664935D01*
X122403910Y-148672535D01*
X122372968Y-148677125D01*
X122341725Y-148678660D01*
X121704225Y-148678660D01*
X121672982Y-148677125D01*
X121642040Y-148672535D01*
X121611697Y-148664935D01*
X121582245Y-148654397D01*
X121553967Y-148641022D01*
X121527137Y-148624941D01*
X121502012Y-148606307D01*
X121478835Y-148585300D01*
X121457828Y-148562123D01*
X121439194Y-148536998D01*
X121423113Y-148510168D01*
X121409738Y-148481890D01*
X121399200Y-148452438D01*
X121391600Y-148422095D01*
X121387010Y-148391153D01*
X121385475Y-148359910D01*
X121385475Y-147647410D01*
X121387010Y-147616167D01*
X121391600Y-147585225D01*
X121399200Y-147554882D01*
X121409738Y-147525430D01*
X121423113Y-147497152D01*
X121439194Y-147470322D01*
X121457828Y-147445197D01*
X121478835Y-147422020D01*
X121502012Y-147401013D01*
X121527137Y-147382379D01*
X121553967Y-147366298D01*
X121582245Y-147352923D01*
X121611697Y-147342385D01*
X121642040Y-147334785D01*
X121672982Y-147330195D01*
X121704225Y-147328660D01*
X122341725Y-147328660D01*
X122372968Y-147330195D01*
X122372968Y-147330195D01*
G37*
D11*
X122022975Y-148003660D03*
D10*
G36*
X123947968Y-147330195D02*
X123978910Y-147334785D01*
X124009253Y-147342385D01*
X124038705Y-147352923D01*
X124066983Y-147366298D01*
X124093813Y-147382379D01*
X124118938Y-147401013D01*
X124142115Y-147422020D01*
X124163122Y-147445197D01*
X124181756Y-147470322D01*
X124197837Y-147497152D01*
X124211212Y-147525430D01*
X124221750Y-147554882D01*
X124229350Y-147585225D01*
X124233940Y-147616167D01*
X124235475Y-147647410D01*
X124235475Y-148359910D01*
X124233940Y-148391153D01*
X124229350Y-148422095D01*
X124221750Y-148452438D01*
X124211212Y-148481890D01*
X124197837Y-148510168D01*
X124181756Y-148536998D01*
X124163122Y-148562123D01*
X124142115Y-148585300D01*
X124118938Y-148606307D01*
X124093813Y-148624941D01*
X124066983Y-148641022D01*
X124038705Y-148654397D01*
X124009253Y-148664935D01*
X123978910Y-148672535D01*
X123947968Y-148677125D01*
X123916725Y-148678660D01*
X123279225Y-148678660D01*
X123247982Y-148677125D01*
X123217040Y-148672535D01*
X123186697Y-148664935D01*
X123157245Y-148654397D01*
X123128967Y-148641022D01*
X123102137Y-148624941D01*
X123077012Y-148606307D01*
X123053835Y-148585300D01*
X123032828Y-148562123D01*
X123014194Y-148536998D01*
X122998113Y-148510168D01*
X122984738Y-148481890D01*
X122974200Y-148452438D01*
X122966600Y-148422095D01*
X122962010Y-148391153D01*
X122960475Y-148359910D01*
X122960475Y-147647410D01*
X122962010Y-147616167D01*
X122966600Y-147585225D01*
X122974200Y-147554882D01*
X122984738Y-147525430D01*
X122998113Y-147497152D01*
X123014194Y-147470322D01*
X123032828Y-147445197D01*
X123053835Y-147422020D01*
X123077012Y-147401013D01*
X123102137Y-147382379D01*
X123128967Y-147366298D01*
X123157245Y-147352923D01*
X123186697Y-147342385D01*
X123217040Y-147334785D01*
X123247982Y-147330195D01*
X123279225Y-147328660D01*
X123916725Y-147328660D01*
X123947968Y-147330195D01*
X123947968Y-147330195D01*
G37*
D11*
X123597975Y-148003660D03*
G04 #@! TD*
D10*
G04 #@! TO.C,D5*
G36*
X123987493Y-137106535D02*
X124018435Y-137111125D01*
X124048778Y-137118725D01*
X124078230Y-137129263D01*
X124106508Y-137142638D01*
X124133338Y-137158719D01*
X124158463Y-137177353D01*
X124181640Y-137198360D01*
X124202647Y-137221537D01*
X124221281Y-137246662D01*
X124237362Y-137273492D01*
X124250737Y-137301770D01*
X124261275Y-137331222D01*
X124268875Y-137361565D01*
X124273465Y-137392507D01*
X124275000Y-137423750D01*
X124275000Y-138136250D01*
X124273465Y-138167493D01*
X124268875Y-138198435D01*
X124261275Y-138228778D01*
X124250737Y-138258230D01*
X124237362Y-138286508D01*
X124221281Y-138313338D01*
X124202647Y-138338463D01*
X124181640Y-138361640D01*
X124158463Y-138382647D01*
X124133338Y-138401281D01*
X124106508Y-138417362D01*
X124078230Y-138430737D01*
X124048778Y-138441275D01*
X124018435Y-138448875D01*
X123987493Y-138453465D01*
X123956250Y-138455000D01*
X123318750Y-138455000D01*
X123287507Y-138453465D01*
X123256565Y-138448875D01*
X123226222Y-138441275D01*
X123196770Y-138430737D01*
X123168492Y-138417362D01*
X123141662Y-138401281D01*
X123116537Y-138382647D01*
X123093360Y-138361640D01*
X123072353Y-138338463D01*
X123053719Y-138313338D01*
X123037638Y-138286508D01*
X123024263Y-138258230D01*
X123013725Y-138228778D01*
X123006125Y-138198435D01*
X123001535Y-138167493D01*
X123000000Y-138136250D01*
X123000000Y-137423750D01*
X123001535Y-137392507D01*
X123006125Y-137361565D01*
X123013725Y-137331222D01*
X123024263Y-137301770D01*
X123037638Y-137273492D01*
X123053719Y-137246662D01*
X123072353Y-137221537D01*
X123093360Y-137198360D01*
X123116537Y-137177353D01*
X123141662Y-137158719D01*
X123168492Y-137142638D01*
X123196770Y-137129263D01*
X123226222Y-137118725D01*
X123256565Y-137111125D01*
X123287507Y-137106535D01*
X123318750Y-137105000D01*
X123956250Y-137105000D01*
X123987493Y-137106535D01*
X123987493Y-137106535D01*
G37*
D11*
X123637500Y-137780000D03*
D10*
G36*
X122412493Y-137106535D02*
X122443435Y-137111125D01*
X122473778Y-137118725D01*
X122503230Y-137129263D01*
X122531508Y-137142638D01*
X122558338Y-137158719D01*
X122583463Y-137177353D01*
X122606640Y-137198360D01*
X122627647Y-137221537D01*
X122646281Y-137246662D01*
X122662362Y-137273492D01*
X122675737Y-137301770D01*
X122686275Y-137331222D01*
X122693875Y-137361565D01*
X122698465Y-137392507D01*
X122700000Y-137423750D01*
X122700000Y-138136250D01*
X122698465Y-138167493D01*
X122693875Y-138198435D01*
X122686275Y-138228778D01*
X122675737Y-138258230D01*
X122662362Y-138286508D01*
X122646281Y-138313338D01*
X122627647Y-138338463D01*
X122606640Y-138361640D01*
X122583463Y-138382647D01*
X122558338Y-138401281D01*
X122531508Y-138417362D01*
X122503230Y-138430737D01*
X122473778Y-138441275D01*
X122443435Y-138448875D01*
X122412493Y-138453465D01*
X122381250Y-138455000D01*
X121743750Y-138455000D01*
X121712507Y-138453465D01*
X121681565Y-138448875D01*
X121651222Y-138441275D01*
X121621770Y-138430737D01*
X121593492Y-138417362D01*
X121566662Y-138401281D01*
X121541537Y-138382647D01*
X121518360Y-138361640D01*
X121497353Y-138338463D01*
X121478719Y-138313338D01*
X121462638Y-138286508D01*
X121449263Y-138258230D01*
X121438725Y-138228778D01*
X121431125Y-138198435D01*
X121426535Y-138167493D01*
X121425000Y-138136250D01*
X121425000Y-137423750D01*
X121426535Y-137392507D01*
X121431125Y-137361565D01*
X121438725Y-137331222D01*
X121449263Y-137301770D01*
X121462638Y-137273492D01*
X121478719Y-137246662D01*
X121497353Y-137221537D01*
X121518360Y-137198360D01*
X121541537Y-137177353D01*
X121566662Y-137158719D01*
X121593492Y-137142638D01*
X121621770Y-137129263D01*
X121651222Y-137118725D01*
X121681565Y-137111125D01*
X121712507Y-137106535D01*
X121743750Y-137105000D01*
X122381250Y-137105000D01*
X122412493Y-137106535D01*
X122412493Y-137106535D01*
G37*
D11*
X122062500Y-137780000D03*
G04 #@! TD*
D10*
G04 #@! TO.C,C1*
G36*
X129142492Y-81546536D02*
X129173434Y-81551126D01*
X129203777Y-81558726D01*
X129233229Y-81569264D01*
X129261507Y-81582639D01*
X129288337Y-81598720D01*
X129313462Y-81617354D01*
X129336639Y-81638361D01*
X129357646Y-81661538D01*
X129376280Y-81686663D01*
X129392361Y-81713493D01*
X129405736Y-81741771D01*
X129416274Y-81771223D01*
X129423874Y-81801566D01*
X129428464Y-81832508D01*
X129429999Y-81863751D01*
X129429999Y-82501251D01*
X129428464Y-82532494D01*
X129423874Y-82563436D01*
X129416274Y-82593779D01*
X129405736Y-82623231D01*
X129392361Y-82651509D01*
X129376280Y-82678339D01*
X129357646Y-82703464D01*
X129336639Y-82726641D01*
X129313462Y-82747648D01*
X129288337Y-82766282D01*
X129261507Y-82782363D01*
X129233229Y-82795738D01*
X129203777Y-82806276D01*
X129173434Y-82813876D01*
X129142492Y-82818466D01*
X129111249Y-82820001D01*
X128398749Y-82820001D01*
X128367506Y-82818466D01*
X128336564Y-82813876D01*
X128306221Y-82806276D01*
X128276769Y-82795738D01*
X128248491Y-82782363D01*
X128221661Y-82766282D01*
X128196536Y-82747648D01*
X128173359Y-82726641D01*
X128152352Y-82703464D01*
X128133718Y-82678339D01*
X128117637Y-82651509D01*
X128104262Y-82623231D01*
X128093724Y-82593779D01*
X128086124Y-82563436D01*
X128081534Y-82532494D01*
X128079999Y-82501251D01*
X128079999Y-81863751D01*
X128081534Y-81832508D01*
X128086124Y-81801566D01*
X128093724Y-81771223D01*
X128104262Y-81741771D01*
X128117637Y-81713493D01*
X128133718Y-81686663D01*
X128152352Y-81661538D01*
X128173359Y-81638361D01*
X128196536Y-81617354D01*
X128221661Y-81598720D01*
X128248491Y-81582639D01*
X128276769Y-81569264D01*
X128306221Y-81558726D01*
X128336564Y-81551126D01*
X128367506Y-81546536D01*
X128398749Y-81545001D01*
X129111249Y-81545001D01*
X129142492Y-81546536D01*
X129142492Y-81546536D01*
G37*
D11*
X128754999Y-82182501D03*
D10*
G36*
X129142492Y-79971536D02*
X129173434Y-79976126D01*
X129203777Y-79983726D01*
X129233229Y-79994264D01*
X129261507Y-80007639D01*
X129288337Y-80023720D01*
X129313462Y-80042354D01*
X129336639Y-80063361D01*
X129357646Y-80086538D01*
X129376280Y-80111663D01*
X129392361Y-80138493D01*
X129405736Y-80166771D01*
X129416274Y-80196223D01*
X129423874Y-80226566D01*
X129428464Y-80257508D01*
X129429999Y-80288751D01*
X129429999Y-80926251D01*
X129428464Y-80957494D01*
X129423874Y-80988436D01*
X129416274Y-81018779D01*
X129405736Y-81048231D01*
X129392361Y-81076509D01*
X129376280Y-81103339D01*
X129357646Y-81128464D01*
X129336639Y-81151641D01*
X129313462Y-81172648D01*
X129288337Y-81191282D01*
X129261507Y-81207363D01*
X129233229Y-81220738D01*
X129203777Y-81231276D01*
X129173434Y-81238876D01*
X129142492Y-81243466D01*
X129111249Y-81245001D01*
X128398749Y-81245001D01*
X128367506Y-81243466D01*
X128336564Y-81238876D01*
X128306221Y-81231276D01*
X128276769Y-81220738D01*
X128248491Y-81207363D01*
X128221661Y-81191282D01*
X128196536Y-81172648D01*
X128173359Y-81151641D01*
X128152352Y-81128464D01*
X128133718Y-81103339D01*
X128117637Y-81076509D01*
X128104262Y-81048231D01*
X128093724Y-81018779D01*
X128086124Y-80988436D01*
X128081534Y-80957494D01*
X128079999Y-80926251D01*
X128079999Y-80288751D01*
X128081534Y-80257508D01*
X128086124Y-80226566D01*
X128093724Y-80196223D01*
X128104262Y-80166771D01*
X128117637Y-80138493D01*
X128133718Y-80111663D01*
X128152352Y-80086538D01*
X128173359Y-80063361D01*
X128196536Y-80042354D01*
X128221661Y-80023720D01*
X128248491Y-80007639D01*
X128276769Y-79994264D01*
X128306221Y-79983726D01*
X128336564Y-79976126D01*
X128367506Y-79971536D01*
X128398749Y-79970001D01*
X129111249Y-79970001D01*
X129142492Y-79971536D01*
X129142492Y-79971536D01*
G37*
D11*
X128754999Y-80607501D03*
G04 #@! TD*
D12*
G04 #@! TO.C,J3*
X116332000Y-147828000D03*
X116332000Y-145288000D03*
X116332000Y-142748000D03*
X116332000Y-140208000D03*
X116332000Y-137668000D03*
X116332000Y-135128000D03*
G04 #@! TD*
D10*
G04 #@! TO.C,C6*
G36*
X145467493Y-118376535D02*
X145498435Y-118381125D01*
X145528778Y-118388725D01*
X145558230Y-118399263D01*
X145586508Y-118412638D01*
X145613338Y-118428719D01*
X145638463Y-118447353D01*
X145661640Y-118468360D01*
X145682647Y-118491537D01*
X145701281Y-118516662D01*
X145717362Y-118543492D01*
X145730737Y-118571770D01*
X145741275Y-118601222D01*
X145748875Y-118631565D01*
X145753465Y-118662507D01*
X145755000Y-118693750D01*
X145755000Y-119406250D01*
X145753465Y-119437493D01*
X145748875Y-119468435D01*
X145741275Y-119498778D01*
X145730737Y-119528230D01*
X145717362Y-119556508D01*
X145701281Y-119583338D01*
X145682647Y-119608463D01*
X145661640Y-119631640D01*
X145638463Y-119652647D01*
X145613338Y-119671281D01*
X145586508Y-119687362D01*
X145558230Y-119700737D01*
X145528778Y-119711275D01*
X145498435Y-119718875D01*
X145467493Y-119723465D01*
X145436250Y-119725000D01*
X144798750Y-119725000D01*
X144767507Y-119723465D01*
X144736565Y-119718875D01*
X144706222Y-119711275D01*
X144676770Y-119700737D01*
X144648492Y-119687362D01*
X144621662Y-119671281D01*
X144596537Y-119652647D01*
X144573360Y-119631640D01*
X144552353Y-119608463D01*
X144533719Y-119583338D01*
X144517638Y-119556508D01*
X144504263Y-119528230D01*
X144493725Y-119498778D01*
X144486125Y-119468435D01*
X144481535Y-119437493D01*
X144480000Y-119406250D01*
X144480000Y-118693750D01*
X144481535Y-118662507D01*
X144486125Y-118631565D01*
X144493725Y-118601222D01*
X144504263Y-118571770D01*
X144517638Y-118543492D01*
X144533719Y-118516662D01*
X144552353Y-118491537D01*
X144573360Y-118468360D01*
X144596537Y-118447353D01*
X144621662Y-118428719D01*
X144648492Y-118412638D01*
X144676770Y-118399263D01*
X144706222Y-118388725D01*
X144736565Y-118381125D01*
X144767507Y-118376535D01*
X144798750Y-118375000D01*
X145436250Y-118375000D01*
X145467493Y-118376535D01*
X145467493Y-118376535D01*
G37*
D11*
X145117500Y-119050000D03*
D10*
G36*
X143892493Y-118376535D02*
X143923435Y-118381125D01*
X143953778Y-118388725D01*
X143983230Y-118399263D01*
X144011508Y-118412638D01*
X144038338Y-118428719D01*
X144063463Y-118447353D01*
X144086640Y-118468360D01*
X144107647Y-118491537D01*
X144126281Y-118516662D01*
X144142362Y-118543492D01*
X144155737Y-118571770D01*
X144166275Y-118601222D01*
X144173875Y-118631565D01*
X144178465Y-118662507D01*
X144180000Y-118693750D01*
X144180000Y-119406250D01*
X144178465Y-119437493D01*
X144173875Y-119468435D01*
X144166275Y-119498778D01*
X144155737Y-119528230D01*
X144142362Y-119556508D01*
X144126281Y-119583338D01*
X144107647Y-119608463D01*
X144086640Y-119631640D01*
X144063463Y-119652647D01*
X144038338Y-119671281D01*
X144011508Y-119687362D01*
X143983230Y-119700737D01*
X143953778Y-119711275D01*
X143923435Y-119718875D01*
X143892493Y-119723465D01*
X143861250Y-119725000D01*
X143223750Y-119725000D01*
X143192507Y-119723465D01*
X143161565Y-119718875D01*
X143131222Y-119711275D01*
X143101770Y-119700737D01*
X143073492Y-119687362D01*
X143046662Y-119671281D01*
X143021537Y-119652647D01*
X142998360Y-119631640D01*
X142977353Y-119608463D01*
X142958719Y-119583338D01*
X142942638Y-119556508D01*
X142929263Y-119528230D01*
X142918725Y-119498778D01*
X142911125Y-119468435D01*
X142906535Y-119437493D01*
X142905000Y-119406250D01*
X142905000Y-118693750D01*
X142906535Y-118662507D01*
X142911125Y-118631565D01*
X142918725Y-118601222D01*
X142929263Y-118571770D01*
X142942638Y-118543492D01*
X142958719Y-118516662D01*
X142977353Y-118491537D01*
X142998360Y-118468360D01*
X143021537Y-118447353D01*
X143046662Y-118428719D01*
X143073492Y-118412638D01*
X143101770Y-118399263D01*
X143131222Y-118388725D01*
X143161565Y-118381125D01*
X143192507Y-118376535D01*
X143223750Y-118375000D01*
X143861250Y-118375000D01*
X143892493Y-118376535D01*
X143892493Y-118376535D01*
G37*
D11*
X143542500Y-119050000D03*
G04 #@! TD*
D10*
G04 #@! TO.C,C4*
G36*
X122487493Y-120686535D02*
X122518435Y-120691125D01*
X122548778Y-120698725D01*
X122578230Y-120709263D01*
X122606508Y-120722638D01*
X122633338Y-120738719D01*
X122658463Y-120757353D01*
X122681640Y-120778360D01*
X122702647Y-120801537D01*
X122721281Y-120826662D01*
X122737362Y-120853492D01*
X122750737Y-120881770D01*
X122761275Y-120911222D01*
X122768875Y-120941565D01*
X122773465Y-120972507D01*
X122775000Y-121003750D01*
X122775000Y-121716250D01*
X122773465Y-121747493D01*
X122768875Y-121778435D01*
X122761275Y-121808778D01*
X122750737Y-121838230D01*
X122737362Y-121866508D01*
X122721281Y-121893338D01*
X122702647Y-121918463D01*
X122681640Y-121941640D01*
X122658463Y-121962647D01*
X122633338Y-121981281D01*
X122606508Y-121997362D01*
X122578230Y-122010737D01*
X122548778Y-122021275D01*
X122518435Y-122028875D01*
X122487493Y-122033465D01*
X122456250Y-122035000D01*
X121818750Y-122035000D01*
X121787507Y-122033465D01*
X121756565Y-122028875D01*
X121726222Y-122021275D01*
X121696770Y-122010737D01*
X121668492Y-121997362D01*
X121641662Y-121981281D01*
X121616537Y-121962647D01*
X121593360Y-121941640D01*
X121572353Y-121918463D01*
X121553719Y-121893338D01*
X121537638Y-121866508D01*
X121524263Y-121838230D01*
X121513725Y-121808778D01*
X121506125Y-121778435D01*
X121501535Y-121747493D01*
X121500000Y-121716250D01*
X121500000Y-121003750D01*
X121501535Y-120972507D01*
X121506125Y-120941565D01*
X121513725Y-120911222D01*
X121524263Y-120881770D01*
X121537638Y-120853492D01*
X121553719Y-120826662D01*
X121572353Y-120801537D01*
X121593360Y-120778360D01*
X121616537Y-120757353D01*
X121641662Y-120738719D01*
X121668492Y-120722638D01*
X121696770Y-120709263D01*
X121726222Y-120698725D01*
X121756565Y-120691125D01*
X121787507Y-120686535D01*
X121818750Y-120685000D01*
X122456250Y-120685000D01*
X122487493Y-120686535D01*
X122487493Y-120686535D01*
G37*
D11*
X122137500Y-121360000D03*
D10*
G36*
X120912493Y-120686535D02*
X120943435Y-120691125D01*
X120973778Y-120698725D01*
X121003230Y-120709263D01*
X121031508Y-120722638D01*
X121058338Y-120738719D01*
X121083463Y-120757353D01*
X121106640Y-120778360D01*
X121127647Y-120801537D01*
X121146281Y-120826662D01*
X121162362Y-120853492D01*
X121175737Y-120881770D01*
X121186275Y-120911222D01*
X121193875Y-120941565D01*
X121198465Y-120972507D01*
X121200000Y-121003750D01*
X121200000Y-121716250D01*
X121198465Y-121747493D01*
X121193875Y-121778435D01*
X121186275Y-121808778D01*
X121175737Y-121838230D01*
X121162362Y-121866508D01*
X121146281Y-121893338D01*
X121127647Y-121918463D01*
X121106640Y-121941640D01*
X121083463Y-121962647D01*
X121058338Y-121981281D01*
X121031508Y-121997362D01*
X121003230Y-122010737D01*
X120973778Y-122021275D01*
X120943435Y-122028875D01*
X120912493Y-122033465D01*
X120881250Y-122035000D01*
X120243750Y-122035000D01*
X120212507Y-122033465D01*
X120181565Y-122028875D01*
X120151222Y-122021275D01*
X120121770Y-122010737D01*
X120093492Y-121997362D01*
X120066662Y-121981281D01*
X120041537Y-121962647D01*
X120018360Y-121941640D01*
X119997353Y-121918463D01*
X119978719Y-121893338D01*
X119962638Y-121866508D01*
X119949263Y-121838230D01*
X119938725Y-121808778D01*
X119931125Y-121778435D01*
X119926535Y-121747493D01*
X119925000Y-121716250D01*
X119925000Y-121003750D01*
X119926535Y-120972507D01*
X119931125Y-120941565D01*
X119938725Y-120911222D01*
X119949263Y-120881770D01*
X119962638Y-120853492D01*
X119978719Y-120826662D01*
X119997353Y-120801537D01*
X120018360Y-120778360D01*
X120041537Y-120757353D01*
X120066662Y-120738719D01*
X120093492Y-120722638D01*
X120121770Y-120709263D01*
X120151222Y-120698725D01*
X120181565Y-120691125D01*
X120212507Y-120686535D01*
X120243750Y-120685000D01*
X120881250Y-120685000D01*
X120912493Y-120686535D01*
X120912493Y-120686535D01*
G37*
D11*
X120562500Y-121360000D03*
G04 #@! TD*
D10*
G04 #@! TO.C,C5*
G36*
X120902493Y-118996535D02*
X120933435Y-119001125D01*
X120963778Y-119008725D01*
X120993230Y-119019263D01*
X121021508Y-119032638D01*
X121048338Y-119048719D01*
X121073463Y-119067353D01*
X121096640Y-119088360D01*
X121117647Y-119111537D01*
X121136281Y-119136662D01*
X121152362Y-119163492D01*
X121165737Y-119191770D01*
X121176275Y-119221222D01*
X121183875Y-119251565D01*
X121188465Y-119282507D01*
X121190000Y-119313750D01*
X121190000Y-120026250D01*
X121188465Y-120057493D01*
X121183875Y-120088435D01*
X121176275Y-120118778D01*
X121165737Y-120148230D01*
X121152362Y-120176508D01*
X121136281Y-120203338D01*
X121117647Y-120228463D01*
X121096640Y-120251640D01*
X121073463Y-120272647D01*
X121048338Y-120291281D01*
X121021508Y-120307362D01*
X120993230Y-120320737D01*
X120963778Y-120331275D01*
X120933435Y-120338875D01*
X120902493Y-120343465D01*
X120871250Y-120345000D01*
X120233750Y-120345000D01*
X120202507Y-120343465D01*
X120171565Y-120338875D01*
X120141222Y-120331275D01*
X120111770Y-120320737D01*
X120083492Y-120307362D01*
X120056662Y-120291281D01*
X120031537Y-120272647D01*
X120008360Y-120251640D01*
X119987353Y-120228463D01*
X119968719Y-120203338D01*
X119952638Y-120176508D01*
X119939263Y-120148230D01*
X119928725Y-120118778D01*
X119921125Y-120088435D01*
X119916535Y-120057493D01*
X119915000Y-120026250D01*
X119915000Y-119313750D01*
X119916535Y-119282507D01*
X119921125Y-119251565D01*
X119928725Y-119221222D01*
X119939263Y-119191770D01*
X119952638Y-119163492D01*
X119968719Y-119136662D01*
X119987353Y-119111537D01*
X120008360Y-119088360D01*
X120031537Y-119067353D01*
X120056662Y-119048719D01*
X120083492Y-119032638D01*
X120111770Y-119019263D01*
X120141222Y-119008725D01*
X120171565Y-119001125D01*
X120202507Y-118996535D01*
X120233750Y-118995000D01*
X120871250Y-118995000D01*
X120902493Y-118996535D01*
X120902493Y-118996535D01*
G37*
D11*
X120552500Y-119670000D03*
D10*
G36*
X122477493Y-118996535D02*
X122508435Y-119001125D01*
X122538778Y-119008725D01*
X122568230Y-119019263D01*
X122596508Y-119032638D01*
X122623338Y-119048719D01*
X122648463Y-119067353D01*
X122671640Y-119088360D01*
X122692647Y-119111537D01*
X122711281Y-119136662D01*
X122727362Y-119163492D01*
X122740737Y-119191770D01*
X122751275Y-119221222D01*
X122758875Y-119251565D01*
X122763465Y-119282507D01*
X122765000Y-119313750D01*
X122765000Y-120026250D01*
X122763465Y-120057493D01*
X122758875Y-120088435D01*
X122751275Y-120118778D01*
X122740737Y-120148230D01*
X122727362Y-120176508D01*
X122711281Y-120203338D01*
X122692647Y-120228463D01*
X122671640Y-120251640D01*
X122648463Y-120272647D01*
X122623338Y-120291281D01*
X122596508Y-120307362D01*
X122568230Y-120320737D01*
X122538778Y-120331275D01*
X122508435Y-120338875D01*
X122477493Y-120343465D01*
X122446250Y-120345000D01*
X121808750Y-120345000D01*
X121777507Y-120343465D01*
X121746565Y-120338875D01*
X121716222Y-120331275D01*
X121686770Y-120320737D01*
X121658492Y-120307362D01*
X121631662Y-120291281D01*
X121606537Y-120272647D01*
X121583360Y-120251640D01*
X121562353Y-120228463D01*
X121543719Y-120203338D01*
X121527638Y-120176508D01*
X121514263Y-120148230D01*
X121503725Y-120118778D01*
X121496125Y-120088435D01*
X121491535Y-120057493D01*
X121490000Y-120026250D01*
X121490000Y-119313750D01*
X121491535Y-119282507D01*
X121496125Y-119251565D01*
X121503725Y-119221222D01*
X121514263Y-119191770D01*
X121527638Y-119163492D01*
X121543719Y-119136662D01*
X121562353Y-119111537D01*
X121583360Y-119088360D01*
X121606537Y-119067353D01*
X121631662Y-119048719D01*
X121658492Y-119032638D01*
X121686770Y-119019263D01*
X121716222Y-119008725D01*
X121746565Y-119001125D01*
X121777507Y-118996535D01*
X121808750Y-118995000D01*
X122446250Y-118995000D01*
X122477493Y-118996535D01*
X122477493Y-118996535D01*
G37*
D11*
X122127500Y-119670000D03*
G04 #@! TD*
D13*
G04 #@! TO.C,U2*
X129770000Y-123800000D03*
X129770000Y-126340000D03*
X127230000Y-123800000D03*
X127230000Y-126340000D03*
X124690000Y-123800000D03*
X124690000Y-126340000D03*
X122150000Y-123800000D03*
D14*
X122150000Y-126340000D03*
G04 #@! TD*
D15*
G04 #@! TO.C,SW2*
X155000000Y-134618000D03*
X147200000Y-134618000D03*
G04 #@! TD*
G04 #@! TO.C,SW3*
X159746000Y-134618000D03*
X167546000Y-134618000D03*
G04 #@! TD*
D12*
G04 #@! TO.C,J5*
X168656000Y-79024000D03*
X168656000Y-81564000D03*
X168656000Y-84104000D03*
X168656000Y-86644000D03*
X168656000Y-89184000D03*
X168656000Y-91724000D03*
X168656000Y-94264000D03*
X168656000Y-96804000D03*
X168656000Y-99344000D03*
X168656000Y-101884000D03*
X168656000Y-104424000D03*
X168656000Y-106964000D03*
X168656000Y-109504000D03*
X168656000Y-112044000D03*
X168656000Y-114584000D03*
X168656000Y-117124000D03*
X168656000Y-119664000D03*
G04 #@! TD*
G04 #@! TO.C,J4*
X116270000Y-79030000D03*
X116270000Y-81570000D03*
X116270000Y-84110000D03*
X116270000Y-86650000D03*
X116270000Y-89190000D03*
X116270000Y-91730000D03*
X116270000Y-94270000D03*
X116270000Y-96810000D03*
X116270000Y-99350000D03*
X116270000Y-101890000D03*
X116270000Y-104430000D03*
X116270000Y-106970000D03*
X116270000Y-109510000D03*
X116270000Y-112050000D03*
X116270000Y-114590000D03*
X116270000Y-117130000D03*
X116270000Y-119670000D03*
G04 #@! TD*
D16*
G04 #@! TO.C,MK3*
X166400000Y-68610000D03*
G04 #@! TD*
G04 #@! TO.C,MK2*
X166400000Y-156400000D03*
G04 #@! TD*
G04 #@! TO.C,MK1*
X118600000Y-68610000D03*
G04 #@! TD*
G04 #@! TO.C,MK4*
X118600000Y-156400000D03*
G04 #@! TD*
D10*
G04 #@! TO.C,C7*
G36*
X138087346Y-140426589D02*
X138119380Y-140431341D01*
X138150794Y-140439210D01*
X138181286Y-140450120D01*
X138210561Y-140463966D01*
X138238338Y-140480615D01*
X138264350Y-140499907D01*
X138288345Y-140521655D01*
X138310093Y-140545650D01*
X138329385Y-140571662D01*
X138346034Y-140599439D01*
X138359880Y-140628714D01*
X138370790Y-140659206D01*
X138378659Y-140690620D01*
X138383411Y-140722654D01*
X138385000Y-140755000D01*
X138385000Y-142245000D01*
X138383411Y-142277346D01*
X138378659Y-142309380D01*
X138370790Y-142340794D01*
X138359880Y-142371286D01*
X138346034Y-142400561D01*
X138329385Y-142428338D01*
X138310093Y-142454350D01*
X138288345Y-142478345D01*
X138264350Y-142500093D01*
X138238338Y-142519385D01*
X138210561Y-142536034D01*
X138181286Y-142549880D01*
X138150794Y-142560790D01*
X138119380Y-142568659D01*
X138087346Y-142573411D01*
X138055000Y-142575000D01*
X137065000Y-142575000D01*
X137032654Y-142573411D01*
X137000620Y-142568659D01*
X136969206Y-142560790D01*
X136938714Y-142549880D01*
X136909439Y-142536034D01*
X136881662Y-142519385D01*
X136855650Y-142500093D01*
X136831655Y-142478345D01*
X136809907Y-142454350D01*
X136790615Y-142428338D01*
X136773966Y-142400561D01*
X136760120Y-142371286D01*
X136749210Y-142340794D01*
X136741341Y-142309380D01*
X136736589Y-142277346D01*
X136735000Y-142245000D01*
X136735000Y-140755000D01*
X136736589Y-140722654D01*
X136741341Y-140690620D01*
X136749210Y-140659206D01*
X136760120Y-140628714D01*
X136773966Y-140599439D01*
X136790615Y-140571662D01*
X136809907Y-140545650D01*
X136831655Y-140521655D01*
X136855650Y-140499907D01*
X136881662Y-140480615D01*
X136909439Y-140463966D01*
X136938714Y-140450120D01*
X136969206Y-140439210D01*
X137000620Y-140431341D01*
X137032654Y-140426589D01*
X137065000Y-140425000D01*
X138055000Y-140425000D01*
X138087346Y-140426589D01*
X138087346Y-140426589D01*
G37*
D17*
X137560000Y-141500000D03*
D10*
G36*
X135287346Y-140426589D02*
X135319380Y-140431341D01*
X135350794Y-140439210D01*
X135381286Y-140450120D01*
X135410561Y-140463966D01*
X135438338Y-140480615D01*
X135464350Y-140499907D01*
X135488345Y-140521655D01*
X135510093Y-140545650D01*
X135529385Y-140571662D01*
X135546034Y-140599439D01*
X135559880Y-140628714D01*
X135570790Y-140659206D01*
X135578659Y-140690620D01*
X135583411Y-140722654D01*
X135585000Y-140755000D01*
X135585000Y-142245000D01*
X135583411Y-142277346D01*
X135578659Y-142309380D01*
X135570790Y-142340794D01*
X135559880Y-142371286D01*
X135546034Y-142400561D01*
X135529385Y-142428338D01*
X135510093Y-142454350D01*
X135488345Y-142478345D01*
X135464350Y-142500093D01*
X135438338Y-142519385D01*
X135410561Y-142536034D01*
X135381286Y-142549880D01*
X135350794Y-142560790D01*
X135319380Y-142568659D01*
X135287346Y-142573411D01*
X135255000Y-142575000D01*
X134265000Y-142575000D01*
X134232654Y-142573411D01*
X134200620Y-142568659D01*
X134169206Y-142560790D01*
X134138714Y-142549880D01*
X134109439Y-142536034D01*
X134081662Y-142519385D01*
X134055650Y-142500093D01*
X134031655Y-142478345D01*
X134009907Y-142454350D01*
X133990615Y-142428338D01*
X133973966Y-142400561D01*
X133960120Y-142371286D01*
X133949210Y-142340794D01*
X133941341Y-142309380D01*
X133936589Y-142277346D01*
X133935000Y-142245000D01*
X133935000Y-140755000D01*
X133936589Y-140722654D01*
X133941341Y-140690620D01*
X133949210Y-140659206D01*
X133960120Y-140628714D01*
X133973966Y-140599439D01*
X133990615Y-140571662D01*
X134009907Y-140545650D01*
X134031655Y-140521655D01*
X134055650Y-140499907D01*
X134081662Y-140480615D01*
X134109439Y-140463966D01*
X134138714Y-140450120D01*
X134169206Y-140439210D01*
X134200620Y-140431341D01*
X134232654Y-140426589D01*
X134265000Y-140425000D01*
X135255000Y-140425000D01*
X135287346Y-140426589D01*
X135287346Y-140426589D01*
G37*
D17*
X134760000Y-141500000D03*
G04 #@! TD*
D18*
G04 #@! TO.C,U6*
X133561000Y-145030000D03*
X133561000Y-147320000D03*
X133561000Y-149610000D03*
D19*
X140251000Y-147320000D03*
G04 #@! TD*
D10*
G04 #@! TO.C,C2*
G36*
X129382493Y-74946535D02*
X129413435Y-74951125D01*
X129443778Y-74958725D01*
X129473230Y-74969263D01*
X129501508Y-74982638D01*
X129528338Y-74998719D01*
X129553463Y-75017353D01*
X129576640Y-75038360D01*
X129597647Y-75061537D01*
X129616281Y-75086662D01*
X129632362Y-75113492D01*
X129645737Y-75141770D01*
X129656275Y-75171222D01*
X129663875Y-75201565D01*
X129668465Y-75232507D01*
X129670000Y-75263750D01*
X129670000Y-75976250D01*
X129668465Y-76007493D01*
X129663875Y-76038435D01*
X129656275Y-76068778D01*
X129645737Y-76098230D01*
X129632362Y-76126508D01*
X129616281Y-76153338D01*
X129597647Y-76178463D01*
X129576640Y-76201640D01*
X129553463Y-76222647D01*
X129528338Y-76241281D01*
X129501508Y-76257362D01*
X129473230Y-76270737D01*
X129443778Y-76281275D01*
X129413435Y-76288875D01*
X129382493Y-76293465D01*
X129351250Y-76295000D01*
X128713750Y-76295000D01*
X128682507Y-76293465D01*
X128651565Y-76288875D01*
X128621222Y-76281275D01*
X128591770Y-76270737D01*
X128563492Y-76257362D01*
X128536662Y-76241281D01*
X128511537Y-76222647D01*
X128488360Y-76201640D01*
X128467353Y-76178463D01*
X128448719Y-76153338D01*
X128432638Y-76126508D01*
X128419263Y-76098230D01*
X128408725Y-76068778D01*
X128401125Y-76038435D01*
X128396535Y-76007493D01*
X128395000Y-75976250D01*
X128395000Y-75263750D01*
X128396535Y-75232507D01*
X128401125Y-75201565D01*
X128408725Y-75171222D01*
X128419263Y-75141770D01*
X128432638Y-75113492D01*
X128448719Y-75086662D01*
X128467353Y-75061537D01*
X128488360Y-75038360D01*
X128511537Y-75017353D01*
X128536662Y-74998719D01*
X128563492Y-74982638D01*
X128591770Y-74969263D01*
X128621222Y-74958725D01*
X128651565Y-74951125D01*
X128682507Y-74946535D01*
X128713750Y-74945000D01*
X129351250Y-74945000D01*
X129382493Y-74946535D01*
X129382493Y-74946535D01*
G37*
D11*
X129032500Y-75620000D03*
D10*
G36*
X130957493Y-74946535D02*
X130988435Y-74951125D01*
X131018778Y-74958725D01*
X131048230Y-74969263D01*
X131076508Y-74982638D01*
X131103338Y-74998719D01*
X131128463Y-75017353D01*
X131151640Y-75038360D01*
X131172647Y-75061537D01*
X131191281Y-75086662D01*
X131207362Y-75113492D01*
X131220737Y-75141770D01*
X131231275Y-75171222D01*
X131238875Y-75201565D01*
X131243465Y-75232507D01*
X131245000Y-75263750D01*
X131245000Y-75976250D01*
X131243465Y-76007493D01*
X131238875Y-76038435D01*
X131231275Y-76068778D01*
X131220737Y-76098230D01*
X131207362Y-76126508D01*
X131191281Y-76153338D01*
X131172647Y-76178463D01*
X131151640Y-76201640D01*
X131128463Y-76222647D01*
X131103338Y-76241281D01*
X131076508Y-76257362D01*
X131048230Y-76270737D01*
X131018778Y-76281275D01*
X130988435Y-76288875D01*
X130957493Y-76293465D01*
X130926250Y-76295000D01*
X130288750Y-76295000D01*
X130257507Y-76293465D01*
X130226565Y-76288875D01*
X130196222Y-76281275D01*
X130166770Y-76270737D01*
X130138492Y-76257362D01*
X130111662Y-76241281D01*
X130086537Y-76222647D01*
X130063360Y-76201640D01*
X130042353Y-76178463D01*
X130023719Y-76153338D01*
X130007638Y-76126508D01*
X129994263Y-76098230D01*
X129983725Y-76068778D01*
X129976125Y-76038435D01*
X129971535Y-76007493D01*
X129970000Y-75976250D01*
X129970000Y-75263750D01*
X129971535Y-75232507D01*
X129976125Y-75201565D01*
X129983725Y-75171222D01*
X129994263Y-75141770D01*
X130007638Y-75113492D01*
X130023719Y-75086662D01*
X130042353Y-75061537D01*
X130063360Y-75038360D01*
X130086537Y-75017353D01*
X130111662Y-74998719D01*
X130138492Y-74982638D01*
X130166770Y-74969263D01*
X130196222Y-74958725D01*
X130226565Y-74951125D01*
X130257507Y-74946535D01*
X130288750Y-74945000D01*
X130926250Y-74945000D01*
X130957493Y-74946535D01*
X130957493Y-74946535D01*
G37*
D11*
X130607500Y-75620000D03*
G04 #@! TD*
D10*
G04 #@! TO.C,C3*
G36*
X129346646Y-73199834D02*
X129377588Y-73204424D01*
X129407931Y-73212024D01*
X129437383Y-73222562D01*
X129465661Y-73235937D01*
X129492491Y-73252018D01*
X129517616Y-73270652D01*
X129540793Y-73291659D01*
X129561800Y-73314836D01*
X129580434Y-73339961D01*
X129596515Y-73366791D01*
X129609890Y-73395069D01*
X129620428Y-73424521D01*
X129628028Y-73454864D01*
X129632618Y-73485806D01*
X129634153Y-73517049D01*
X129634153Y-74229549D01*
X129632618Y-74260792D01*
X129628028Y-74291734D01*
X129620428Y-74322077D01*
X129609890Y-74351529D01*
X129596515Y-74379807D01*
X129580434Y-74406637D01*
X129561800Y-74431762D01*
X129540793Y-74454939D01*
X129517616Y-74475946D01*
X129492491Y-74494580D01*
X129465661Y-74510661D01*
X129437383Y-74524036D01*
X129407931Y-74534574D01*
X129377588Y-74542174D01*
X129346646Y-74546764D01*
X129315403Y-74548299D01*
X128677903Y-74548299D01*
X128646660Y-74546764D01*
X128615718Y-74542174D01*
X128585375Y-74534574D01*
X128555923Y-74524036D01*
X128527645Y-74510661D01*
X128500815Y-74494580D01*
X128475690Y-74475946D01*
X128452513Y-74454939D01*
X128431506Y-74431762D01*
X128412872Y-74406637D01*
X128396791Y-74379807D01*
X128383416Y-74351529D01*
X128372878Y-74322077D01*
X128365278Y-74291734D01*
X128360688Y-74260792D01*
X128359153Y-74229549D01*
X128359153Y-73517049D01*
X128360688Y-73485806D01*
X128365278Y-73454864D01*
X128372878Y-73424521D01*
X128383416Y-73395069D01*
X128396791Y-73366791D01*
X128412872Y-73339961D01*
X128431506Y-73314836D01*
X128452513Y-73291659D01*
X128475690Y-73270652D01*
X128500815Y-73252018D01*
X128527645Y-73235937D01*
X128555923Y-73222562D01*
X128585375Y-73212024D01*
X128615718Y-73204424D01*
X128646660Y-73199834D01*
X128677903Y-73198299D01*
X129315403Y-73198299D01*
X129346646Y-73199834D01*
X129346646Y-73199834D01*
G37*
D11*
X128996653Y-73873299D03*
D10*
G36*
X130921646Y-73199834D02*
X130952588Y-73204424D01*
X130982931Y-73212024D01*
X131012383Y-73222562D01*
X131040661Y-73235937D01*
X131067491Y-73252018D01*
X131092616Y-73270652D01*
X131115793Y-73291659D01*
X131136800Y-73314836D01*
X131155434Y-73339961D01*
X131171515Y-73366791D01*
X131184890Y-73395069D01*
X131195428Y-73424521D01*
X131203028Y-73454864D01*
X131207618Y-73485806D01*
X131209153Y-73517049D01*
X131209153Y-74229549D01*
X131207618Y-74260792D01*
X131203028Y-74291734D01*
X131195428Y-74322077D01*
X131184890Y-74351529D01*
X131171515Y-74379807D01*
X131155434Y-74406637D01*
X131136800Y-74431762D01*
X131115793Y-74454939D01*
X131092616Y-74475946D01*
X131067491Y-74494580D01*
X131040661Y-74510661D01*
X131012383Y-74524036D01*
X130982931Y-74534574D01*
X130952588Y-74542174D01*
X130921646Y-74546764D01*
X130890403Y-74548299D01*
X130252903Y-74548299D01*
X130221660Y-74546764D01*
X130190718Y-74542174D01*
X130160375Y-74534574D01*
X130130923Y-74524036D01*
X130102645Y-74510661D01*
X130075815Y-74494580D01*
X130050690Y-74475946D01*
X130027513Y-74454939D01*
X130006506Y-74431762D01*
X129987872Y-74406637D01*
X129971791Y-74379807D01*
X129958416Y-74351529D01*
X129947878Y-74322077D01*
X129940278Y-74291734D01*
X129935688Y-74260792D01*
X129934153Y-74229549D01*
X129934153Y-73517049D01*
X129935688Y-73485806D01*
X129940278Y-73454864D01*
X129947878Y-73424521D01*
X129958416Y-73395069D01*
X129971791Y-73366791D01*
X129987872Y-73339961D01*
X130006506Y-73314836D01*
X130027513Y-73291659D01*
X130050690Y-73270652D01*
X130075815Y-73252018D01*
X130102645Y-73235937D01*
X130130923Y-73222562D01*
X130160375Y-73212024D01*
X130190718Y-73204424D01*
X130221660Y-73199834D01*
X130252903Y-73198299D01*
X130890403Y-73198299D01*
X130921646Y-73199834D01*
X130921646Y-73199834D01*
G37*
D11*
X130571653Y-73873299D03*
G04 #@! TD*
D20*
G04 #@! TO.C,J1*
X141240000Y-159380000D03*
X144490000Y-159380000D03*
D21*
X141565000Y-154830000D03*
X142215000Y-154830000D03*
X142865000Y-154830000D03*
X143515000Y-154830000D03*
X144165000Y-154830000D03*
D22*
X140440000Y-155350000D03*
X145290000Y-155350000D03*
D23*
X146490000Y-158030000D03*
X139240000Y-158030000D03*
G04 #@! TD*
D24*
G04 #@! TO.C,J2*
X159766000Y-119404000D03*
X159766000Y-122404000D03*
D25*
X158291000Y-120904000D03*
X161241000Y-120904000D03*
G04 #@! TD*
D15*
G04 #@! TO.C,SW1*
X155036000Y-127746000D03*
X147236000Y-127746000D03*
G04 #@! TD*
G04 #@! TO.C,SW4*
X159746000Y-127746000D03*
X167546000Y-127746000D03*
G04 #@! TD*
D26*
G04 #@! TO.C,U3*
X143080000Y-80735000D03*
D27*
X151380000Y-73325000D03*
X151380000Y-74595000D03*
X151380000Y-75865000D03*
X151380000Y-77135000D03*
X151380000Y-78405000D03*
X151380000Y-79675000D03*
X151380000Y-80945000D03*
X151380000Y-82215000D03*
X151380000Y-83485000D03*
X151380000Y-84755000D03*
X151380000Y-86025000D03*
X151380000Y-87295000D03*
X151380000Y-88565000D03*
X151380000Y-89835000D03*
D28*
X148095000Y-91335000D03*
X146825000Y-91335000D03*
X145555000Y-91335000D03*
X144285000Y-91335000D03*
X143015000Y-91335000D03*
X141745000Y-91335000D03*
X140475000Y-91335000D03*
X139205000Y-91335000D03*
X137935000Y-91335000D03*
X136665000Y-91335000D03*
D27*
X133380000Y-89835000D03*
X133380000Y-88565000D03*
X133380000Y-87295000D03*
X133380000Y-86025000D03*
X133380000Y-84755000D03*
X133380000Y-83485000D03*
X133380000Y-82215000D03*
X133380000Y-80945000D03*
X133380000Y-79675000D03*
X133380000Y-78405000D03*
X133380000Y-77135000D03*
X133380000Y-75865000D03*
X133380000Y-74595000D03*
X133380000Y-73325000D03*
G04 #@! TD*
D29*
G04 #@! TO.C,U7*
X157607000Y-153421080D03*
X156337000Y-153421080D03*
X155067000Y-153421080D03*
X153797000Y-153421080D03*
X152527000Y-153421080D03*
X151257000Y-153421080D03*
X149987000Y-153421080D03*
X148717000Y-153421080D03*
X148717000Y-147822920D03*
X149987000Y-147822920D03*
X151257000Y-147822920D03*
X152527000Y-147822920D03*
X153797000Y-147822920D03*
X155067000Y-147822920D03*
X156337000Y-147822920D03*
X157607000Y-147822920D03*
G04 #@! TD*
D30*
G04 #@! TO.C,U1*
X159544080Y-103080300D03*
X159544080Y-105079280D03*
X159544080Y-107078260D03*
X159544080Y-109079780D03*
X159544080Y-111076220D03*
X159544080Y-113077740D03*
X159544080Y-115076720D03*
X159544080Y-117075700D03*
X144547920Y-117075700D03*
X144547920Y-115076720D03*
X144547920Y-113077740D03*
X144547920Y-111076220D03*
X144547920Y-109079780D03*
X144547920Y-107078260D03*
X144547920Y-105079280D03*
X144547920Y-103080300D03*
G04 #@! TD*
G04 #@! TO.C,U4*
X148189840Y-116039520D03*
X148189840Y-114038000D03*
X148189840Y-112039020D03*
X148189840Y-110040040D03*
X148189840Y-108041060D03*
X148189840Y-106042080D03*
X148189840Y-104040560D03*
X163186000Y-104040560D03*
X163186000Y-106042080D03*
X163186000Y-108041060D03*
X163186000Y-110040040D03*
X163186000Y-112039020D03*
X163186000Y-114038000D03*
X163186000Y-116039520D03*
G04 #@! TD*
D31*
G04 #@! TO.C,U5*
X137536000Y-103058000D03*
X137536000Y-105058000D03*
X137536000Y-107058000D03*
X137536000Y-109058000D03*
X137536000Y-111058000D03*
X137536000Y-113058000D03*
X137536000Y-115058000D03*
X137536000Y-117058000D03*
X155736000Y-117058000D03*
X155736000Y-115058000D03*
X155736000Y-113058000D03*
X155736000Y-111058000D03*
X155736000Y-109058000D03*
X155736000Y-107058000D03*
X155736000Y-105058000D03*
X155736000Y-103058000D03*
G04 #@! TD*
D32*
G04 #@! TO.C,Y1*
X148152000Y-145288000D03*
X149352000Y-145288000D03*
X150552000Y-145288000D03*
G04 #@! TD*
D33*
G04 #@! TO.C,Q1*
X154257360Y-143321973D03*
X156257360Y-142371973D03*
X156257360Y-144271973D03*
G04 #@! TD*
G04 #@! TO.C,Q2*
X164893360Y-143321973D03*
X162893360Y-144271973D03*
X162893360Y-142371973D03*
G04 #@! TD*
M02*
