M48
;DRILL file {KiCad 5.0.0-rc3-unknown-3df2743~65~ubuntu18.04.1} date Sun Jul  8 00:44:04 2018
;FORMAT={-:-/ absolute / inch / decimal}
FMAT,2
INCH,TZ
T1C0.0118
T2C0.0197
T3C0.0276
T4C0.0300
T5C0.0400
T6C0.1260
%
G90
G05
M72
T1
X4.6535Y-3.3783
X4.6535Y-4.1449
X4.6563Y-3.9394
X4.6587Y-3.4811
X4.6669Y-3.8579
X4.6697Y-3.7657
X4.6724Y-4.0528
X4.6752Y-4.1992
X4.6894Y-4.3358
X4.7559Y-3.8492
X4.761Y-4.5571
X4.765Y-4.3287
X4.7673Y-4.0094
X4.776Y-4.1996
X4.7807Y-3.7575
X4.8016Y-4.3969
X4.8213Y-3.4594
X4.8291Y-4.4835
X4.8366Y-4.137
X4.8406Y-3.9311
X4.8441Y-4.2862
X4.8512Y-3.0339
X4.8528Y-3.6465
X4.8717Y-4.3638
X4.8728Y-4.072
X4.8732Y-3.8268
X4.9319Y-3.3622
X4.9724Y-3.5201
X4.9866Y-3.3421
X4.9953Y-3.5465
X5.0024Y-5.4803
X5.0213Y-3.322
X5.022Y-3.1803
X5.0264Y-4.0063
X5.0484Y-4.3083
X5.065Y-4.0673
X5.0669Y-5.726
X5.0705Y-3.8941
X5.089Y-4.5736
X5.0917Y-5.6248
X5.1201Y-4.6933
X5.1677Y-4.7776
X5.1742Y-3.6951
X5.1803Y-3.8492
X5.1942Y-4.587
X5.2067Y-4.4039
X5.2084Y-4.7134
X5.2126Y-3.8213
X5.2134Y-4.6083
X5.2135Y-4.6626
X5.2232Y-4.0634
X5.2307Y-4.2957
X5.2382Y-3.9512
X5.2512Y-2.9868
X5.2594Y-4.7669
X5.2741Y-3.7187
X5.2854Y-4.4803
X5.3193Y-4.498
X5.3583Y-5.0929
X5.3598Y-4.8937
X5.3661Y-4.7476
X5.3791Y-5.1768
X5.3831Y-5.213
X5.385Y-5.2441
X5.387Y-4.9866
X5.439Y-5.1846
X5.4413Y-4.9929
X5.4413Y-5.2173
X5.4413Y-5.2547
X5.45Y-4.8339
X5.4516Y-4.0031
X5.4803Y-4.9173
X5.5091Y-4.2941
X5.5343Y-3.9799
X5.5469Y-4.1161
X5.5504Y-4.572
X5.565Y-4.2004
X5.5689Y-4.0402
X5.5748Y-4.5106
X5.6276Y-4.978
X5.6346Y-4.8921
X5.6488Y-5.628
X5.6909Y-4.137
X5.6909Y-4.2157
X5.6909Y-4.2945
X5.6909Y-4.3731
X5.7323Y-3.8415
X5.7805Y-3.5959
X5.7811Y-3.9398
X5.8305Y-3.5959
X5.8342Y-4.0961
X5.8342Y-4.1749
X5.9146Y-4.0437
X5.9248Y-4.1386
X5.9248Y-4.2461
X5.9264Y-3.7295
X5.9287Y-3.6874
X5.9366Y-4.3075
X5.9571Y-4.4492
X5.9598Y-2.9368
X5.9598Y-3.0368
X5.9598Y-3.0868
X5.9598Y-3.4868
X5.9598Y-3.5368
X5.9654Y-4.3461
X6.0012Y-3.7319
X6.0122Y-4.5957
X6.0161Y-4.061
X6.0165Y-3.3606
X6.0181Y-4.1831
X6.0181Y-4.2142
X6.0205Y-4.3323
X6.0224Y-3.3075
X6.0224Y-3.774
X6.0244Y-3.6909
X6.0248Y-3.9453
X6.0367Y-4.1429
X6.0673Y-3.3933
X6.0677Y-3.3339
X6.0713Y-3.4787
X6.0731Y-5.6426
X6.1114Y-5.8953
X6.1224Y-3.6453
X6.1268Y-3.6039
X6.1283Y-3.7665
X6.1313Y-4.1361
X6.1313Y-4.2149
X6.1362Y-3.6898
X6.1362Y-3.7299
X6.1519Y-5.6052
X6.2413Y-3.6484
X6.2496Y-3.9445
X6.2811Y-4.2941
X6.2813Y-4.2157
X6.2878Y-3.4626
X6.3276Y-3.3476
X6.348Y-3.2693
X6.3728Y-3.2051
X6.4012Y-3.8543
X6.4138Y-3.1354
X6.4246Y-4.0961
X6.4246Y-4.1749
X6.4508Y-3.0642
X6.4957Y-3.015
X6.5575Y-3.9402
X6.5614Y-4.2697
X6.5713Y-4.1787
X6.5963Y-5.0294
T2
X4.798Y-3.2299
X5.1291Y-5.7535
X5.1358Y-5.861
X5.9075Y-5.915
X6.0173Y-5.9201
X6.2075Y-5.9803
X6.4246Y-4.4897
X6.585Y-4.6681
T4
X4.8091Y-4.874
X4.8091Y-4.974
X4.9091Y-4.874
X4.9091Y-4.974
X5.0091Y-4.874
X5.0091Y-4.974
X5.1091Y-4.874
X5.1091Y-4.974
T5
X4.5776Y-3.1114
X4.5776Y-3.2114
X4.5776Y-3.3114
X4.5776Y-3.4114
X4.5776Y-3.5114
X4.5776Y-3.6114
X4.5776Y-3.7114
X4.5776Y-3.8114
X4.5776Y-3.9114
X4.5776Y-4.0114
X4.5776Y-4.1114
X4.5776Y-4.2114
X4.5776Y-4.3114
X4.5776Y-4.4114
X4.5776Y-4.5114
X4.5776Y-4.6114
X4.5776Y-4.7114
X4.58Y-5.42
X4.58Y-5.52
X4.58Y-5.62
X4.58Y-5.72
X4.58Y-5.82
X6.64Y-3.1112
X6.64Y-3.2112
X6.64Y-3.3112
X6.64Y-3.4112
X6.64Y-3.5112
X6.64Y-3.6112
X6.64Y-3.7112
X6.64Y-3.8112
X6.64Y-3.9112
X6.64Y-4.0112
X6.64Y-4.1112
X6.64Y-4.2112
X6.64Y-4.3112
X6.64Y-4.4112
X6.64Y-4.5112
X6.64Y-4.6112
X6.64Y-4.7112
T6
X6.5512Y-6.1575
X6.5512Y-2.7012
X4.6693Y-2.7012
X4.6693Y-6.1575
T3
X5.4823Y-6.1906G85X5.4823Y-6.2063
G05
X5.5295Y-6.0929G85X5.5295Y-6.0929
G05
X5.7205Y-6.0929G85X5.7205Y-6.0929
G05
X5.7677Y-6.1906G85X5.7677Y-6.2063
G05
T0
M30
