G04 #@! TF.GenerationSoftware,KiCad,Pcbnew,6.0.0-rc1-unknown-15e0771~66~ubuntu18.04.1*
G04 #@! TF.CreationDate,2018-08-13T10:52:49+02:00*
G04 #@! TF.ProjectId,esp32-gateway,65737033322D676174657761792E6B69,rev?*
G04 #@! TF.SameCoordinates,Original*
G04 #@! TF.FileFunction,Legend,Bot*
G04 #@! TF.FilePolarity,Positive*
%FSLAX46Y46*%
G04 Gerber Fmt 4.6, Leading zero omitted, Abs format (unit mm)*
G04 Created by KiCad (PCBNEW 6.0.0-rc1-unknown-15e0771~66~ubuntu18.04.1) date Mon Aug 13 10:52:49 2018*
%MOMM*%
%LPD*%
G01*
G04 APERTURE LIST*
%ADD10C,0.150000*%
G04 APERTURE END LIST*
D10*
X119180000Y-137376666D02*
X119513333Y-137376666D01*
X119513333Y-136676666D01*
X118946666Y-137010000D02*
X118713333Y-137010000D01*
X118613333Y-137376666D02*
X118946666Y-137376666D01*
X118946666Y-136676666D01*
X118613333Y-136676666D01*
X118313333Y-137376666D02*
X118313333Y-136676666D01*
X118146666Y-136676666D01*
X118046666Y-136710000D01*
X117980000Y-136776666D01*
X117946666Y-136843333D01*
X117913333Y-136976666D01*
X117913333Y-137076666D01*
X117946666Y-137210000D01*
X117980000Y-137276666D01*
X118046666Y-137343333D01*
X118146666Y-137376666D01*
X118313333Y-137376666D01*
X119763333Y-138576666D02*
X119763333Y-137876666D01*
X119296666Y-137876666D02*
X119163333Y-137876666D01*
X119096666Y-137910000D01*
X119030000Y-137976666D01*
X118996666Y-138110000D01*
X118996666Y-138343333D01*
X119030000Y-138476666D01*
X119096666Y-138543333D01*
X119163333Y-138576666D01*
X119296666Y-138576666D01*
X119363333Y-138543333D01*
X119430000Y-138476666D01*
X119463333Y-138343333D01*
X119463333Y-138110000D01*
X119430000Y-137976666D01*
X119363333Y-137910000D01*
X119296666Y-137876666D01*
X118330000Y-138576666D02*
X118730000Y-138576666D01*
X118530000Y-138576666D02*
X118530000Y-137876666D01*
X118596666Y-137976666D01*
X118663333Y-138043333D01*
X118730000Y-138076666D01*
X118096666Y-137876666D02*
X117663333Y-137876666D01*
X117896666Y-138143333D01*
X117796666Y-138143333D01*
X117730000Y-138176666D01*
X117696666Y-138210000D01*
X117663333Y-138276666D01*
X117663333Y-138443333D01*
X117696666Y-138510000D01*
X117730000Y-138543333D01*
X117796666Y-138576666D01*
X117996666Y-138576666D01*
X118063333Y-138543333D01*
X118096666Y-138510000D01*
X119109429Y-139776666D02*
X119442762Y-139776666D01*
X119442762Y-139076666D01*
X118876095Y-139410000D02*
X118642762Y-139410000D01*
X118542762Y-139776666D02*
X118876095Y-139776666D01*
X118876095Y-139076666D01*
X118542762Y-139076666D01*
X118242762Y-139776666D02*
X118242762Y-139076666D01*
X118076095Y-139076666D01*
X117976095Y-139110000D01*
X117909429Y-139176666D01*
X117876095Y-139243333D01*
X117842762Y-139376666D01*
X117842762Y-139476666D01*
X117876095Y-139610000D01*
X117909429Y-139676666D01*
X117976095Y-139743333D01*
X118076095Y-139776666D01*
X118242762Y-139776666D01*
X119692762Y-140976666D02*
X119692762Y-140276666D01*
X119226095Y-140276666D02*
X119092762Y-140276666D01*
X119026095Y-140310000D01*
X118959429Y-140376666D01*
X118926095Y-140510000D01*
X118926095Y-140743333D01*
X118959429Y-140876666D01*
X119026095Y-140943333D01*
X119092762Y-140976666D01*
X119226095Y-140976666D01*
X119292762Y-140943333D01*
X119359429Y-140876666D01*
X119392762Y-140743333D01*
X119392762Y-140510000D01*
X119359429Y-140376666D01*
X119292762Y-140310000D01*
X119226095Y-140276666D01*
X118692762Y-140276666D02*
X118259429Y-140276666D01*
X118492762Y-140543333D01*
X118392762Y-140543333D01*
X118326095Y-140576666D01*
X118292762Y-140610000D01*
X118259429Y-140676666D01*
X118259429Y-140843333D01*
X118292762Y-140910000D01*
X118326095Y-140943333D01*
X118392762Y-140976666D01*
X118592762Y-140976666D01*
X118659429Y-140943333D01*
X118692762Y-140910000D01*
X117992762Y-140343333D02*
X117959429Y-140310000D01*
X117892762Y-140276666D01*
X117726095Y-140276666D01*
X117659429Y-140310000D01*
X117626095Y-140343333D01*
X117592762Y-140410000D01*
X117592762Y-140476666D01*
X117626095Y-140576666D01*
X118026095Y-140976666D01*
X117592762Y-140976666D01*
X119569523Y-134850000D02*
X119645714Y-134811904D01*
X119760000Y-134811904D01*
X119874285Y-134850000D01*
X119950476Y-134926190D01*
X119988571Y-135002380D01*
X120026666Y-135154761D01*
X120026666Y-135269047D01*
X119988571Y-135421428D01*
X119950476Y-135497619D01*
X119874285Y-135573809D01*
X119760000Y-135611904D01*
X119683809Y-135611904D01*
X119569523Y-135573809D01*
X119531428Y-135535714D01*
X119531428Y-135269047D01*
X119683809Y-135269047D01*
X119188571Y-135611904D02*
X119188571Y-134811904D01*
X118731428Y-135611904D01*
X118731428Y-134811904D01*
X118350476Y-135611904D02*
X118350476Y-134811904D01*
X118160000Y-134811904D01*
X118045714Y-134850000D01*
X117969523Y-134926190D01*
X117931428Y-135002380D01*
X117893333Y-135154761D01*
X117893333Y-135269047D01*
X117931428Y-135421428D01*
X117969523Y-135497619D01*
X118045714Y-135573809D01*
X118160000Y-135611904D01*
X118350476Y-135611904D01*
X119109429Y-142296666D02*
X119442762Y-142296666D01*
X119442762Y-141596666D01*
X118876095Y-141930000D02*
X118642762Y-141930000D01*
X118542762Y-142296666D02*
X118876095Y-142296666D01*
X118876095Y-141596666D01*
X118542762Y-141596666D01*
X118242762Y-142296666D02*
X118242762Y-141596666D01*
X118076095Y-141596666D01*
X117976095Y-141630000D01*
X117909429Y-141696666D01*
X117876095Y-141763333D01*
X117842762Y-141896666D01*
X117842762Y-141996666D01*
X117876095Y-142130000D01*
X117909429Y-142196666D01*
X117976095Y-142263333D01*
X118076095Y-142296666D01*
X118242762Y-142296666D01*
X119692762Y-143496666D02*
X119692762Y-142796666D01*
X119226095Y-142796666D02*
X119092762Y-142796666D01*
X119026095Y-142830000D01*
X118959429Y-142896666D01*
X118926095Y-143030000D01*
X118926095Y-143263333D01*
X118959429Y-143396666D01*
X119026095Y-143463333D01*
X119092762Y-143496666D01*
X119226095Y-143496666D01*
X119292762Y-143463333D01*
X119359429Y-143396666D01*
X119392762Y-143263333D01*
X119392762Y-143030000D01*
X119359429Y-142896666D01*
X119292762Y-142830000D01*
X119226095Y-142796666D01*
X118692762Y-142796666D02*
X118259429Y-142796666D01*
X118492762Y-143063333D01*
X118392762Y-143063333D01*
X118326095Y-143096666D01*
X118292762Y-143130000D01*
X118259429Y-143196666D01*
X118259429Y-143363333D01*
X118292762Y-143430000D01*
X118326095Y-143463333D01*
X118392762Y-143496666D01*
X118592762Y-143496666D01*
X118659429Y-143463333D01*
X118692762Y-143430000D01*
X118026095Y-142796666D02*
X117592762Y-142796666D01*
X117826095Y-143063333D01*
X117726095Y-143063333D01*
X117659429Y-143096666D01*
X117626095Y-143130000D01*
X117592762Y-143196666D01*
X117592762Y-143363333D01*
X117626095Y-143430000D01*
X117659429Y-143463333D01*
X117726095Y-143496666D01*
X117926095Y-143496666D01*
X117992762Y-143463333D01*
X118026095Y-143430000D01*
X119023714Y-147436666D02*
X119357047Y-147436666D01*
X119357047Y-146736666D01*
X118790380Y-147070000D02*
X118557047Y-147070000D01*
X118457047Y-147436666D02*
X118790380Y-147436666D01*
X118790380Y-146736666D01*
X118457047Y-146736666D01*
X118157047Y-147436666D02*
X118157047Y-146736666D01*
X117990380Y-146736666D01*
X117890380Y-146770000D01*
X117823714Y-146836666D01*
X117790380Y-146903333D01*
X117757047Y-147036666D01*
X117757047Y-147136666D01*
X117790380Y-147270000D01*
X117823714Y-147336666D01*
X117890380Y-147403333D01*
X117990380Y-147436666D01*
X118157047Y-147436666D01*
X119507047Y-148636666D02*
X119507047Y-147936666D01*
X119240380Y-147936666D01*
X119173714Y-147970000D01*
X119140380Y-148003333D01*
X119107047Y-148070000D01*
X119107047Y-148170000D01*
X119140380Y-148236666D01*
X119173714Y-148270000D01*
X119240380Y-148303333D01*
X119507047Y-148303333D01*
X118873714Y-147936666D02*
X118707047Y-148636666D01*
X118573714Y-148136666D01*
X118440380Y-148636666D01*
X118273714Y-147936666D01*
X117607047Y-148636666D02*
X117840380Y-148303333D01*
X118007047Y-148636666D02*
X118007047Y-147936666D01*
X117740380Y-147936666D01*
X117673714Y-147970000D01*
X117640380Y-148003333D01*
X117607047Y-148070000D01*
X117607047Y-148170000D01*
X117640380Y-148236666D01*
X117673714Y-148270000D01*
X117740380Y-148303333D01*
X118007047Y-148303333D01*
X119109429Y-144826666D02*
X119442762Y-144826666D01*
X119442762Y-144126666D01*
X118876095Y-144460000D02*
X118642762Y-144460000D01*
X118542762Y-144826666D02*
X118876095Y-144826666D01*
X118876095Y-144126666D01*
X118542762Y-144126666D01*
X118242762Y-144826666D02*
X118242762Y-144126666D01*
X118076095Y-144126666D01*
X117976095Y-144160000D01*
X117909429Y-144226666D01*
X117876095Y-144293333D01*
X117842762Y-144426666D01*
X117842762Y-144526666D01*
X117876095Y-144660000D01*
X117909429Y-144726666D01*
X117976095Y-144793333D01*
X118076095Y-144826666D01*
X118242762Y-144826666D01*
X119692762Y-146026666D02*
X119692762Y-145326666D01*
X119226095Y-145326666D02*
X119092762Y-145326666D01*
X119026095Y-145360000D01*
X118959429Y-145426666D01*
X118926095Y-145560000D01*
X118926095Y-145793333D01*
X118959429Y-145926666D01*
X119026095Y-145993333D01*
X119092762Y-146026666D01*
X119226095Y-146026666D01*
X119292762Y-145993333D01*
X119359429Y-145926666D01*
X119392762Y-145793333D01*
X119392762Y-145560000D01*
X119359429Y-145426666D01*
X119292762Y-145360000D01*
X119226095Y-145326666D01*
X118259429Y-146026666D02*
X118659429Y-146026666D01*
X118459429Y-146026666D02*
X118459429Y-145326666D01*
X118526095Y-145426666D01*
X118592762Y-145493333D01*
X118659429Y-145526666D01*
X117992762Y-145393333D02*
X117959429Y-145360000D01*
X117892762Y-145326666D01*
X117726095Y-145326666D01*
X117659429Y-145360000D01*
X117626095Y-145393333D01*
X117592762Y-145460000D01*
X117592762Y-145526666D01*
X117626095Y-145626666D01*
X118026095Y-146026666D01*
X117592762Y-146026666D01*
X166569523Y-114120000D02*
X166645714Y-114081904D01*
X166760000Y-114081904D01*
X166874285Y-114120000D01*
X166950476Y-114196190D01*
X166988571Y-114272380D01*
X167026666Y-114424761D01*
X167026666Y-114539047D01*
X166988571Y-114691428D01*
X166950476Y-114767619D01*
X166874285Y-114843809D01*
X166760000Y-114881904D01*
X166683809Y-114881904D01*
X166569523Y-114843809D01*
X166531428Y-114805714D01*
X166531428Y-114539047D01*
X166683809Y-114539047D01*
X166188571Y-114881904D02*
X166188571Y-114081904D01*
X165731428Y-114881904D01*
X165731428Y-114081904D01*
X165350476Y-114881904D02*
X165350476Y-114081904D01*
X165160000Y-114081904D01*
X165045714Y-114120000D01*
X164969523Y-114196190D01*
X164931428Y-114272380D01*
X164893333Y-114424761D01*
X164893333Y-114539047D01*
X164931428Y-114691428D01*
X164969523Y-114767619D01*
X165045714Y-114843809D01*
X165160000Y-114881904D01*
X165350476Y-114881904D01*
X166591905Y-109032500D02*
X166668095Y-108994404D01*
X166782381Y-108994404D01*
X166896667Y-109032500D01*
X166972857Y-109108690D01*
X167010953Y-109184880D01*
X167049048Y-109337261D01*
X167049048Y-109451547D01*
X167010953Y-109603928D01*
X166972857Y-109680119D01*
X166896667Y-109756309D01*
X166782381Y-109794404D01*
X166706191Y-109794404D01*
X166591905Y-109756309D01*
X166553810Y-109718214D01*
X166553810Y-109451547D01*
X166706191Y-109451547D01*
X166210953Y-109794404D02*
X166210953Y-108994404D01*
X165906191Y-108994404D01*
X165830000Y-109032500D01*
X165791905Y-109070595D01*
X165753810Y-109146785D01*
X165753810Y-109261071D01*
X165791905Y-109337261D01*
X165830000Y-109375357D01*
X165906191Y-109413452D01*
X166210953Y-109413452D01*
X165410953Y-109794404D02*
X165410953Y-108994404D01*
X164877619Y-108994404D02*
X164725238Y-108994404D01*
X164649048Y-109032500D01*
X164572857Y-109108690D01*
X164534762Y-109261071D01*
X164534762Y-109527738D01*
X164572857Y-109680119D01*
X164649048Y-109756309D01*
X164725238Y-109794404D01*
X164877619Y-109794404D01*
X164953810Y-109756309D01*
X165030000Y-109680119D01*
X165068095Y-109527738D01*
X165068095Y-109261071D01*
X165030000Y-109108690D01*
X164953810Y-109032500D01*
X164877619Y-108994404D01*
X164230000Y-109070595D02*
X164191905Y-109032500D01*
X164115714Y-108994404D01*
X163925238Y-108994404D01*
X163849048Y-109032500D01*
X163810953Y-109070595D01*
X163772857Y-109146785D01*
X163772857Y-109222976D01*
X163810953Y-109337261D01*
X164268095Y-109794404D01*
X163772857Y-109794404D01*
X167125237Y-83575654D02*
X166668094Y-83575654D01*
X166896666Y-84375654D02*
X166896666Y-83575654D01*
X166477618Y-83575654D02*
X165944285Y-84375654D01*
X165944285Y-83575654D02*
X166477618Y-84375654D01*
X166553809Y-86917529D02*
X166820476Y-86536577D01*
X167010952Y-86917529D02*
X167010952Y-86117529D01*
X166706190Y-86117529D01*
X166629999Y-86155625D01*
X166591904Y-86193720D01*
X166553809Y-86269910D01*
X166553809Y-86384196D01*
X166591904Y-86460386D01*
X166629999Y-86498482D01*
X166706190Y-86536577D01*
X167010952Y-86536577D01*
X166287142Y-86117529D02*
X165753809Y-86917529D01*
X165753809Y-86117529D02*
X166287142Y-86917529D01*
X167010952Y-119657142D02*
X166401429Y-119657142D01*
X166706190Y-119961904D02*
X166706190Y-119352380D01*
X166096667Y-119161904D02*
X165601429Y-119161904D01*
X165868095Y-119466666D01*
X165753809Y-119466666D01*
X165677619Y-119504761D01*
X165639524Y-119542857D01*
X165601429Y-119619047D01*
X165601429Y-119809523D01*
X165639524Y-119885714D01*
X165677619Y-119923809D01*
X165753809Y-119961904D01*
X165982381Y-119961904D01*
X166058571Y-119923809D01*
X166096667Y-119885714D01*
X165372857Y-119161904D02*
X165106190Y-119961904D01*
X164839524Y-119161904D01*
X164649048Y-119161904D02*
X164153809Y-119161904D01*
X164420476Y-119466666D01*
X164306190Y-119466666D01*
X164230000Y-119504761D01*
X164191905Y-119542857D01*
X164153809Y-119619047D01*
X164153809Y-119809523D01*
X164191905Y-119885714D01*
X164230000Y-119923809D01*
X164306190Y-119961904D01*
X164534762Y-119961904D01*
X164610952Y-119923809D01*
X164649048Y-119885714D01*
X166591904Y-81071875D02*
X166668095Y-81033779D01*
X166782380Y-81033779D01*
X166896666Y-81071875D01*
X166972857Y-81148065D01*
X167010952Y-81224255D01*
X167049047Y-81376636D01*
X167049047Y-81490922D01*
X167010952Y-81643303D01*
X166972857Y-81719494D01*
X166896666Y-81795684D01*
X166782380Y-81833779D01*
X166706190Y-81833779D01*
X166591904Y-81795684D01*
X166553809Y-81757589D01*
X166553809Y-81490922D01*
X166706190Y-81490922D01*
X166210952Y-81833779D02*
X166210952Y-81033779D01*
X165906190Y-81033779D01*
X165830000Y-81071875D01*
X165791904Y-81109970D01*
X165753809Y-81186160D01*
X165753809Y-81300446D01*
X165791904Y-81376636D01*
X165830000Y-81414732D01*
X165906190Y-81452827D01*
X166210952Y-81452827D01*
X165410952Y-81833779D02*
X165410952Y-81033779D01*
X164877619Y-81033779D02*
X164725238Y-81033779D01*
X164649047Y-81071875D01*
X164572857Y-81148065D01*
X164534761Y-81300446D01*
X164534761Y-81567113D01*
X164572857Y-81719494D01*
X164649047Y-81795684D01*
X164725238Y-81833779D01*
X164877619Y-81833779D01*
X164953809Y-81795684D01*
X165030000Y-81719494D01*
X165068095Y-81567113D01*
X165068095Y-81300446D01*
X165030000Y-81148065D01*
X164953809Y-81071875D01*
X164877619Y-81033779D01*
X164230000Y-81109970D02*
X164191904Y-81071875D01*
X164115714Y-81033779D01*
X163925238Y-81033779D01*
X163849047Y-81071875D01*
X163810952Y-81109970D01*
X163772857Y-81186160D01*
X163772857Y-81262351D01*
X163810952Y-81376636D01*
X164268095Y-81833779D01*
X163772857Y-81833779D01*
X163468095Y-81109970D02*
X163430000Y-81071875D01*
X163353809Y-81033779D01*
X163163333Y-81033779D01*
X163087142Y-81071875D01*
X163049047Y-81109970D01*
X163010952Y-81186160D01*
X163010952Y-81262351D01*
X163049047Y-81376636D01*
X163506190Y-81833779D01*
X163010952Y-81833779D01*
X166591904Y-88697500D02*
X166668095Y-88659404D01*
X166782380Y-88659404D01*
X166896666Y-88697500D01*
X166972857Y-88773690D01*
X167010952Y-88849880D01*
X167049047Y-89002261D01*
X167049047Y-89116547D01*
X167010952Y-89268928D01*
X166972857Y-89345119D01*
X166896666Y-89421309D01*
X166782380Y-89459404D01*
X166706190Y-89459404D01*
X166591904Y-89421309D01*
X166553809Y-89383214D01*
X166553809Y-89116547D01*
X166706190Y-89116547D01*
X166210952Y-89459404D02*
X166210952Y-88659404D01*
X165906190Y-88659404D01*
X165830000Y-88697500D01*
X165791904Y-88735595D01*
X165753809Y-88811785D01*
X165753809Y-88926071D01*
X165791904Y-89002261D01*
X165830000Y-89040357D01*
X165906190Y-89078452D01*
X166210952Y-89078452D01*
X165410952Y-89459404D02*
X165410952Y-88659404D01*
X164877619Y-88659404D02*
X164725238Y-88659404D01*
X164649047Y-88697500D01*
X164572857Y-88773690D01*
X164534761Y-88926071D01*
X164534761Y-89192738D01*
X164572857Y-89345119D01*
X164649047Y-89421309D01*
X164725238Y-89459404D01*
X164877619Y-89459404D01*
X164953809Y-89421309D01*
X165030000Y-89345119D01*
X165068095Y-89192738D01*
X165068095Y-88926071D01*
X165030000Y-88773690D01*
X164953809Y-88697500D01*
X164877619Y-88659404D01*
X164230000Y-88735595D02*
X164191904Y-88697500D01*
X164115714Y-88659404D01*
X163925238Y-88659404D01*
X163849047Y-88697500D01*
X163810952Y-88735595D01*
X163772857Y-88811785D01*
X163772857Y-88887976D01*
X163810952Y-89002261D01*
X164268095Y-89459404D01*
X163772857Y-89459404D01*
X163010952Y-89459404D02*
X163468095Y-89459404D01*
X163239523Y-89459404D02*
X163239523Y-88659404D01*
X163315714Y-88773690D01*
X163391904Y-88849880D01*
X163468095Y-88887976D01*
X166591904Y-111574375D02*
X166668095Y-111536279D01*
X166782380Y-111536279D01*
X166896666Y-111574375D01*
X166972857Y-111650565D01*
X167010952Y-111726755D01*
X167049047Y-111879136D01*
X167049047Y-111993422D01*
X167010952Y-112145803D01*
X166972857Y-112221994D01*
X166896666Y-112298184D01*
X166782380Y-112336279D01*
X166706190Y-112336279D01*
X166591904Y-112298184D01*
X166553809Y-112260089D01*
X166553809Y-111993422D01*
X166706190Y-111993422D01*
X166210952Y-112336279D02*
X166210952Y-111536279D01*
X165906190Y-111536279D01*
X165830000Y-111574375D01*
X165791904Y-111612470D01*
X165753809Y-111688660D01*
X165753809Y-111802946D01*
X165791904Y-111879136D01*
X165830000Y-111917232D01*
X165906190Y-111955327D01*
X166210952Y-111955327D01*
X165410952Y-112336279D02*
X165410952Y-111536279D01*
X164877619Y-111536279D02*
X164725238Y-111536279D01*
X164649047Y-111574375D01*
X164572857Y-111650565D01*
X164534761Y-111802946D01*
X164534761Y-112069613D01*
X164572857Y-112221994D01*
X164649047Y-112298184D01*
X164725238Y-112336279D01*
X164877619Y-112336279D01*
X164953809Y-112298184D01*
X165030000Y-112221994D01*
X165068095Y-112069613D01*
X165068095Y-111802946D01*
X165030000Y-111650565D01*
X164953809Y-111574375D01*
X164877619Y-111536279D01*
X163772857Y-112336279D02*
X164230000Y-112336279D01*
X164001428Y-112336279D02*
X164001428Y-111536279D01*
X164077619Y-111650565D01*
X164153809Y-111726755D01*
X164230000Y-111764851D01*
X163049047Y-111536279D02*
X163430000Y-111536279D01*
X163468095Y-111917232D01*
X163430000Y-111879136D01*
X163353809Y-111841041D01*
X163163333Y-111841041D01*
X163087142Y-111879136D01*
X163049047Y-111917232D01*
X163010952Y-111993422D01*
X163010952Y-112183898D01*
X163049047Y-112260089D01*
X163087142Y-112298184D01*
X163163333Y-112336279D01*
X163353809Y-112336279D01*
X163430000Y-112298184D01*
X163468095Y-112260089D01*
X166591904Y-96323125D02*
X166668095Y-96285029D01*
X166782380Y-96285029D01*
X166896666Y-96323125D01*
X166972857Y-96399315D01*
X167010952Y-96475505D01*
X167049047Y-96627886D01*
X167049047Y-96742172D01*
X167010952Y-96894553D01*
X166972857Y-96970744D01*
X166896666Y-97046934D01*
X166782380Y-97085029D01*
X166706190Y-97085029D01*
X166591904Y-97046934D01*
X166553809Y-97008839D01*
X166553809Y-96742172D01*
X166706190Y-96742172D01*
X166210952Y-97085029D02*
X166210952Y-96285029D01*
X165906190Y-96285029D01*
X165830000Y-96323125D01*
X165791904Y-96361220D01*
X165753809Y-96437410D01*
X165753809Y-96551696D01*
X165791904Y-96627886D01*
X165830000Y-96665982D01*
X165906190Y-96704077D01*
X166210952Y-96704077D01*
X165410952Y-97085029D02*
X165410952Y-96285029D01*
X164877619Y-96285029D02*
X164725238Y-96285029D01*
X164649047Y-96323125D01*
X164572857Y-96399315D01*
X164534761Y-96551696D01*
X164534761Y-96818363D01*
X164572857Y-96970744D01*
X164649047Y-97046934D01*
X164725238Y-97085029D01*
X164877619Y-97085029D01*
X164953809Y-97046934D01*
X165030000Y-96970744D01*
X165068095Y-96818363D01*
X165068095Y-96551696D01*
X165030000Y-96399315D01*
X164953809Y-96323125D01*
X164877619Y-96285029D01*
X163772857Y-97085029D02*
X164230000Y-97085029D01*
X164001428Y-97085029D02*
X164001428Y-96285029D01*
X164077619Y-96399315D01*
X164153809Y-96475505D01*
X164230000Y-96513601D01*
X163315714Y-96627886D02*
X163391904Y-96589791D01*
X163430000Y-96551696D01*
X163468095Y-96475505D01*
X163468095Y-96437410D01*
X163430000Y-96361220D01*
X163391904Y-96323125D01*
X163315714Y-96285029D01*
X163163333Y-96285029D01*
X163087142Y-96323125D01*
X163049047Y-96361220D01*
X163010952Y-96437410D01*
X163010952Y-96475505D01*
X163049047Y-96551696D01*
X163087142Y-96589791D01*
X163163333Y-96627886D01*
X163315714Y-96627886D01*
X163391904Y-96665982D01*
X163430000Y-96704077D01*
X163468095Y-96780267D01*
X163468095Y-96932648D01*
X163430000Y-97008839D01*
X163391904Y-97046934D01*
X163315714Y-97085029D01*
X163163333Y-97085029D01*
X163087142Y-97046934D01*
X163049047Y-97008839D01*
X163010952Y-96932648D01*
X163010952Y-96780267D01*
X163049047Y-96704077D01*
X163087142Y-96665982D01*
X163163333Y-96627886D01*
X166591904Y-91239375D02*
X166668095Y-91201279D01*
X166782380Y-91201279D01*
X166896666Y-91239375D01*
X166972857Y-91315565D01*
X167010952Y-91391755D01*
X167049047Y-91544136D01*
X167049047Y-91658422D01*
X167010952Y-91810803D01*
X166972857Y-91886994D01*
X166896666Y-91963184D01*
X166782380Y-92001279D01*
X166706190Y-92001279D01*
X166591904Y-91963184D01*
X166553809Y-91925089D01*
X166553809Y-91658422D01*
X166706190Y-91658422D01*
X166210952Y-92001279D02*
X166210952Y-91201279D01*
X165906190Y-91201279D01*
X165830000Y-91239375D01*
X165791904Y-91277470D01*
X165753809Y-91353660D01*
X165753809Y-91467946D01*
X165791904Y-91544136D01*
X165830000Y-91582232D01*
X165906190Y-91620327D01*
X166210952Y-91620327D01*
X165410952Y-92001279D02*
X165410952Y-91201279D01*
X164877619Y-91201279D02*
X164725238Y-91201279D01*
X164649047Y-91239375D01*
X164572857Y-91315565D01*
X164534761Y-91467946D01*
X164534761Y-91734613D01*
X164572857Y-91886994D01*
X164649047Y-91963184D01*
X164725238Y-92001279D01*
X164877619Y-92001279D01*
X164953809Y-91963184D01*
X165030000Y-91886994D01*
X165068095Y-91734613D01*
X165068095Y-91467946D01*
X165030000Y-91315565D01*
X164953809Y-91239375D01*
X164877619Y-91201279D01*
X164230000Y-91277470D02*
X164191904Y-91239375D01*
X164115714Y-91201279D01*
X163925238Y-91201279D01*
X163849047Y-91239375D01*
X163810952Y-91277470D01*
X163772857Y-91353660D01*
X163772857Y-91429851D01*
X163810952Y-91544136D01*
X164268095Y-92001279D01*
X163772857Y-92001279D01*
X163277619Y-91201279D02*
X163201428Y-91201279D01*
X163125238Y-91239375D01*
X163087142Y-91277470D01*
X163049047Y-91353660D01*
X163010952Y-91506041D01*
X163010952Y-91696517D01*
X163049047Y-91848898D01*
X163087142Y-91925089D01*
X163125238Y-91963184D01*
X163201428Y-92001279D01*
X163277619Y-92001279D01*
X163353809Y-91963184D01*
X163391904Y-91925089D01*
X163430000Y-91848898D01*
X163468095Y-91696517D01*
X163468095Y-91506041D01*
X163430000Y-91353660D01*
X163391904Y-91277470D01*
X163353809Y-91239375D01*
X163277619Y-91201279D01*
X166591904Y-93781250D02*
X166668095Y-93743154D01*
X166782380Y-93743154D01*
X166896666Y-93781250D01*
X166972857Y-93857440D01*
X167010952Y-93933630D01*
X167049047Y-94086011D01*
X167049047Y-94200297D01*
X167010952Y-94352678D01*
X166972857Y-94428869D01*
X166896666Y-94505059D01*
X166782380Y-94543154D01*
X166706190Y-94543154D01*
X166591904Y-94505059D01*
X166553809Y-94466964D01*
X166553809Y-94200297D01*
X166706190Y-94200297D01*
X166210952Y-94543154D02*
X166210952Y-93743154D01*
X165906190Y-93743154D01*
X165830000Y-93781250D01*
X165791904Y-93819345D01*
X165753809Y-93895535D01*
X165753809Y-94009821D01*
X165791904Y-94086011D01*
X165830000Y-94124107D01*
X165906190Y-94162202D01*
X166210952Y-94162202D01*
X165410952Y-94543154D02*
X165410952Y-93743154D01*
X164877619Y-93743154D02*
X164725238Y-93743154D01*
X164649047Y-93781250D01*
X164572857Y-93857440D01*
X164534761Y-94009821D01*
X164534761Y-94276488D01*
X164572857Y-94428869D01*
X164649047Y-94505059D01*
X164725238Y-94543154D01*
X164877619Y-94543154D01*
X164953809Y-94505059D01*
X165030000Y-94428869D01*
X165068095Y-94276488D01*
X165068095Y-94009821D01*
X165030000Y-93857440D01*
X164953809Y-93781250D01*
X164877619Y-93743154D01*
X163772857Y-94543154D02*
X164230000Y-94543154D01*
X164001428Y-94543154D02*
X164001428Y-93743154D01*
X164077619Y-93857440D01*
X164153809Y-93933630D01*
X164230000Y-93971726D01*
X163391904Y-94543154D02*
X163239523Y-94543154D01*
X163163333Y-94505059D01*
X163125238Y-94466964D01*
X163049047Y-94352678D01*
X163010952Y-94200297D01*
X163010952Y-93895535D01*
X163049047Y-93819345D01*
X163087142Y-93781250D01*
X163163333Y-93743154D01*
X163315714Y-93743154D01*
X163391904Y-93781250D01*
X163430000Y-93819345D01*
X163468095Y-93895535D01*
X163468095Y-94086011D01*
X163430000Y-94162202D01*
X163391904Y-94200297D01*
X163315714Y-94238392D01*
X163163333Y-94238392D01*
X163087142Y-94200297D01*
X163049047Y-94162202D01*
X163010952Y-94086011D01*
X166591905Y-98865000D02*
X166668095Y-98826904D01*
X166782381Y-98826904D01*
X166896667Y-98865000D01*
X166972857Y-98941190D01*
X167010953Y-99017380D01*
X167049048Y-99169761D01*
X167049048Y-99284047D01*
X167010953Y-99436428D01*
X166972857Y-99512619D01*
X166896667Y-99588809D01*
X166782381Y-99626904D01*
X166706191Y-99626904D01*
X166591905Y-99588809D01*
X166553810Y-99550714D01*
X166553810Y-99284047D01*
X166706191Y-99284047D01*
X166210953Y-99626904D02*
X166210953Y-98826904D01*
X165906191Y-98826904D01*
X165830000Y-98865000D01*
X165791905Y-98903095D01*
X165753810Y-98979285D01*
X165753810Y-99093571D01*
X165791905Y-99169761D01*
X165830000Y-99207857D01*
X165906191Y-99245952D01*
X166210953Y-99245952D01*
X165410953Y-99626904D02*
X165410953Y-98826904D01*
X164877619Y-98826904D02*
X164725238Y-98826904D01*
X164649048Y-98865000D01*
X164572857Y-98941190D01*
X164534762Y-99093571D01*
X164534762Y-99360238D01*
X164572857Y-99512619D01*
X164649048Y-99588809D01*
X164725238Y-99626904D01*
X164877619Y-99626904D01*
X164953810Y-99588809D01*
X165030000Y-99512619D01*
X165068095Y-99360238D01*
X165068095Y-99093571D01*
X165030000Y-98941190D01*
X164953810Y-98865000D01*
X164877619Y-98826904D01*
X163810953Y-98826904D02*
X164191905Y-98826904D01*
X164230000Y-99207857D01*
X164191905Y-99169761D01*
X164115714Y-99131666D01*
X163925238Y-99131666D01*
X163849048Y-99169761D01*
X163810953Y-99207857D01*
X163772857Y-99284047D01*
X163772857Y-99474523D01*
X163810953Y-99550714D01*
X163849048Y-99588809D01*
X163925238Y-99626904D01*
X164115714Y-99626904D01*
X164191905Y-99588809D01*
X164230000Y-99550714D01*
X166591904Y-103948750D02*
X166668095Y-103910654D01*
X166782380Y-103910654D01*
X166896666Y-103948750D01*
X166972857Y-104024940D01*
X167010952Y-104101130D01*
X167049047Y-104253511D01*
X167049047Y-104367797D01*
X167010952Y-104520178D01*
X166972857Y-104596369D01*
X166896666Y-104672559D01*
X166782380Y-104710654D01*
X166706190Y-104710654D01*
X166591904Y-104672559D01*
X166553809Y-104634464D01*
X166553809Y-104367797D01*
X166706190Y-104367797D01*
X166210952Y-104710654D02*
X166210952Y-103910654D01*
X165906190Y-103910654D01*
X165830000Y-103948750D01*
X165791904Y-103986845D01*
X165753809Y-104063035D01*
X165753809Y-104177321D01*
X165791904Y-104253511D01*
X165830000Y-104291607D01*
X165906190Y-104329702D01*
X166210952Y-104329702D01*
X165410952Y-104710654D02*
X165410952Y-103910654D01*
X164877619Y-103910654D02*
X164725238Y-103910654D01*
X164649047Y-103948750D01*
X164572857Y-104024940D01*
X164534761Y-104177321D01*
X164534761Y-104443988D01*
X164572857Y-104596369D01*
X164649047Y-104672559D01*
X164725238Y-104710654D01*
X164877619Y-104710654D01*
X164953809Y-104672559D01*
X165030000Y-104596369D01*
X165068095Y-104443988D01*
X165068095Y-104177321D01*
X165030000Y-104024940D01*
X164953809Y-103948750D01*
X164877619Y-103910654D01*
X163772857Y-104710654D02*
X164230000Y-104710654D01*
X164001428Y-104710654D02*
X164001428Y-103910654D01*
X164077619Y-104024940D01*
X164153809Y-104101130D01*
X164230000Y-104139226D01*
X163087142Y-103910654D02*
X163239523Y-103910654D01*
X163315714Y-103948750D01*
X163353809Y-103986845D01*
X163430000Y-104101130D01*
X163468095Y-104253511D01*
X163468095Y-104558273D01*
X163430000Y-104634464D01*
X163391904Y-104672559D01*
X163315714Y-104710654D01*
X163163333Y-104710654D01*
X163087142Y-104672559D01*
X163049047Y-104634464D01*
X163010952Y-104558273D01*
X163010952Y-104367797D01*
X163049047Y-104291607D01*
X163087142Y-104253511D01*
X163163333Y-104215416D01*
X163315714Y-104215416D01*
X163391904Y-104253511D01*
X163430000Y-104291607D01*
X163468095Y-104367797D01*
X166591905Y-106490625D02*
X166668095Y-106452529D01*
X166782381Y-106452529D01*
X166896667Y-106490625D01*
X166972857Y-106566815D01*
X167010953Y-106643005D01*
X167049048Y-106795386D01*
X167049048Y-106909672D01*
X167010953Y-107062053D01*
X166972857Y-107138244D01*
X166896667Y-107214434D01*
X166782381Y-107252529D01*
X166706191Y-107252529D01*
X166591905Y-107214434D01*
X166553810Y-107176339D01*
X166553810Y-106909672D01*
X166706191Y-106909672D01*
X166210953Y-107252529D02*
X166210953Y-106452529D01*
X165906191Y-106452529D01*
X165830000Y-106490625D01*
X165791905Y-106528720D01*
X165753810Y-106604910D01*
X165753810Y-106719196D01*
X165791905Y-106795386D01*
X165830000Y-106833482D01*
X165906191Y-106871577D01*
X166210953Y-106871577D01*
X165410953Y-107252529D02*
X165410953Y-106452529D01*
X164877619Y-106452529D02*
X164725238Y-106452529D01*
X164649048Y-106490625D01*
X164572857Y-106566815D01*
X164534762Y-106719196D01*
X164534762Y-106985863D01*
X164572857Y-107138244D01*
X164649048Y-107214434D01*
X164725238Y-107252529D01*
X164877619Y-107252529D01*
X164953810Y-107214434D01*
X165030000Y-107138244D01*
X165068095Y-106985863D01*
X165068095Y-106719196D01*
X165030000Y-106566815D01*
X164953810Y-106490625D01*
X164877619Y-106452529D01*
X163849048Y-106719196D02*
X163849048Y-107252529D01*
X164039524Y-106414434D02*
X164230000Y-106985863D01*
X163734762Y-106985863D01*
X166591904Y-101406875D02*
X166668095Y-101368779D01*
X166782380Y-101368779D01*
X166896666Y-101406875D01*
X166972857Y-101483065D01*
X167010952Y-101559255D01*
X167049047Y-101711636D01*
X167049047Y-101825922D01*
X167010952Y-101978303D01*
X166972857Y-102054494D01*
X166896666Y-102130684D01*
X166782380Y-102168779D01*
X166706190Y-102168779D01*
X166591904Y-102130684D01*
X166553809Y-102092589D01*
X166553809Y-101825922D01*
X166706190Y-101825922D01*
X166210952Y-102168779D02*
X166210952Y-101368779D01*
X165906190Y-101368779D01*
X165830000Y-101406875D01*
X165791904Y-101444970D01*
X165753809Y-101521160D01*
X165753809Y-101635446D01*
X165791904Y-101711636D01*
X165830000Y-101749732D01*
X165906190Y-101787827D01*
X166210952Y-101787827D01*
X165410952Y-102168779D02*
X165410952Y-101368779D01*
X164877619Y-101368779D02*
X164725238Y-101368779D01*
X164649047Y-101406875D01*
X164572857Y-101483065D01*
X164534761Y-101635446D01*
X164534761Y-101902113D01*
X164572857Y-102054494D01*
X164649047Y-102130684D01*
X164725238Y-102168779D01*
X164877619Y-102168779D01*
X164953809Y-102130684D01*
X165030000Y-102054494D01*
X165068095Y-101902113D01*
X165068095Y-101635446D01*
X165030000Y-101483065D01*
X164953809Y-101406875D01*
X164877619Y-101368779D01*
X163772857Y-102168779D02*
X164230000Y-102168779D01*
X164001428Y-102168779D02*
X164001428Y-101368779D01*
X164077619Y-101483065D01*
X164153809Y-101559255D01*
X164230000Y-101597351D01*
X163506190Y-101368779D02*
X162972857Y-101368779D01*
X163315714Y-102168779D01*
X166591904Y-78530000D02*
X166668095Y-78491904D01*
X166782380Y-78491904D01*
X166896666Y-78530000D01*
X166972857Y-78606190D01*
X167010952Y-78682380D01*
X167049047Y-78834761D01*
X167049047Y-78949047D01*
X167010952Y-79101428D01*
X166972857Y-79177619D01*
X166896666Y-79253809D01*
X166782380Y-79291904D01*
X166706190Y-79291904D01*
X166591904Y-79253809D01*
X166553809Y-79215714D01*
X166553809Y-78949047D01*
X166706190Y-78949047D01*
X166210952Y-79291904D02*
X166210952Y-78491904D01*
X165906190Y-78491904D01*
X165830000Y-78530000D01*
X165791904Y-78568095D01*
X165753809Y-78644285D01*
X165753809Y-78758571D01*
X165791904Y-78834761D01*
X165830000Y-78872857D01*
X165906190Y-78910952D01*
X166210952Y-78910952D01*
X165410952Y-79291904D02*
X165410952Y-78491904D01*
X164877619Y-78491904D02*
X164725238Y-78491904D01*
X164649047Y-78530000D01*
X164572857Y-78606190D01*
X164534761Y-78758571D01*
X164534761Y-79025238D01*
X164572857Y-79177619D01*
X164649047Y-79253809D01*
X164725238Y-79291904D01*
X164877619Y-79291904D01*
X164953809Y-79253809D01*
X165030000Y-79177619D01*
X165068095Y-79025238D01*
X165068095Y-78758571D01*
X165030000Y-78606190D01*
X164953809Y-78530000D01*
X164877619Y-78491904D01*
X164230000Y-78568095D02*
X164191904Y-78530000D01*
X164115714Y-78491904D01*
X163925238Y-78491904D01*
X163849047Y-78530000D01*
X163810952Y-78568095D01*
X163772857Y-78644285D01*
X163772857Y-78720476D01*
X163810952Y-78834761D01*
X164268095Y-79291904D01*
X163772857Y-79291904D01*
X163506190Y-78491904D02*
X163010952Y-78491904D01*
X163277619Y-78796666D01*
X163163333Y-78796666D01*
X163087142Y-78834761D01*
X163049047Y-78872857D01*
X163010952Y-78949047D01*
X163010952Y-79139523D01*
X163049047Y-79215714D01*
X163087142Y-79253809D01*
X163163333Y-79291904D01*
X163391904Y-79291904D01*
X163468095Y-79253809D01*
X163506190Y-79215714D01*
X166591904Y-116658125D02*
X166668095Y-116620029D01*
X166782381Y-116620029D01*
X166896666Y-116658125D01*
X166972857Y-116734315D01*
X167010952Y-116810505D01*
X167049047Y-116962886D01*
X167049047Y-117077172D01*
X167010952Y-117229553D01*
X166972857Y-117305744D01*
X166896666Y-117381934D01*
X166782381Y-117420029D01*
X166706190Y-117420029D01*
X166591904Y-117381934D01*
X166553809Y-117343839D01*
X166553809Y-117077172D01*
X166706190Y-117077172D01*
X166210952Y-117420029D02*
X166210952Y-116620029D01*
X165753809Y-117420029D01*
X165753809Y-116620029D01*
X165372857Y-117420029D02*
X165372857Y-116620029D01*
X165182381Y-116620029D01*
X165068095Y-116658125D01*
X164991904Y-116734315D01*
X164953809Y-116810505D01*
X164915714Y-116962886D01*
X164915714Y-117077172D01*
X164953809Y-117229553D01*
X164991904Y-117305744D01*
X165068095Y-117381934D01*
X165182381Y-117420029D01*
X165372857Y-117420029D01*
X119775237Y-114307500D02*
X119851428Y-114269404D01*
X119965714Y-114269404D01*
X120079999Y-114307500D01*
X120156190Y-114383690D01*
X120194285Y-114459880D01*
X120232380Y-114612261D01*
X120232380Y-114726547D01*
X120194285Y-114878928D01*
X120156190Y-114955119D01*
X120079999Y-115031309D01*
X119965714Y-115069404D01*
X119889523Y-115069404D01*
X119775237Y-115031309D01*
X119737142Y-114993214D01*
X119737142Y-114726547D01*
X119889523Y-114726547D01*
X119394285Y-115069404D02*
X119394285Y-114269404D01*
X118937142Y-115069404D01*
X118937142Y-114269404D01*
X118556190Y-115069404D02*
X118556190Y-114269404D01*
X118365714Y-114269404D01*
X118251428Y-114307500D01*
X118175237Y-114383690D01*
X118137142Y-114459880D01*
X118099047Y-114612261D01*
X118099047Y-114726547D01*
X118137142Y-114878928D01*
X118175237Y-114955119D01*
X118251428Y-115031309D01*
X118365714Y-115069404D01*
X118556190Y-115069404D01*
X120194285Y-112228392D02*
X119584761Y-112228392D01*
X119889523Y-112533154D02*
X119889523Y-111923630D01*
X118822856Y-111733154D02*
X119203809Y-111733154D01*
X119241904Y-112114107D01*
X119203809Y-112076011D01*
X119127618Y-112037916D01*
X118937142Y-112037916D01*
X118860952Y-112076011D01*
X118822856Y-112114107D01*
X118784761Y-112190297D01*
X118784761Y-112380773D01*
X118822856Y-112456964D01*
X118860952Y-112495059D01*
X118937142Y-112533154D01*
X119127618Y-112533154D01*
X119203809Y-112495059D01*
X119241904Y-112456964D01*
X118556190Y-111733154D02*
X118289523Y-112533154D01*
X118022856Y-111733154D01*
X121441904Y-99090000D02*
X121518095Y-99051904D01*
X121632380Y-99051904D01*
X121746666Y-99090000D01*
X121822857Y-99166190D01*
X121860952Y-99242380D01*
X121899047Y-99394761D01*
X121899047Y-99509047D01*
X121860952Y-99661428D01*
X121822857Y-99737619D01*
X121746666Y-99813809D01*
X121632380Y-99851904D01*
X121556190Y-99851904D01*
X121441904Y-99813809D01*
X121403809Y-99775714D01*
X121403809Y-99509047D01*
X121556190Y-99509047D01*
X121060952Y-99851904D02*
X121060952Y-99051904D01*
X120756190Y-99051904D01*
X120680000Y-99090000D01*
X120641904Y-99128095D01*
X120603809Y-99204285D01*
X120603809Y-99318571D01*
X120641904Y-99394761D01*
X120680000Y-99432857D01*
X120756190Y-99470952D01*
X121060952Y-99470952D01*
X120260952Y-99851904D02*
X120260952Y-99051904D01*
X119727619Y-99051904D02*
X119575238Y-99051904D01*
X119499047Y-99090000D01*
X119422857Y-99166190D01*
X119384761Y-99318571D01*
X119384761Y-99585238D01*
X119422857Y-99737619D01*
X119499047Y-99813809D01*
X119575238Y-99851904D01*
X119727619Y-99851904D01*
X119803809Y-99813809D01*
X119880000Y-99737619D01*
X119918095Y-99585238D01*
X119918095Y-99318571D01*
X119880000Y-99166190D01*
X119803809Y-99090000D01*
X119727619Y-99051904D01*
X119080000Y-99128095D02*
X119041904Y-99090000D01*
X118965714Y-99051904D01*
X118775238Y-99051904D01*
X118699047Y-99090000D01*
X118660952Y-99128095D01*
X118622857Y-99204285D01*
X118622857Y-99280476D01*
X118660952Y-99394761D01*
X119118095Y-99851904D01*
X118622857Y-99851904D01*
X118356190Y-99051904D02*
X117822857Y-99051904D01*
X118165714Y-99851904D01*
X121441904Y-86408750D02*
X121518095Y-86370654D01*
X121632380Y-86370654D01*
X121746666Y-86408750D01*
X121822857Y-86484940D01*
X121860952Y-86561130D01*
X121899047Y-86713511D01*
X121899047Y-86827797D01*
X121860952Y-86980178D01*
X121822857Y-87056369D01*
X121746666Y-87132559D01*
X121632380Y-87170654D01*
X121556190Y-87170654D01*
X121441904Y-87132559D01*
X121403809Y-87094464D01*
X121403809Y-86827797D01*
X121556190Y-86827797D01*
X121060952Y-87170654D02*
X121060952Y-86370654D01*
X120756190Y-86370654D01*
X120680000Y-86408750D01*
X120641904Y-86446845D01*
X120603809Y-86523035D01*
X120603809Y-86637321D01*
X120641904Y-86713511D01*
X120680000Y-86751607D01*
X120756190Y-86789702D01*
X121060952Y-86789702D01*
X120260952Y-87170654D02*
X120260952Y-86370654D01*
X119727619Y-86370654D02*
X119575238Y-86370654D01*
X119499047Y-86408750D01*
X119422857Y-86484940D01*
X119384761Y-86637321D01*
X119384761Y-86903988D01*
X119422857Y-87056369D01*
X119499047Y-87132559D01*
X119575238Y-87170654D01*
X119727619Y-87170654D01*
X119803809Y-87132559D01*
X119880000Y-87056369D01*
X119918095Y-86903988D01*
X119918095Y-86637321D01*
X119880000Y-86484940D01*
X119803809Y-86408750D01*
X119727619Y-86370654D01*
X119118095Y-86370654D02*
X118622857Y-86370654D01*
X118889523Y-86675416D01*
X118775238Y-86675416D01*
X118699047Y-86713511D01*
X118660952Y-86751607D01*
X118622857Y-86827797D01*
X118622857Y-87018273D01*
X118660952Y-87094464D01*
X118699047Y-87132559D01*
X118775238Y-87170654D01*
X119003809Y-87170654D01*
X119080000Y-87132559D01*
X119118095Y-87094464D01*
X117899047Y-86370654D02*
X118280000Y-86370654D01*
X118318095Y-86751607D01*
X118280000Y-86713511D01*
X118203809Y-86675416D01*
X118013333Y-86675416D01*
X117937142Y-86713511D01*
X117899047Y-86751607D01*
X117860952Y-86827797D01*
X117860952Y-87018273D01*
X117899047Y-87094464D01*
X117937142Y-87132559D01*
X118013333Y-87170654D01*
X118203809Y-87170654D01*
X118280000Y-87132559D01*
X118318095Y-87094464D01*
X121441904Y-81336250D02*
X121518095Y-81298154D01*
X121632380Y-81298154D01*
X121746666Y-81336250D01*
X121822857Y-81412440D01*
X121860952Y-81488630D01*
X121899047Y-81641011D01*
X121899047Y-81755297D01*
X121860952Y-81907678D01*
X121822857Y-81983869D01*
X121746666Y-82060059D01*
X121632380Y-82098154D01*
X121556190Y-82098154D01*
X121441904Y-82060059D01*
X121403809Y-82021964D01*
X121403809Y-81755297D01*
X121556190Y-81755297D01*
X121060952Y-82098154D02*
X121060952Y-81298154D01*
X120756190Y-81298154D01*
X120680000Y-81336250D01*
X120641904Y-81374345D01*
X120603809Y-81450535D01*
X120603809Y-81564821D01*
X120641904Y-81641011D01*
X120680000Y-81679107D01*
X120756190Y-81717202D01*
X121060952Y-81717202D01*
X120260952Y-82098154D02*
X120260952Y-81298154D01*
X119727619Y-81298154D02*
X119575238Y-81298154D01*
X119499047Y-81336250D01*
X119422857Y-81412440D01*
X119384761Y-81564821D01*
X119384761Y-81831488D01*
X119422857Y-81983869D01*
X119499047Y-82060059D01*
X119575238Y-82098154D01*
X119727619Y-82098154D01*
X119803809Y-82060059D01*
X119880000Y-81983869D01*
X119918095Y-81831488D01*
X119918095Y-81564821D01*
X119880000Y-81412440D01*
X119803809Y-81336250D01*
X119727619Y-81298154D01*
X119118095Y-81298154D02*
X118622857Y-81298154D01*
X118889523Y-81602916D01*
X118775238Y-81602916D01*
X118699047Y-81641011D01*
X118660952Y-81679107D01*
X118622857Y-81755297D01*
X118622857Y-81945773D01*
X118660952Y-82021964D01*
X118699047Y-82060059D01*
X118775238Y-82098154D01*
X119003809Y-82098154D01*
X119080000Y-82060059D01*
X119118095Y-82021964D01*
X118241904Y-82098154D02*
X118089523Y-82098154D01*
X118013333Y-82060059D01*
X117975238Y-82021964D01*
X117899047Y-81907678D01*
X117860952Y-81755297D01*
X117860952Y-81450535D01*
X117899047Y-81374345D01*
X117937142Y-81336250D01*
X118013333Y-81298154D01*
X118165714Y-81298154D01*
X118241904Y-81336250D01*
X118280000Y-81374345D01*
X118318095Y-81450535D01*
X118318095Y-81641011D01*
X118280000Y-81717202D01*
X118241904Y-81755297D01*
X118165714Y-81793392D01*
X118013333Y-81793392D01*
X117937142Y-81755297D01*
X117899047Y-81717202D01*
X117860952Y-81641011D01*
X121441904Y-104162500D02*
X121518095Y-104124404D01*
X121632380Y-104124404D01*
X121746666Y-104162500D01*
X121822857Y-104238690D01*
X121860952Y-104314880D01*
X121899047Y-104467261D01*
X121899047Y-104581547D01*
X121860952Y-104733928D01*
X121822857Y-104810119D01*
X121746666Y-104886309D01*
X121632380Y-104924404D01*
X121556190Y-104924404D01*
X121441904Y-104886309D01*
X121403809Y-104848214D01*
X121403809Y-104581547D01*
X121556190Y-104581547D01*
X121060952Y-104924404D02*
X121060952Y-104124404D01*
X120756190Y-104124404D01*
X120680000Y-104162500D01*
X120641904Y-104200595D01*
X120603809Y-104276785D01*
X120603809Y-104391071D01*
X120641904Y-104467261D01*
X120680000Y-104505357D01*
X120756190Y-104543452D01*
X121060952Y-104543452D01*
X120260952Y-104924404D02*
X120260952Y-104124404D01*
X119727619Y-104124404D02*
X119575238Y-104124404D01*
X119499047Y-104162500D01*
X119422857Y-104238690D01*
X119384761Y-104391071D01*
X119384761Y-104657738D01*
X119422857Y-104810119D01*
X119499047Y-104886309D01*
X119575238Y-104924404D01*
X119727619Y-104924404D01*
X119803809Y-104886309D01*
X119880000Y-104810119D01*
X119918095Y-104657738D01*
X119918095Y-104391071D01*
X119880000Y-104238690D01*
X119803809Y-104162500D01*
X119727619Y-104124404D01*
X118622857Y-104924404D02*
X119080000Y-104924404D01*
X118851428Y-104924404D02*
X118851428Y-104124404D01*
X118927619Y-104238690D01*
X119003809Y-104314880D01*
X119080000Y-104352976D01*
X118318095Y-104200595D02*
X118280000Y-104162500D01*
X118203809Y-104124404D01*
X118013333Y-104124404D01*
X117937142Y-104162500D01*
X117899047Y-104200595D01*
X117860952Y-104276785D01*
X117860952Y-104352976D01*
X117899047Y-104467261D01*
X118356190Y-104924404D01*
X117860952Y-104924404D01*
X119775237Y-119380000D02*
X119851428Y-119341904D01*
X119965714Y-119341904D01*
X120079999Y-119380000D01*
X120156190Y-119456190D01*
X120194285Y-119532380D01*
X120232380Y-119684761D01*
X120232380Y-119799047D01*
X120194285Y-119951428D01*
X120156190Y-120027619D01*
X120079999Y-120103809D01*
X119965714Y-120141904D01*
X119889523Y-120141904D01*
X119775237Y-120103809D01*
X119737142Y-120065714D01*
X119737142Y-119799047D01*
X119889523Y-119799047D01*
X119394285Y-120141904D02*
X119394285Y-119341904D01*
X118937142Y-120141904D01*
X118937142Y-119341904D01*
X118556190Y-120141904D02*
X118556190Y-119341904D01*
X118365714Y-119341904D01*
X118251428Y-119380000D01*
X118175237Y-119456190D01*
X118137142Y-119532380D01*
X118099047Y-119684761D01*
X118099047Y-119799047D01*
X118137142Y-119951428D01*
X118175237Y-120027619D01*
X118251428Y-120103809D01*
X118365714Y-120141904D01*
X118556190Y-120141904D01*
X121441904Y-106698750D02*
X121518095Y-106660654D01*
X121632380Y-106660654D01*
X121746666Y-106698750D01*
X121822857Y-106774940D01*
X121860952Y-106851130D01*
X121899047Y-107003511D01*
X121899047Y-107117797D01*
X121860952Y-107270178D01*
X121822857Y-107346369D01*
X121746666Y-107422559D01*
X121632380Y-107460654D01*
X121556190Y-107460654D01*
X121441904Y-107422559D01*
X121403809Y-107384464D01*
X121403809Y-107117797D01*
X121556190Y-107117797D01*
X121060952Y-107460654D02*
X121060952Y-106660654D01*
X120756190Y-106660654D01*
X120680000Y-106698750D01*
X120641904Y-106736845D01*
X120603809Y-106813035D01*
X120603809Y-106927321D01*
X120641904Y-107003511D01*
X120680000Y-107041607D01*
X120756190Y-107079702D01*
X121060952Y-107079702D01*
X120260952Y-107460654D02*
X120260952Y-106660654D01*
X119727619Y-106660654D02*
X119575238Y-106660654D01*
X119499047Y-106698750D01*
X119422857Y-106774940D01*
X119384761Y-106927321D01*
X119384761Y-107193988D01*
X119422857Y-107346369D01*
X119499047Y-107422559D01*
X119575238Y-107460654D01*
X119727619Y-107460654D01*
X119803809Y-107422559D01*
X119880000Y-107346369D01*
X119918095Y-107193988D01*
X119918095Y-106927321D01*
X119880000Y-106774940D01*
X119803809Y-106698750D01*
X119727619Y-106660654D01*
X118622857Y-107460654D02*
X119080000Y-107460654D01*
X118851428Y-107460654D02*
X118851428Y-106660654D01*
X118927619Y-106774940D01*
X119003809Y-106851130D01*
X119080000Y-106889226D01*
X118356190Y-106660654D02*
X117860952Y-106660654D01*
X118127619Y-106965416D01*
X118013333Y-106965416D01*
X117937142Y-107003511D01*
X117899047Y-107041607D01*
X117860952Y-107117797D01*
X117860952Y-107308273D01*
X117899047Y-107384464D01*
X117937142Y-107422559D01*
X118013333Y-107460654D01*
X118241904Y-107460654D01*
X118318095Y-107422559D01*
X118356190Y-107384464D01*
X121441904Y-96553750D02*
X121518095Y-96515654D01*
X121632380Y-96515654D01*
X121746666Y-96553750D01*
X121822857Y-96629940D01*
X121860952Y-96706130D01*
X121899047Y-96858511D01*
X121899047Y-96972797D01*
X121860952Y-97125178D01*
X121822857Y-97201369D01*
X121746666Y-97277559D01*
X121632380Y-97315654D01*
X121556190Y-97315654D01*
X121441904Y-97277559D01*
X121403809Y-97239464D01*
X121403809Y-96972797D01*
X121556190Y-96972797D01*
X121060952Y-97315654D02*
X121060952Y-96515654D01*
X120756190Y-96515654D01*
X120680000Y-96553750D01*
X120641904Y-96591845D01*
X120603809Y-96668035D01*
X120603809Y-96782321D01*
X120641904Y-96858511D01*
X120680000Y-96896607D01*
X120756190Y-96934702D01*
X121060952Y-96934702D01*
X120260952Y-97315654D02*
X120260952Y-96515654D01*
X119727619Y-96515654D02*
X119575238Y-96515654D01*
X119499047Y-96553750D01*
X119422857Y-96629940D01*
X119384761Y-96782321D01*
X119384761Y-97048988D01*
X119422857Y-97201369D01*
X119499047Y-97277559D01*
X119575238Y-97315654D01*
X119727619Y-97315654D01*
X119803809Y-97277559D01*
X119880000Y-97201369D01*
X119918095Y-97048988D01*
X119918095Y-96782321D01*
X119880000Y-96629940D01*
X119803809Y-96553750D01*
X119727619Y-96515654D01*
X119080000Y-96591845D02*
X119041904Y-96553750D01*
X118965714Y-96515654D01*
X118775238Y-96515654D01*
X118699047Y-96553750D01*
X118660952Y-96591845D01*
X118622857Y-96668035D01*
X118622857Y-96744226D01*
X118660952Y-96858511D01*
X119118095Y-97315654D01*
X118622857Y-97315654D01*
X117937142Y-96515654D02*
X118089523Y-96515654D01*
X118165714Y-96553750D01*
X118203809Y-96591845D01*
X118280000Y-96706130D01*
X118318095Y-96858511D01*
X118318095Y-97163273D01*
X118280000Y-97239464D01*
X118241904Y-97277559D01*
X118165714Y-97315654D01*
X118013333Y-97315654D01*
X117937142Y-97277559D01*
X117899047Y-97239464D01*
X117860952Y-97163273D01*
X117860952Y-96972797D01*
X117899047Y-96896607D01*
X117937142Y-96858511D01*
X118013333Y-96820416D01*
X118165714Y-96820416D01*
X118241904Y-96858511D01*
X118280000Y-96896607D01*
X118318095Y-96972797D01*
X121441904Y-94017500D02*
X121518095Y-93979404D01*
X121632380Y-93979404D01*
X121746666Y-94017500D01*
X121822857Y-94093690D01*
X121860952Y-94169880D01*
X121899047Y-94322261D01*
X121899047Y-94436547D01*
X121860952Y-94588928D01*
X121822857Y-94665119D01*
X121746666Y-94741309D01*
X121632380Y-94779404D01*
X121556190Y-94779404D01*
X121441904Y-94741309D01*
X121403809Y-94703214D01*
X121403809Y-94436547D01*
X121556190Y-94436547D01*
X121060952Y-94779404D02*
X121060952Y-93979404D01*
X120756190Y-93979404D01*
X120680000Y-94017500D01*
X120641904Y-94055595D01*
X120603809Y-94131785D01*
X120603809Y-94246071D01*
X120641904Y-94322261D01*
X120680000Y-94360357D01*
X120756190Y-94398452D01*
X121060952Y-94398452D01*
X120260952Y-94779404D02*
X120260952Y-93979404D01*
X119727619Y-93979404D02*
X119575238Y-93979404D01*
X119499047Y-94017500D01*
X119422857Y-94093690D01*
X119384761Y-94246071D01*
X119384761Y-94512738D01*
X119422857Y-94665119D01*
X119499047Y-94741309D01*
X119575238Y-94779404D01*
X119727619Y-94779404D01*
X119803809Y-94741309D01*
X119880000Y-94665119D01*
X119918095Y-94512738D01*
X119918095Y-94246071D01*
X119880000Y-94093690D01*
X119803809Y-94017500D01*
X119727619Y-93979404D01*
X119080000Y-94055595D02*
X119041904Y-94017500D01*
X118965714Y-93979404D01*
X118775238Y-93979404D01*
X118699047Y-94017500D01*
X118660952Y-94055595D01*
X118622857Y-94131785D01*
X118622857Y-94207976D01*
X118660952Y-94322261D01*
X119118095Y-94779404D01*
X118622857Y-94779404D01*
X117899047Y-93979404D02*
X118280000Y-93979404D01*
X118318095Y-94360357D01*
X118280000Y-94322261D01*
X118203809Y-94284166D01*
X118013333Y-94284166D01*
X117937142Y-94322261D01*
X117899047Y-94360357D01*
X117860952Y-94436547D01*
X117860952Y-94627023D01*
X117899047Y-94703214D01*
X117937142Y-94741309D01*
X118013333Y-94779404D01*
X118203809Y-94779404D01*
X118280000Y-94741309D01*
X118318095Y-94703214D01*
X119775237Y-116843750D02*
X119851428Y-116805654D01*
X119965714Y-116805654D01*
X120079999Y-116843750D01*
X120156190Y-116919940D01*
X120194285Y-116996130D01*
X120232380Y-117148511D01*
X120232380Y-117262797D01*
X120194285Y-117415178D01*
X120156190Y-117491369D01*
X120079999Y-117567559D01*
X119965714Y-117605654D01*
X119889523Y-117605654D01*
X119775237Y-117567559D01*
X119737142Y-117529464D01*
X119737142Y-117262797D01*
X119889523Y-117262797D01*
X119394285Y-117605654D02*
X119394285Y-116805654D01*
X118937142Y-117605654D01*
X118937142Y-116805654D01*
X118556190Y-117605654D02*
X118556190Y-116805654D01*
X118365714Y-116805654D01*
X118251428Y-116843750D01*
X118175237Y-116919940D01*
X118137142Y-116996130D01*
X118099047Y-117148511D01*
X118099047Y-117262797D01*
X118137142Y-117415178D01*
X118175237Y-117491369D01*
X118251428Y-117567559D01*
X118365714Y-117605654D01*
X118556190Y-117605654D01*
X121441904Y-83872500D02*
X121518095Y-83834404D01*
X121632380Y-83834404D01*
X121746666Y-83872500D01*
X121822857Y-83948690D01*
X121860952Y-84024880D01*
X121899047Y-84177261D01*
X121899047Y-84291547D01*
X121860952Y-84443928D01*
X121822857Y-84520119D01*
X121746666Y-84596309D01*
X121632380Y-84634404D01*
X121556190Y-84634404D01*
X121441904Y-84596309D01*
X121403809Y-84558214D01*
X121403809Y-84291547D01*
X121556190Y-84291547D01*
X121060952Y-84634404D02*
X121060952Y-83834404D01*
X120756190Y-83834404D01*
X120680000Y-83872500D01*
X120641904Y-83910595D01*
X120603809Y-83986785D01*
X120603809Y-84101071D01*
X120641904Y-84177261D01*
X120680000Y-84215357D01*
X120756190Y-84253452D01*
X121060952Y-84253452D01*
X120260952Y-84634404D02*
X120260952Y-83834404D01*
X119727619Y-83834404D02*
X119575238Y-83834404D01*
X119499047Y-83872500D01*
X119422857Y-83948690D01*
X119384761Y-84101071D01*
X119384761Y-84367738D01*
X119422857Y-84520119D01*
X119499047Y-84596309D01*
X119575238Y-84634404D01*
X119727619Y-84634404D01*
X119803809Y-84596309D01*
X119880000Y-84520119D01*
X119918095Y-84367738D01*
X119918095Y-84101071D01*
X119880000Y-83948690D01*
X119803809Y-83872500D01*
X119727619Y-83834404D01*
X119118095Y-83834404D02*
X118622857Y-83834404D01*
X118889523Y-84139166D01*
X118775238Y-84139166D01*
X118699047Y-84177261D01*
X118660952Y-84215357D01*
X118622857Y-84291547D01*
X118622857Y-84482023D01*
X118660952Y-84558214D01*
X118699047Y-84596309D01*
X118775238Y-84634404D01*
X119003809Y-84634404D01*
X119080000Y-84596309D01*
X119118095Y-84558214D01*
X117937142Y-84101071D02*
X117937142Y-84634404D01*
X118127619Y-83796309D02*
X118318095Y-84367738D01*
X117822857Y-84367738D01*
X121441904Y-91481250D02*
X121518095Y-91443154D01*
X121632380Y-91443154D01*
X121746666Y-91481250D01*
X121822857Y-91557440D01*
X121860952Y-91633630D01*
X121899047Y-91786011D01*
X121899047Y-91900297D01*
X121860952Y-92052678D01*
X121822857Y-92128869D01*
X121746666Y-92205059D01*
X121632380Y-92243154D01*
X121556190Y-92243154D01*
X121441904Y-92205059D01*
X121403809Y-92166964D01*
X121403809Y-91900297D01*
X121556190Y-91900297D01*
X121060952Y-92243154D02*
X121060952Y-91443154D01*
X120756190Y-91443154D01*
X120680000Y-91481250D01*
X120641904Y-91519345D01*
X120603809Y-91595535D01*
X120603809Y-91709821D01*
X120641904Y-91786011D01*
X120680000Y-91824107D01*
X120756190Y-91862202D01*
X121060952Y-91862202D01*
X120260952Y-92243154D02*
X120260952Y-91443154D01*
X119727619Y-91443154D02*
X119575238Y-91443154D01*
X119499047Y-91481250D01*
X119422857Y-91557440D01*
X119384761Y-91709821D01*
X119384761Y-91976488D01*
X119422857Y-92128869D01*
X119499047Y-92205059D01*
X119575238Y-92243154D01*
X119727619Y-92243154D01*
X119803809Y-92205059D01*
X119880000Y-92128869D01*
X119918095Y-91976488D01*
X119918095Y-91709821D01*
X119880000Y-91557440D01*
X119803809Y-91481250D01*
X119727619Y-91443154D01*
X119118095Y-91443154D02*
X118622857Y-91443154D01*
X118889523Y-91747916D01*
X118775238Y-91747916D01*
X118699047Y-91786011D01*
X118660952Y-91824107D01*
X118622857Y-91900297D01*
X118622857Y-92090773D01*
X118660952Y-92166964D01*
X118699047Y-92205059D01*
X118775238Y-92243154D01*
X119003809Y-92243154D01*
X119080000Y-92205059D01*
X119118095Y-92166964D01*
X118356190Y-91443154D02*
X117860952Y-91443154D01*
X118127619Y-91747916D01*
X118013333Y-91747916D01*
X117937142Y-91786011D01*
X117899047Y-91824107D01*
X117860952Y-91900297D01*
X117860952Y-92090773D01*
X117899047Y-92166964D01*
X117937142Y-92205059D01*
X118013333Y-92243154D01*
X118241904Y-92243154D01*
X118318095Y-92205059D01*
X118356190Y-92166964D01*
X120860951Y-109692142D02*
X120251428Y-109692142D01*
X120556189Y-109996904D02*
X120556189Y-109387380D01*
X119946666Y-109196904D02*
X119451428Y-109196904D01*
X119718094Y-109501666D01*
X119603808Y-109501666D01*
X119527618Y-109539761D01*
X119489523Y-109577857D01*
X119451428Y-109654047D01*
X119451428Y-109844523D01*
X119489523Y-109920714D01*
X119527618Y-109958809D01*
X119603808Y-109996904D01*
X119832380Y-109996904D01*
X119908570Y-109958809D01*
X119946666Y-109920714D01*
X119222856Y-109196904D02*
X118956189Y-109996904D01*
X118689523Y-109196904D01*
X118499047Y-109196904D02*
X118003808Y-109196904D01*
X118270475Y-109501666D01*
X118156189Y-109501666D01*
X118079999Y-109539761D01*
X118041904Y-109577857D01*
X118003808Y-109654047D01*
X118003808Y-109844523D01*
X118041904Y-109920714D01*
X118079999Y-109958809D01*
X118156189Y-109996904D01*
X118384761Y-109996904D01*
X118460951Y-109958809D01*
X118499047Y-109920714D01*
X121441904Y-88945000D02*
X121518095Y-88906904D01*
X121632380Y-88906904D01*
X121746666Y-88945000D01*
X121822857Y-89021190D01*
X121860952Y-89097380D01*
X121899047Y-89249761D01*
X121899047Y-89364047D01*
X121860952Y-89516428D01*
X121822857Y-89592619D01*
X121746666Y-89668809D01*
X121632380Y-89706904D01*
X121556190Y-89706904D01*
X121441904Y-89668809D01*
X121403809Y-89630714D01*
X121403809Y-89364047D01*
X121556190Y-89364047D01*
X121060952Y-89706904D02*
X121060952Y-88906904D01*
X120756190Y-88906904D01*
X120680000Y-88945000D01*
X120641904Y-88983095D01*
X120603809Y-89059285D01*
X120603809Y-89173571D01*
X120641904Y-89249761D01*
X120680000Y-89287857D01*
X120756190Y-89325952D01*
X121060952Y-89325952D01*
X120260952Y-89706904D02*
X120260952Y-88906904D01*
X119727619Y-88906904D02*
X119575238Y-88906904D01*
X119499047Y-88945000D01*
X119422857Y-89021190D01*
X119384761Y-89173571D01*
X119384761Y-89440238D01*
X119422857Y-89592619D01*
X119499047Y-89668809D01*
X119575238Y-89706904D01*
X119727619Y-89706904D01*
X119803809Y-89668809D01*
X119880000Y-89592619D01*
X119918095Y-89440238D01*
X119918095Y-89173571D01*
X119880000Y-89021190D01*
X119803809Y-88945000D01*
X119727619Y-88906904D01*
X119118095Y-88906904D02*
X118622857Y-88906904D01*
X118889523Y-89211666D01*
X118775238Y-89211666D01*
X118699047Y-89249761D01*
X118660952Y-89287857D01*
X118622857Y-89364047D01*
X118622857Y-89554523D01*
X118660952Y-89630714D01*
X118699047Y-89668809D01*
X118775238Y-89706904D01*
X119003809Y-89706904D01*
X119080000Y-89668809D01*
X119118095Y-89630714D01*
X118318095Y-88983095D02*
X118280000Y-88945000D01*
X118203809Y-88906904D01*
X118013333Y-88906904D01*
X117937142Y-88945000D01*
X117899047Y-88983095D01*
X117860952Y-89059285D01*
X117860952Y-89135476D01*
X117899047Y-89249761D01*
X118356190Y-89706904D01*
X117860952Y-89706904D01*
X121441904Y-101626250D02*
X121518095Y-101588154D01*
X121632380Y-101588154D01*
X121746666Y-101626250D01*
X121822857Y-101702440D01*
X121860952Y-101778630D01*
X121899047Y-101931011D01*
X121899047Y-102045297D01*
X121860952Y-102197678D01*
X121822857Y-102273869D01*
X121746666Y-102350059D01*
X121632380Y-102388154D01*
X121556190Y-102388154D01*
X121441904Y-102350059D01*
X121403809Y-102311964D01*
X121403809Y-102045297D01*
X121556190Y-102045297D01*
X121060952Y-102388154D02*
X121060952Y-101588154D01*
X120756190Y-101588154D01*
X120680000Y-101626250D01*
X120641904Y-101664345D01*
X120603809Y-101740535D01*
X120603809Y-101854821D01*
X120641904Y-101931011D01*
X120680000Y-101969107D01*
X120756190Y-102007202D01*
X121060952Y-102007202D01*
X120260952Y-102388154D02*
X120260952Y-101588154D01*
X119727619Y-101588154D02*
X119575238Y-101588154D01*
X119499047Y-101626250D01*
X119422857Y-101702440D01*
X119384761Y-101854821D01*
X119384761Y-102121488D01*
X119422857Y-102273869D01*
X119499047Y-102350059D01*
X119575238Y-102388154D01*
X119727619Y-102388154D01*
X119803809Y-102350059D01*
X119880000Y-102273869D01*
X119918095Y-102121488D01*
X119918095Y-101854821D01*
X119880000Y-101702440D01*
X119803809Y-101626250D01*
X119727619Y-101588154D01*
X118622857Y-102388154D02*
X119080000Y-102388154D01*
X118851428Y-102388154D02*
X118851428Y-101588154D01*
X118927619Y-101702440D01*
X119003809Y-101778630D01*
X119080000Y-101816726D01*
X117937142Y-101854821D02*
X117937142Y-102388154D01*
X118127619Y-101550059D02*
X118318095Y-102121488D01*
X117822857Y-102121488D01*
X121441904Y-78800000D02*
X121518095Y-78761904D01*
X121632380Y-78761904D01*
X121746666Y-78800000D01*
X121822857Y-78876190D01*
X121860952Y-78952380D01*
X121899047Y-79104761D01*
X121899047Y-79219047D01*
X121860952Y-79371428D01*
X121822857Y-79447619D01*
X121746666Y-79523809D01*
X121632380Y-79561904D01*
X121556190Y-79561904D01*
X121441904Y-79523809D01*
X121403809Y-79485714D01*
X121403809Y-79219047D01*
X121556190Y-79219047D01*
X121060952Y-79561904D02*
X121060952Y-78761904D01*
X120756190Y-78761904D01*
X120680000Y-78800000D01*
X120641904Y-78838095D01*
X120603809Y-78914285D01*
X120603809Y-79028571D01*
X120641904Y-79104761D01*
X120680000Y-79142857D01*
X120756190Y-79180952D01*
X121060952Y-79180952D01*
X120260952Y-79561904D02*
X120260952Y-78761904D01*
X119727619Y-78761904D02*
X119575238Y-78761904D01*
X119499047Y-78800000D01*
X119422857Y-78876190D01*
X119384761Y-79028571D01*
X119384761Y-79295238D01*
X119422857Y-79447619D01*
X119499047Y-79523809D01*
X119575238Y-79561904D01*
X119727619Y-79561904D01*
X119803809Y-79523809D01*
X119880000Y-79447619D01*
X119918095Y-79295238D01*
X119918095Y-79028571D01*
X119880000Y-78876190D01*
X119803809Y-78800000D01*
X119727619Y-78761904D01*
X119118095Y-78761904D02*
X118622857Y-78761904D01*
X118889523Y-79066666D01*
X118775238Y-79066666D01*
X118699047Y-79104761D01*
X118660952Y-79142857D01*
X118622857Y-79219047D01*
X118622857Y-79409523D01*
X118660952Y-79485714D01*
X118699047Y-79523809D01*
X118775238Y-79561904D01*
X119003809Y-79561904D01*
X119080000Y-79523809D01*
X119118095Y-79485714D01*
X117937142Y-78761904D02*
X118089523Y-78761904D01*
X118165714Y-78800000D01*
X118203809Y-78838095D01*
X118280000Y-78952380D01*
X118318095Y-79104761D01*
X118318095Y-79409523D01*
X118280000Y-79485714D01*
X118241904Y-79523809D01*
X118165714Y-79561904D01*
X118013333Y-79561904D01*
X117937142Y-79523809D01*
X117899047Y-79485714D01*
X117860952Y-79409523D01*
X117860952Y-79219047D01*
X117899047Y-79142857D01*
X117937142Y-79104761D01*
X118013333Y-79066666D01*
X118165714Y-79066666D01*
X118241904Y-79104761D01*
X118280000Y-79142857D01*
X118318095Y-79219047D01*
M02*
