G04 #@! TF.GenerationSoftware,KiCad,Pcbnew,6.0.0-rc1-unknown-a6325aa~66~ubuntu18.04.1*
G04 #@! TF.CreationDate,2018-09-07T01:03:39+02:00*
G04 #@! TF.ProjectId,esp32-gateway,65737033322D676174657761792E6B69,v3*
G04 #@! TF.SameCoordinates,Original*
G04 #@! TF.FileFunction,Copper,L2,Bot,Signal*
G04 #@! TF.FilePolarity,Positive*
%FSLAX46Y46*%
G04 Gerber Fmt 4.6, Leading zero omitted, Abs format (unit mm)*
G04 Created by KiCad (PCBNEW 6.0.0-rc1-unknown-a6325aa~66~ubuntu18.04.1) date Fri Sep  7 01:03:39 2018*
%MOMM*%
%LPD*%
G01*
G04 APERTURE LIST*
G04 #@! TA.AperFunction,ComponentPad*
%ADD10C,1.879600*%
G04 #@! TD*
G04 #@! TA.AperFunction,ComponentPad*
%ADD11C,1.524000*%
G04 #@! TD*
G04 #@! TA.AperFunction,ComponentPad*
%ADD12R,1.524000X1.524000*%
G04 #@! TD*
G04 #@! TA.AperFunction,ComponentPad*
%ADD13C,1.350000*%
G04 #@! TD*
G04 #@! TA.AperFunction,ComponentPad*
%ADD14O,1.350000X1.800000*%
G04 #@! TD*
G04 #@! TA.AperFunction,ViaPad*
%ADD15C,0.900000*%
G04 #@! TD*
G04 #@! TA.AperFunction,ViaPad*
%ADD16C,0.600000*%
G04 #@! TD*
G04 #@! TA.AperFunction,Conductor*
%ADD17C,0.300000*%
G04 #@! TD*
G04 #@! TA.AperFunction,Conductor*
%ADD18C,0.150000*%
G04 #@! TD*
G04 #@! TA.AperFunction,Conductor*
%ADD19C,0.254000*%
G04 #@! TD*
G04 APERTURE END LIST*
D10*
G04 #@! TO.P,J3,1*
G04 #@! TO.N,Net-(D1-Pad2)*
X116332000Y-147828000D03*
G04 #@! TO.P,J3,2*
G04 #@! TO.N,Net-(D2-Pad2)*
X116332000Y-145288000D03*
G04 #@! TO.P,J3,3*
G04 #@! TO.N,Net-(D3-Pad2)*
X116332000Y-142748000D03*
G04 #@! TO.P,J3,4*
G04 #@! TO.N,Net-(D4-Pad2)*
X116332000Y-140208000D03*
G04 #@! TO.P,J3,5*
G04 #@! TO.N,Net-(D5-Pad2)*
X116332000Y-137668000D03*
G04 #@! TO.P,J3,6*
G04 #@! TO.N,GND*
X116332000Y-135128000D03*
G04 #@! TD*
D11*
G04 #@! TO.P,U2,8*
G04 #@! TO.N,IO16*
X129770000Y-123800000D03*
G04 #@! TO.P,U2,7*
G04 #@! TO.N,IO19*
X129770000Y-126340000D03*
G04 #@! TO.P,U2,6*
G04 #@! TO.N,IO23*
X127230000Y-123800000D03*
G04 #@! TO.P,U2,5*
G04 #@! TO.N,IO18*
X127230000Y-126340000D03*
G04 #@! TO.P,U2,4*
G04 #@! TO.N,IO5*
X124690000Y-123800000D03*
G04 #@! TO.P,U2,3*
G04 #@! TO.N,CE-RST*
X124690000Y-126340000D03*
G04 #@! TO.P,U2,2*
G04 #@! TO.N,+3V3*
X122150000Y-123800000D03*
D12*
G04 #@! TO.P,U2,1*
G04 #@! TO.N,GND*
X122150000Y-126340000D03*
G04 #@! TD*
D10*
G04 #@! TO.P,J5,17*
G04 #@! TO.N,IO23*
X168656000Y-79024000D03*
G04 #@! TO.P,J5,16*
G04 #@! TO.N,IO22*
X168656000Y-81564000D03*
G04 #@! TO.P,J5,15*
G04 #@! TO.N,ESPTX*
X168656000Y-84104000D03*
G04 #@! TO.P,J5,14*
G04 #@! TO.N,ESPRX*
X168656000Y-86644000D03*
G04 #@! TO.P,J5,13*
G04 #@! TO.N,IO21*
X168656000Y-89184000D03*
G04 #@! TO.P,J5,12*
G04 #@! TO.N,IO20*
X168656000Y-91724000D03*
G04 #@! TO.P,J5,11*
G04 #@! TO.N,IO19*
X168656000Y-94264000D03*
G04 #@! TO.P,J5,10*
G04 #@! TO.N,IO18*
X168656000Y-96804000D03*
G04 #@! TO.P,J5,9*
G04 #@! TO.N,IO5*
X168656000Y-99344000D03*
G04 #@! TO.P,J5,8*
G04 #@! TO.N,CE-RST*
X168656000Y-101884000D03*
G04 #@! TO.P,J5,7*
G04 #@! TO.N,IO16*
X168656000Y-104424000D03*
G04 #@! TO.P,J5,6*
G04 #@! TO.N,IO4*
X168656000Y-106964000D03*
G04 #@! TO.P,J5,5*
G04 #@! TO.N,IO2*
X168656000Y-109504000D03*
G04 #@! TO.P,J5,4*
G04 #@! TO.N,IO15*
X168656000Y-112044000D03*
G04 #@! TO.P,J5,3*
G04 #@! TO.N,GND*
X168656000Y-114584000D03*
G04 #@! TO.P,J5,2*
X168656000Y-117124000D03*
G04 #@! TO.P,J5,1*
G04 #@! TO.N,+3V3*
X168656000Y-119664000D03*
G04 #@! TD*
G04 #@! TO.P,J4,1*
G04 #@! TO.N,SENSOR_VP*
X116270000Y-79030000D03*
G04 #@! TO.P,J4,2*
G04 #@! TO.N,SENSOR_VN*
X116270000Y-81570000D03*
G04 #@! TO.P,J4,3*
G04 #@! TO.N,IO34*
X116270000Y-84110000D03*
G04 #@! TO.P,J4,4*
G04 #@! TO.N,IO35*
X116270000Y-86650000D03*
G04 #@! TO.P,J4,5*
G04 #@! TO.N,IO32*
X116270000Y-89190000D03*
G04 #@! TO.P,J4,6*
G04 #@! TO.N,IO33*
X116270000Y-91730000D03*
G04 #@! TO.P,J4,7*
G04 #@! TO.N,IO25*
X116270000Y-94270000D03*
G04 #@! TO.P,J4,8*
G04 #@! TO.N,IO26*
X116270000Y-96810000D03*
G04 #@! TO.P,J4,9*
G04 #@! TO.N,IO27*
X116270000Y-99350000D03*
G04 #@! TO.P,J4,10*
G04 #@! TO.N,IO14*
X116270000Y-101890000D03*
G04 #@! TO.P,J4,11*
G04 #@! TO.N,IO12*
X116270000Y-104430000D03*
G04 #@! TO.P,J4,12*
G04 #@! TO.N,IO13*
X116270000Y-106970000D03*
G04 #@! TO.P,J4,13*
G04 #@! TO.N,+3V3*
X116270000Y-109510000D03*
G04 #@! TO.P,J4,14*
G04 #@! TO.N,+5V*
X116270000Y-112050000D03*
G04 #@! TO.P,J4,15*
G04 #@! TO.N,GND*
X116270000Y-114590000D03*
G04 #@! TO.P,J4,16*
X116270000Y-117130000D03*
G04 #@! TO.P,J4,17*
X116270000Y-119670000D03*
G04 #@! TD*
D13*
G04 #@! TO.P,J1,6*
G04 #@! TO.N,GND*
X140440000Y-155350000D03*
X145290000Y-155350000D03*
D14*
X146490000Y-158030000D03*
X139240000Y-158030000D03*
G04 #@! TD*
D15*
G04 #@! TO.N,GND*
X142330000Y-81470000D03*
X140980000Y-116130000D03*
X143480000Y-142950000D03*
D16*
X145600000Y-97574990D03*
D15*
X146840000Y-100070000D03*
X164990000Y-76580000D03*
X163850000Y-77830000D03*
X162910000Y-79640000D03*
D16*
X161870000Y-81410000D03*
D15*
X161240000Y-83040000D03*
X160720000Y-85030000D03*
X159710000Y-87950000D03*
X158530000Y-92670000D03*
X158740000Y-100190000D03*
X127560000Y-80780000D03*
X123220000Y-77060000D03*
X122460000Y-87870000D03*
X118330000Y-88420000D03*
X118610000Y-95650000D03*
X121430000Y-95440000D03*
X118540000Y-97990000D03*
X118680000Y-102940000D03*
X118200000Y-105280000D03*
D16*
X122950000Y-99850000D03*
X121090000Y-101840000D03*
D15*
X123780000Y-97200000D03*
X140890000Y-104550000D03*
X153030000Y-100210000D03*
X150230000Y-102710000D03*
X152810000Y-103150000D03*
D16*
X154210000Y-88360000D03*
D15*
X139200000Y-124900000D03*
X143120000Y-124260000D03*
X142940000Y-126440000D03*
X136140000Y-124300000D03*
X136300000Y-120590000D03*
D16*
X141350000Y-106690000D03*
X138470000Y-101680000D03*
D15*
X128790000Y-98910000D03*
X128650000Y-103310000D03*
X128230000Y-109430000D03*
X127670000Y-101760000D03*
X122850000Y-105080000D03*
X121310000Y-106670000D03*
X123040000Y-108870000D03*
X120930000Y-115750000D03*
X130050000Y-119210000D03*
X129260000Y-116170000D03*
X133050000Y-100360000D03*
X139930000Y-109070000D03*
X141600000Y-114570000D03*
X151310000Y-113010000D03*
X152710000Y-116730000D03*
D16*
X155510000Y-92590000D03*
D15*
X123260000Y-92620000D03*
D16*
X118270000Y-100060000D03*
D15*
X166660000Y-108450000D03*
X150490000Y-107850000D03*
X150490000Y-105120000D03*
X152920000Y-110040000D03*
D16*
X166910000Y-106140000D03*
D15*
X121660000Y-113370000D03*
D16*
X122880000Y-117590000D03*
D15*
X139530000Y-97140000D03*
X152000000Y-122230000D03*
X141170000Y-138670000D03*
X133180000Y-136050000D03*
X124160000Y-150730000D03*
X156410000Y-156170000D03*
X164030000Y-149670000D03*
X157750000Y-132490000D03*
X157460000Y-127340000D03*
D16*
X136100000Y-129465010D03*
X126405010Y-118190000D03*
D15*
X132975010Y-109110000D03*
X132975010Y-103210000D03*
X132975010Y-111860000D03*
D16*
X132570000Y-114110000D03*
D15*
X142330000Y-76200000D03*
X137180000Y-84430000D03*
X138860000Y-80320000D03*
X143490000Y-93430000D03*
X147470000Y-118770000D03*
X147860000Y-130470000D03*
X145290000Y-147320000D03*
X130880000Y-154390000D03*
X163550000Y-126350000D03*
X165480000Y-140240000D03*
X152100000Y-154900000D03*
X139500000Y-150660000D03*
D16*
X130370000Y-77090000D03*
D15*
X118260000Y-85280000D03*
D16*
X117340000Y-80420000D03*
X117930000Y-83500000D03*
D15*
G04 #@! TO.N,+3V3*
X159540000Y-109070000D03*
X163186000Y-114038000D03*
X167260000Y-118570000D03*
X152840000Y-150370000D03*
X157670000Y-151900000D03*
X121870000Y-82040000D03*
X138950000Y-139600000D03*
G04 #@! TO.N,+5V*
X130280000Y-146140000D03*
X130450000Y-148870000D03*
D16*
G04 #@! TO.N,RFMANT*
X159544080Y-119182080D03*
G04 #@! TO.N,DTR*
X155230000Y-149740000D03*
X156257360Y-142371973D03*
G04 #@! TO.N,IO0*
X151380000Y-89835000D03*
X154257360Y-143321973D03*
X167546000Y-127746000D03*
G04 #@! TO.N,EN*
X132400000Y-97060000D03*
X133380000Y-75865000D03*
X138230012Y-127750000D03*
X136885990Y-127770000D03*
G04 #@! TO.N,IO35*
X127430000Y-85060000D03*
X138280000Y-128810000D03*
X136860000Y-128950000D03*
X131710000Y-98280000D03*
G04 #@! TO.N,IO32*
X125140000Y-85580002D03*
X127157975Y-140403660D03*
G04 #@! TO.N,IO33*
X125830000Y-91260000D03*
X129980000Y-140060000D03*
G04 #@! TO.N,IO27*
X138430000Y-122780000D03*
X133590000Y-121080000D03*
X123770000Y-103430000D03*
X120800000Y-97770000D03*
G04 #@! TO.N,IO12*
X120585000Y-103230000D03*
X127157975Y-145503660D03*
G04 #@! TO.N,IO13*
X123700000Y-121260000D03*
X118040000Y-123940000D03*
G04 #@! TO.N,IO15*
X155860000Y-94740000D03*
X152430000Y-94790000D03*
X150530000Y-94730000D03*
X146825000Y-91335000D03*
G04 #@! TO.N,IO2*
X153020000Y-93750000D03*
X150590000Y-93660000D03*
X148095000Y-91335000D03*
X155860000Y-93720000D03*
G04 #@! TO.N,IO4*
X155620000Y-91540000D03*
X151380000Y-88565000D03*
G04 #@! TO.N,IO16*
X159544080Y-107078260D03*
X148189840Y-106042080D03*
X152858969Y-106250000D03*
G04 #@! TO.N,CE-RST*
X162590000Y-97900000D03*
X152970000Y-95860000D03*
X132703649Y-117725969D03*
X135480000Y-114820000D03*
G04 #@! TO.N,IO5*
X144547920Y-111076220D03*
X152820000Y-85360000D03*
X154110000Y-86190000D03*
X166560000Y-100080000D03*
X155736000Y-105058000D03*
X153330979Y-105230000D03*
X163186000Y-104040560D03*
X131973968Y-119742918D03*
G04 #@! TO.N,IO18*
X151520000Y-110390000D03*
X150790000Y-109410000D03*
X144547920Y-109079780D03*
X152970000Y-84010000D03*
X154120000Y-84680000D03*
X163186000Y-106042080D03*
G04 #@! TO.N,IO19*
X148189840Y-104040560D03*
X144547920Y-105079280D03*
X140570000Y-101090000D03*
X141450000Y-102620000D03*
X134250000Y-113800000D03*
X132540000Y-117000000D03*
G04 #@! TO.N,ESPRX*
X138210000Y-132520000D03*
X151380000Y-78405000D03*
X136700000Y-132530000D03*
X136500000Y-94570000D03*
G04 #@! TO.N,ESPTX*
X151380000Y-77135000D03*
X136690000Y-133370000D03*
X138210004Y-133370000D03*
X134060000Y-93870000D03*
G04 #@! TO.N,IO23*
X155736000Y-107058000D03*
X144547920Y-107078260D03*
X152858969Y-107040000D03*
X151380000Y-74595000D03*
X155660000Y-95670000D03*
X131966401Y-118523734D03*
G04 #@! TD*
D17*
G04 #@! TO.N,+3V3*
X159540000Y-109070000D02*
X159540000Y-110392000D01*
X159540000Y-110392000D02*
X163186000Y-114038000D01*
X152840000Y-150370000D02*
X154370000Y-151900000D01*
X154370000Y-151900000D02*
X157670000Y-151900000D01*
X117599077Y-109510000D02*
X119720000Y-107389077D01*
X116270000Y-109510000D02*
X117599077Y-109510000D01*
X119720000Y-107389077D02*
X119720000Y-84190000D01*
X119720000Y-84190000D02*
X121870000Y-82040000D01*
X163186000Y-114276000D02*
X163186000Y-114038000D01*
X167260000Y-118570000D02*
X167260000Y-118350000D01*
X167260000Y-118350000D02*
X163186000Y-114276000D01*
X149720000Y-150370000D02*
X152840000Y-150370000D01*
X138950000Y-139600000D02*
X149720000Y-150370000D01*
G04 #@! TO.N,+5V*
X130280000Y-146140000D02*
X130280000Y-148700000D01*
X130280000Y-148700000D02*
X130450000Y-148870000D01*
D18*
G04 #@! TO.N,DTR*
X155230000Y-149740000D02*
X156257360Y-148712640D01*
X156257360Y-148712640D02*
X156257360Y-142371973D01*
G04 #@! TO.N,IO0*
X151380000Y-106940000D02*
X151380000Y-89835000D01*
X154257360Y-141160000D02*
X154257360Y-109817360D01*
X151890000Y-107450000D02*
X151380000Y-106940000D01*
X154257360Y-109817360D02*
X151890000Y-107450000D01*
X154257360Y-143321973D02*
X154257360Y-141160000D01*
X154257360Y-141160000D02*
X154257360Y-141034640D01*
X154257360Y-141034640D02*
X167546000Y-127746000D01*
G04 #@! TO.N,EN*
X138230012Y-127750000D02*
X136905990Y-127750000D01*
X136905990Y-127750000D02*
X136885990Y-127770000D01*
X131840000Y-93260000D02*
X131840000Y-96500000D01*
X131840000Y-96500000D02*
X132400000Y-97060000D01*
X130860000Y-81900000D02*
X130860000Y-92280000D01*
X133380000Y-79380000D02*
X130860000Y-81900000D01*
X130860000Y-92280000D02*
X131840000Y-93260000D01*
X133380000Y-75865000D02*
X133380000Y-79380000D01*
G04 #@! TO.N,IO35*
X138280000Y-128810000D02*
X137000000Y-128810000D01*
X137000000Y-128810000D02*
X136860000Y-128950000D01*
X127430000Y-94000000D02*
X127430000Y-85060000D01*
X131710000Y-98280000D02*
X127430000Y-94000000D01*
G04 #@! TO.N,IO32*
X126314315Y-139560000D02*
X125220000Y-139560000D01*
X127157975Y-140403660D02*
X126314315Y-139560000D01*
X123448989Y-137788989D02*
X123448989Y-123222537D01*
X125220000Y-139560000D02*
X123448989Y-137788989D01*
X125140000Y-121531526D02*
X125140000Y-85580002D01*
X123448989Y-123222537D02*
X125140000Y-121531526D01*
G04 #@! TO.N,IO33*
X129980000Y-140060000D02*
X129980000Y-131910000D01*
X129980000Y-131910000D02*
X125830000Y-127760000D01*
X125830000Y-92570000D02*
X125830000Y-91260000D01*
X125830000Y-127760000D02*
X125830000Y-92570000D01*
G04 #@! TO.N,IO27*
X135290000Y-122780000D02*
X133590000Y-121080000D01*
X138430000Y-122780000D02*
X135290000Y-122780000D01*
X120800000Y-100460000D02*
X123770000Y-103430000D01*
X120800000Y-97770000D02*
X120800000Y-100460000D01*
G04 #@! TO.N,IO12*
X127157975Y-145503660D02*
X124503660Y-145503660D01*
X124503660Y-145503660D02*
X119500000Y-140500000D01*
X116910000Y-123970000D02*
X116910000Y-131060000D01*
X119500000Y-133650000D02*
X116910000Y-131060000D01*
X119500000Y-140500000D02*
X119500000Y-133650000D01*
X118590000Y-110395000D02*
X120585000Y-108400000D01*
X118590000Y-122290000D02*
X118590000Y-110395000D01*
X120585000Y-103230000D02*
X120585000Y-108400000D01*
X118590000Y-122290000D02*
X116910000Y-123970000D01*
G04 #@! TO.N,IO13*
X123700000Y-121260000D02*
X120720000Y-121260000D01*
X120720000Y-121260000D02*
X118040000Y-123940000D01*
G04 #@! TO.N,IO15*
X155860000Y-94740000D02*
X152480000Y-94740000D01*
X152480000Y-94740000D02*
X152430000Y-94790000D01*
X150530000Y-94730000D02*
X147135000Y-91335000D01*
X147135000Y-91335000D02*
X146825000Y-91335000D01*
G04 #@! TO.N,IO2*
X150590000Y-93660000D02*
X148265000Y-91335000D01*
X148265000Y-91335000D02*
X148095000Y-91335000D01*
X155830000Y-93750000D02*
X153020000Y-93750000D01*
X155860000Y-93720000D02*
X155830000Y-93750000D01*
G04 #@! TO.N,IO4*
X155620000Y-91540000D02*
X154355000Y-91540000D01*
X154355000Y-91540000D02*
X151380000Y-88565000D01*
G04 #@! TO.N,IO16*
X164672663Y-107078260D02*
X159544080Y-107078260D01*
X168656000Y-104424000D02*
X167326923Y-104424000D01*
X167326923Y-104424000D02*
X164672663Y-107078260D01*
X159544080Y-107078260D02*
X158643650Y-107078260D01*
X157815390Y-106250000D02*
X152858969Y-106250000D01*
X158643650Y-107078260D02*
X157815390Y-106250000D01*
X148189840Y-109020160D02*
X148189840Y-106042080D01*
X145620000Y-111590000D02*
X148189840Y-109020160D01*
X140880000Y-111590000D02*
X145620000Y-111590000D01*
X129770000Y-123800000D02*
X129770000Y-122700000D01*
X129770000Y-122700000D02*
X140880000Y-111590000D01*
G04 #@! TO.N,CE-RST*
X162590000Y-97900000D02*
X157120000Y-97900000D01*
X155080000Y-95860000D02*
X152970000Y-95860000D01*
X157120000Y-97900000D02*
X155080000Y-95860000D01*
X133060000Y-117260000D02*
X132798638Y-117521362D01*
X133060000Y-117271451D02*
X132703649Y-117627802D01*
X132703649Y-117627802D02*
X132703649Y-117725969D01*
X133060000Y-117260000D02*
X133060000Y-117271451D01*
X133342988Y-116977012D02*
X133804740Y-116977012D01*
X133060000Y-117260000D02*
X133342988Y-116977012D01*
X135480000Y-115301752D02*
X135480000Y-115244264D01*
X133804740Y-116977012D02*
X135480000Y-115301752D01*
X135480000Y-115244264D02*
X135480000Y-114820000D01*
G04 #@! TO.N,IO5*
X153280000Y-85360000D02*
X154110000Y-86190000D01*
X152820000Y-85360000D02*
X153280000Y-85360000D01*
X166560000Y-100080000D02*
X166560000Y-100666560D01*
X166560000Y-100666560D02*
X163186000Y-104040560D01*
X155736000Y-105058000D02*
X153502979Y-105058000D01*
X153502979Y-105058000D02*
X153330979Y-105230000D01*
X132213168Y-119742918D02*
X131973968Y-119742918D01*
X144547920Y-111076220D02*
X140880788Y-111076220D01*
X134148041Y-117808045D02*
X132213168Y-119742918D01*
X134148963Y-117808045D02*
X134148041Y-117808045D01*
X140880788Y-111076220D02*
X134148963Y-117808045D01*
G04 #@! TO.N,IO18*
X151520000Y-110390000D02*
X151520000Y-110140000D01*
X151520000Y-110140000D02*
X150790000Y-109410000D01*
X152970000Y-84010000D02*
X153450000Y-84010000D01*
X153450000Y-84010000D02*
X154120000Y-84680000D01*
X167200000Y-98260000D02*
X168656000Y-96804000D01*
X167200000Y-104140000D02*
X167200000Y-98260000D01*
X163186000Y-106042080D02*
X165297920Y-106042080D01*
X165297920Y-106042080D02*
X167200000Y-104140000D01*
X131733007Y-119240917D02*
X132323417Y-119240917D01*
X132323417Y-119240917D02*
X134033300Y-117531034D01*
X134033300Y-117531034D02*
X134034222Y-117531034D01*
X128410000Y-122563924D02*
X131733007Y-119240917D01*
X134034222Y-117531034D02*
X136259012Y-115306244D01*
X136259012Y-115017066D02*
X142196298Y-109079780D01*
X128410000Y-125160000D02*
X128410000Y-122563924D01*
X142898050Y-109079780D02*
X144547920Y-109079780D01*
X142196298Y-109079780D02*
X142898050Y-109079780D01*
X127230000Y-126340000D02*
X128410000Y-125160000D01*
X136259012Y-115306244D02*
X136259012Y-115017066D01*
G04 #@! TO.N,IO19*
X148189840Y-104040560D02*
X145586640Y-104040560D01*
X145586640Y-104040560D02*
X144547920Y-105079280D01*
X140570000Y-101090000D02*
X140570000Y-101740000D01*
X140570000Y-101740000D02*
X141450000Y-102620000D01*
X134940000Y-115450000D02*
X133689999Y-116700001D01*
X134250000Y-113800000D02*
X134940000Y-114490000D01*
X132839999Y-116700001D02*
X132540000Y-117000000D01*
X133689999Y-116700001D02*
X132839999Y-116700001D01*
X134940000Y-114490000D02*
X134940000Y-115450000D01*
G04 #@! TO.N,ESPRX*
X138210000Y-132520000D02*
X136710000Y-132520000D01*
X136710000Y-132520000D02*
X136700000Y-132530000D01*
X151380000Y-78405000D02*
X151380000Y-79690000D01*
X151380000Y-79690000D02*
X136799999Y-94270001D01*
X136799999Y-94270001D02*
X136500000Y-94570000D01*
G04 #@! TO.N,ESPTX*
X136690000Y-133370000D02*
X138210004Y-133370000D01*
X151380000Y-77135000D02*
X150980000Y-77135000D01*
X150980000Y-77135000D02*
X134245000Y-93870000D01*
X134245000Y-93870000D02*
X134060000Y-93870000D01*
G04 #@! TO.N,IO23*
X152876969Y-107058000D02*
X152858969Y-107040000D01*
X155736000Y-107058000D02*
X152876969Y-107058000D01*
X156380000Y-79595000D02*
X151380000Y-74595000D01*
X156380000Y-94950000D02*
X156380000Y-79595000D01*
X155660000Y-95670000D02*
X156380000Y-94950000D01*
X133918559Y-117254023D02*
X132648848Y-118523734D01*
X135982001Y-114743749D02*
X135982001Y-115191503D01*
X135982001Y-115191503D02*
X133919481Y-117254023D01*
X132390665Y-118523734D02*
X131966401Y-118523734D01*
X133919481Y-117254023D02*
X133918559Y-117254023D01*
X132648848Y-118523734D02*
X132390665Y-118523734D01*
X143647490Y-107078260D02*
X135982001Y-114743749D01*
X144547920Y-107078260D02*
X143647490Y-107078260D01*
G04 #@! TD*
D19*
G04 #@! TO.N,GND*
G36*
X124364501Y-72527404D02*
X124352050Y-72590000D01*
X124401372Y-72837960D01*
X124541830Y-73048170D01*
X124752040Y-73188628D01*
X124937409Y-73225500D01*
X125000000Y-73237950D01*
X125062591Y-73225500D01*
X159937409Y-73225500D01*
X160000000Y-73237950D01*
X160062591Y-73225500D01*
X160247960Y-73188628D01*
X160458170Y-73048170D01*
X160598628Y-72837960D01*
X160647950Y-72590000D01*
X160635500Y-72527409D01*
X160635500Y-68165431D01*
X164165000Y-68165431D01*
X164165000Y-69054569D01*
X164505259Y-69876026D01*
X165133974Y-70504741D01*
X165955431Y-70845000D01*
X166844569Y-70845000D01*
X167666026Y-70504741D01*
X168294741Y-69876026D01*
X168635000Y-69054569D01*
X168635000Y-68165431D01*
X168294741Y-67343974D01*
X167666026Y-66715259D01*
X166844569Y-66375000D01*
X165955431Y-66375000D01*
X165133974Y-66715259D01*
X164505259Y-67343974D01*
X164165000Y-68165431D01*
X160635500Y-68165431D01*
X160635500Y-65635500D01*
X168245004Y-65635500D01*
X168320293Y-65842354D01*
X168361566Y-65913840D01*
X168430646Y-66033491D01*
X168709692Y-66366045D01*
X168709694Y-66366048D01*
X168878766Y-66507916D01*
X169254723Y-66724974D01*
X169254725Y-66724976D01*
X169310068Y-66745119D01*
X169364500Y-66764930D01*
X169364500Y-77612919D01*
X168969247Y-77449200D01*
X168342753Y-77449200D01*
X167763948Y-77688949D01*
X167320949Y-78131948D01*
X167081200Y-78710753D01*
X167081200Y-79337247D01*
X167320949Y-79916052D01*
X167698897Y-80294000D01*
X167320949Y-80671948D01*
X167081200Y-81250753D01*
X167081200Y-81877247D01*
X167320949Y-82456052D01*
X167698897Y-82834000D01*
X167320949Y-83211948D01*
X167081200Y-83790753D01*
X167081200Y-84417247D01*
X167320949Y-84996052D01*
X167698897Y-85374000D01*
X167320949Y-85751948D01*
X167081200Y-86330753D01*
X167081200Y-86957247D01*
X167320949Y-87536052D01*
X167698897Y-87914000D01*
X167320949Y-88291948D01*
X167081200Y-88870753D01*
X167081200Y-89497247D01*
X167320949Y-90076052D01*
X167698897Y-90454000D01*
X167320949Y-90831948D01*
X167081200Y-91410753D01*
X167081200Y-92037247D01*
X167320949Y-92616052D01*
X167698897Y-92994000D01*
X167320949Y-93371948D01*
X167081200Y-93950753D01*
X167081200Y-94577247D01*
X167320949Y-95156052D01*
X167698897Y-95534000D01*
X167320949Y-95911948D01*
X167081200Y-96490753D01*
X167081200Y-97117247D01*
X167156609Y-97299300D01*
X166747402Y-97708508D01*
X166688120Y-97748119D01*
X166648510Y-97807400D01*
X166531196Y-97982972D01*
X166476091Y-98260000D01*
X166490001Y-98329929D01*
X166490001Y-99145000D01*
X166374017Y-99145000D01*
X166030365Y-99287345D01*
X165767345Y-99550365D01*
X165625000Y-99894017D01*
X165625000Y-100265983D01*
X165722090Y-100500379D01*
X163116910Y-103105560D01*
X163000017Y-103105560D01*
X162656365Y-103247905D01*
X162393345Y-103510925D01*
X162251000Y-103854577D01*
X162251000Y-104226543D01*
X162393345Y-104570195D01*
X162656365Y-104833215D01*
X163000017Y-104975560D01*
X163371983Y-104975560D01*
X163715635Y-104833215D01*
X163978655Y-104570195D01*
X164121000Y-104226543D01*
X164121000Y-104109650D01*
X166490000Y-101740651D01*
X166490000Y-103845909D01*
X165003830Y-105332080D01*
X163798290Y-105332080D01*
X163715635Y-105249425D01*
X163371983Y-105107080D01*
X163000017Y-105107080D01*
X162656365Y-105249425D01*
X162393345Y-105512445D01*
X162251000Y-105856097D01*
X162251000Y-106228063D01*
X162309071Y-106368260D01*
X160156370Y-106368260D01*
X160073715Y-106285605D01*
X159730063Y-106143260D01*
X159358097Y-106143260D01*
X159014445Y-106285605D01*
X158934766Y-106365284D01*
X158366884Y-105797403D01*
X158327271Y-105738119D01*
X158092418Y-105581195D01*
X157885316Y-105540000D01*
X157885314Y-105540000D01*
X157815390Y-105526091D01*
X157745466Y-105540000D01*
X156548386Y-105540000D01*
X156671000Y-105243983D01*
X156671000Y-104872017D01*
X156528655Y-104528365D01*
X156265635Y-104265345D01*
X155921983Y-104123000D01*
X155550017Y-104123000D01*
X155206365Y-104265345D01*
X155123710Y-104348000D01*
X153644916Y-104348000D01*
X153516962Y-104295000D01*
X153144996Y-104295000D01*
X152801344Y-104437345D01*
X152538324Y-104700365D01*
X152395979Y-105044017D01*
X152395979Y-105415983D01*
X152400843Y-105427725D01*
X152329334Y-105457345D01*
X152090000Y-105696679D01*
X152090000Y-96178765D01*
X152177345Y-96389635D01*
X152440365Y-96652655D01*
X152784017Y-96795000D01*
X153155983Y-96795000D01*
X153499635Y-96652655D01*
X153582290Y-96570000D01*
X154785910Y-96570000D01*
X156568510Y-98352602D01*
X156608119Y-98411881D01*
X156667398Y-98451490D01*
X156667399Y-98451491D01*
X156842972Y-98568805D01*
X157120000Y-98623909D01*
X157189926Y-98610000D01*
X161977710Y-98610000D01*
X162060365Y-98692655D01*
X162404017Y-98835000D01*
X162775983Y-98835000D01*
X163119635Y-98692655D01*
X163382655Y-98429635D01*
X163525000Y-98085983D01*
X163525000Y-97714017D01*
X163382655Y-97370365D01*
X163119635Y-97107345D01*
X162775983Y-96965000D01*
X162404017Y-96965000D01*
X162060365Y-97107345D01*
X161977710Y-97190000D01*
X157414092Y-97190000D01*
X156438190Y-96214100D01*
X156452655Y-96199635D01*
X156595000Y-95855983D01*
X156595000Y-95739091D01*
X156832603Y-95501489D01*
X156891880Y-95461881D01*
X156931488Y-95402604D01*
X156931491Y-95402601D01*
X157048805Y-95227029D01*
X157103909Y-94950000D01*
X157090000Y-94880074D01*
X157090000Y-79664926D01*
X157103909Y-79595000D01*
X157048805Y-79317971D01*
X156931491Y-79142399D01*
X156931490Y-79142398D01*
X156891881Y-79083119D01*
X156832602Y-79043510D01*
X152315000Y-74525910D01*
X152315000Y-74409017D01*
X152172655Y-74065365D01*
X151909635Y-73802345D01*
X151565983Y-73660000D01*
X151194017Y-73660000D01*
X150850365Y-73802345D01*
X150587345Y-74065365D01*
X150445000Y-74409017D01*
X150445000Y-74780983D01*
X150587345Y-75124635D01*
X150850365Y-75387655D01*
X151194017Y-75530000D01*
X151310910Y-75530000D01*
X155670001Y-79889093D01*
X155670000Y-90605000D01*
X155434017Y-90605000D01*
X155090365Y-90747345D01*
X155007710Y-90830000D01*
X154649091Y-90830000D01*
X152315000Y-88495910D01*
X152315000Y-88379017D01*
X152172655Y-88035365D01*
X151909635Y-87772345D01*
X151565983Y-87630000D01*
X151194017Y-87630000D01*
X150850365Y-87772345D01*
X150587345Y-88035365D01*
X150445000Y-88379017D01*
X150445000Y-88750983D01*
X150587345Y-89094635D01*
X150692710Y-89200000D01*
X150587345Y-89305365D01*
X150445000Y-89649017D01*
X150445000Y-90020983D01*
X150587345Y-90364635D01*
X150670001Y-90447291D01*
X150670001Y-92725000D01*
X150659092Y-92725000D01*
X148992448Y-91058357D01*
X148887655Y-90805365D01*
X148624635Y-90542345D01*
X148280983Y-90400000D01*
X147909017Y-90400000D01*
X147565365Y-90542345D01*
X147460000Y-90647710D01*
X147354635Y-90542345D01*
X147010983Y-90400000D01*
X146639017Y-90400000D01*
X146295365Y-90542345D01*
X146032345Y-90805365D01*
X145890000Y-91149017D01*
X145890000Y-91520983D01*
X146032345Y-91864635D01*
X146295365Y-92127655D01*
X146639017Y-92270000D01*
X147010983Y-92270000D01*
X147049822Y-92253912D01*
X149595000Y-94799091D01*
X149595000Y-94915983D01*
X149737345Y-95259635D01*
X150000365Y-95522655D01*
X150344017Y-95665000D01*
X150670001Y-95665000D01*
X150670000Y-106870076D01*
X150656091Y-106940000D01*
X150670000Y-107009924D01*
X150670000Y-107009925D01*
X150711195Y-107217027D01*
X150868119Y-107451880D01*
X150927401Y-107491491D01*
X151437399Y-108001491D01*
X151437405Y-108001495D01*
X153547361Y-110111453D01*
X153547360Y-140964714D01*
X153533451Y-141034640D01*
X153547360Y-141104564D01*
X153547360Y-141229925D01*
X153547361Y-141229930D01*
X153547360Y-142709683D01*
X153464705Y-142792338D01*
X153322360Y-143135990D01*
X153322360Y-143507956D01*
X153464705Y-143851608D01*
X153727725Y-144114628D01*
X154071377Y-144256973D01*
X154443343Y-144256973D01*
X154786995Y-144114628D01*
X155050015Y-143851608D01*
X155192360Y-143507956D01*
X155192360Y-143135990D01*
X155050015Y-142792338D01*
X154967360Y-142709683D01*
X154967360Y-141328730D01*
X167615092Y-128681000D01*
X167731983Y-128681000D01*
X168075635Y-128538655D01*
X168338655Y-128275635D01*
X168481000Y-127931983D01*
X168481000Y-127560017D01*
X168338655Y-127216365D01*
X168075635Y-126953345D01*
X167731983Y-126811000D01*
X167360017Y-126811000D01*
X167016365Y-126953345D01*
X166753345Y-127216365D01*
X166611000Y-127560017D01*
X166611000Y-127676908D01*
X154967360Y-139320550D01*
X154967360Y-118996097D01*
X158609080Y-118996097D01*
X158609080Y-119368063D01*
X158751425Y-119711715D01*
X159014445Y-119974735D01*
X159358097Y-120117080D01*
X159730063Y-120117080D01*
X160073715Y-119974735D01*
X160336735Y-119711715D01*
X160479080Y-119368063D01*
X160479080Y-118996097D01*
X160336735Y-118652445D01*
X160073715Y-118389425D01*
X159730063Y-118247080D01*
X159358097Y-118247080D01*
X159014445Y-118389425D01*
X158751425Y-118652445D01*
X158609080Y-118996097D01*
X154967360Y-118996097D01*
X154967360Y-109887286D01*
X154981269Y-109817360D01*
X154955345Y-109687028D01*
X154926165Y-109540332D01*
X154905898Y-109510000D01*
X154808851Y-109364759D01*
X154808850Y-109364758D01*
X154769241Y-109305479D01*
X154709962Y-109265870D01*
X153309508Y-107865417D01*
X153388604Y-107832655D01*
X153453259Y-107768000D01*
X155123710Y-107768000D01*
X155206365Y-107850655D01*
X155550017Y-107993000D01*
X155921983Y-107993000D01*
X156265635Y-107850655D01*
X156528655Y-107587635D01*
X156671000Y-107243983D01*
X156671000Y-106960000D01*
X157521299Y-106960000D01*
X158092160Y-107530861D01*
X158131769Y-107590141D01*
X158191048Y-107629750D01*
X158191049Y-107629751D01*
X158342872Y-107731196D01*
X158366622Y-107747065D01*
X158541796Y-107781909D01*
X158643650Y-107802169D01*
X158713576Y-107788260D01*
X158931790Y-107788260D01*
X159014445Y-107870915D01*
X159307026Y-107992106D01*
X158925397Y-108150182D01*
X158620182Y-108455397D01*
X158455000Y-108854180D01*
X158455000Y-109285820D01*
X158620182Y-109684603D01*
X158755001Y-109819422D01*
X158755001Y-110314684D01*
X158739622Y-110392000D01*
X158800546Y-110698291D01*
X158930251Y-110892408D01*
X158930254Y-110892411D01*
X158974048Y-110957953D01*
X159039590Y-111001747D01*
X162101000Y-114063157D01*
X162101000Y-114253820D01*
X162266182Y-114652603D01*
X162571397Y-114957818D01*
X162889370Y-115089527D01*
X166175000Y-118375158D01*
X166175000Y-118785820D01*
X166340182Y-119184603D01*
X166645397Y-119489818D01*
X167044180Y-119655000D01*
X167081200Y-119655000D01*
X167081200Y-119977247D01*
X167320949Y-120556052D01*
X167763948Y-120999051D01*
X168342753Y-121238800D01*
X168969247Y-121238800D01*
X169364501Y-121075081D01*
X169364501Y-158245004D01*
X169157650Y-158320291D01*
X169157647Y-158320292D01*
X169082158Y-158363876D01*
X168966508Y-158430646D01*
X168966506Y-158430649D01*
X168633953Y-158709693D01*
X168492085Y-158878764D01*
X168492083Y-158878769D01*
X168275026Y-159254723D01*
X168275024Y-159254725D01*
X168272242Y-159262369D01*
X168235070Y-159364500D01*
X147155513Y-159364500D01*
X147342064Y-159261038D01*
X147662199Y-158858387D01*
X147803877Y-158363876D01*
X147645983Y-158157000D01*
X146617000Y-158157000D01*
X146617000Y-158177000D01*
X146363000Y-158177000D01*
X146363000Y-158157000D01*
X145334017Y-158157000D01*
X145176123Y-158363876D01*
X145317801Y-158858387D01*
X145637936Y-159261038D01*
X145824487Y-159364500D01*
X139905513Y-159364500D01*
X140092064Y-159261038D01*
X140412199Y-158858387D01*
X140553877Y-158363876D01*
X140395983Y-158157000D01*
X139367000Y-158157000D01*
X139367000Y-158177000D01*
X139113000Y-158177000D01*
X139113000Y-158157000D01*
X138084017Y-158157000D01*
X137926123Y-158363876D01*
X138067801Y-158858387D01*
X138387936Y-159261038D01*
X138574487Y-159364500D01*
X116754996Y-159364500D01*
X116679709Y-159157650D01*
X116679708Y-159157647D01*
X116613365Y-159042738D01*
X116569354Y-158966508D01*
X116569351Y-158966506D01*
X116290307Y-158633953D01*
X116121236Y-158492085D01*
X116121231Y-158492083D01*
X115745276Y-158275025D01*
X115745275Y-158275024D01*
X115689932Y-158254881D01*
X115635500Y-158235070D01*
X115635500Y-155955431D01*
X116365000Y-155955431D01*
X116365000Y-156844569D01*
X116705259Y-157666026D01*
X117333974Y-158294741D01*
X118155431Y-158635000D01*
X119044569Y-158635000D01*
X119866026Y-158294741D01*
X120464643Y-157696124D01*
X137926123Y-157696124D01*
X138084017Y-157903000D01*
X139113000Y-157903000D01*
X139113000Y-156660776D01*
X139367000Y-156660776D01*
X139367000Y-157903000D01*
X140395983Y-157903000D01*
X140553877Y-157696124D01*
X145176123Y-157696124D01*
X145334017Y-157903000D01*
X146363000Y-157903000D01*
X146363000Y-156660776D01*
X146617000Y-156660776D01*
X146617000Y-157903000D01*
X147645983Y-157903000D01*
X147803877Y-157696124D01*
X147662199Y-157201613D01*
X147342064Y-156798962D01*
X146892210Y-156549471D01*
X146819400Y-156537090D01*
X146617000Y-156660776D01*
X146363000Y-156660776D01*
X146160600Y-156537090D01*
X146087790Y-156549471D01*
X145637936Y-156798962D01*
X145317801Y-157201613D01*
X145176123Y-157696124D01*
X140553877Y-157696124D01*
X140412199Y-157201613D01*
X140092064Y-156798962D01*
X139642210Y-156549471D01*
X139569400Y-156537090D01*
X139367000Y-156660776D01*
X139113000Y-156660776D01*
X138910600Y-156537090D01*
X138837790Y-156549471D01*
X138387936Y-156798962D01*
X138067801Y-157201613D01*
X137926123Y-157696124D01*
X120464643Y-157696124D01*
X120494741Y-157666026D01*
X120835000Y-156844569D01*
X120835000Y-156267147D01*
X139702458Y-156267147D01*
X139761219Y-156500328D01*
X140253100Y-156672522D01*
X140773434Y-156643375D01*
X141118781Y-156500328D01*
X141177542Y-156267147D01*
X144552458Y-156267147D01*
X144611219Y-156500328D01*
X145103100Y-156672522D01*
X145623434Y-156643375D01*
X145968781Y-156500328D01*
X146027542Y-156267147D01*
X145290000Y-155529605D01*
X144552458Y-156267147D01*
X141177542Y-156267147D01*
X140440000Y-155529605D01*
X139702458Y-156267147D01*
X120835000Y-156267147D01*
X120835000Y-155955431D01*
X120506806Y-155163100D01*
X139117478Y-155163100D01*
X139146625Y-155683434D01*
X139289672Y-156028781D01*
X139522853Y-156087542D01*
X140260395Y-155350000D01*
X140619605Y-155350000D01*
X141357147Y-156087542D01*
X141590328Y-156028781D01*
X141762522Y-155536900D01*
X141741584Y-155163100D01*
X143967478Y-155163100D01*
X143996625Y-155683434D01*
X144139672Y-156028781D01*
X144372853Y-156087542D01*
X145110395Y-155350000D01*
X145469605Y-155350000D01*
X146207147Y-156087542D01*
X146440328Y-156028781D01*
X146466005Y-155955431D01*
X164165000Y-155955431D01*
X164165000Y-156844569D01*
X164505259Y-157666026D01*
X165133974Y-158294741D01*
X165955431Y-158635000D01*
X166844569Y-158635000D01*
X167666026Y-158294741D01*
X168294741Y-157666026D01*
X168635000Y-156844569D01*
X168635000Y-155955431D01*
X168294741Y-155133974D01*
X167666026Y-154505259D01*
X166844569Y-154165000D01*
X165955431Y-154165000D01*
X165133974Y-154505259D01*
X164505259Y-155133974D01*
X164165000Y-155955431D01*
X146466005Y-155955431D01*
X146612522Y-155536900D01*
X146583375Y-155016566D01*
X146440328Y-154671219D01*
X146207147Y-154612458D01*
X145469605Y-155350000D01*
X145110395Y-155350000D01*
X144372853Y-154612458D01*
X144139672Y-154671219D01*
X143967478Y-155163100D01*
X141741584Y-155163100D01*
X141733375Y-155016566D01*
X141590328Y-154671219D01*
X141357147Y-154612458D01*
X140619605Y-155350000D01*
X140260395Y-155350000D01*
X139522853Y-154612458D01*
X139289672Y-154671219D01*
X139117478Y-155163100D01*
X120506806Y-155163100D01*
X120494741Y-155133974D01*
X119866026Y-154505259D01*
X119691223Y-154432853D01*
X139702458Y-154432853D01*
X140440000Y-155170395D01*
X141177542Y-154432853D01*
X144552458Y-154432853D01*
X145290000Y-155170395D01*
X146027542Y-154432853D01*
X145968781Y-154199672D01*
X145476900Y-154027478D01*
X144956566Y-154056625D01*
X144611219Y-154199672D01*
X144552458Y-154432853D01*
X141177542Y-154432853D01*
X141118781Y-154199672D01*
X140626900Y-154027478D01*
X140106566Y-154056625D01*
X139761219Y-154199672D01*
X139702458Y-154432853D01*
X119691223Y-154432853D01*
X119044569Y-154165000D01*
X118155431Y-154165000D01*
X117333974Y-154505259D01*
X116705259Y-155133974D01*
X116365000Y-155955431D01*
X115635500Y-155955431D01*
X115635500Y-149244051D01*
X116018753Y-149402800D01*
X116645247Y-149402800D01*
X117224052Y-149163051D01*
X117667051Y-148720052D01*
X117906800Y-148141247D01*
X117906800Y-147514753D01*
X117667051Y-146935948D01*
X117289103Y-146558000D01*
X117667051Y-146180052D01*
X117906800Y-145601247D01*
X117906800Y-144974753D01*
X117667051Y-144395948D01*
X117289103Y-144018000D01*
X117667051Y-143640052D01*
X117906800Y-143061247D01*
X117906800Y-142434753D01*
X117667051Y-141855948D01*
X117289103Y-141478000D01*
X117667051Y-141100052D01*
X117906800Y-140521247D01*
X117906800Y-139894753D01*
X117667051Y-139315948D01*
X117289103Y-138938000D01*
X117667051Y-138560052D01*
X117906800Y-137981247D01*
X117906800Y-137354753D01*
X117667051Y-136775948D01*
X117226786Y-136335683D01*
X117261363Y-136236968D01*
X116332000Y-135307605D01*
X116317858Y-135321748D01*
X116138253Y-135142143D01*
X116152395Y-135128000D01*
X116511605Y-135128000D01*
X117440968Y-136057363D01*
X117701580Y-135966077D01*
X117918045Y-135378167D01*
X117893049Y-134752172D01*
X117701580Y-134289923D01*
X117440968Y-134198637D01*
X116511605Y-135128000D01*
X116152395Y-135128000D01*
X116138253Y-135113858D01*
X116317858Y-134934253D01*
X116332000Y-134948395D01*
X117261363Y-134019032D01*
X117170077Y-133758420D01*
X116582167Y-133541955D01*
X115956172Y-133566951D01*
X115635500Y-133699777D01*
X115635500Y-121114536D01*
X116019833Y-121256045D01*
X116645828Y-121231049D01*
X117108077Y-121039580D01*
X117199363Y-120778968D01*
X116270000Y-119849605D01*
X116255858Y-119863748D01*
X116076253Y-119684143D01*
X116090395Y-119670000D01*
X116449605Y-119670000D01*
X117378968Y-120599363D01*
X117639580Y-120508077D01*
X117856045Y-119920167D01*
X117831049Y-119294172D01*
X117639580Y-118831923D01*
X117378968Y-118740637D01*
X116449605Y-119670000D01*
X116090395Y-119670000D01*
X116076253Y-119655858D01*
X116255858Y-119476253D01*
X116270000Y-119490395D01*
X117199363Y-118561032D01*
X117142957Y-118400000D01*
X117199363Y-118238968D01*
X116270000Y-117309605D01*
X116255858Y-117323748D01*
X116076253Y-117144143D01*
X116090395Y-117130000D01*
X116449605Y-117130000D01*
X117378968Y-118059363D01*
X117639580Y-117968077D01*
X117856045Y-117380167D01*
X117831049Y-116754172D01*
X117639580Y-116291923D01*
X117378968Y-116200637D01*
X116449605Y-117130000D01*
X116090395Y-117130000D01*
X116076253Y-117115858D01*
X116255858Y-116936253D01*
X116270000Y-116950395D01*
X117199363Y-116021032D01*
X117142957Y-115860000D01*
X117199363Y-115698968D01*
X116270000Y-114769605D01*
X116255858Y-114783748D01*
X116076253Y-114604143D01*
X116090395Y-114590000D01*
X116449605Y-114590000D01*
X117378968Y-115519363D01*
X117639580Y-115428077D01*
X117856045Y-114840167D01*
X117831049Y-114214172D01*
X117639580Y-113751923D01*
X117378968Y-113660637D01*
X116449605Y-114590000D01*
X116090395Y-114590000D01*
X116076253Y-114575858D01*
X116255858Y-114396253D01*
X116270000Y-114410395D01*
X117199363Y-113481032D01*
X117164786Y-113382317D01*
X117605051Y-112942052D01*
X117844800Y-112363247D01*
X117844800Y-111736753D01*
X117605051Y-111157948D01*
X117227103Y-110780000D01*
X117605051Y-110402052D01*
X117646970Y-110300852D01*
X117676389Y-110295000D01*
X117676393Y-110295000D01*
X117894617Y-110251593D01*
X117866091Y-110395000D01*
X117880001Y-110464929D01*
X117880000Y-121995908D01*
X116457402Y-123418508D01*
X116398119Y-123458120D01*
X116241195Y-123692973D01*
X116205997Y-123869925D01*
X116186091Y-123970000D01*
X116200000Y-124039924D01*
X116200001Y-130990071D01*
X116186091Y-131060000D01*
X116241196Y-131337028D01*
X116398120Y-131571881D01*
X116457402Y-131611492D01*
X118790001Y-133944092D01*
X118790000Y-140430076D01*
X118776091Y-140500000D01*
X118790000Y-140569924D01*
X118790000Y-140569925D01*
X118831195Y-140777027D01*
X118988119Y-141011880D01*
X119047402Y-141051492D01*
X123952170Y-145956262D01*
X123991779Y-146015541D01*
X124051058Y-146055150D01*
X124051059Y-146055151D01*
X124226631Y-146172465D01*
X124503660Y-146227569D01*
X124573586Y-146213660D01*
X126545685Y-146213660D01*
X126628340Y-146296315D01*
X126971992Y-146438660D01*
X127343958Y-146438660D01*
X127687610Y-146296315D01*
X127950630Y-146033295D01*
X127995826Y-145924180D01*
X129195000Y-145924180D01*
X129195000Y-146355820D01*
X129360182Y-146754603D01*
X129495000Y-146889421D01*
X129495001Y-148340331D01*
X129365000Y-148654180D01*
X129365000Y-149085820D01*
X129530182Y-149484603D01*
X129835397Y-149789818D01*
X130234180Y-149955000D01*
X130665820Y-149955000D01*
X131064603Y-149789818D01*
X131369818Y-149484603D01*
X131535000Y-149085820D01*
X131535000Y-148654180D01*
X131369818Y-148255397D01*
X131065000Y-147950579D01*
X131065000Y-146889421D01*
X131199818Y-146754603D01*
X131365000Y-146355820D01*
X131365000Y-145924180D01*
X131199818Y-145525397D01*
X130894603Y-145220182D01*
X130495820Y-145055000D01*
X130064180Y-145055000D01*
X129665397Y-145220182D01*
X129360182Y-145525397D01*
X129195000Y-145924180D01*
X127995826Y-145924180D01*
X128092975Y-145689643D01*
X128092975Y-145317677D01*
X127950630Y-144974025D01*
X127687610Y-144711005D01*
X127343958Y-144568660D01*
X126971992Y-144568660D01*
X126628340Y-144711005D01*
X126545685Y-144793660D01*
X124797752Y-144793660D01*
X120210000Y-140205910D01*
X120210000Y-133719920D01*
X120223908Y-133649999D01*
X120210000Y-133580078D01*
X120210000Y-133580074D01*
X120168805Y-133372972D01*
X120011881Y-133138119D01*
X119952599Y-133098508D01*
X117620000Y-130765910D01*
X117620000Y-126625750D01*
X120753000Y-126625750D01*
X120753000Y-127228309D01*
X120849673Y-127461698D01*
X121028301Y-127640327D01*
X121261690Y-127737000D01*
X121864250Y-127737000D01*
X122023000Y-127578250D01*
X122023000Y-126467000D01*
X120911750Y-126467000D01*
X120753000Y-126625750D01*
X117620000Y-126625750D01*
X117620000Y-124778067D01*
X117854017Y-124875000D01*
X118225983Y-124875000D01*
X118569635Y-124732655D01*
X118832655Y-124469635D01*
X118975000Y-124125983D01*
X118975000Y-124009090D01*
X121014091Y-121970000D01*
X123087710Y-121970000D01*
X123170365Y-122052655D01*
X123484614Y-122182821D01*
X122996546Y-122670889D01*
X122941337Y-122615680D01*
X122427881Y-122403000D01*
X121872119Y-122403000D01*
X121358663Y-122615680D01*
X120965680Y-123008663D01*
X120753000Y-123522119D01*
X120753000Y-124077881D01*
X120965680Y-124591337D01*
X121317343Y-124943000D01*
X121261690Y-124943000D01*
X121028301Y-125039673D01*
X120849673Y-125218302D01*
X120753000Y-125451691D01*
X120753000Y-126054250D01*
X120911750Y-126213000D01*
X122023000Y-126213000D01*
X122023000Y-126193000D01*
X122277000Y-126193000D01*
X122277000Y-126213000D01*
X122297000Y-126213000D01*
X122297000Y-126467000D01*
X122277000Y-126467000D01*
X122277000Y-127578250D01*
X122435750Y-127737000D01*
X122738990Y-127737000D01*
X122738989Y-137719065D01*
X122725080Y-137788989D01*
X122738989Y-137858913D01*
X122738989Y-137858914D01*
X122780184Y-138066016D01*
X122937108Y-138300869D01*
X122996391Y-138340481D01*
X124668510Y-140012602D01*
X124708119Y-140071881D01*
X124767398Y-140111490D01*
X124767399Y-140111491D01*
X124942971Y-140228805D01*
X125220000Y-140283909D01*
X125289926Y-140270000D01*
X126020225Y-140270000D01*
X126222975Y-140472750D01*
X126222975Y-140589643D01*
X126365320Y-140933295D01*
X126628340Y-141196315D01*
X126971992Y-141338660D01*
X127343958Y-141338660D01*
X127687610Y-141196315D01*
X127950630Y-140933295D01*
X128092975Y-140589643D01*
X128092975Y-140217677D01*
X127950630Y-139874025D01*
X127687610Y-139611005D01*
X127343958Y-139468660D01*
X127227065Y-139468660D01*
X126865809Y-139107404D01*
X126826196Y-139048119D01*
X126591343Y-138891195D01*
X126384241Y-138850000D01*
X126384239Y-138850000D01*
X126314315Y-138836091D01*
X126244391Y-138850000D01*
X125514092Y-138850000D01*
X124158989Y-137494899D01*
X124158989Y-127632150D01*
X124412119Y-127737000D01*
X124967881Y-127737000D01*
X125120000Y-127673990D01*
X125120000Y-127690076D01*
X125106091Y-127760000D01*
X125120000Y-127829924D01*
X125120000Y-127829925D01*
X125161195Y-128037027D01*
X125318119Y-128271880D01*
X125377402Y-128311492D01*
X129270001Y-132204092D01*
X129270000Y-139447710D01*
X129187345Y-139530365D01*
X129045000Y-139874017D01*
X129045000Y-140245983D01*
X129187345Y-140589635D01*
X129450365Y-140852655D01*
X129794017Y-140995000D01*
X130165983Y-140995000D01*
X130509635Y-140852655D01*
X130772655Y-140589635D01*
X130915000Y-140245983D01*
X130915000Y-139874017D01*
X130772655Y-139530365D01*
X130690000Y-139447710D01*
X130690000Y-139384180D01*
X137865000Y-139384180D01*
X137865000Y-139815820D01*
X138030182Y-140214603D01*
X138335397Y-140519818D01*
X138734180Y-140685000D01*
X138924843Y-140685000D01*
X149110253Y-150870411D01*
X149154047Y-150935953D01*
X149219589Y-150979747D01*
X149219591Y-150979749D01*
X149226856Y-150984603D01*
X149413708Y-151109454D01*
X149642684Y-151155000D01*
X149642687Y-151155000D01*
X149719999Y-151170378D01*
X149797311Y-151155000D01*
X152090579Y-151155000D01*
X152225397Y-151289818D01*
X152624180Y-151455000D01*
X152814843Y-151455000D01*
X153760251Y-152400408D01*
X153804047Y-152465953D01*
X154063708Y-152639454D01*
X154292684Y-152685000D01*
X154292688Y-152685000D01*
X154370000Y-152700378D01*
X154447312Y-152685000D01*
X156920579Y-152685000D01*
X157055397Y-152819818D01*
X157454180Y-152985000D01*
X157885820Y-152985000D01*
X158284603Y-152819818D01*
X158589818Y-152514603D01*
X158755000Y-152115820D01*
X158755000Y-151684180D01*
X158589818Y-151285397D01*
X158284603Y-150980182D01*
X157885820Y-150815000D01*
X157454180Y-150815000D01*
X157055397Y-150980182D01*
X156920579Y-151115000D01*
X154695157Y-151115000D01*
X153925000Y-150344843D01*
X153925000Y-150154180D01*
X153759818Y-149755397D01*
X153558438Y-149554017D01*
X154295000Y-149554017D01*
X154295000Y-149925983D01*
X154437345Y-150269635D01*
X154700365Y-150532655D01*
X155044017Y-150675000D01*
X155415983Y-150675000D01*
X155759635Y-150532655D01*
X156022655Y-150269635D01*
X156165000Y-149925983D01*
X156165000Y-149809090D01*
X156709961Y-149264130D01*
X156769240Y-149224521D01*
X156926165Y-148989668D01*
X156967360Y-148782566D01*
X156967360Y-148782562D01*
X156981268Y-148712641D01*
X156967360Y-148642720D01*
X156967360Y-142984263D01*
X157050015Y-142901608D01*
X157192360Y-142557956D01*
X157192360Y-142185990D01*
X157050015Y-141842338D01*
X156786995Y-141579318D01*
X156443343Y-141436973D01*
X156071377Y-141436973D01*
X155727725Y-141579318D01*
X155464705Y-141842338D01*
X155322360Y-142185990D01*
X155322360Y-142557956D01*
X155464705Y-142901608D01*
X155547361Y-142984264D01*
X155547360Y-148418549D01*
X155160910Y-148805000D01*
X155044017Y-148805000D01*
X154700365Y-148947345D01*
X154437345Y-149210365D01*
X154295000Y-149554017D01*
X153558438Y-149554017D01*
X153454603Y-149450182D01*
X153055820Y-149285000D01*
X152624180Y-149285000D01*
X152225397Y-149450182D01*
X152090579Y-149585000D01*
X150045158Y-149585000D01*
X140035000Y-139574843D01*
X140035000Y-139384180D01*
X139869818Y-138985397D01*
X139564603Y-138680182D01*
X139165820Y-138515000D01*
X138734180Y-138515000D01*
X138335397Y-138680182D01*
X138030182Y-138985397D01*
X137865000Y-139384180D01*
X130690000Y-139384180D01*
X130690000Y-133184017D01*
X135755000Y-133184017D01*
X135755000Y-133555983D01*
X135897345Y-133899635D01*
X136160365Y-134162655D01*
X136504017Y-134305000D01*
X136875983Y-134305000D01*
X137219635Y-134162655D01*
X137302290Y-134080000D01*
X137597714Y-134080000D01*
X137680369Y-134162655D01*
X138024021Y-134305000D01*
X138395987Y-134305000D01*
X138739639Y-134162655D01*
X139002659Y-133899635D01*
X139145004Y-133555983D01*
X139145004Y-133184017D01*
X139045998Y-132944995D01*
X139145000Y-132705983D01*
X139145000Y-132334017D01*
X139002655Y-131990365D01*
X138739635Y-131727345D01*
X138395983Y-131585000D01*
X138024017Y-131585000D01*
X137680365Y-131727345D01*
X137597710Y-131810000D01*
X137302290Y-131810000D01*
X137229635Y-131737345D01*
X136885983Y-131595000D01*
X136514017Y-131595000D01*
X136170365Y-131737345D01*
X135907345Y-132000365D01*
X135765000Y-132344017D01*
X135765000Y-132715983D01*
X135856933Y-132937929D01*
X135755000Y-133184017D01*
X130690000Y-133184017D01*
X130690000Y-131979920D01*
X130703908Y-131909999D01*
X130690000Y-131840078D01*
X130690000Y-131840074D01*
X130648805Y-131632972D01*
X130491881Y-131398119D01*
X130432599Y-131358508D01*
X127838108Y-128764017D01*
X135925000Y-128764017D01*
X135925000Y-129135983D01*
X136067345Y-129479635D01*
X136330365Y-129742655D01*
X136674017Y-129885000D01*
X137045983Y-129885000D01*
X137389635Y-129742655D01*
X137612290Y-129520000D01*
X137667710Y-129520000D01*
X137750365Y-129602655D01*
X138094017Y-129745000D01*
X138465983Y-129745000D01*
X138809635Y-129602655D01*
X139072655Y-129339635D01*
X139215000Y-128995983D01*
X139215000Y-128624017D01*
X139072655Y-128280365D01*
X139037094Y-128244804D01*
X139165012Y-127935983D01*
X139165012Y-127564017D01*
X139022667Y-127220365D01*
X138759647Y-126957345D01*
X138415995Y-126815000D01*
X138044029Y-126815000D01*
X137700377Y-126957345D01*
X137617722Y-127040000D01*
X137478280Y-127040000D01*
X137415625Y-126977345D01*
X137071973Y-126835000D01*
X136700007Y-126835000D01*
X136356355Y-126977345D01*
X136093335Y-127240365D01*
X135950990Y-127584017D01*
X135950990Y-127955983D01*
X136093335Y-128299635D01*
X136140705Y-128347005D01*
X136067345Y-128420365D01*
X135925000Y-128764017D01*
X127838108Y-128764017D01*
X126711368Y-127637278D01*
X126952119Y-127737000D01*
X127507881Y-127737000D01*
X128021337Y-127524320D01*
X128414320Y-127131337D01*
X128500000Y-126924487D01*
X128585680Y-127131337D01*
X128978663Y-127524320D01*
X129492119Y-127737000D01*
X130047881Y-127737000D01*
X130561337Y-127524320D01*
X130954320Y-127131337D01*
X131167000Y-126617881D01*
X131167000Y-126062119D01*
X130954320Y-125548663D01*
X130561337Y-125155680D01*
X130354487Y-125070000D01*
X130561337Y-124984320D01*
X130954320Y-124591337D01*
X131167000Y-124077881D01*
X131167000Y-123522119D01*
X130954320Y-123008663D01*
X130709874Y-122764217D01*
X132707981Y-120766110D01*
X132655000Y-120894017D01*
X132655000Y-121265983D01*
X132797345Y-121609635D01*
X133060365Y-121872655D01*
X133404017Y-122015000D01*
X133520910Y-122015000D01*
X134738508Y-123232599D01*
X134778119Y-123291881D01*
X135012972Y-123448805D01*
X135220074Y-123490000D01*
X135220075Y-123490000D01*
X135289999Y-123503909D01*
X135359924Y-123490000D01*
X137817710Y-123490000D01*
X137900365Y-123572655D01*
X138244017Y-123715000D01*
X138615983Y-123715000D01*
X138959635Y-123572655D01*
X139222655Y-123309635D01*
X139365000Y-122965983D01*
X139365000Y-122594017D01*
X139222655Y-122250365D01*
X138959635Y-121987345D01*
X138615983Y-121845000D01*
X138244017Y-121845000D01*
X137900365Y-121987345D01*
X137817710Y-122070000D01*
X135584091Y-122070000D01*
X134525000Y-121010910D01*
X134525000Y-120894017D01*
X134382655Y-120550365D01*
X134119635Y-120287345D01*
X133775983Y-120145000D01*
X133404017Y-120145000D01*
X133276110Y-120197981D01*
X141174092Y-112300000D01*
X145550076Y-112300000D01*
X145620000Y-112313909D01*
X145689924Y-112300000D01*
X145689926Y-112300000D01*
X145897028Y-112258805D01*
X146131881Y-112101881D01*
X146171494Y-112042596D01*
X148642444Y-109571648D01*
X148701720Y-109532041D01*
X148741328Y-109472764D01*
X148741331Y-109472761D01*
X148858645Y-109297188D01*
X148873199Y-109224017D01*
X149855000Y-109224017D01*
X149855000Y-109595983D01*
X149997345Y-109939635D01*
X150260365Y-110202655D01*
X150585000Y-110337123D01*
X150585000Y-110575983D01*
X150727345Y-110919635D01*
X150990365Y-111182655D01*
X151334017Y-111325000D01*
X151705983Y-111325000D01*
X152049635Y-111182655D01*
X152312655Y-110919635D01*
X152455000Y-110575983D01*
X152455000Y-110204017D01*
X152312655Y-109860365D01*
X152049635Y-109597345D01*
X151933213Y-109549122D01*
X151725000Y-109340909D01*
X151725000Y-109224017D01*
X151582655Y-108880365D01*
X151319635Y-108617345D01*
X150975983Y-108475000D01*
X150604017Y-108475000D01*
X150260365Y-108617345D01*
X149997345Y-108880365D01*
X149855000Y-109224017D01*
X148873199Y-109224017D01*
X148913749Y-109020160D01*
X148899840Y-108950234D01*
X148899840Y-106654370D01*
X148982495Y-106571715D01*
X149124840Y-106228063D01*
X149124840Y-105856097D01*
X148982495Y-105512445D01*
X148719475Y-105249425D01*
X148375823Y-105107080D01*
X148003857Y-105107080D01*
X147660205Y-105249425D01*
X147397185Y-105512445D01*
X147254840Y-105856097D01*
X147254840Y-106228063D01*
X147397185Y-106571715D01*
X147479841Y-106654371D01*
X147479840Y-108726068D01*
X145433934Y-110771975D01*
X145340575Y-110546585D01*
X145077555Y-110283565D01*
X144733903Y-110141220D01*
X144361937Y-110141220D01*
X144018285Y-110283565D01*
X143935630Y-110366220D01*
X141913949Y-110366220D01*
X142490389Y-109789780D01*
X143935630Y-109789780D01*
X144018285Y-109872435D01*
X144361937Y-110014780D01*
X144733903Y-110014780D01*
X145077555Y-109872435D01*
X145340575Y-109609415D01*
X145482920Y-109265763D01*
X145482920Y-108893797D01*
X145340575Y-108550145D01*
X145077555Y-108287125D01*
X144733903Y-108144780D01*
X144361937Y-108144780D01*
X144018285Y-108287125D01*
X143935630Y-108369780D01*
X143360062Y-108369780D01*
X143938606Y-107791236D01*
X144018285Y-107870915D01*
X144361937Y-108013260D01*
X144733903Y-108013260D01*
X145077555Y-107870915D01*
X145340575Y-107607895D01*
X145482920Y-107264243D01*
X145482920Y-106892277D01*
X145340575Y-106548625D01*
X145077555Y-106285605D01*
X144733903Y-106143260D01*
X144361937Y-106143260D01*
X144018285Y-106285605D01*
X143935630Y-106368260D01*
X143717416Y-106368260D01*
X143647490Y-106354351D01*
X143370462Y-106409455D01*
X143219440Y-106510365D01*
X143135609Y-106566379D01*
X143096000Y-106625658D01*
X135786670Y-113934990D01*
X135665983Y-113885000D01*
X135339091Y-113885000D01*
X135185000Y-113730909D01*
X135185000Y-113614017D01*
X135042655Y-113270365D01*
X134779635Y-113007345D01*
X134435983Y-112865000D01*
X134064017Y-112865000D01*
X133720365Y-113007345D01*
X133457345Y-113270365D01*
X133315000Y-113614017D01*
X133315000Y-113985983D01*
X133457345Y-114329635D01*
X133720365Y-114592655D01*
X134064017Y-114735000D01*
X134180909Y-114735000D01*
X134230000Y-114784091D01*
X134230001Y-115155909D01*
X133395909Y-115990001D01*
X132909925Y-115990001D01*
X132839999Y-115976092D01*
X132770073Y-115990001D01*
X132562971Y-116031196D01*
X132512380Y-116065000D01*
X132354017Y-116065000D01*
X132010365Y-116207345D01*
X131747345Y-116470365D01*
X131605000Y-116814017D01*
X131605000Y-117185983D01*
X131747345Y-117529635D01*
X131768649Y-117550939D01*
X131768649Y-117593609D01*
X131436766Y-117731079D01*
X131173746Y-117994099D01*
X131031401Y-118337751D01*
X131031401Y-118709717D01*
X131098390Y-118871442D01*
X127957402Y-122012432D01*
X127898120Y-122052043D01*
X127765605Y-122250365D01*
X127741196Y-122286896D01*
X127702099Y-122483448D01*
X127507881Y-122403000D01*
X126952119Y-122403000D01*
X126540000Y-122573705D01*
X126540000Y-104893297D01*
X143612920Y-104893297D01*
X143612920Y-105265263D01*
X143755265Y-105608915D01*
X144018285Y-105871935D01*
X144361937Y-106014280D01*
X144733903Y-106014280D01*
X145077555Y-105871935D01*
X145340575Y-105608915D01*
X145482920Y-105265263D01*
X145482920Y-105148371D01*
X145880732Y-104750560D01*
X147577550Y-104750560D01*
X147660205Y-104833215D01*
X148003857Y-104975560D01*
X148375823Y-104975560D01*
X148719475Y-104833215D01*
X148982495Y-104570195D01*
X149124840Y-104226543D01*
X149124840Y-103854577D01*
X148982495Y-103510925D01*
X148719475Y-103247905D01*
X148375823Y-103105560D01*
X148003857Y-103105560D01*
X147660205Y-103247905D01*
X147577550Y-103330560D01*
X145656564Y-103330560D01*
X145586640Y-103316651D01*
X145516715Y-103330560D01*
X145516714Y-103330560D01*
X145309612Y-103371755D01*
X145309610Y-103371756D01*
X145309611Y-103371756D01*
X145170361Y-103464800D01*
X145074759Y-103528679D01*
X145035150Y-103587959D01*
X144478829Y-104144280D01*
X144361937Y-104144280D01*
X144018285Y-104286625D01*
X143755265Y-104549645D01*
X143612920Y-104893297D01*
X126540000Y-104893297D01*
X126540000Y-100904017D01*
X139635000Y-100904017D01*
X139635000Y-101275983D01*
X139777345Y-101619635D01*
X139854655Y-101696945D01*
X139846091Y-101740000D01*
X139860000Y-101809924D01*
X139860000Y-101809926D01*
X139901195Y-102017028D01*
X140058120Y-102251881D01*
X140117401Y-102291492D01*
X140515000Y-102689091D01*
X140515000Y-102805983D01*
X140657345Y-103149635D01*
X140920365Y-103412655D01*
X141264017Y-103555000D01*
X141635983Y-103555000D01*
X141979635Y-103412655D01*
X142242655Y-103149635D01*
X142385000Y-102805983D01*
X142385000Y-102434017D01*
X142242655Y-102090365D01*
X141979635Y-101827345D01*
X141635983Y-101685000D01*
X141519091Y-101685000D01*
X141389329Y-101555238D01*
X141505000Y-101275983D01*
X141505000Y-100904017D01*
X141362655Y-100560365D01*
X141099635Y-100297345D01*
X140755983Y-100155000D01*
X140384017Y-100155000D01*
X140040365Y-100297345D01*
X139777345Y-100560365D01*
X139635000Y-100904017D01*
X126540000Y-100904017D01*
X126540000Y-91872290D01*
X126622655Y-91789635D01*
X126720000Y-91554622D01*
X126720000Y-93930076D01*
X126706091Y-94000000D01*
X126720000Y-94069924D01*
X126720000Y-94069925D01*
X126761195Y-94277027D01*
X126918119Y-94511880D01*
X126977402Y-94551492D01*
X130775000Y-98349091D01*
X130775000Y-98465983D01*
X130917345Y-98809635D01*
X131180365Y-99072655D01*
X131524017Y-99215000D01*
X131895983Y-99215000D01*
X132239635Y-99072655D01*
X132502655Y-98809635D01*
X132645000Y-98465983D01*
X132645000Y-98094017D01*
X132601349Y-97988635D01*
X132929635Y-97852655D01*
X133192655Y-97589635D01*
X133335000Y-97245983D01*
X133335000Y-96874017D01*
X133192655Y-96530365D01*
X132929635Y-96267345D01*
X132585983Y-96125000D01*
X132550000Y-96125000D01*
X132550000Y-93684017D01*
X133125000Y-93684017D01*
X133125000Y-94055983D01*
X133267345Y-94399635D01*
X133530365Y-94662655D01*
X133874017Y-94805000D01*
X134245983Y-94805000D01*
X134589635Y-94662655D01*
X134852655Y-94399635D01*
X134946841Y-94172249D01*
X150469342Y-78649749D01*
X150587345Y-78934635D01*
X150670000Y-79017290D01*
X150670001Y-79395908D01*
X136430910Y-93635000D01*
X136314017Y-93635000D01*
X135970365Y-93777345D01*
X135707345Y-94040365D01*
X135565000Y-94384017D01*
X135565000Y-94755983D01*
X135707345Y-95099635D01*
X135970365Y-95362655D01*
X136314017Y-95505000D01*
X136685983Y-95505000D01*
X137029635Y-95362655D01*
X137292655Y-95099635D01*
X137435000Y-94755983D01*
X137435000Y-94639090D01*
X146900073Y-85174017D01*
X151885000Y-85174017D01*
X151885000Y-85545983D01*
X152027345Y-85889635D01*
X152290365Y-86152655D01*
X152634017Y-86295000D01*
X153005983Y-86295000D01*
X153150888Y-86234978D01*
X153175000Y-86259090D01*
X153175000Y-86375983D01*
X153317345Y-86719635D01*
X153580365Y-86982655D01*
X153924017Y-87125000D01*
X154295983Y-87125000D01*
X154639635Y-86982655D01*
X154902655Y-86719635D01*
X155045000Y-86375983D01*
X155045000Y-86004017D01*
X154902655Y-85660365D01*
X154682290Y-85440000D01*
X154912655Y-85209635D01*
X155055000Y-84865983D01*
X155055000Y-84494017D01*
X154912655Y-84150365D01*
X154649635Y-83887345D01*
X154305983Y-83745000D01*
X154189090Y-83745000D01*
X154001494Y-83557404D01*
X153961881Y-83498119D01*
X153727028Y-83341195D01*
X153597775Y-83315485D01*
X153499635Y-83217345D01*
X153155983Y-83075000D01*
X152784017Y-83075000D01*
X152440365Y-83217345D01*
X152177345Y-83480365D01*
X152035000Y-83824017D01*
X152035000Y-84195983D01*
X152177345Y-84539635D01*
X152247710Y-84610000D01*
X152027345Y-84830365D01*
X151885000Y-85174017D01*
X146900073Y-85174017D01*
X151832599Y-80241492D01*
X151891881Y-80201881D01*
X152048805Y-79967028D01*
X152090000Y-79759926D01*
X152090000Y-79759922D01*
X152103908Y-79690001D01*
X152090000Y-79620080D01*
X152090000Y-79017290D01*
X152172655Y-78934635D01*
X152315000Y-78590983D01*
X152315000Y-78219017D01*
X152172655Y-77875365D01*
X152067290Y-77770000D01*
X152172655Y-77664635D01*
X152315000Y-77320983D01*
X152315000Y-76949017D01*
X152172655Y-76605365D01*
X151909635Y-76342345D01*
X151565983Y-76200000D01*
X151194017Y-76200000D01*
X150850365Y-76342345D01*
X150732361Y-76460349D01*
X150702972Y-76466195D01*
X150468119Y-76623119D01*
X150428508Y-76682401D01*
X134175910Y-92935000D01*
X133874017Y-92935000D01*
X133530365Y-93077345D01*
X133267345Y-93340365D01*
X133125000Y-93684017D01*
X132550000Y-93684017D01*
X132550000Y-93329920D01*
X132563908Y-93259999D01*
X132550000Y-93190078D01*
X132550000Y-93190074D01*
X132508805Y-92982972D01*
X132351880Y-92748119D01*
X132292601Y-92708510D01*
X131570000Y-91985910D01*
X131570000Y-82194090D01*
X133832599Y-79931492D01*
X133891881Y-79891881D01*
X134048805Y-79657028D01*
X134090000Y-79449926D01*
X134090000Y-79449922D01*
X134103908Y-79380001D01*
X134090000Y-79310080D01*
X134090000Y-76477290D01*
X134172655Y-76394635D01*
X134315000Y-76050983D01*
X134315000Y-75679017D01*
X134172655Y-75335365D01*
X133909635Y-75072345D01*
X133565983Y-74930000D01*
X133194017Y-74930000D01*
X132850365Y-75072345D01*
X132587345Y-75335365D01*
X132445000Y-75679017D01*
X132445000Y-76050983D01*
X132587345Y-76394635D01*
X132670000Y-76477290D01*
X132670001Y-79085908D01*
X130407402Y-81348508D01*
X130348119Y-81388120D01*
X130191195Y-81622973D01*
X130151173Y-81824180D01*
X130136091Y-81900000D01*
X130150000Y-81969924D01*
X130150001Y-92210071D01*
X130136091Y-92280000D01*
X130179867Y-92500074D01*
X130191196Y-92557028D01*
X130348120Y-92791881D01*
X130407402Y-92831492D01*
X131130000Y-93554091D01*
X131130001Y-96430071D01*
X131116091Y-96500000D01*
X131161283Y-96727192D01*
X128140000Y-93705910D01*
X128140000Y-85672290D01*
X128222655Y-85589635D01*
X128365000Y-85245983D01*
X128365000Y-84874017D01*
X128222655Y-84530365D01*
X127959635Y-84267345D01*
X127615983Y-84125000D01*
X127244017Y-84125000D01*
X126900365Y-84267345D01*
X126637345Y-84530365D01*
X126495000Y-84874017D01*
X126495000Y-85245983D01*
X126637345Y-85589635D01*
X126720001Y-85672291D01*
X126720000Y-90965378D01*
X126622655Y-90730365D01*
X126359635Y-90467345D01*
X126015983Y-90325000D01*
X125850000Y-90325000D01*
X125850000Y-86192292D01*
X125932655Y-86109637D01*
X126075000Y-85765985D01*
X126075000Y-85394019D01*
X125932655Y-85050367D01*
X125669635Y-84787347D01*
X125325983Y-84645002D01*
X124954017Y-84645002D01*
X124610365Y-84787347D01*
X124347345Y-85050367D01*
X124205000Y-85394019D01*
X124205000Y-85765985D01*
X124347345Y-86109637D01*
X124430001Y-86192293D01*
X124430001Y-102767711D01*
X124299635Y-102637345D01*
X123955983Y-102495000D01*
X123839091Y-102495000D01*
X121510000Y-100165910D01*
X121510000Y-98382290D01*
X121592655Y-98299635D01*
X121735000Y-97955983D01*
X121735000Y-97584017D01*
X121592655Y-97240365D01*
X121329635Y-96977345D01*
X120985983Y-96835000D01*
X120614017Y-96835000D01*
X120505000Y-96880156D01*
X120505000Y-84515157D01*
X121895158Y-83125000D01*
X122085820Y-83125000D01*
X122484603Y-82959818D01*
X122789818Y-82654603D01*
X122955000Y-82255820D01*
X122955000Y-81824180D01*
X122789818Y-81425397D01*
X122484603Y-81120182D01*
X122085820Y-80955000D01*
X121654180Y-80955000D01*
X121255397Y-81120182D01*
X120950182Y-81425397D01*
X120785000Y-81824180D01*
X120785000Y-82014842D01*
X119219590Y-83580253D01*
X119154048Y-83624047D01*
X119110254Y-83689589D01*
X119110251Y-83689592D01*
X118980546Y-83883709D01*
X118919622Y-84190000D01*
X118935001Y-84267317D01*
X118935000Y-107063919D01*
X117493011Y-108505908D01*
X117227103Y-108240000D01*
X117605051Y-107862052D01*
X117844800Y-107283247D01*
X117844800Y-106656753D01*
X117605051Y-106077948D01*
X117227103Y-105700000D01*
X117605051Y-105322052D01*
X117844800Y-104743247D01*
X117844800Y-104116753D01*
X117605051Y-103537948D01*
X117227103Y-103160000D01*
X117605051Y-102782052D01*
X117844800Y-102203247D01*
X117844800Y-101576753D01*
X117605051Y-100997948D01*
X117227103Y-100620000D01*
X117605051Y-100242052D01*
X117844800Y-99663247D01*
X117844800Y-99036753D01*
X117605051Y-98457948D01*
X117227103Y-98080000D01*
X117605051Y-97702052D01*
X117844800Y-97123247D01*
X117844800Y-96496753D01*
X117605051Y-95917948D01*
X117227103Y-95540000D01*
X117605051Y-95162052D01*
X117844800Y-94583247D01*
X117844800Y-93956753D01*
X117605051Y-93377948D01*
X117227103Y-93000000D01*
X117605051Y-92622052D01*
X117844800Y-92043247D01*
X117844800Y-91416753D01*
X117605051Y-90837948D01*
X117227103Y-90460000D01*
X117605051Y-90082052D01*
X117844800Y-89503247D01*
X117844800Y-88876753D01*
X117605051Y-88297948D01*
X117227103Y-87920000D01*
X117605051Y-87542052D01*
X117844800Y-86963247D01*
X117844800Y-86336753D01*
X117605051Y-85757948D01*
X117227103Y-85380000D01*
X117605051Y-85002052D01*
X117844800Y-84423247D01*
X117844800Y-83796753D01*
X117605051Y-83217948D01*
X117227103Y-82840000D01*
X117605051Y-82462052D01*
X117844800Y-81883247D01*
X117844800Y-81256753D01*
X117605051Y-80677948D01*
X117227103Y-80300000D01*
X117605051Y-79922052D01*
X117844800Y-79343247D01*
X117844800Y-78716753D01*
X117605051Y-78137948D01*
X117162052Y-77694949D01*
X116583247Y-77455200D01*
X115956753Y-77455200D01*
X115635500Y-77588267D01*
X115635500Y-68165431D01*
X116365000Y-68165431D01*
X116365000Y-69054569D01*
X116705259Y-69876026D01*
X117333974Y-70504741D01*
X118155431Y-70845000D01*
X119044569Y-70845000D01*
X119866026Y-70504741D01*
X120494741Y-69876026D01*
X120835000Y-69054569D01*
X120835000Y-68165431D01*
X120494741Y-67343974D01*
X119866026Y-66715259D01*
X119044569Y-66375000D01*
X118155431Y-66375000D01*
X117333974Y-66715259D01*
X116705259Y-67343974D01*
X116365000Y-68165431D01*
X115635500Y-68165431D01*
X115635500Y-66754996D01*
X115842354Y-66679707D01*
X116009159Y-66583402D01*
X116033491Y-66569354D01*
X116366046Y-66290307D01*
X116366048Y-66290306D01*
X116507916Y-66121234D01*
X116724975Y-65745276D01*
X116724976Y-65745275D01*
X116753674Y-65666426D01*
X116764930Y-65635500D01*
X124364500Y-65635500D01*
X124364501Y-72527404D01*
X124364501Y-72527404D01*
G37*
X124364501Y-72527404D02*
X124352050Y-72590000D01*
X124401372Y-72837960D01*
X124541830Y-73048170D01*
X124752040Y-73188628D01*
X124937409Y-73225500D01*
X125000000Y-73237950D01*
X125062591Y-73225500D01*
X159937409Y-73225500D01*
X160000000Y-73237950D01*
X160062591Y-73225500D01*
X160247960Y-73188628D01*
X160458170Y-73048170D01*
X160598628Y-72837960D01*
X160647950Y-72590000D01*
X160635500Y-72527409D01*
X160635500Y-68165431D01*
X164165000Y-68165431D01*
X164165000Y-69054569D01*
X164505259Y-69876026D01*
X165133974Y-70504741D01*
X165955431Y-70845000D01*
X166844569Y-70845000D01*
X167666026Y-70504741D01*
X168294741Y-69876026D01*
X168635000Y-69054569D01*
X168635000Y-68165431D01*
X168294741Y-67343974D01*
X167666026Y-66715259D01*
X166844569Y-66375000D01*
X165955431Y-66375000D01*
X165133974Y-66715259D01*
X164505259Y-67343974D01*
X164165000Y-68165431D01*
X160635500Y-68165431D01*
X160635500Y-65635500D01*
X168245004Y-65635500D01*
X168320293Y-65842354D01*
X168361566Y-65913840D01*
X168430646Y-66033491D01*
X168709692Y-66366045D01*
X168709694Y-66366048D01*
X168878766Y-66507916D01*
X169254723Y-66724974D01*
X169254725Y-66724976D01*
X169310068Y-66745119D01*
X169364500Y-66764930D01*
X169364500Y-77612919D01*
X168969247Y-77449200D01*
X168342753Y-77449200D01*
X167763948Y-77688949D01*
X167320949Y-78131948D01*
X167081200Y-78710753D01*
X167081200Y-79337247D01*
X167320949Y-79916052D01*
X167698897Y-80294000D01*
X167320949Y-80671948D01*
X167081200Y-81250753D01*
X167081200Y-81877247D01*
X167320949Y-82456052D01*
X167698897Y-82834000D01*
X167320949Y-83211948D01*
X167081200Y-83790753D01*
X167081200Y-84417247D01*
X167320949Y-84996052D01*
X167698897Y-85374000D01*
X167320949Y-85751948D01*
X167081200Y-86330753D01*
X167081200Y-86957247D01*
X167320949Y-87536052D01*
X167698897Y-87914000D01*
X167320949Y-88291948D01*
X167081200Y-88870753D01*
X167081200Y-89497247D01*
X167320949Y-90076052D01*
X167698897Y-90454000D01*
X167320949Y-90831948D01*
X167081200Y-91410753D01*
X167081200Y-92037247D01*
X167320949Y-92616052D01*
X167698897Y-92994000D01*
X167320949Y-93371948D01*
X167081200Y-93950753D01*
X167081200Y-94577247D01*
X167320949Y-95156052D01*
X167698897Y-95534000D01*
X167320949Y-95911948D01*
X167081200Y-96490753D01*
X167081200Y-97117247D01*
X167156609Y-97299300D01*
X166747402Y-97708508D01*
X166688120Y-97748119D01*
X166648510Y-97807400D01*
X166531196Y-97982972D01*
X166476091Y-98260000D01*
X166490001Y-98329929D01*
X166490001Y-99145000D01*
X166374017Y-99145000D01*
X166030365Y-99287345D01*
X165767345Y-99550365D01*
X165625000Y-99894017D01*
X165625000Y-100265983D01*
X165722090Y-100500379D01*
X163116910Y-103105560D01*
X163000017Y-103105560D01*
X162656365Y-103247905D01*
X162393345Y-103510925D01*
X162251000Y-103854577D01*
X162251000Y-104226543D01*
X162393345Y-104570195D01*
X162656365Y-104833215D01*
X163000017Y-104975560D01*
X163371983Y-104975560D01*
X163715635Y-104833215D01*
X163978655Y-104570195D01*
X164121000Y-104226543D01*
X164121000Y-104109650D01*
X166490000Y-101740651D01*
X166490000Y-103845909D01*
X165003830Y-105332080D01*
X163798290Y-105332080D01*
X163715635Y-105249425D01*
X163371983Y-105107080D01*
X163000017Y-105107080D01*
X162656365Y-105249425D01*
X162393345Y-105512445D01*
X162251000Y-105856097D01*
X162251000Y-106228063D01*
X162309071Y-106368260D01*
X160156370Y-106368260D01*
X160073715Y-106285605D01*
X159730063Y-106143260D01*
X159358097Y-106143260D01*
X159014445Y-106285605D01*
X158934766Y-106365284D01*
X158366884Y-105797403D01*
X158327271Y-105738119D01*
X158092418Y-105581195D01*
X157885316Y-105540000D01*
X157885314Y-105540000D01*
X157815390Y-105526091D01*
X157745466Y-105540000D01*
X156548386Y-105540000D01*
X156671000Y-105243983D01*
X156671000Y-104872017D01*
X156528655Y-104528365D01*
X156265635Y-104265345D01*
X155921983Y-104123000D01*
X155550017Y-104123000D01*
X155206365Y-104265345D01*
X155123710Y-104348000D01*
X153644916Y-104348000D01*
X153516962Y-104295000D01*
X153144996Y-104295000D01*
X152801344Y-104437345D01*
X152538324Y-104700365D01*
X152395979Y-105044017D01*
X152395979Y-105415983D01*
X152400843Y-105427725D01*
X152329334Y-105457345D01*
X152090000Y-105696679D01*
X152090000Y-96178765D01*
X152177345Y-96389635D01*
X152440365Y-96652655D01*
X152784017Y-96795000D01*
X153155983Y-96795000D01*
X153499635Y-96652655D01*
X153582290Y-96570000D01*
X154785910Y-96570000D01*
X156568510Y-98352602D01*
X156608119Y-98411881D01*
X156667398Y-98451490D01*
X156667399Y-98451491D01*
X156842972Y-98568805D01*
X157120000Y-98623909D01*
X157189926Y-98610000D01*
X161977710Y-98610000D01*
X162060365Y-98692655D01*
X162404017Y-98835000D01*
X162775983Y-98835000D01*
X163119635Y-98692655D01*
X163382655Y-98429635D01*
X163525000Y-98085983D01*
X163525000Y-97714017D01*
X163382655Y-97370365D01*
X163119635Y-97107345D01*
X162775983Y-96965000D01*
X162404017Y-96965000D01*
X162060365Y-97107345D01*
X161977710Y-97190000D01*
X157414092Y-97190000D01*
X156438190Y-96214100D01*
X156452655Y-96199635D01*
X156595000Y-95855983D01*
X156595000Y-95739091D01*
X156832603Y-95501489D01*
X156891880Y-95461881D01*
X156931488Y-95402604D01*
X156931491Y-95402601D01*
X157048805Y-95227029D01*
X157103909Y-94950000D01*
X157090000Y-94880074D01*
X157090000Y-79664926D01*
X157103909Y-79595000D01*
X157048805Y-79317971D01*
X156931491Y-79142399D01*
X156931490Y-79142398D01*
X156891881Y-79083119D01*
X156832602Y-79043510D01*
X152315000Y-74525910D01*
X152315000Y-74409017D01*
X152172655Y-74065365D01*
X151909635Y-73802345D01*
X151565983Y-73660000D01*
X151194017Y-73660000D01*
X150850365Y-73802345D01*
X150587345Y-74065365D01*
X150445000Y-74409017D01*
X150445000Y-74780983D01*
X150587345Y-75124635D01*
X150850365Y-75387655D01*
X151194017Y-75530000D01*
X151310910Y-75530000D01*
X155670001Y-79889093D01*
X155670000Y-90605000D01*
X155434017Y-90605000D01*
X155090365Y-90747345D01*
X155007710Y-90830000D01*
X154649091Y-90830000D01*
X152315000Y-88495910D01*
X152315000Y-88379017D01*
X152172655Y-88035365D01*
X151909635Y-87772345D01*
X151565983Y-87630000D01*
X151194017Y-87630000D01*
X150850365Y-87772345D01*
X150587345Y-88035365D01*
X150445000Y-88379017D01*
X150445000Y-88750983D01*
X150587345Y-89094635D01*
X150692710Y-89200000D01*
X150587345Y-89305365D01*
X150445000Y-89649017D01*
X150445000Y-90020983D01*
X150587345Y-90364635D01*
X150670001Y-90447291D01*
X150670001Y-92725000D01*
X150659092Y-92725000D01*
X148992448Y-91058357D01*
X148887655Y-90805365D01*
X148624635Y-90542345D01*
X148280983Y-90400000D01*
X147909017Y-90400000D01*
X147565365Y-90542345D01*
X147460000Y-90647710D01*
X147354635Y-90542345D01*
X147010983Y-90400000D01*
X146639017Y-90400000D01*
X146295365Y-90542345D01*
X146032345Y-90805365D01*
X145890000Y-91149017D01*
X145890000Y-91520983D01*
X146032345Y-91864635D01*
X146295365Y-92127655D01*
X146639017Y-92270000D01*
X147010983Y-92270000D01*
X147049822Y-92253912D01*
X149595000Y-94799091D01*
X149595000Y-94915983D01*
X149737345Y-95259635D01*
X150000365Y-95522655D01*
X150344017Y-95665000D01*
X150670001Y-95665000D01*
X150670000Y-106870076D01*
X150656091Y-106940000D01*
X150670000Y-107009924D01*
X150670000Y-107009925D01*
X150711195Y-107217027D01*
X150868119Y-107451880D01*
X150927401Y-107491491D01*
X151437399Y-108001491D01*
X151437405Y-108001495D01*
X153547361Y-110111453D01*
X153547360Y-140964714D01*
X153533451Y-141034640D01*
X153547360Y-141104564D01*
X153547360Y-141229925D01*
X153547361Y-141229930D01*
X153547360Y-142709683D01*
X153464705Y-142792338D01*
X153322360Y-143135990D01*
X153322360Y-143507956D01*
X153464705Y-143851608D01*
X153727725Y-144114628D01*
X154071377Y-144256973D01*
X154443343Y-144256973D01*
X154786995Y-144114628D01*
X155050015Y-143851608D01*
X155192360Y-143507956D01*
X155192360Y-143135990D01*
X155050015Y-142792338D01*
X154967360Y-142709683D01*
X154967360Y-141328730D01*
X167615092Y-128681000D01*
X167731983Y-128681000D01*
X168075635Y-128538655D01*
X168338655Y-128275635D01*
X168481000Y-127931983D01*
X168481000Y-127560017D01*
X168338655Y-127216365D01*
X168075635Y-126953345D01*
X167731983Y-126811000D01*
X167360017Y-126811000D01*
X167016365Y-126953345D01*
X166753345Y-127216365D01*
X166611000Y-127560017D01*
X166611000Y-127676908D01*
X154967360Y-139320550D01*
X154967360Y-118996097D01*
X158609080Y-118996097D01*
X158609080Y-119368063D01*
X158751425Y-119711715D01*
X159014445Y-119974735D01*
X159358097Y-120117080D01*
X159730063Y-120117080D01*
X160073715Y-119974735D01*
X160336735Y-119711715D01*
X160479080Y-119368063D01*
X160479080Y-118996097D01*
X160336735Y-118652445D01*
X160073715Y-118389425D01*
X159730063Y-118247080D01*
X159358097Y-118247080D01*
X159014445Y-118389425D01*
X158751425Y-118652445D01*
X158609080Y-118996097D01*
X154967360Y-118996097D01*
X154967360Y-109887286D01*
X154981269Y-109817360D01*
X154955345Y-109687028D01*
X154926165Y-109540332D01*
X154905898Y-109510000D01*
X154808851Y-109364759D01*
X154808850Y-109364758D01*
X154769241Y-109305479D01*
X154709962Y-109265870D01*
X153309508Y-107865417D01*
X153388604Y-107832655D01*
X153453259Y-107768000D01*
X155123710Y-107768000D01*
X155206365Y-107850655D01*
X155550017Y-107993000D01*
X155921983Y-107993000D01*
X156265635Y-107850655D01*
X156528655Y-107587635D01*
X156671000Y-107243983D01*
X156671000Y-106960000D01*
X157521299Y-106960000D01*
X158092160Y-107530861D01*
X158131769Y-107590141D01*
X158191048Y-107629750D01*
X158191049Y-107629751D01*
X158342872Y-107731196D01*
X158366622Y-107747065D01*
X158541796Y-107781909D01*
X158643650Y-107802169D01*
X158713576Y-107788260D01*
X158931790Y-107788260D01*
X159014445Y-107870915D01*
X159307026Y-107992106D01*
X158925397Y-108150182D01*
X158620182Y-108455397D01*
X158455000Y-108854180D01*
X158455000Y-109285820D01*
X158620182Y-109684603D01*
X158755001Y-109819422D01*
X158755001Y-110314684D01*
X158739622Y-110392000D01*
X158800546Y-110698291D01*
X158930251Y-110892408D01*
X158930254Y-110892411D01*
X158974048Y-110957953D01*
X159039590Y-111001747D01*
X162101000Y-114063157D01*
X162101000Y-114253820D01*
X162266182Y-114652603D01*
X162571397Y-114957818D01*
X162889370Y-115089527D01*
X166175000Y-118375158D01*
X166175000Y-118785820D01*
X166340182Y-119184603D01*
X166645397Y-119489818D01*
X167044180Y-119655000D01*
X167081200Y-119655000D01*
X167081200Y-119977247D01*
X167320949Y-120556052D01*
X167763948Y-120999051D01*
X168342753Y-121238800D01*
X168969247Y-121238800D01*
X169364501Y-121075081D01*
X169364501Y-158245004D01*
X169157650Y-158320291D01*
X169157647Y-158320292D01*
X169082158Y-158363876D01*
X168966508Y-158430646D01*
X168966506Y-158430649D01*
X168633953Y-158709693D01*
X168492085Y-158878764D01*
X168492083Y-158878769D01*
X168275026Y-159254723D01*
X168275024Y-159254725D01*
X168272242Y-159262369D01*
X168235070Y-159364500D01*
X147155513Y-159364500D01*
X147342064Y-159261038D01*
X147662199Y-158858387D01*
X147803877Y-158363876D01*
X147645983Y-158157000D01*
X146617000Y-158157000D01*
X146617000Y-158177000D01*
X146363000Y-158177000D01*
X146363000Y-158157000D01*
X145334017Y-158157000D01*
X145176123Y-158363876D01*
X145317801Y-158858387D01*
X145637936Y-159261038D01*
X145824487Y-159364500D01*
X139905513Y-159364500D01*
X140092064Y-159261038D01*
X140412199Y-158858387D01*
X140553877Y-158363876D01*
X140395983Y-158157000D01*
X139367000Y-158157000D01*
X139367000Y-158177000D01*
X139113000Y-158177000D01*
X139113000Y-158157000D01*
X138084017Y-158157000D01*
X137926123Y-158363876D01*
X138067801Y-158858387D01*
X138387936Y-159261038D01*
X138574487Y-159364500D01*
X116754996Y-159364500D01*
X116679709Y-159157650D01*
X116679708Y-159157647D01*
X116613365Y-159042738D01*
X116569354Y-158966508D01*
X116569351Y-158966506D01*
X116290307Y-158633953D01*
X116121236Y-158492085D01*
X116121231Y-158492083D01*
X115745276Y-158275025D01*
X115745275Y-158275024D01*
X115689932Y-158254881D01*
X115635500Y-158235070D01*
X115635500Y-155955431D01*
X116365000Y-155955431D01*
X116365000Y-156844569D01*
X116705259Y-157666026D01*
X117333974Y-158294741D01*
X118155431Y-158635000D01*
X119044569Y-158635000D01*
X119866026Y-158294741D01*
X120464643Y-157696124D01*
X137926123Y-157696124D01*
X138084017Y-157903000D01*
X139113000Y-157903000D01*
X139113000Y-156660776D01*
X139367000Y-156660776D01*
X139367000Y-157903000D01*
X140395983Y-157903000D01*
X140553877Y-157696124D01*
X145176123Y-157696124D01*
X145334017Y-157903000D01*
X146363000Y-157903000D01*
X146363000Y-156660776D01*
X146617000Y-156660776D01*
X146617000Y-157903000D01*
X147645983Y-157903000D01*
X147803877Y-157696124D01*
X147662199Y-157201613D01*
X147342064Y-156798962D01*
X146892210Y-156549471D01*
X146819400Y-156537090D01*
X146617000Y-156660776D01*
X146363000Y-156660776D01*
X146160600Y-156537090D01*
X146087790Y-156549471D01*
X145637936Y-156798962D01*
X145317801Y-157201613D01*
X145176123Y-157696124D01*
X140553877Y-157696124D01*
X140412199Y-157201613D01*
X140092064Y-156798962D01*
X139642210Y-156549471D01*
X139569400Y-156537090D01*
X139367000Y-156660776D01*
X139113000Y-156660776D01*
X138910600Y-156537090D01*
X138837790Y-156549471D01*
X138387936Y-156798962D01*
X138067801Y-157201613D01*
X137926123Y-157696124D01*
X120464643Y-157696124D01*
X120494741Y-157666026D01*
X120835000Y-156844569D01*
X120835000Y-156267147D01*
X139702458Y-156267147D01*
X139761219Y-156500328D01*
X140253100Y-156672522D01*
X140773434Y-156643375D01*
X141118781Y-156500328D01*
X141177542Y-156267147D01*
X144552458Y-156267147D01*
X144611219Y-156500328D01*
X145103100Y-156672522D01*
X145623434Y-156643375D01*
X145968781Y-156500328D01*
X146027542Y-156267147D01*
X145290000Y-155529605D01*
X144552458Y-156267147D01*
X141177542Y-156267147D01*
X140440000Y-155529605D01*
X139702458Y-156267147D01*
X120835000Y-156267147D01*
X120835000Y-155955431D01*
X120506806Y-155163100D01*
X139117478Y-155163100D01*
X139146625Y-155683434D01*
X139289672Y-156028781D01*
X139522853Y-156087542D01*
X140260395Y-155350000D01*
X140619605Y-155350000D01*
X141357147Y-156087542D01*
X141590328Y-156028781D01*
X141762522Y-155536900D01*
X141741584Y-155163100D01*
X143967478Y-155163100D01*
X143996625Y-155683434D01*
X144139672Y-156028781D01*
X144372853Y-156087542D01*
X145110395Y-155350000D01*
X145469605Y-155350000D01*
X146207147Y-156087542D01*
X146440328Y-156028781D01*
X146466005Y-155955431D01*
X164165000Y-155955431D01*
X164165000Y-156844569D01*
X164505259Y-157666026D01*
X165133974Y-158294741D01*
X165955431Y-158635000D01*
X166844569Y-158635000D01*
X167666026Y-158294741D01*
X168294741Y-157666026D01*
X168635000Y-156844569D01*
X168635000Y-155955431D01*
X168294741Y-155133974D01*
X167666026Y-154505259D01*
X166844569Y-154165000D01*
X165955431Y-154165000D01*
X165133974Y-154505259D01*
X164505259Y-155133974D01*
X164165000Y-155955431D01*
X146466005Y-155955431D01*
X146612522Y-155536900D01*
X146583375Y-155016566D01*
X146440328Y-154671219D01*
X146207147Y-154612458D01*
X145469605Y-155350000D01*
X145110395Y-155350000D01*
X144372853Y-154612458D01*
X144139672Y-154671219D01*
X143967478Y-155163100D01*
X141741584Y-155163100D01*
X141733375Y-155016566D01*
X141590328Y-154671219D01*
X141357147Y-154612458D01*
X140619605Y-155350000D01*
X140260395Y-155350000D01*
X139522853Y-154612458D01*
X139289672Y-154671219D01*
X139117478Y-155163100D01*
X120506806Y-155163100D01*
X120494741Y-155133974D01*
X119866026Y-154505259D01*
X119691223Y-154432853D01*
X139702458Y-154432853D01*
X140440000Y-155170395D01*
X141177542Y-154432853D01*
X144552458Y-154432853D01*
X145290000Y-155170395D01*
X146027542Y-154432853D01*
X145968781Y-154199672D01*
X145476900Y-154027478D01*
X144956566Y-154056625D01*
X144611219Y-154199672D01*
X144552458Y-154432853D01*
X141177542Y-154432853D01*
X141118781Y-154199672D01*
X140626900Y-154027478D01*
X140106566Y-154056625D01*
X139761219Y-154199672D01*
X139702458Y-154432853D01*
X119691223Y-154432853D01*
X119044569Y-154165000D01*
X118155431Y-154165000D01*
X117333974Y-154505259D01*
X116705259Y-155133974D01*
X116365000Y-155955431D01*
X115635500Y-155955431D01*
X115635500Y-149244051D01*
X116018753Y-149402800D01*
X116645247Y-149402800D01*
X117224052Y-149163051D01*
X117667051Y-148720052D01*
X117906800Y-148141247D01*
X117906800Y-147514753D01*
X117667051Y-146935948D01*
X117289103Y-146558000D01*
X117667051Y-146180052D01*
X117906800Y-145601247D01*
X117906800Y-144974753D01*
X117667051Y-144395948D01*
X117289103Y-144018000D01*
X117667051Y-143640052D01*
X117906800Y-143061247D01*
X117906800Y-142434753D01*
X117667051Y-141855948D01*
X117289103Y-141478000D01*
X117667051Y-141100052D01*
X117906800Y-140521247D01*
X117906800Y-139894753D01*
X117667051Y-139315948D01*
X117289103Y-138938000D01*
X117667051Y-138560052D01*
X117906800Y-137981247D01*
X117906800Y-137354753D01*
X117667051Y-136775948D01*
X117226786Y-136335683D01*
X117261363Y-136236968D01*
X116332000Y-135307605D01*
X116317858Y-135321748D01*
X116138253Y-135142143D01*
X116152395Y-135128000D01*
X116511605Y-135128000D01*
X117440968Y-136057363D01*
X117701580Y-135966077D01*
X117918045Y-135378167D01*
X117893049Y-134752172D01*
X117701580Y-134289923D01*
X117440968Y-134198637D01*
X116511605Y-135128000D01*
X116152395Y-135128000D01*
X116138253Y-135113858D01*
X116317858Y-134934253D01*
X116332000Y-134948395D01*
X117261363Y-134019032D01*
X117170077Y-133758420D01*
X116582167Y-133541955D01*
X115956172Y-133566951D01*
X115635500Y-133699777D01*
X115635500Y-121114536D01*
X116019833Y-121256045D01*
X116645828Y-121231049D01*
X117108077Y-121039580D01*
X117199363Y-120778968D01*
X116270000Y-119849605D01*
X116255858Y-119863748D01*
X116076253Y-119684143D01*
X116090395Y-119670000D01*
X116449605Y-119670000D01*
X117378968Y-120599363D01*
X117639580Y-120508077D01*
X117856045Y-119920167D01*
X117831049Y-119294172D01*
X117639580Y-118831923D01*
X117378968Y-118740637D01*
X116449605Y-119670000D01*
X116090395Y-119670000D01*
X116076253Y-119655858D01*
X116255858Y-119476253D01*
X116270000Y-119490395D01*
X117199363Y-118561032D01*
X117142957Y-118400000D01*
X117199363Y-118238968D01*
X116270000Y-117309605D01*
X116255858Y-117323748D01*
X116076253Y-117144143D01*
X116090395Y-117130000D01*
X116449605Y-117130000D01*
X117378968Y-118059363D01*
X117639580Y-117968077D01*
X117856045Y-117380167D01*
X117831049Y-116754172D01*
X117639580Y-116291923D01*
X117378968Y-116200637D01*
X116449605Y-117130000D01*
X116090395Y-117130000D01*
X116076253Y-117115858D01*
X116255858Y-116936253D01*
X116270000Y-116950395D01*
X117199363Y-116021032D01*
X117142957Y-115860000D01*
X117199363Y-115698968D01*
X116270000Y-114769605D01*
X116255858Y-114783748D01*
X116076253Y-114604143D01*
X116090395Y-114590000D01*
X116449605Y-114590000D01*
X117378968Y-115519363D01*
X117639580Y-115428077D01*
X117856045Y-114840167D01*
X117831049Y-114214172D01*
X117639580Y-113751923D01*
X117378968Y-113660637D01*
X116449605Y-114590000D01*
X116090395Y-114590000D01*
X116076253Y-114575858D01*
X116255858Y-114396253D01*
X116270000Y-114410395D01*
X117199363Y-113481032D01*
X117164786Y-113382317D01*
X117605051Y-112942052D01*
X117844800Y-112363247D01*
X117844800Y-111736753D01*
X117605051Y-111157948D01*
X117227103Y-110780000D01*
X117605051Y-110402052D01*
X117646970Y-110300852D01*
X117676389Y-110295000D01*
X117676393Y-110295000D01*
X117894617Y-110251593D01*
X117866091Y-110395000D01*
X117880001Y-110464929D01*
X117880000Y-121995908D01*
X116457402Y-123418508D01*
X116398119Y-123458120D01*
X116241195Y-123692973D01*
X116205997Y-123869925D01*
X116186091Y-123970000D01*
X116200000Y-124039924D01*
X116200001Y-130990071D01*
X116186091Y-131060000D01*
X116241196Y-131337028D01*
X116398120Y-131571881D01*
X116457402Y-131611492D01*
X118790001Y-133944092D01*
X118790000Y-140430076D01*
X118776091Y-140500000D01*
X118790000Y-140569924D01*
X118790000Y-140569925D01*
X118831195Y-140777027D01*
X118988119Y-141011880D01*
X119047402Y-141051492D01*
X123952170Y-145956262D01*
X123991779Y-146015541D01*
X124051058Y-146055150D01*
X124051059Y-146055151D01*
X124226631Y-146172465D01*
X124503660Y-146227569D01*
X124573586Y-146213660D01*
X126545685Y-146213660D01*
X126628340Y-146296315D01*
X126971992Y-146438660D01*
X127343958Y-146438660D01*
X127687610Y-146296315D01*
X127950630Y-146033295D01*
X127995826Y-145924180D01*
X129195000Y-145924180D01*
X129195000Y-146355820D01*
X129360182Y-146754603D01*
X129495000Y-146889421D01*
X129495001Y-148340331D01*
X129365000Y-148654180D01*
X129365000Y-149085820D01*
X129530182Y-149484603D01*
X129835397Y-149789818D01*
X130234180Y-149955000D01*
X130665820Y-149955000D01*
X131064603Y-149789818D01*
X131369818Y-149484603D01*
X131535000Y-149085820D01*
X131535000Y-148654180D01*
X131369818Y-148255397D01*
X131065000Y-147950579D01*
X131065000Y-146889421D01*
X131199818Y-146754603D01*
X131365000Y-146355820D01*
X131365000Y-145924180D01*
X131199818Y-145525397D01*
X130894603Y-145220182D01*
X130495820Y-145055000D01*
X130064180Y-145055000D01*
X129665397Y-145220182D01*
X129360182Y-145525397D01*
X129195000Y-145924180D01*
X127995826Y-145924180D01*
X128092975Y-145689643D01*
X128092975Y-145317677D01*
X127950630Y-144974025D01*
X127687610Y-144711005D01*
X127343958Y-144568660D01*
X126971992Y-144568660D01*
X126628340Y-144711005D01*
X126545685Y-144793660D01*
X124797752Y-144793660D01*
X120210000Y-140205910D01*
X120210000Y-133719920D01*
X120223908Y-133649999D01*
X120210000Y-133580078D01*
X120210000Y-133580074D01*
X120168805Y-133372972D01*
X120011881Y-133138119D01*
X119952599Y-133098508D01*
X117620000Y-130765910D01*
X117620000Y-126625750D01*
X120753000Y-126625750D01*
X120753000Y-127228309D01*
X120849673Y-127461698D01*
X121028301Y-127640327D01*
X121261690Y-127737000D01*
X121864250Y-127737000D01*
X122023000Y-127578250D01*
X122023000Y-126467000D01*
X120911750Y-126467000D01*
X120753000Y-126625750D01*
X117620000Y-126625750D01*
X117620000Y-124778067D01*
X117854017Y-124875000D01*
X118225983Y-124875000D01*
X118569635Y-124732655D01*
X118832655Y-124469635D01*
X118975000Y-124125983D01*
X118975000Y-124009090D01*
X121014091Y-121970000D01*
X123087710Y-121970000D01*
X123170365Y-122052655D01*
X123484614Y-122182821D01*
X122996546Y-122670889D01*
X122941337Y-122615680D01*
X122427881Y-122403000D01*
X121872119Y-122403000D01*
X121358663Y-122615680D01*
X120965680Y-123008663D01*
X120753000Y-123522119D01*
X120753000Y-124077881D01*
X120965680Y-124591337D01*
X121317343Y-124943000D01*
X121261690Y-124943000D01*
X121028301Y-125039673D01*
X120849673Y-125218302D01*
X120753000Y-125451691D01*
X120753000Y-126054250D01*
X120911750Y-126213000D01*
X122023000Y-126213000D01*
X122023000Y-126193000D01*
X122277000Y-126193000D01*
X122277000Y-126213000D01*
X122297000Y-126213000D01*
X122297000Y-126467000D01*
X122277000Y-126467000D01*
X122277000Y-127578250D01*
X122435750Y-127737000D01*
X122738990Y-127737000D01*
X122738989Y-137719065D01*
X122725080Y-137788989D01*
X122738989Y-137858913D01*
X122738989Y-137858914D01*
X122780184Y-138066016D01*
X122937108Y-138300869D01*
X122996391Y-138340481D01*
X124668510Y-140012602D01*
X124708119Y-140071881D01*
X124767398Y-140111490D01*
X124767399Y-140111491D01*
X124942971Y-140228805D01*
X125220000Y-140283909D01*
X125289926Y-140270000D01*
X126020225Y-140270000D01*
X126222975Y-140472750D01*
X126222975Y-140589643D01*
X126365320Y-140933295D01*
X126628340Y-141196315D01*
X126971992Y-141338660D01*
X127343958Y-141338660D01*
X127687610Y-141196315D01*
X127950630Y-140933295D01*
X128092975Y-140589643D01*
X128092975Y-140217677D01*
X127950630Y-139874025D01*
X127687610Y-139611005D01*
X127343958Y-139468660D01*
X127227065Y-139468660D01*
X126865809Y-139107404D01*
X126826196Y-139048119D01*
X126591343Y-138891195D01*
X126384241Y-138850000D01*
X126384239Y-138850000D01*
X126314315Y-138836091D01*
X126244391Y-138850000D01*
X125514092Y-138850000D01*
X124158989Y-137494899D01*
X124158989Y-127632150D01*
X124412119Y-127737000D01*
X124967881Y-127737000D01*
X125120000Y-127673990D01*
X125120000Y-127690076D01*
X125106091Y-127760000D01*
X125120000Y-127829924D01*
X125120000Y-127829925D01*
X125161195Y-128037027D01*
X125318119Y-128271880D01*
X125377402Y-128311492D01*
X129270001Y-132204092D01*
X129270000Y-139447710D01*
X129187345Y-139530365D01*
X129045000Y-139874017D01*
X129045000Y-140245983D01*
X129187345Y-140589635D01*
X129450365Y-140852655D01*
X129794017Y-140995000D01*
X130165983Y-140995000D01*
X130509635Y-140852655D01*
X130772655Y-140589635D01*
X130915000Y-140245983D01*
X130915000Y-139874017D01*
X130772655Y-139530365D01*
X130690000Y-139447710D01*
X130690000Y-139384180D01*
X137865000Y-139384180D01*
X137865000Y-139815820D01*
X138030182Y-140214603D01*
X138335397Y-140519818D01*
X138734180Y-140685000D01*
X138924843Y-140685000D01*
X149110253Y-150870411D01*
X149154047Y-150935953D01*
X149219589Y-150979747D01*
X149219591Y-150979749D01*
X149226856Y-150984603D01*
X149413708Y-151109454D01*
X149642684Y-151155000D01*
X149642687Y-151155000D01*
X149719999Y-151170378D01*
X149797311Y-151155000D01*
X152090579Y-151155000D01*
X152225397Y-151289818D01*
X152624180Y-151455000D01*
X152814843Y-151455000D01*
X153760251Y-152400408D01*
X153804047Y-152465953D01*
X154063708Y-152639454D01*
X154292684Y-152685000D01*
X154292688Y-152685000D01*
X154370000Y-152700378D01*
X154447312Y-152685000D01*
X156920579Y-152685000D01*
X157055397Y-152819818D01*
X157454180Y-152985000D01*
X157885820Y-152985000D01*
X158284603Y-152819818D01*
X158589818Y-152514603D01*
X158755000Y-152115820D01*
X158755000Y-151684180D01*
X158589818Y-151285397D01*
X158284603Y-150980182D01*
X157885820Y-150815000D01*
X157454180Y-150815000D01*
X157055397Y-150980182D01*
X156920579Y-151115000D01*
X154695157Y-151115000D01*
X153925000Y-150344843D01*
X153925000Y-150154180D01*
X153759818Y-149755397D01*
X153558438Y-149554017D01*
X154295000Y-149554017D01*
X154295000Y-149925983D01*
X154437345Y-150269635D01*
X154700365Y-150532655D01*
X155044017Y-150675000D01*
X155415983Y-150675000D01*
X155759635Y-150532655D01*
X156022655Y-150269635D01*
X156165000Y-149925983D01*
X156165000Y-149809090D01*
X156709961Y-149264130D01*
X156769240Y-149224521D01*
X156926165Y-148989668D01*
X156967360Y-148782566D01*
X156967360Y-148782562D01*
X156981268Y-148712641D01*
X156967360Y-148642720D01*
X156967360Y-142984263D01*
X157050015Y-142901608D01*
X157192360Y-142557956D01*
X157192360Y-142185990D01*
X157050015Y-141842338D01*
X156786995Y-141579318D01*
X156443343Y-141436973D01*
X156071377Y-141436973D01*
X155727725Y-141579318D01*
X155464705Y-141842338D01*
X155322360Y-142185990D01*
X155322360Y-142557956D01*
X155464705Y-142901608D01*
X155547361Y-142984264D01*
X155547360Y-148418549D01*
X155160910Y-148805000D01*
X155044017Y-148805000D01*
X154700365Y-148947345D01*
X154437345Y-149210365D01*
X154295000Y-149554017D01*
X153558438Y-149554017D01*
X153454603Y-149450182D01*
X153055820Y-149285000D01*
X152624180Y-149285000D01*
X152225397Y-149450182D01*
X152090579Y-149585000D01*
X150045158Y-149585000D01*
X140035000Y-139574843D01*
X140035000Y-139384180D01*
X139869818Y-138985397D01*
X139564603Y-138680182D01*
X139165820Y-138515000D01*
X138734180Y-138515000D01*
X138335397Y-138680182D01*
X138030182Y-138985397D01*
X137865000Y-139384180D01*
X130690000Y-139384180D01*
X130690000Y-133184017D01*
X135755000Y-133184017D01*
X135755000Y-133555983D01*
X135897345Y-133899635D01*
X136160365Y-134162655D01*
X136504017Y-134305000D01*
X136875983Y-134305000D01*
X137219635Y-134162655D01*
X137302290Y-134080000D01*
X137597714Y-134080000D01*
X137680369Y-134162655D01*
X138024021Y-134305000D01*
X138395987Y-134305000D01*
X138739639Y-134162655D01*
X139002659Y-133899635D01*
X139145004Y-133555983D01*
X139145004Y-133184017D01*
X139045998Y-132944995D01*
X139145000Y-132705983D01*
X139145000Y-132334017D01*
X139002655Y-131990365D01*
X138739635Y-131727345D01*
X138395983Y-131585000D01*
X138024017Y-131585000D01*
X137680365Y-131727345D01*
X137597710Y-131810000D01*
X137302290Y-131810000D01*
X137229635Y-131737345D01*
X136885983Y-131595000D01*
X136514017Y-131595000D01*
X136170365Y-131737345D01*
X135907345Y-132000365D01*
X135765000Y-132344017D01*
X135765000Y-132715983D01*
X135856933Y-132937929D01*
X135755000Y-133184017D01*
X130690000Y-133184017D01*
X130690000Y-131979920D01*
X130703908Y-131909999D01*
X130690000Y-131840078D01*
X130690000Y-131840074D01*
X130648805Y-131632972D01*
X130491881Y-131398119D01*
X130432599Y-131358508D01*
X127838108Y-128764017D01*
X135925000Y-128764017D01*
X135925000Y-129135983D01*
X136067345Y-129479635D01*
X136330365Y-129742655D01*
X136674017Y-129885000D01*
X137045983Y-129885000D01*
X137389635Y-129742655D01*
X137612290Y-129520000D01*
X137667710Y-129520000D01*
X137750365Y-129602655D01*
X138094017Y-129745000D01*
X138465983Y-129745000D01*
X138809635Y-129602655D01*
X139072655Y-129339635D01*
X139215000Y-128995983D01*
X139215000Y-128624017D01*
X139072655Y-128280365D01*
X139037094Y-128244804D01*
X139165012Y-127935983D01*
X139165012Y-127564017D01*
X139022667Y-127220365D01*
X138759647Y-126957345D01*
X138415995Y-126815000D01*
X138044029Y-126815000D01*
X137700377Y-126957345D01*
X137617722Y-127040000D01*
X137478280Y-127040000D01*
X137415625Y-126977345D01*
X137071973Y-126835000D01*
X136700007Y-126835000D01*
X136356355Y-126977345D01*
X136093335Y-127240365D01*
X135950990Y-127584017D01*
X135950990Y-127955983D01*
X136093335Y-128299635D01*
X136140705Y-128347005D01*
X136067345Y-128420365D01*
X135925000Y-128764017D01*
X127838108Y-128764017D01*
X126711368Y-127637278D01*
X126952119Y-127737000D01*
X127507881Y-127737000D01*
X128021337Y-127524320D01*
X128414320Y-127131337D01*
X128500000Y-126924487D01*
X128585680Y-127131337D01*
X128978663Y-127524320D01*
X129492119Y-127737000D01*
X130047881Y-127737000D01*
X130561337Y-127524320D01*
X130954320Y-127131337D01*
X131167000Y-126617881D01*
X131167000Y-126062119D01*
X130954320Y-125548663D01*
X130561337Y-125155680D01*
X130354487Y-125070000D01*
X130561337Y-124984320D01*
X130954320Y-124591337D01*
X131167000Y-124077881D01*
X131167000Y-123522119D01*
X130954320Y-123008663D01*
X130709874Y-122764217D01*
X132707981Y-120766110D01*
X132655000Y-120894017D01*
X132655000Y-121265983D01*
X132797345Y-121609635D01*
X133060365Y-121872655D01*
X133404017Y-122015000D01*
X133520910Y-122015000D01*
X134738508Y-123232599D01*
X134778119Y-123291881D01*
X135012972Y-123448805D01*
X135220074Y-123490000D01*
X135220075Y-123490000D01*
X135289999Y-123503909D01*
X135359924Y-123490000D01*
X137817710Y-123490000D01*
X137900365Y-123572655D01*
X138244017Y-123715000D01*
X138615983Y-123715000D01*
X138959635Y-123572655D01*
X139222655Y-123309635D01*
X139365000Y-122965983D01*
X139365000Y-122594017D01*
X139222655Y-122250365D01*
X138959635Y-121987345D01*
X138615983Y-121845000D01*
X138244017Y-121845000D01*
X137900365Y-121987345D01*
X137817710Y-122070000D01*
X135584091Y-122070000D01*
X134525000Y-121010910D01*
X134525000Y-120894017D01*
X134382655Y-120550365D01*
X134119635Y-120287345D01*
X133775983Y-120145000D01*
X133404017Y-120145000D01*
X133276110Y-120197981D01*
X141174092Y-112300000D01*
X145550076Y-112300000D01*
X145620000Y-112313909D01*
X145689924Y-112300000D01*
X145689926Y-112300000D01*
X145897028Y-112258805D01*
X146131881Y-112101881D01*
X146171494Y-112042596D01*
X148642444Y-109571648D01*
X148701720Y-109532041D01*
X148741328Y-109472764D01*
X148741331Y-109472761D01*
X148858645Y-109297188D01*
X148873199Y-109224017D01*
X149855000Y-109224017D01*
X149855000Y-109595983D01*
X149997345Y-109939635D01*
X150260365Y-110202655D01*
X150585000Y-110337123D01*
X150585000Y-110575983D01*
X150727345Y-110919635D01*
X150990365Y-111182655D01*
X151334017Y-111325000D01*
X151705983Y-111325000D01*
X152049635Y-111182655D01*
X152312655Y-110919635D01*
X152455000Y-110575983D01*
X152455000Y-110204017D01*
X152312655Y-109860365D01*
X152049635Y-109597345D01*
X151933213Y-109549122D01*
X151725000Y-109340909D01*
X151725000Y-109224017D01*
X151582655Y-108880365D01*
X151319635Y-108617345D01*
X150975983Y-108475000D01*
X150604017Y-108475000D01*
X150260365Y-108617345D01*
X149997345Y-108880365D01*
X149855000Y-109224017D01*
X148873199Y-109224017D01*
X148913749Y-109020160D01*
X148899840Y-108950234D01*
X148899840Y-106654370D01*
X148982495Y-106571715D01*
X149124840Y-106228063D01*
X149124840Y-105856097D01*
X148982495Y-105512445D01*
X148719475Y-105249425D01*
X148375823Y-105107080D01*
X148003857Y-105107080D01*
X147660205Y-105249425D01*
X147397185Y-105512445D01*
X147254840Y-105856097D01*
X147254840Y-106228063D01*
X147397185Y-106571715D01*
X147479841Y-106654371D01*
X147479840Y-108726068D01*
X145433934Y-110771975D01*
X145340575Y-110546585D01*
X145077555Y-110283565D01*
X144733903Y-110141220D01*
X144361937Y-110141220D01*
X144018285Y-110283565D01*
X143935630Y-110366220D01*
X141913949Y-110366220D01*
X142490389Y-109789780D01*
X143935630Y-109789780D01*
X144018285Y-109872435D01*
X144361937Y-110014780D01*
X144733903Y-110014780D01*
X145077555Y-109872435D01*
X145340575Y-109609415D01*
X145482920Y-109265763D01*
X145482920Y-108893797D01*
X145340575Y-108550145D01*
X145077555Y-108287125D01*
X144733903Y-108144780D01*
X144361937Y-108144780D01*
X144018285Y-108287125D01*
X143935630Y-108369780D01*
X143360062Y-108369780D01*
X143938606Y-107791236D01*
X144018285Y-107870915D01*
X144361937Y-108013260D01*
X144733903Y-108013260D01*
X145077555Y-107870915D01*
X145340575Y-107607895D01*
X145482920Y-107264243D01*
X145482920Y-106892277D01*
X145340575Y-106548625D01*
X145077555Y-106285605D01*
X144733903Y-106143260D01*
X144361937Y-106143260D01*
X144018285Y-106285605D01*
X143935630Y-106368260D01*
X143717416Y-106368260D01*
X143647490Y-106354351D01*
X143370462Y-106409455D01*
X143219440Y-106510365D01*
X143135609Y-106566379D01*
X143096000Y-106625658D01*
X135786670Y-113934990D01*
X135665983Y-113885000D01*
X135339091Y-113885000D01*
X135185000Y-113730909D01*
X135185000Y-113614017D01*
X135042655Y-113270365D01*
X134779635Y-113007345D01*
X134435983Y-112865000D01*
X134064017Y-112865000D01*
X133720365Y-113007345D01*
X133457345Y-113270365D01*
X133315000Y-113614017D01*
X133315000Y-113985983D01*
X133457345Y-114329635D01*
X133720365Y-114592655D01*
X134064017Y-114735000D01*
X134180909Y-114735000D01*
X134230000Y-114784091D01*
X134230001Y-115155909D01*
X133395909Y-115990001D01*
X132909925Y-115990001D01*
X132839999Y-115976092D01*
X132770073Y-115990001D01*
X132562971Y-116031196D01*
X132512380Y-116065000D01*
X132354017Y-116065000D01*
X132010365Y-116207345D01*
X131747345Y-116470365D01*
X131605000Y-116814017D01*
X131605000Y-117185983D01*
X131747345Y-117529635D01*
X131768649Y-117550939D01*
X131768649Y-117593609D01*
X131436766Y-117731079D01*
X131173746Y-117994099D01*
X131031401Y-118337751D01*
X131031401Y-118709717D01*
X131098390Y-118871442D01*
X127957402Y-122012432D01*
X127898120Y-122052043D01*
X127765605Y-122250365D01*
X127741196Y-122286896D01*
X127702099Y-122483448D01*
X127507881Y-122403000D01*
X126952119Y-122403000D01*
X126540000Y-122573705D01*
X126540000Y-104893297D01*
X143612920Y-104893297D01*
X143612920Y-105265263D01*
X143755265Y-105608915D01*
X144018285Y-105871935D01*
X144361937Y-106014280D01*
X144733903Y-106014280D01*
X145077555Y-105871935D01*
X145340575Y-105608915D01*
X145482920Y-105265263D01*
X145482920Y-105148371D01*
X145880732Y-104750560D01*
X147577550Y-104750560D01*
X147660205Y-104833215D01*
X148003857Y-104975560D01*
X148375823Y-104975560D01*
X148719475Y-104833215D01*
X148982495Y-104570195D01*
X149124840Y-104226543D01*
X149124840Y-103854577D01*
X148982495Y-103510925D01*
X148719475Y-103247905D01*
X148375823Y-103105560D01*
X148003857Y-103105560D01*
X147660205Y-103247905D01*
X147577550Y-103330560D01*
X145656564Y-103330560D01*
X145586640Y-103316651D01*
X145516715Y-103330560D01*
X145516714Y-103330560D01*
X145309612Y-103371755D01*
X145309610Y-103371756D01*
X145309611Y-103371756D01*
X145170361Y-103464800D01*
X145074759Y-103528679D01*
X145035150Y-103587959D01*
X144478829Y-104144280D01*
X144361937Y-104144280D01*
X144018285Y-104286625D01*
X143755265Y-104549645D01*
X143612920Y-104893297D01*
X126540000Y-104893297D01*
X126540000Y-100904017D01*
X139635000Y-100904017D01*
X139635000Y-101275983D01*
X139777345Y-101619635D01*
X139854655Y-101696945D01*
X139846091Y-101740000D01*
X139860000Y-101809924D01*
X139860000Y-101809926D01*
X139901195Y-102017028D01*
X140058120Y-102251881D01*
X140117401Y-102291492D01*
X140515000Y-102689091D01*
X140515000Y-102805983D01*
X140657345Y-103149635D01*
X140920365Y-103412655D01*
X141264017Y-103555000D01*
X141635983Y-103555000D01*
X141979635Y-103412655D01*
X142242655Y-103149635D01*
X142385000Y-102805983D01*
X142385000Y-102434017D01*
X142242655Y-102090365D01*
X141979635Y-101827345D01*
X141635983Y-101685000D01*
X141519091Y-101685000D01*
X141389329Y-101555238D01*
X141505000Y-101275983D01*
X141505000Y-100904017D01*
X141362655Y-100560365D01*
X141099635Y-100297345D01*
X140755983Y-100155000D01*
X140384017Y-100155000D01*
X140040365Y-100297345D01*
X139777345Y-100560365D01*
X139635000Y-100904017D01*
X126540000Y-100904017D01*
X126540000Y-91872290D01*
X126622655Y-91789635D01*
X126720000Y-91554622D01*
X126720000Y-93930076D01*
X126706091Y-94000000D01*
X126720000Y-94069924D01*
X126720000Y-94069925D01*
X126761195Y-94277027D01*
X126918119Y-94511880D01*
X126977402Y-94551492D01*
X130775000Y-98349091D01*
X130775000Y-98465983D01*
X130917345Y-98809635D01*
X131180365Y-99072655D01*
X131524017Y-99215000D01*
X131895983Y-99215000D01*
X132239635Y-99072655D01*
X132502655Y-98809635D01*
X132645000Y-98465983D01*
X132645000Y-98094017D01*
X132601349Y-97988635D01*
X132929635Y-97852655D01*
X133192655Y-97589635D01*
X133335000Y-97245983D01*
X133335000Y-96874017D01*
X133192655Y-96530365D01*
X132929635Y-96267345D01*
X132585983Y-96125000D01*
X132550000Y-96125000D01*
X132550000Y-93684017D01*
X133125000Y-93684017D01*
X133125000Y-94055983D01*
X133267345Y-94399635D01*
X133530365Y-94662655D01*
X133874017Y-94805000D01*
X134245983Y-94805000D01*
X134589635Y-94662655D01*
X134852655Y-94399635D01*
X134946841Y-94172249D01*
X150469342Y-78649749D01*
X150587345Y-78934635D01*
X150670000Y-79017290D01*
X150670001Y-79395908D01*
X136430910Y-93635000D01*
X136314017Y-93635000D01*
X135970365Y-93777345D01*
X135707345Y-94040365D01*
X135565000Y-94384017D01*
X135565000Y-94755983D01*
X135707345Y-95099635D01*
X135970365Y-95362655D01*
X136314017Y-95505000D01*
X136685983Y-95505000D01*
X137029635Y-95362655D01*
X137292655Y-95099635D01*
X137435000Y-94755983D01*
X137435000Y-94639090D01*
X146900073Y-85174017D01*
X151885000Y-85174017D01*
X151885000Y-85545983D01*
X152027345Y-85889635D01*
X152290365Y-86152655D01*
X152634017Y-86295000D01*
X153005983Y-86295000D01*
X153150888Y-86234978D01*
X153175000Y-86259090D01*
X153175000Y-86375983D01*
X153317345Y-86719635D01*
X153580365Y-86982655D01*
X153924017Y-87125000D01*
X154295983Y-87125000D01*
X154639635Y-86982655D01*
X154902655Y-86719635D01*
X155045000Y-86375983D01*
X155045000Y-86004017D01*
X154902655Y-85660365D01*
X154682290Y-85440000D01*
X154912655Y-85209635D01*
X155055000Y-84865983D01*
X155055000Y-84494017D01*
X154912655Y-84150365D01*
X154649635Y-83887345D01*
X154305983Y-83745000D01*
X154189090Y-83745000D01*
X154001494Y-83557404D01*
X153961881Y-83498119D01*
X153727028Y-83341195D01*
X153597775Y-83315485D01*
X153499635Y-83217345D01*
X153155983Y-83075000D01*
X152784017Y-83075000D01*
X152440365Y-83217345D01*
X152177345Y-83480365D01*
X152035000Y-83824017D01*
X152035000Y-84195983D01*
X152177345Y-84539635D01*
X152247710Y-84610000D01*
X152027345Y-84830365D01*
X151885000Y-85174017D01*
X146900073Y-85174017D01*
X151832599Y-80241492D01*
X151891881Y-80201881D01*
X152048805Y-79967028D01*
X152090000Y-79759926D01*
X152090000Y-79759922D01*
X152103908Y-79690001D01*
X152090000Y-79620080D01*
X152090000Y-79017290D01*
X152172655Y-78934635D01*
X152315000Y-78590983D01*
X152315000Y-78219017D01*
X152172655Y-77875365D01*
X152067290Y-77770000D01*
X152172655Y-77664635D01*
X152315000Y-77320983D01*
X152315000Y-76949017D01*
X152172655Y-76605365D01*
X151909635Y-76342345D01*
X151565983Y-76200000D01*
X151194017Y-76200000D01*
X150850365Y-76342345D01*
X150732361Y-76460349D01*
X150702972Y-76466195D01*
X150468119Y-76623119D01*
X150428508Y-76682401D01*
X134175910Y-92935000D01*
X133874017Y-92935000D01*
X133530365Y-93077345D01*
X133267345Y-93340365D01*
X133125000Y-93684017D01*
X132550000Y-93684017D01*
X132550000Y-93329920D01*
X132563908Y-93259999D01*
X132550000Y-93190078D01*
X132550000Y-93190074D01*
X132508805Y-92982972D01*
X132351880Y-92748119D01*
X132292601Y-92708510D01*
X131570000Y-91985910D01*
X131570000Y-82194090D01*
X133832599Y-79931492D01*
X133891881Y-79891881D01*
X134048805Y-79657028D01*
X134090000Y-79449926D01*
X134090000Y-79449922D01*
X134103908Y-79380001D01*
X134090000Y-79310080D01*
X134090000Y-76477290D01*
X134172655Y-76394635D01*
X134315000Y-76050983D01*
X134315000Y-75679017D01*
X134172655Y-75335365D01*
X133909635Y-75072345D01*
X133565983Y-74930000D01*
X133194017Y-74930000D01*
X132850365Y-75072345D01*
X132587345Y-75335365D01*
X132445000Y-75679017D01*
X132445000Y-76050983D01*
X132587345Y-76394635D01*
X132670000Y-76477290D01*
X132670001Y-79085908D01*
X130407402Y-81348508D01*
X130348119Y-81388120D01*
X130191195Y-81622973D01*
X130151173Y-81824180D01*
X130136091Y-81900000D01*
X130150000Y-81969924D01*
X130150001Y-92210071D01*
X130136091Y-92280000D01*
X130179867Y-92500074D01*
X130191196Y-92557028D01*
X130348120Y-92791881D01*
X130407402Y-92831492D01*
X131130000Y-93554091D01*
X131130001Y-96430071D01*
X131116091Y-96500000D01*
X131161283Y-96727192D01*
X128140000Y-93705910D01*
X128140000Y-85672290D01*
X128222655Y-85589635D01*
X128365000Y-85245983D01*
X128365000Y-84874017D01*
X128222655Y-84530365D01*
X127959635Y-84267345D01*
X127615983Y-84125000D01*
X127244017Y-84125000D01*
X126900365Y-84267345D01*
X126637345Y-84530365D01*
X126495000Y-84874017D01*
X126495000Y-85245983D01*
X126637345Y-85589635D01*
X126720001Y-85672291D01*
X126720000Y-90965378D01*
X126622655Y-90730365D01*
X126359635Y-90467345D01*
X126015983Y-90325000D01*
X125850000Y-90325000D01*
X125850000Y-86192292D01*
X125932655Y-86109637D01*
X126075000Y-85765985D01*
X126075000Y-85394019D01*
X125932655Y-85050367D01*
X125669635Y-84787347D01*
X125325983Y-84645002D01*
X124954017Y-84645002D01*
X124610365Y-84787347D01*
X124347345Y-85050367D01*
X124205000Y-85394019D01*
X124205000Y-85765985D01*
X124347345Y-86109637D01*
X124430001Y-86192293D01*
X124430001Y-102767711D01*
X124299635Y-102637345D01*
X123955983Y-102495000D01*
X123839091Y-102495000D01*
X121510000Y-100165910D01*
X121510000Y-98382290D01*
X121592655Y-98299635D01*
X121735000Y-97955983D01*
X121735000Y-97584017D01*
X121592655Y-97240365D01*
X121329635Y-96977345D01*
X120985983Y-96835000D01*
X120614017Y-96835000D01*
X120505000Y-96880156D01*
X120505000Y-84515157D01*
X121895158Y-83125000D01*
X122085820Y-83125000D01*
X122484603Y-82959818D01*
X122789818Y-82654603D01*
X122955000Y-82255820D01*
X122955000Y-81824180D01*
X122789818Y-81425397D01*
X122484603Y-81120182D01*
X122085820Y-80955000D01*
X121654180Y-80955000D01*
X121255397Y-81120182D01*
X120950182Y-81425397D01*
X120785000Y-81824180D01*
X120785000Y-82014842D01*
X119219590Y-83580253D01*
X119154048Y-83624047D01*
X119110254Y-83689589D01*
X119110251Y-83689592D01*
X118980546Y-83883709D01*
X118919622Y-84190000D01*
X118935001Y-84267317D01*
X118935000Y-107063919D01*
X117493011Y-108505908D01*
X117227103Y-108240000D01*
X117605051Y-107862052D01*
X117844800Y-107283247D01*
X117844800Y-106656753D01*
X117605051Y-106077948D01*
X117227103Y-105700000D01*
X117605051Y-105322052D01*
X117844800Y-104743247D01*
X117844800Y-104116753D01*
X117605051Y-103537948D01*
X117227103Y-103160000D01*
X117605051Y-102782052D01*
X117844800Y-102203247D01*
X117844800Y-101576753D01*
X117605051Y-100997948D01*
X117227103Y-100620000D01*
X117605051Y-100242052D01*
X117844800Y-99663247D01*
X117844800Y-99036753D01*
X117605051Y-98457948D01*
X117227103Y-98080000D01*
X117605051Y-97702052D01*
X117844800Y-97123247D01*
X117844800Y-96496753D01*
X117605051Y-95917948D01*
X117227103Y-95540000D01*
X117605051Y-95162052D01*
X117844800Y-94583247D01*
X117844800Y-93956753D01*
X117605051Y-93377948D01*
X117227103Y-93000000D01*
X117605051Y-92622052D01*
X117844800Y-92043247D01*
X117844800Y-91416753D01*
X117605051Y-90837948D01*
X117227103Y-90460000D01*
X117605051Y-90082052D01*
X117844800Y-89503247D01*
X117844800Y-88876753D01*
X117605051Y-88297948D01*
X117227103Y-87920000D01*
X117605051Y-87542052D01*
X117844800Y-86963247D01*
X117844800Y-86336753D01*
X117605051Y-85757948D01*
X117227103Y-85380000D01*
X117605051Y-85002052D01*
X117844800Y-84423247D01*
X117844800Y-83796753D01*
X117605051Y-83217948D01*
X117227103Y-82840000D01*
X117605051Y-82462052D01*
X117844800Y-81883247D01*
X117844800Y-81256753D01*
X117605051Y-80677948D01*
X117227103Y-80300000D01*
X117605051Y-79922052D01*
X117844800Y-79343247D01*
X117844800Y-78716753D01*
X117605051Y-78137948D01*
X117162052Y-77694949D01*
X116583247Y-77455200D01*
X115956753Y-77455200D01*
X115635500Y-77588267D01*
X115635500Y-68165431D01*
X116365000Y-68165431D01*
X116365000Y-69054569D01*
X116705259Y-69876026D01*
X117333974Y-70504741D01*
X118155431Y-70845000D01*
X119044569Y-70845000D01*
X119866026Y-70504741D01*
X120494741Y-69876026D01*
X120835000Y-69054569D01*
X120835000Y-68165431D01*
X120494741Y-67343974D01*
X119866026Y-66715259D01*
X119044569Y-66375000D01*
X118155431Y-66375000D01*
X117333974Y-66715259D01*
X116705259Y-67343974D01*
X116365000Y-68165431D01*
X115635500Y-68165431D01*
X115635500Y-66754996D01*
X115842354Y-66679707D01*
X116009159Y-66583402D01*
X116033491Y-66569354D01*
X116366046Y-66290307D01*
X116366048Y-66290306D01*
X116507916Y-66121234D01*
X116724975Y-65745276D01*
X116724976Y-65745275D01*
X116753674Y-65666426D01*
X116764930Y-65635500D01*
X124364500Y-65635500D01*
X124364501Y-72527404D01*
G36*
X122835000Y-103499091D02*
X122835000Y-103615983D01*
X122977345Y-103959635D01*
X123240365Y-104222655D01*
X123584017Y-104365000D01*
X123955983Y-104365000D01*
X124299635Y-104222655D01*
X124430000Y-104092290D01*
X124430000Y-120667710D01*
X124229635Y-120467345D01*
X123885983Y-120325000D01*
X123514017Y-120325000D01*
X123170365Y-120467345D01*
X123087710Y-120550000D01*
X120789920Y-120550000D01*
X120719999Y-120536092D01*
X120650078Y-120550000D01*
X120650074Y-120550000D01*
X120442972Y-120591195D01*
X120208119Y-120748119D01*
X120168508Y-120807401D01*
X119300000Y-121675909D01*
X119300000Y-110689090D01*
X121037599Y-108951492D01*
X121096881Y-108911881D01*
X121253805Y-108677028D01*
X121295000Y-108469926D01*
X121295000Y-108469925D01*
X121308909Y-108400001D01*
X121295000Y-108330076D01*
X121295000Y-103842290D01*
X121377655Y-103759635D01*
X121520000Y-103415983D01*
X121520000Y-103044017D01*
X121377655Y-102700365D01*
X121114635Y-102437345D01*
X120770983Y-102295000D01*
X120505000Y-102295000D01*
X120505000Y-101169090D01*
X122835000Y-103499091D01*
X122835000Y-103499091D01*
G37*
X122835000Y-103499091D02*
X122835000Y-103615983D01*
X122977345Y-103959635D01*
X123240365Y-104222655D01*
X123584017Y-104365000D01*
X123955983Y-104365000D01*
X124299635Y-104222655D01*
X124430000Y-104092290D01*
X124430000Y-120667710D01*
X124229635Y-120467345D01*
X123885983Y-120325000D01*
X123514017Y-120325000D01*
X123170365Y-120467345D01*
X123087710Y-120550000D01*
X120789920Y-120550000D01*
X120719999Y-120536092D01*
X120650078Y-120550000D01*
X120650074Y-120550000D01*
X120442972Y-120591195D01*
X120208119Y-120748119D01*
X120168508Y-120807401D01*
X119300000Y-121675909D01*
X119300000Y-110689090D01*
X121037599Y-108951492D01*
X121096881Y-108911881D01*
X121253805Y-108677028D01*
X121295000Y-108469926D01*
X121295000Y-108469925D01*
X121308909Y-108400001D01*
X121295000Y-108330076D01*
X121295000Y-103842290D01*
X121377655Y-103759635D01*
X121520000Y-103415983D01*
X121520000Y-103044017D01*
X121377655Y-102700365D01*
X121114635Y-102437345D01*
X120770983Y-102295000D01*
X120505000Y-102295000D01*
X120505000Y-101169090D01*
X122835000Y-103499091D01*
G36*
X167698897Y-105694000D02*
X167320949Y-106071948D01*
X167081200Y-106650753D01*
X167081200Y-107277247D01*
X167320949Y-107856052D01*
X167698897Y-108234000D01*
X167320949Y-108611948D01*
X167081200Y-109190753D01*
X167081200Y-109817247D01*
X167320949Y-110396052D01*
X167698897Y-110774000D01*
X167320949Y-111151948D01*
X167081200Y-111730753D01*
X167081200Y-112357247D01*
X167320949Y-112936052D01*
X167761214Y-113376317D01*
X167726637Y-113475032D01*
X168656000Y-114404395D01*
X168670143Y-114390253D01*
X168849748Y-114569858D01*
X168835605Y-114584000D01*
X168849748Y-114598143D01*
X168670143Y-114777748D01*
X168656000Y-114763605D01*
X167726637Y-115692968D01*
X167783043Y-115854000D01*
X167726637Y-116015032D01*
X168656000Y-116944395D01*
X168670143Y-116930253D01*
X168849748Y-117109858D01*
X168835605Y-117124000D01*
X168849748Y-117138143D01*
X168670143Y-117317748D01*
X168656000Y-117303605D01*
X168641858Y-117317748D01*
X168462253Y-117138143D01*
X168476395Y-117124000D01*
X167547032Y-116194637D01*
X167286420Y-116285923D01*
X167069955Y-116873833D01*
X167077273Y-117057116D01*
X164353990Y-114333833D01*
X167069955Y-114333833D01*
X167094951Y-114959828D01*
X167286420Y-115422077D01*
X167547032Y-115513363D01*
X168476395Y-114584000D01*
X167547032Y-113654637D01*
X167286420Y-113745923D01*
X167069955Y-114333833D01*
X164353990Y-114333833D01*
X164271000Y-114250843D01*
X164271000Y-113822180D01*
X164105818Y-113423397D01*
X163800603Y-113118182D01*
X163401820Y-112953000D01*
X163211157Y-112953000D01*
X160325000Y-110066843D01*
X160325000Y-109819421D01*
X160459818Y-109684603D01*
X160625000Y-109285820D01*
X160625000Y-108854180D01*
X160459818Y-108455397D01*
X160154603Y-108150182D01*
X159777054Y-107993796D01*
X160073715Y-107870915D01*
X160156370Y-107788260D01*
X164602739Y-107788260D01*
X164672663Y-107802169D01*
X164742587Y-107788260D01*
X164742589Y-107788260D01*
X164949691Y-107747065D01*
X165184544Y-107590141D01*
X165224157Y-107530856D01*
X167379956Y-105375059D01*
X167698897Y-105694000D01*
X167698897Y-105694000D01*
G37*
X167698897Y-105694000D02*
X167320949Y-106071948D01*
X167081200Y-106650753D01*
X167081200Y-107277247D01*
X167320949Y-107856052D01*
X167698897Y-108234000D01*
X167320949Y-108611948D01*
X167081200Y-109190753D01*
X167081200Y-109817247D01*
X167320949Y-110396052D01*
X167698897Y-110774000D01*
X167320949Y-111151948D01*
X167081200Y-111730753D01*
X167081200Y-112357247D01*
X167320949Y-112936052D01*
X167761214Y-113376317D01*
X167726637Y-113475032D01*
X168656000Y-114404395D01*
X168670143Y-114390253D01*
X168849748Y-114569858D01*
X168835605Y-114584000D01*
X168849748Y-114598143D01*
X168670143Y-114777748D01*
X168656000Y-114763605D01*
X167726637Y-115692968D01*
X167783043Y-115854000D01*
X167726637Y-116015032D01*
X168656000Y-116944395D01*
X168670143Y-116930253D01*
X168849748Y-117109858D01*
X168835605Y-117124000D01*
X168849748Y-117138143D01*
X168670143Y-117317748D01*
X168656000Y-117303605D01*
X168641858Y-117317748D01*
X168462253Y-117138143D01*
X168476395Y-117124000D01*
X167547032Y-116194637D01*
X167286420Y-116285923D01*
X167069955Y-116873833D01*
X167077273Y-117057116D01*
X164353990Y-114333833D01*
X167069955Y-114333833D01*
X167094951Y-114959828D01*
X167286420Y-115422077D01*
X167547032Y-115513363D01*
X168476395Y-114584000D01*
X167547032Y-113654637D01*
X167286420Y-113745923D01*
X167069955Y-114333833D01*
X164353990Y-114333833D01*
X164271000Y-114250843D01*
X164271000Y-113822180D01*
X164105818Y-113423397D01*
X163800603Y-113118182D01*
X163401820Y-112953000D01*
X163211157Y-112953000D01*
X160325000Y-110066843D01*
X160325000Y-109819421D01*
X160459818Y-109684603D01*
X160625000Y-109285820D01*
X160625000Y-108854180D01*
X160459818Y-108455397D01*
X160154603Y-108150182D01*
X159777054Y-107993796D01*
X160073715Y-107870915D01*
X160156370Y-107788260D01*
X164602739Y-107788260D01*
X164672663Y-107802169D01*
X164742587Y-107788260D01*
X164742589Y-107788260D01*
X164949691Y-107747065D01*
X165184544Y-107590141D01*
X165224157Y-107530856D01*
X167379956Y-105375059D01*
X167698897Y-105694000D01*
G36*
X153803508Y-91992599D02*
X153843119Y-92051881D01*
X154077972Y-92208805D01*
X154285074Y-92250000D01*
X154285078Y-92250000D01*
X154354999Y-92263908D01*
X154424920Y-92250000D01*
X155007710Y-92250000D01*
X155090365Y-92332655D01*
X155434017Y-92475000D01*
X155670000Y-92475000D01*
X155670000Y-92786664D01*
X155330365Y-92927345D01*
X155217710Y-93040000D01*
X153632290Y-93040000D01*
X153549635Y-92957345D01*
X153205983Y-92815000D01*
X152834017Y-92815000D01*
X152490365Y-92957345D01*
X152227345Y-93220365D01*
X152090000Y-93551946D01*
X152090000Y-90447290D01*
X152172655Y-90364635D01*
X152173501Y-90362592D01*
X153803508Y-91992599D01*
X153803508Y-91992599D01*
G37*
X153803508Y-91992599D02*
X153843119Y-92051881D01*
X154077972Y-92208805D01*
X154285074Y-92250000D01*
X154285078Y-92250000D01*
X154354999Y-92263908D01*
X154424920Y-92250000D01*
X155007710Y-92250000D01*
X155090365Y-92332655D01*
X155434017Y-92475000D01*
X155670000Y-92475000D01*
X155670000Y-92786664D01*
X155330365Y-92927345D01*
X155217710Y-93040000D01*
X153632290Y-93040000D01*
X153549635Y-92957345D01*
X153205983Y-92815000D01*
X152834017Y-92815000D01*
X152490365Y-92957345D01*
X152227345Y-93220365D01*
X152090000Y-93551946D01*
X152090000Y-90447290D01*
X152172655Y-90364635D01*
X152173501Y-90362592D01*
X153803508Y-91992599D01*
G04 #@! TD*
M02*
