G04 #@! TF.GenerationSoftware,KiCad,Pcbnew,5.0.0-rc3-unknown-3df2743~65~ubuntu18.04.1*
G04 #@! TF.CreationDate,2018-07-08T00:43:34+02:00*
G04 #@! TF.ProjectId,esp32-gateway,65737033322D676174657761792E6B69,rev?*
G04 #@! TF.SameCoordinates,Original*
G04 #@! TF.FileFunction,Paste,Top*
G04 #@! TF.FilePolarity,Positive*
%FSLAX46Y46*%
G04 Gerber Fmt 4.6, Leading zero omitted, Abs format (unit mm)*
G04 Created by KiCad (PCBNEW 5.0.0-rc3-unknown-3df2743~65~ubuntu18.04.1) date Sun Jul  8 00:43:34 2018*
%MOMM*%
%LPD*%
G01*
G04 APERTURE LIST*
%ADD10C,0.100000*%
%ADD11C,0.875000*%
%ADD12R,1.500000X1.500000*%
%ADD13C,1.250000*%
%ADD14R,1.310000X0.930000*%
%ADD15R,1.310000X3.240000*%
%ADD16R,1.300000X0.900000*%
%ADD17R,0.400000X1.600000*%
%ADD18R,1.000000X1.000000*%
%ADD19R,1.050000X2.200000*%
%ADD20R,4.000000X4.000000*%
%ADD21R,1.700000X0.900000*%
%ADD22R,0.900000X1.700000*%
%ADD23R,0.599440X1.198880*%
%ADD24R,2.999740X1.198880*%
%ADD25R,2.500000X1.000000*%
%ADD26R,0.400000X1.900000*%
%ADD27R,0.900000X0.800000*%
G04 APERTURE END LIST*
D10*
G04 #@! TO.C,C5*
G36*
X145357691Y-118576053D02*
X145378926Y-118579203D01*
X145399750Y-118584419D01*
X145419962Y-118591651D01*
X145439368Y-118600830D01*
X145457781Y-118611866D01*
X145475024Y-118624654D01*
X145490930Y-118639070D01*
X145505346Y-118654976D01*
X145518134Y-118672219D01*
X145529170Y-118690632D01*
X145538349Y-118710038D01*
X145545581Y-118730250D01*
X145550797Y-118751074D01*
X145553947Y-118772309D01*
X145555000Y-118793750D01*
X145555000Y-119306250D01*
X145553947Y-119327691D01*
X145550797Y-119348926D01*
X145545581Y-119369750D01*
X145538349Y-119389962D01*
X145529170Y-119409368D01*
X145518134Y-119427781D01*
X145505346Y-119445024D01*
X145490930Y-119460930D01*
X145475024Y-119475346D01*
X145457781Y-119488134D01*
X145439368Y-119499170D01*
X145419962Y-119508349D01*
X145399750Y-119515581D01*
X145378926Y-119520797D01*
X145357691Y-119523947D01*
X145336250Y-119525000D01*
X144898750Y-119525000D01*
X144877309Y-119523947D01*
X144856074Y-119520797D01*
X144835250Y-119515581D01*
X144815038Y-119508349D01*
X144795632Y-119499170D01*
X144777219Y-119488134D01*
X144759976Y-119475346D01*
X144744070Y-119460930D01*
X144729654Y-119445024D01*
X144716866Y-119427781D01*
X144705830Y-119409368D01*
X144696651Y-119389962D01*
X144689419Y-119369750D01*
X144684203Y-119348926D01*
X144681053Y-119327691D01*
X144680000Y-119306250D01*
X144680000Y-118793750D01*
X144681053Y-118772309D01*
X144684203Y-118751074D01*
X144689419Y-118730250D01*
X144696651Y-118710038D01*
X144705830Y-118690632D01*
X144716866Y-118672219D01*
X144729654Y-118654976D01*
X144744070Y-118639070D01*
X144759976Y-118624654D01*
X144777219Y-118611866D01*
X144795632Y-118600830D01*
X144815038Y-118591651D01*
X144835250Y-118584419D01*
X144856074Y-118579203D01*
X144877309Y-118576053D01*
X144898750Y-118575000D01*
X145336250Y-118575000D01*
X145357691Y-118576053D01*
X145357691Y-118576053D01*
G37*
D11*
X145117500Y-119050000D03*
D10*
G36*
X143782691Y-118576053D02*
X143803926Y-118579203D01*
X143824750Y-118584419D01*
X143844962Y-118591651D01*
X143864368Y-118600830D01*
X143882781Y-118611866D01*
X143900024Y-118624654D01*
X143915930Y-118639070D01*
X143930346Y-118654976D01*
X143943134Y-118672219D01*
X143954170Y-118690632D01*
X143963349Y-118710038D01*
X143970581Y-118730250D01*
X143975797Y-118751074D01*
X143978947Y-118772309D01*
X143980000Y-118793750D01*
X143980000Y-119306250D01*
X143978947Y-119327691D01*
X143975797Y-119348926D01*
X143970581Y-119369750D01*
X143963349Y-119389962D01*
X143954170Y-119409368D01*
X143943134Y-119427781D01*
X143930346Y-119445024D01*
X143915930Y-119460930D01*
X143900024Y-119475346D01*
X143882781Y-119488134D01*
X143864368Y-119499170D01*
X143844962Y-119508349D01*
X143824750Y-119515581D01*
X143803926Y-119520797D01*
X143782691Y-119523947D01*
X143761250Y-119525000D01*
X143323750Y-119525000D01*
X143302309Y-119523947D01*
X143281074Y-119520797D01*
X143260250Y-119515581D01*
X143240038Y-119508349D01*
X143220632Y-119499170D01*
X143202219Y-119488134D01*
X143184976Y-119475346D01*
X143169070Y-119460930D01*
X143154654Y-119445024D01*
X143141866Y-119427781D01*
X143130830Y-119409368D01*
X143121651Y-119389962D01*
X143114419Y-119369750D01*
X143109203Y-119348926D01*
X143106053Y-119327691D01*
X143105000Y-119306250D01*
X143105000Y-118793750D01*
X143106053Y-118772309D01*
X143109203Y-118751074D01*
X143114419Y-118730250D01*
X143121651Y-118710038D01*
X143130830Y-118690632D01*
X143141866Y-118672219D01*
X143154654Y-118654976D01*
X143169070Y-118639070D01*
X143184976Y-118624654D01*
X143202219Y-118611866D01*
X143220632Y-118600830D01*
X143240038Y-118591651D01*
X143260250Y-118584419D01*
X143281074Y-118579203D01*
X143302309Y-118576053D01*
X143323750Y-118575000D01*
X143761250Y-118575000D01*
X143782691Y-118576053D01*
X143782691Y-118576053D01*
G37*
D11*
X143542500Y-119050000D03*
G04 #@! TD*
D10*
G04 #@! TO.C,C6*
G36*
X122377691Y-120886053D02*
X122398926Y-120889203D01*
X122419750Y-120894419D01*
X122439962Y-120901651D01*
X122459368Y-120910830D01*
X122477781Y-120921866D01*
X122495024Y-120934654D01*
X122510930Y-120949070D01*
X122525346Y-120964976D01*
X122538134Y-120982219D01*
X122549170Y-121000632D01*
X122558349Y-121020038D01*
X122565581Y-121040250D01*
X122570797Y-121061074D01*
X122573947Y-121082309D01*
X122575000Y-121103750D01*
X122575000Y-121616250D01*
X122573947Y-121637691D01*
X122570797Y-121658926D01*
X122565581Y-121679750D01*
X122558349Y-121699962D01*
X122549170Y-121719368D01*
X122538134Y-121737781D01*
X122525346Y-121755024D01*
X122510930Y-121770930D01*
X122495024Y-121785346D01*
X122477781Y-121798134D01*
X122459368Y-121809170D01*
X122439962Y-121818349D01*
X122419750Y-121825581D01*
X122398926Y-121830797D01*
X122377691Y-121833947D01*
X122356250Y-121835000D01*
X121918750Y-121835000D01*
X121897309Y-121833947D01*
X121876074Y-121830797D01*
X121855250Y-121825581D01*
X121835038Y-121818349D01*
X121815632Y-121809170D01*
X121797219Y-121798134D01*
X121779976Y-121785346D01*
X121764070Y-121770930D01*
X121749654Y-121755024D01*
X121736866Y-121737781D01*
X121725830Y-121719368D01*
X121716651Y-121699962D01*
X121709419Y-121679750D01*
X121704203Y-121658926D01*
X121701053Y-121637691D01*
X121700000Y-121616250D01*
X121700000Y-121103750D01*
X121701053Y-121082309D01*
X121704203Y-121061074D01*
X121709419Y-121040250D01*
X121716651Y-121020038D01*
X121725830Y-121000632D01*
X121736866Y-120982219D01*
X121749654Y-120964976D01*
X121764070Y-120949070D01*
X121779976Y-120934654D01*
X121797219Y-120921866D01*
X121815632Y-120910830D01*
X121835038Y-120901651D01*
X121855250Y-120894419D01*
X121876074Y-120889203D01*
X121897309Y-120886053D01*
X121918750Y-120885000D01*
X122356250Y-120885000D01*
X122377691Y-120886053D01*
X122377691Y-120886053D01*
G37*
D11*
X122137500Y-121360000D03*
D10*
G36*
X120802691Y-120886053D02*
X120823926Y-120889203D01*
X120844750Y-120894419D01*
X120864962Y-120901651D01*
X120884368Y-120910830D01*
X120902781Y-120921866D01*
X120920024Y-120934654D01*
X120935930Y-120949070D01*
X120950346Y-120964976D01*
X120963134Y-120982219D01*
X120974170Y-121000632D01*
X120983349Y-121020038D01*
X120990581Y-121040250D01*
X120995797Y-121061074D01*
X120998947Y-121082309D01*
X121000000Y-121103750D01*
X121000000Y-121616250D01*
X120998947Y-121637691D01*
X120995797Y-121658926D01*
X120990581Y-121679750D01*
X120983349Y-121699962D01*
X120974170Y-121719368D01*
X120963134Y-121737781D01*
X120950346Y-121755024D01*
X120935930Y-121770930D01*
X120920024Y-121785346D01*
X120902781Y-121798134D01*
X120884368Y-121809170D01*
X120864962Y-121818349D01*
X120844750Y-121825581D01*
X120823926Y-121830797D01*
X120802691Y-121833947D01*
X120781250Y-121835000D01*
X120343750Y-121835000D01*
X120322309Y-121833947D01*
X120301074Y-121830797D01*
X120280250Y-121825581D01*
X120260038Y-121818349D01*
X120240632Y-121809170D01*
X120222219Y-121798134D01*
X120204976Y-121785346D01*
X120189070Y-121770930D01*
X120174654Y-121755024D01*
X120161866Y-121737781D01*
X120150830Y-121719368D01*
X120141651Y-121699962D01*
X120134419Y-121679750D01*
X120129203Y-121658926D01*
X120126053Y-121637691D01*
X120125000Y-121616250D01*
X120125000Y-121103750D01*
X120126053Y-121082309D01*
X120129203Y-121061074D01*
X120134419Y-121040250D01*
X120141651Y-121020038D01*
X120150830Y-121000632D01*
X120161866Y-120982219D01*
X120174654Y-120964976D01*
X120189070Y-120949070D01*
X120204976Y-120934654D01*
X120222219Y-120921866D01*
X120240632Y-120910830D01*
X120260038Y-120901651D01*
X120280250Y-120894419D01*
X120301074Y-120889203D01*
X120322309Y-120886053D01*
X120343750Y-120885000D01*
X120781250Y-120885000D01*
X120802691Y-120886053D01*
X120802691Y-120886053D01*
G37*
D11*
X120562500Y-121360000D03*
G04 #@! TD*
D10*
G04 #@! TO.C,C7*
G36*
X120792691Y-119196053D02*
X120813926Y-119199203D01*
X120834750Y-119204419D01*
X120854962Y-119211651D01*
X120874368Y-119220830D01*
X120892781Y-119231866D01*
X120910024Y-119244654D01*
X120925930Y-119259070D01*
X120940346Y-119274976D01*
X120953134Y-119292219D01*
X120964170Y-119310632D01*
X120973349Y-119330038D01*
X120980581Y-119350250D01*
X120985797Y-119371074D01*
X120988947Y-119392309D01*
X120990000Y-119413750D01*
X120990000Y-119926250D01*
X120988947Y-119947691D01*
X120985797Y-119968926D01*
X120980581Y-119989750D01*
X120973349Y-120009962D01*
X120964170Y-120029368D01*
X120953134Y-120047781D01*
X120940346Y-120065024D01*
X120925930Y-120080930D01*
X120910024Y-120095346D01*
X120892781Y-120108134D01*
X120874368Y-120119170D01*
X120854962Y-120128349D01*
X120834750Y-120135581D01*
X120813926Y-120140797D01*
X120792691Y-120143947D01*
X120771250Y-120145000D01*
X120333750Y-120145000D01*
X120312309Y-120143947D01*
X120291074Y-120140797D01*
X120270250Y-120135581D01*
X120250038Y-120128349D01*
X120230632Y-120119170D01*
X120212219Y-120108134D01*
X120194976Y-120095346D01*
X120179070Y-120080930D01*
X120164654Y-120065024D01*
X120151866Y-120047781D01*
X120140830Y-120029368D01*
X120131651Y-120009962D01*
X120124419Y-119989750D01*
X120119203Y-119968926D01*
X120116053Y-119947691D01*
X120115000Y-119926250D01*
X120115000Y-119413750D01*
X120116053Y-119392309D01*
X120119203Y-119371074D01*
X120124419Y-119350250D01*
X120131651Y-119330038D01*
X120140830Y-119310632D01*
X120151866Y-119292219D01*
X120164654Y-119274976D01*
X120179070Y-119259070D01*
X120194976Y-119244654D01*
X120212219Y-119231866D01*
X120230632Y-119220830D01*
X120250038Y-119211651D01*
X120270250Y-119204419D01*
X120291074Y-119199203D01*
X120312309Y-119196053D01*
X120333750Y-119195000D01*
X120771250Y-119195000D01*
X120792691Y-119196053D01*
X120792691Y-119196053D01*
G37*
D11*
X120552500Y-119670000D03*
D10*
G36*
X122367691Y-119196053D02*
X122388926Y-119199203D01*
X122409750Y-119204419D01*
X122429962Y-119211651D01*
X122449368Y-119220830D01*
X122467781Y-119231866D01*
X122485024Y-119244654D01*
X122500930Y-119259070D01*
X122515346Y-119274976D01*
X122528134Y-119292219D01*
X122539170Y-119310632D01*
X122548349Y-119330038D01*
X122555581Y-119350250D01*
X122560797Y-119371074D01*
X122563947Y-119392309D01*
X122565000Y-119413750D01*
X122565000Y-119926250D01*
X122563947Y-119947691D01*
X122560797Y-119968926D01*
X122555581Y-119989750D01*
X122548349Y-120009962D01*
X122539170Y-120029368D01*
X122528134Y-120047781D01*
X122515346Y-120065024D01*
X122500930Y-120080930D01*
X122485024Y-120095346D01*
X122467781Y-120108134D01*
X122449368Y-120119170D01*
X122429962Y-120128349D01*
X122409750Y-120135581D01*
X122388926Y-120140797D01*
X122367691Y-120143947D01*
X122346250Y-120145000D01*
X121908750Y-120145000D01*
X121887309Y-120143947D01*
X121866074Y-120140797D01*
X121845250Y-120135581D01*
X121825038Y-120128349D01*
X121805632Y-120119170D01*
X121787219Y-120108134D01*
X121769976Y-120095346D01*
X121754070Y-120080930D01*
X121739654Y-120065024D01*
X121726866Y-120047781D01*
X121715830Y-120029368D01*
X121706651Y-120009962D01*
X121699419Y-119989750D01*
X121694203Y-119968926D01*
X121691053Y-119947691D01*
X121690000Y-119926250D01*
X121690000Y-119413750D01*
X121691053Y-119392309D01*
X121694203Y-119371074D01*
X121699419Y-119350250D01*
X121706651Y-119330038D01*
X121715830Y-119310632D01*
X121726866Y-119292219D01*
X121739654Y-119274976D01*
X121754070Y-119259070D01*
X121769976Y-119244654D01*
X121787219Y-119231866D01*
X121805632Y-119220830D01*
X121825038Y-119211651D01*
X121845250Y-119204419D01*
X121866074Y-119199203D01*
X121887309Y-119196053D01*
X121908750Y-119195000D01*
X122346250Y-119195000D01*
X122367691Y-119196053D01*
X122367691Y-119196053D01*
G37*
D11*
X122127500Y-119670000D03*
G04 #@! TD*
D12*
G04 #@! TO.C,SW3*
X155000000Y-134618000D03*
X147200000Y-134618000D03*
G04 #@! TD*
G04 #@! TO.C,SW4*
X159746000Y-134618000D03*
X167546000Y-134618000D03*
G04 #@! TD*
D10*
G04 #@! TO.C,D1*
G36*
X122263166Y-147529713D02*
X122284401Y-147532863D01*
X122305225Y-147538079D01*
X122325437Y-147545311D01*
X122344843Y-147554490D01*
X122363256Y-147565526D01*
X122380499Y-147578314D01*
X122396405Y-147592730D01*
X122410821Y-147608636D01*
X122423609Y-147625879D01*
X122434645Y-147644292D01*
X122443824Y-147663698D01*
X122451056Y-147683910D01*
X122456272Y-147704734D01*
X122459422Y-147725969D01*
X122460475Y-147747410D01*
X122460475Y-148259910D01*
X122459422Y-148281351D01*
X122456272Y-148302586D01*
X122451056Y-148323410D01*
X122443824Y-148343622D01*
X122434645Y-148363028D01*
X122423609Y-148381441D01*
X122410821Y-148398684D01*
X122396405Y-148414590D01*
X122380499Y-148429006D01*
X122363256Y-148441794D01*
X122344843Y-148452830D01*
X122325437Y-148462009D01*
X122305225Y-148469241D01*
X122284401Y-148474457D01*
X122263166Y-148477607D01*
X122241725Y-148478660D01*
X121804225Y-148478660D01*
X121782784Y-148477607D01*
X121761549Y-148474457D01*
X121740725Y-148469241D01*
X121720513Y-148462009D01*
X121701107Y-148452830D01*
X121682694Y-148441794D01*
X121665451Y-148429006D01*
X121649545Y-148414590D01*
X121635129Y-148398684D01*
X121622341Y-148381441D01*
X121611305Y-148363028D01*
X121602126Y-148343622D01*
X121594894Y-148323410D01*
X121589678Y-148302586D01*
X121586528Y-148281351D01*
X121585475Y-148259910D01*
X121585475Y-147747410D01*
X121586528Y-147725969D01*
X121589678Y-147704734D01*
X121594894Y-147683910D01*
X121602126Y-147663698D01*
X121611305Y-147644292D01*
X121622341Y-147625879D01*
X121635129Y-147608636D01*
X121649545Y-147592730D01*
X121665451Y-147578314D01*
X121682694Y-147565526D01*
X121701107Y-147554490D01*
X121720513Y-147545311D01*
X121740725Y-147538079D01*
X121761549Y-147532863D01*
X121782784Y-147529713D01*
X121804225Y-147528660D01*
X122241725Y-147528660D01*
X122263166Y-147529713D01*
X122263166Y-147529713D01*
G37*
D11*
X122022975Y-148003660D03*
D10*
G36*
X123838166Y-147529713D02*
X123859401Y-147532863D01*
X123880225Y-147538079D01*
X123900437Y-147545311D01*
X123919843Y-147554490D01*
X123938256Y-147565526D01*
X123955499Y-147578314D01*
X123971405Y-147592730D01*
X123985821Y-147608636D01*
X123998609Y-147625879D01*
X124009645Y-147644292D01*
X124018824Y-147663698D01*
X124026056Y-147683910D01*
X124031272Y-147704734D01*
X124034422Y-147725969D01*
X124035475Y-147747410D01*
X124035475Y-148259910D01*
X124034422Y-148281351D01*
X124031272Y-148302586D01*
X124026056Y-148323410D01*
X124018824Y-148343622D01*
X124009645Y-148363028D01*
X123998609Y-148381441D01*
X123985821Y-148398684D01*
X123971405Y-148414590D01*
X123955499Y-148429006D01*
X123938256Y-148441794D01*
X123919843Y-148452830D01*
X123900437Y-148462009D01*
X123880225Y-148469241D01*
X123859401Y-148474457D01*
X123838166Y-148477607D01*
X123816725Y-148478660D01*
X123379225Y-148478660D01*
X123357784Y-148477607D01*
X123336549Y-148474457D01*
X123315725Y-148469241D01*
X123295513Y-148462009D01*
X123276107Y-148452830D01*
X123257694Y-148441794D01*
X123240451Y-148429006D01*
X123224545Y-148414590D01*
X123210129Y-148398684D01*
X123197341Y-148381441D01*
X123186305Y-148363028D01*
X123177126Y-148343622D01*
X123169894Y-148323410D01*
X123164678Y-148302586D01*
X123161528Y-148281351D01*
X123160475Y-148259910D01*
X123160475Y-147747410D01*
X123161528Y-147725969D01*
X123164678Y-147704734D01*
X123169894Y-147683910D01*
X123177126Y-147663698D01*
X123186305Y-147644292D01*
X123197341Y-147625879D01*
X123210129Y-147608636D01*
X123224545Y-147592730D01*
X123240451Y-147578314D01*
X123257694Y-147565526D01*
X123276107Y-147554490D01*
X123295513Y-147545311D01*
X123315725Y-147538079D01*
X123336549Y-147532863D01*
X123357784Y-147529713D01*
X123379225Y-147528660D01*
X123816725Y-147528660D01*
X123838166Y-147529713D01*
X123838166Y-147529713D01*
G37*
D11*
X123597975Y-148003660D03*
G04 #@! TD*
D10*
G04 #@! TO.C,D2*
G36*
X123838166Y-144999713D02*
X123859401Y-145002863D01*
X123880225Y-145008079D01*
X123900437Y-145015311D01*
X123919843Y-145024490D01*
X123938256Y-145035526D01*
X123955499Y-145048314D01*
X123971405Y-145062730D01*
X123985821Y-145078636D01*
X123998609Y-145095879D01*
X124009645Y-145114292D01*
X124018824Y-145133698D01*
X124026056Y-145153910D01*
X124031272Y-145174734D01*
X124034422Y-145195969D01*
X124035475Y-145217410D01*
X124035475Y-145729910D01*
X124034422Y-145751351D01*
X124031272Y-145772586D01*
X124026056Y-145793410D01*
X124018824Y-145813622D01*
X124009645Y-145833028D01*
X123998609Y-145851441D01*
X123985821Y-145868684D01*
X123971405Y-145884590D01*
X123955499Y-145899006D01*
X123938256Y-145911794D01*
X123919843Y-145922830D01*
X123900437Y-145932009D01*
X123880225Y-145939241D01*
X123859401Y-145944457D01*
X123838166Y-145947607D01*
X123816725Y-145948660D01*
X123379225Y-145948660D01*
X123357784Y-145947607D01*
X123336549Y-145944457D01*
X123315725Y-145939241D01*
X123295513Y-145932009D01*
X123276107Y-145922830D01*
X123257694Y-145911794D01*
X123240451Y-145899006D01*
X123224545Y-145884590D01*
X123210129Y-145868684D01*
X123197341Y-145851441D01*
X123186305Y-145833028D01*
X123177126Y-145813622D01*
X123169894Y-145793410D01*
X123164678Y-145772586D01*
X123161528Y-145751351D01*
X123160475Y-145729910D01*
X123160475Y-145217410D01*
X123161528Y-145195969D01*
X123164678Y-145174734D01*
X123169894Y-145153910D01*
X123177126Y-145133698D01*
X123186305Y-145114292D01*
X123197341Y-145095879D01*
X123210129Y-145078636D01*
X123224545Y-145062730D01*
X123240451Y-145048314D01*
X123257694Y-145035526D01*
X123276107Y-145024490D01*
X123295513Y-145015311D01*
X123315725Y-145008079D01*
X123336549Y-145002863D01*
X123357784Y-144999713D01*
X123379225Y-144998660D01*
X123816725Y-144998660D01*
X123838166Y-144999713D01*
X123838166Y-144999713D01*
G37*
D11*
X123597975Y-145473660D03*
D10*
G36*
X122263166Y-144999713D02*
X122284401Y-145002863D01*
X122305225Y-145008079D01*
X122325437Y-145015311D01*
X122344843Y-145024490D01*
X122363256Y-145035526D01*
X122380499Y-145048314D01*
X122396405Y-145062730D01*
X122410821Y-145078636D01*
X122423609Y-145095879D01*
X122434645Y-145114292D01*
X122443824Y-145133698D01*
X122451056Y-145153910D01*
X122456272Y-145174734D01*
X122459422Y-145195969D01*
X122460475Y-145217410D01*
X122460475Y-145729910D01*
X122459422Y-145751351D01*
X122456272Y-145772586D01*
X122451056Y-145793410D01*
X122443824Y-145813622D01*
X122434645Y-145833028D01*
X122423609Y-145851441D01*
X122410821Y-145868684D01*
X122396405Y-145884590D01*
X122380499Y-145899006D01*
X122363256Y-145911794D01*
X122344843Y-145922830D01*
X122325437Y-145932009D01*
X122305225Y-145939241D01*
X122284401Y-145944457D01*
X122263166Y-145947607D01*
X122241725Y-145948660D01*
X121804225Y-145948660D01*
X121782784Y-145947607D01*
X121761549Y-145944457D01*
X121740725Y-145939241D01*
X121720513Y-145932009D01*
X121701107Y-145922830D01*
X121682694Y-145911794D01*
X121665451Y-145899006D01*
X121649545Y-145884590D01*
X121635129Y-145868684D01*
X121622341Y-145851441D01*
X121611305Y-145833028D01*
X121602126Y-145813622D01*
X121594894Y-145793410D01*
X121589678Y-145772586D01*
X121586528Y-145751351D01*
X121585475Y-145729910D01*
X121585475Y-145217410D01*
X121586528Y-145195969D01*
X121589678Y-145174734D01*
X121594894Y-145153910D01*
X121602126Y-145133698D01*
X121611305Y-145114292D01*
X121622341Y-145095879D01*
X121635129Y-145078636D01*
X121649545Y-145062730D01*
X121665451Y-145048314D01*
X121682694Y-145035526D01*
X121701107Y-145024490D01*
X121720513Y-145015311D01*
X121740725Y-145008079D01*
X121761549Y-145002863D01*
X121782784Y-144999713D01*
X121804225Y-144998660D01*
X122241725Y-144998660D01*
X122263166Y-144999713D01*
X122263166Y-144999713D01*
G37*
D11*
X122022975Y-145473660D03*
G04 #@! TD*
D10*
G04 #@! TO.C,D3*
G36*
X122313166Y-142559713D02*
X122334401Y-142562863D01*
X122355225Y-142568079D01*
X122375437Y-142575311D01*
X122394843Y-142584490D01*
X122413256Y-142595526D01*
X122430499Y-142608314D01*
X122446405Y-142622730D01*
X122460821Y-142638636D01*
X122473609Y-142655879D01*
X122484645Y-142674292D01*
X122493824Y-142693698D01*
X122501056Y-142713910D01*
X122506272Y-142734734D01*
X122509422Y-142755969D01*
X122510475Y-142777410D01*
X122510475Y-143289910D01*
X122509422Y-143311351D01*
X122506272Y-143332586D01*
X122501056Y-143353410D01*
X122493824Y-143373622D01*
X122484645Y-143393028D01*
X122473609Y-143411441D01*
X122460821Y-143428684D01*
X122446405Y-143444590D01*
X122430499Y-143459006D01*
X122413256Y-143471794D01*
X122394843Y-143482830D01*
X122375437Y-143492009D01*
X122355225Y-143499241D01*
X122334401Y-143504457D01*
X122313166Y-143507607D01*
X122291725Y-143508660D01*
X121854225Y-143508660D01*
X121832784Y-143507607D01*
X121811549Y-143504457D01*
X121790725Y-143499241D01*
X121770513Y-143492009D01*
X121751107Y-143482830D01*
X121732694Y-143471794D01*
X121715451Y-143459006D01*
X121699545Y-143444590D01*
X121685129Y-143428684D01*
X121672341Y-143411441D01*
X121661305Y-143393028D01*
X121652126Y-143373622D01*
X121644894Y-143353410D01*
X121639678Y-143332586D01*
X121636528Y-143311351D01*
X121635475Y-143289910D01*
X121635475Y-142777410D01*
X121636528Y-142755969D01*
X121639678Y-142734734D01*
X121644894Y-142713910D01*
X121652126Y-142693698D01*
X121661305Y-142674292D01*
X121672341Y-142655879D01*
X121685129Y-142638636D01*
X121699545Y-142622730D01*
X121715451Y-142608314D01*
X121732694Y-142595526D01*
X121751107Y-142584490D01*
X121770513Y-142575311D01*
X121790725Y-142568079D01*
X121811549Y-142562863D01*
X121832784Y-142559713D01*
X121854225Y-142558660D01*
X122291725Y-142558660D01*
X122313166Y-142559713D01*
X122313166Y-142559713D01*
G37*
D11*
X122072975Y-143033660D03*
D10*
G36*
X123888166Y-142559713D02*
X123909401Y-142562863D01*
X123930225Y-142568079D01*
X123950437Y-142575311D01*
X123969843Y-142584490D01*
X123988256Y-142595526D01*
X124005499Y-142608314D01*
X124021405Y-142622730D01*
X124035821Y-142638636D01*
X124048609Y-142655879D01*
X124059645Y-142674292D01*
X124068824Y-142693698D01*
X124076056Y-142713910D01*
X124081272Y-142734734D01*
X124084422Y-142755969D01*
X124085475Y-142777410D01*
X124085475Y-143289910D01*
X124084422Y-143311351D01*
X124081272Y-143332586D01*
X124076056Y-143353410D01*
X124068824Y-143373622D01*
X124059645Y-143393028D01*
X124048609Y-143411441D01*
X124035821Y-143428684D01*
X124021405Y-143444590D01*
X124005499Y-143459006D01*
X123988256Y-143471794D01*
X123969843Y-143482830D01*
X123950437Y-143492009D01*
X123930225Y-143499241D01*
X123909401Y-143504457D01*
X123888166Y-143507607D01*
X123866725Y-143508660D01*
X123429225Y-143508660D01*
X123407784Y-143507607D01*
X123386549Y-143504457D01*
X123365725Y-143499241D01*
X123345513Y-143492009D01*
X123326107Y-143482830D01*
X123307694Y-143471794D01*
X123290451Y-143459006D01*
X123274545Y-143444590D01*
X123260129Y-143428684D01*
X123247341Y-143411441D01*
X123236305Y-143393028D01*
X123227126Y-143373622D01*
X123219894Y-143353410D01*
X123214678Y-143332586D01*
X123211528Y-143311351D01*
X123210475Y-143289910D01*
X123210475Y-142777410D01*
X123211528Y-142755969D01*
X123214678Y-142734734D01*
X123219894Y-142713910D01*
X123227126Y-142693698D01*
X123236305Y-142674292D01*
X123247341Y-142655879D01*
X123260129Y-142638636D01*
X123274545Y-142622730D01*
X123290451Y-142608314D01*
X123307694Y-142595526D01*
X123326107Y-142584490D01*
X123345513Y-142575311D01*
X123365725Y-142568079D01*
X123386549Y-142562863D01*
X123407784Y-142559713D01*
X123429225Y-142558660D01*
X123866725Y-142558660D01*
X123888166Y-142559713D01*
X123888166Y-142559713D01*
G37*
D11*
X123647975Y-143033660D03*
G04 #@! TD*
D10*
G04 #@! TO.C,D4*
G36*
X123878166Y-139929713D02*
X123899401Y-139932863D01*
X123920225Y-139938079D01*
X123940437Y-139945311D01*
X123959843Y-139954490D01*
X123978256Y-139965526D01*
X123995499Y-139978314D01*
X124011405Y-139992730D01*
X124025821Y-140008636D01*
X124038609Y-140025879D01*
X124049645Y-140044292D01*
X124058824Y-140063698D01*
X124066056Y-140083910D01*
X124071272Y-140104734D01*
X124074422Y-140125969D01*
X124075475Y-140147410D01*
X124075475Y-140659910D01*
X124074422Y-140681351D01*
X124071272Y-140702586D01*
X124066056Y-140723410D01*
X124058824Y-140743622D01*
X124049645Y-140763028D01*
X124038609Y-140781441D01*
X124025821Y-140798684D01*
X124011405Y-140814590D01*
X123995499Y-140829006D01*
X123978256Y-140841794D01*
X123959843Y-140852830D01*
X123940437Y-140862009D01*
X123920225Y-140869241D01*
X123899401Y-140874457D01*
X123878166Y-140877607D01*
X123856725Y-140878660D01*
X123419225Y-140878660D01*
X123397784Y-140877607D01*
X123376549Y-140874457D01*
X123355725Y-140869241D01*
X123335513Y-140862009D01*
X123316107Y-140852830D01*
X123297694Y-140841794D01*
X123280451Y-140829006D01*
X123264545Y-140814590D01*
X123250129Y-140798684D01*
X123237341Y-140781441D01*
X123226305Y-140763028D01*
X123217126Y-140743622D01*
X123209894Y-140723410D01*
X123204678Y-140702586D01*
X123201528Y-140681351D01*
X123200475Y-140659910D01*
X123200475Y-140147410D01*
X123201528Y-140125969D01*
X123204678Y-140104734D01*
X123209894Y-140083910D01*
X123217126Y-140063698D01*
X123226305Y-140044292D01*
X123237341Y-140025879D01*
X123250129Y-140008636D01*
X123264545Y-139992730D01*
X123280451Y-139978314D01*
X123297694Y-139965526D01*
X123316107Y-139954490D01*
X123335513Y-139945311D01*
X123355725Y-139938079D01*
X123376549Y-139932863D01*
X123397784Y-139929713D01*
X123419225Y-139928660D01*
X123856725Y-139928660D01*
X123878166Y-139929713D01*
X123878166Y-139929713D01*
G37*
D11*
X123637975Y-140403660D03*
D10*
G36*
X122303166Y-139929713D02*
X122324401Y-139932863D01*
X122345225Y-139938079D01*
X122365437Y-139945311D01*
X122384843Y-139954490D01*
X122403256Y-139965526D01*
X122420499Y-139978314D01*
X122436405Y-139992730D01*
X122450821Y-140008636D01*
X122463609Y-140025879D01*
X122474645Y-140044292D01*
X122483824Y-140063698D01*
X122491056Y-140083910D01*
X122496272Y-140104734D01*
X122499422Y-140125969D01*
X122500475Y-140147410D01*
X122500475Y-140659910D01*
X122499422Y-140681351D01*
X122496272Y-140702586D01*
X122491056Y-140723410D01*
X122483824Y-140743622D01*
X122474645Y-140763028D01*
X122463609Y-140781441D01*
X122450821Y-140798684D01*
X122436405Y-140814590D01*
X122420499Y-140829006D01*
X122403256Y-140841794D01*
X122384843Y-140852830D01*
X122365437Y-140862009D01*
X122345225Y-140869241D01*
X122324401Y-140874457D01*
X122303166Y-140877607D01*
X122281725Y-140878660D01*
X121844225Y-140878660D01*
X121822784Y-140877607D01*
X121801549Y-140874457D01*
X121780725Y-140869241D01*
X121760513Y-140862009D01*
X121741107Y-140852830D01*
X121722694Y-140841794D01*
X121705451Y-140829006D01*
X121689545Y-140814590D01*
X121675129Y-140798684D01*
X121662341Y-140781441D01*
X121651305Y-140763028D01*
X121642126Y-140743622D01*
X121634894Y-140723410D01*
X121629678Y-140702586D01*
X121626528Y-140681351D01*
X121625475Y-140659910D01*
X121625475Y-140147410D01*
X121626528Y-140125969D01*
X121629678Y-140104734D01*
X121634894Y-140083910D01*
X121642126Y-140063698D01*
X121651305Y-140044292D01*
X121662341Y-140025879D01*
X121675129Y-140008636D01*
X121689545Y-139992730D01*
X121705451Y-139978314D01*
X121722694Y-139965526D01*
X121741107Y-139954490D01*
X121760513Y-139945311D01*
X121780725Y-139938079D01*
X121801549Y-139932863D01*
X121822784Y-139929713D01*
X121844225Y-139928660D01*
X122281725Y-139928660D01*
X122303166Y-139929713D01*
X122303166Y-139929713D01*
G37*
D11*
X122062975Y-140403660D03*
G04 #@! TD*
D10*
G04 #@! TO.C,R3*
G36*
X127378166Y-147489713D02*
X127399401Y-147492863D01*
X127420225Y-147498079D01*
X127440437Y-147505311D01*
X127459843Y-147514490D01*
X127478256Y-147525526D01*
X127495499Y-147538314D01*
X127511405Y-147552730D01*
X127525821Y-147568636D01*
X127538609Y-147585879D01*
X127549645Y-147604292D01*
X127558824Y-147623698D01*
X127566056Y-147643910D01*
X127571272Y-147664734D01*
X127574422Y-147685969D01*
X127575475Y-147707410D01*
X127575475Y-148219910D01*
X127574422Y-148241351D01*
X127571272Y-148262586D01*
X127566056Y-148283410D01*
X127558824Y-148303622D01*
X127549645Y-148323028D01*
X127538609Y-148341441D01*
X127525821Y-148358684D01*
X127511405Y-148374590D01*
X127495499Y-148389006D01*
X127478256Y-148401794D01*
X127459843Y-148412830D01*
X127440437Y-148422009D01*
X127420225Y-148429241D01*
X127399401Y-148434457D01*
X127378166Y-148437607D01*
X127356725Y-148438660D01*
X126919225Y-148438660D01*
X126897784Y-148437607D01*
X126876549Y-148434457D01*
X126855725Y-148429241D01*
X126835513Y-148422009D01*
X126816107Y-148412830D01*
X126797694Y-148401794D01*
X126780451Y-148389006D01*
X126764545Y-148374590D01*
X126750129Y-148358684D01*
X126737341Y-148341441D01*
X126726305Y-148323028D01*
X126717126Y-148303622D01*
X126709894Y-148283410D01*
X126704678Y-148262586D01*
X126701528Y-148241351D01*
X126700475Y-148219910D01*
X126700475Y-147707410D01*
X126701528Y-147685969D01*
X126704678Y-147664734D01*
X126709894Y-147643910D01*
X126717126Y-147623698D01*
X126726305Y-147604292D01*
X126737341Y-147585879D01*
X126750129Y-147568636D01*
X126764545Y-147552730D01*
X126780451Y-147538314D01*
X126797694Y-147525526D01*
X126816107Y-147514490D01*
X126835513Y-147505311D01*
X126855725Y-147498079D01*
X126876549Y-147492863D01*
X126897784Y-147489713D01*
X126919225Y-147488660D01*
X127356725Y-147488660D01*
X127378166Y-147489713D01*
X127378166Y-147489713D01*
G37*
D11*
X127137975Y-147963660D03*
D10*
G36*
X125803166Y-147489713D02*
X125824401Y-147492863D01*
X125845225Y-147498079D01*
X125865437Y-147505311D01*
X125884843Y-147514490D01*
X125903256Y-147525526D01*
X125920499Y-147538314D01*
X125936405Y-147552730D01*
X125950821Y-147568636D01*
X125963609Y-147585879D01*
X125974645Y-147604292D01*
X125983824Y-147623698D01*
X125991056Y-147643910D01*
X125996272Y-147664734D01*
X125999422Y-147685969D01*
X126000475Y-147707410D01*
X126000475Y-148219910D01*
X125999422Y-148241351D01*
X125996272Y-148262586D01*
X125991056Y-148283410D01*
X125983824Y-148303622D01*
X125974645Y-148323028D01*
X125963609Y-148341441D01*
X125950821Y-148358684D01*
X125936405Y-148374590D01*
X125920499Y-148389006D01*
X125903256Y-148401794D01*
X125884843Y-148412830D01*
X125865437Y-148422009D01*
X125845225Y-148429241D01*
X125824401Y-148434457D01*
X125803166Y-148437607D01*
X125781725Y-148438660D01*
X125344225Y-148438660D01*
X125322784Y-148437607D01*
X125301549Y-148434457D01*
X125280725Y-148429241D01*
X125260513Y-148422009D01*
X125241107Y-148412830D01*
X125222694Y-148401794D01*
X125205451Y-148389006D01*
X125189545Y-148374590D01*
X125175129Y-148358684D01*
X125162341Y-148341441D01*
X125151305Y-148323028D01*
X125142126Y-148303622D01*
X125134894Y-148283410D01*
X125129678Y-148262586D01*
X125126528Y-148241351D01*
X125125475Y-148219910D01*
X125125475Y-147707410D01*
X125126528Y-147685969D01*
X125129678Y-147664734D01*
X125134894Y-147643910D01*
X125142126Y-147623698D01*
X125151305Y-147604292D01*
X125162341Y-147585879D01*
X125175129Y-147568636D01*
X125189545Y-147552730D01*
X125205451Y-147538314D01*
X125222694Y-147525526D01*
X125241107Y-147514490D01*
X125260513Y-147505311D01*
X125280725Y-147498079D01*
X125301549Y-147492863D01*
X125322784Y-147489713D01*
X125344225Y-147488660D01*
X125781725Y-147488660D01*
X125803166Y-147489713D01*
X125803166Y-147489713D01*
G37*
D11*
X125562975Y-147963660D03*
G04 #@! TD*
D10*
G04 #@! TO.C,R4*
G36*
X125823166Y-145029713D02*
X125844401Y-145032863D01*
X125865225Y-145038079D01*
X125885437Y-145045311D01*
X125904843Y-145054490D01*
X125923256Y-145065526D01*
X125940499Y-145078314D01*
X125956405Y-145092730D01*
X125970821Y-145108636D01*
X125983609Y-145125879D01*
X125994645Y-145144292D01*
X126003824Y-145163698D01*
X126011056Y-145183910D01*
X126016272Y-145204734D01*
X126019422Y-145225969D01*
X126020475Y-145247410D01*
X126020475Y-145759910D01*
X126019422Y-145781351D01*
X126016272Y-145802586D01*
X126011056Y-145823410D01*
X126003824Y-145843622D01*
X125994645Y-145863028D01*
X125983609Y-145881441D01*
X125970821Y-145898684D01*
X125956405Y-145914590D01*
X125940499Y-145929006D01*
X125923256Y-145941794D01*
X125904843Y-145952830D01*
X125885437Y-145962009D01*
X125865225Y-145969241D01*
X125844401Y-145974457D01*
X125823166Y-145977607D01*
X125801725Y-145978660D01*
X125364225Y-145978660D01*
X125342784Y-145977607D01*
X125321549Y-145974457D01*
X125300725Y-145969241D01*
X125280513Y-145962009D01*
X125261107Y-145952830D01*
X125242694Y-145941794D01*
X125225451Y-145929006D01*
X125209545Y-145914590D01*
X125195129Y-145898684D01*
X125182341Y-145881441D01*
X125171305Y-145863028D01*
X125162126Y-145843622D01*
X125154894Y-145823410D01*
X125149678Y-145802586D01*
X125146528Y-145781351D01*
X125145475Y-145759910D01*
X125145475Y-145247410D01*
X125146528Y-145225969D01*
X125149678Y-145204734D01*
X125154894Y-145183910D01*
X125162126Y-145163698D01*
X125171305Y-145144292D01*
X125182341Y-145125879D01*
X125195129Y-145108636D01*
X125209545Y-145092730D01*
X125225451Y-145078314D01*
X125242694Y-145065526D01*
X125261107Y-145054490D01*
X125280513Y-145045311D01*
X125300725Y-145038079D01*
X125321549Y-145032863D01*
X125342784Y-145029713D01*
X125364225Y-145028660D01*
X125801725Y-145028660D01*
X125823166Y-145029713D01*
X125823166Y-145029713D01*
G37*
D11*
X125582975Y-145503660D03*
D10*
G36*
X127398166Y-145029713D02*
X127419401Y-145032863D01*
X127440225Y-145038079D01*
X127460437Y-145045311D01*
X127479843Y-145054490D01*
X127498256Y-145065526D01*
X127515499Y-145078314D01*
X127531405Y-145092730D01*
X127545821Y-145108636D01*
X127558609Y-145125879D01*
X127569645Y-145144292D01*
X127578824Y-145163698D01*
X127586056Y-145183910D01*
X127591272Y-145204734D01*
X127594422Y-145225969D01*
X127595475Y-145247410D01*
X127595475Y-145759910D01*
X127594422Y-145781351D01*
X127591272Y-145802586D01*
X127586056Y-145823410D01*
X127578824Y-145843622D01*
X127569645Y-145863028D01*
X127558609Y-145881441D01*
X127545821Y-145898684D01*
X127531405Y-145914590D01*
X127515499Y-145929006D01*
X127498256Y-145941794D01*
X127479843Y-145952830D01*
X127460437Y-145962009D01*
X127440225Y-145969241D01*
X127419401Y-145974457D01*
X127398166Y-145977607D01*
X127376725Y-145978660D01*
X126939225Y-145978660D01*
X126917784Y-145977607D01*
X126896549Y-145974457D01*
X126875725Y-145969241D01*
X126855513Y-145962009D01*
X126836107Y-145952830D01*
X126817694Y-145941794D01*
X126800451Y-145929006D01*
X126784545Y-145914590D01*
X126770129Y-145898684D01*
X126757341Y-145881441D01*
X126746305Y-145863028D01*
X126737126Y-145843622D01*
X126729894Y-145823410D01*
X126724678Y-145802586D01*
X126721528Y-145781351D01*
X126720475Y-145759910D01*
X126720475Y-145247410D01*
X126721528Y-145225969D01*
X126724678Y-145204734D01*
X126729894Y-145183910D01*
X126737126Y-145163698D01*
X126746305Y-145144292D01*
X126757341Y-145125879D01*
X126770129Y-145108636D01*
X126784545Y-145092730D01*
X126800451Y-145078314D01*
X126817694Y-145065526D01*
X126836107Y-145054490D01*
X126855513Y-145045311D01*
X126875725Y-145038079D01*
X126896549Y-145032863D01*
X126917784Y-145029713D01*
X126939225Y-145028660D01*
X127376725Y-145028660D01*
X127398166Y-145029713D01*
X127398166Y-145029713D01*
G37*
D11*
X127157975Y-145503660D03*
G04 #@! TD*
D10*
G04 #@! TO.C,R5*
G36*
X127398166Y-142629713D02*
X127419401Y-142632863D01*
X127440225Y-142638079D01*
X127460437Y-142645311D01*
X127479843Y-142654490D01*
X127498256Y-142665526D01*
X127515499Y-142678314D01*
X127531405Y-142692730D01*
X127545821Y-142708636D01*
X127558609Y-142725879D01*
X127569645Y-142744292D01*
X127578824Y-142763698D01*
X127586056Y-142783910D01*
X127591272Y-142804734D01*
X127594422Y-142825969D01*
X127595475Y-142847410D01*
X127595475Y-143359910D01*
X127594422Y-143381351D01*
X127591272Y-143402586D01*
X127586056Y-143423410D01*
X127578824Y-143443622D01*
X127569645Y-143463028D01*
X127558609Y-143481441D01*
X127545821Y-143498684D01*
X127531405Y-143514590D01*
X127515499Y-143529006D01*
X127498256Y-143541794D01*
X127479843Y-143552830D01*
X127460437Y-143562009D01*
X127440225Y-143569241D01*
X127419401Y-143574457D01*
X127398166Y-143577607D01*
X127376725Y-143578660D01*
X126939225Y-143578660D01*
X126917784Y-143577607D01*
X126896549Y-143574457D01*
X126875725Y-143569241D01*
X126855513Y-143562009D01*
X126836107Y-143552830D01*
X126817694Y-143541794D01*
X126800451Y-143529006D01*
X126784545Y-143514590D01*
X126770129Y-143498684D01*
X126757341Y-143481441D01*
X126746305Y-143463028D01*
X126737126Y-143443622D01*
X126729894Y-143423410D01*
X126724678Y-143402586D01*
X126721528Y-143381351D01*
X126720475Y-143359910D01*
X126720475Y-142847410D01*
X126721528Y-142825969D01*
X126724678Y-142804734D01*
X126729894Y-142783910D01*
X126737126Y-142763698D01*
X126746305Y-142744292D01*
X126757341Y-142725879D01*
X126770129Y-142708636D01*
X126784545Y-142692730D01*
X126800451Y-142678314D01*
X126817694Y-142665526D01*
X126836107Y-142654490D01*
X126855513Y-142645311D01*
X126875725Y-142638079D01*
X126896549Y-142632863D01*
X126917784Y-142629713D01*
X126939225Y-142628660D01*
X127376725Y-142628660D01*
X127398166Y-142629713D01*
X127398166Y-142629713D01*
G37*
D11*
X127157975Y-143103660D03*
D10*
G36*
X125823166Y-142629713D02*
X125844401Y-142632863D01*
X125865225Y-142638079D01*
X125885437Y-142645311D01*
X125904843Y-142654490D01*
X125923256Y-142665526D01*
X125940499Y-142678314D01*
X125956405Y-142692730D01*
X125970821Y-142708636D01*
X125983609Y-142725879D01*
X125994645Y-142744292D01*
X126003824Y-142763698D01*
X126011056Y-142783910D01*
X126016272Y-142804734D01*
X126019422Y-142825969D01*
X126020475Y-142847410D01*
X126020475Y-143359910D01*
X126019422Y-143381351D01*
X126016272Y-143402586D01*
X126011056Y-143423410D01*
X126003824Y-143443622D01*
X125994645Y-143463028D01*
X125983609Y-143481441D01*
X125970821Y-143498684D01*
X125956405Y-143514590D01*
X125940499Y-143529006D01*
X125923256Y-143541794D01*
X125904843Y-143552830D01*
X125885437Y-143562009D01*
X125865225Y-143569241D01*
X125844401Y-143574457D01*
X125823166Y-143577607D01*
X125801725Y-143578660D01*
X125364225Y-143578660D01*
X125342784Y-143577607D01*
X125321549Y-143574457D01*
X125300725Y-143569241D01*
X125280513Y-143562009D01*
X125261107Y-143552830D01*
X125242694Y-143541794D01*
X125225451Y-143529006D01*
X125209545Y-143514590D01*
X125195129Y-143498684D01*
X125182341Y-143481441D01*
X125171305Y-143463028D01*
X125162126Y-143443622D01*
X125154894Y-143423410D01*
X125149678Y-143402586D01*
X125146528Y-143381351D01*
X125145475Y-143359910D01*
X125145475Y-142847410D01*
X125146528Y-142825969D01*
X125149678Y-142804734D01*
X125154894Y-142783910D01*
X125162126Y-142763698D01*
X125171305Y-142744292D01*
X125182341Y-142725879D01*
X125195129Y-142708636D01*
X125209545Y-142692730D01*
X125225451Y-142678314D01*
X125242694Y-142665526D01*
X125261107Y-142654490D01*
X125280513Y-142645311D01*
X125300725Y-142638079D01*
X125321549Y-142632863D01*
X125342784Y-142629713D01*
X125364225Y-142628660D01*
X125801725Y-142628660D01*
X125823166Y-142629713D01*
X125823166Y-142629713D01*
G37*
D11*
X125582975Y-143103660D03*
G04 #@! TD*
D10*
G04 #@! TO.C,R6*
G36*
X125823166Y-139929713D02*
X125844401Y-139932863D01*
X125865225Y-139938079D01*
X125885437Y-139945311D01*
X125904843Y-139954490D01*
X125923256Y-139965526D01*
X125940499Y-139978314D01*
X125956405Y-139992730D01*
X125970821Y-140008636D01*
X125983609Y-140025879D01*
X125994645Y-140044292D01*
X126003824Y-140063698D01*
X126011056Y-140083910D01*
X126016272Y-140104734D01*
X126019422Y-140125969D01*
X126020475Y-140147410D01*
X126020475Y-140659910D01*
X126019422Y-140681351D01*
X126016272Y-140702586D01*
X126011056Y-140723410D01*
X126003824Y-140743622D01*
X125994645Y-140763028D01*
X125983609Y-140781441D01*
X125970821Y-140798684D01*
X125956405Y-140814590D01*
X125940499Y-140829006D01*
X125923256Y-140841794D01*
X125904843Y-140852830D01*
X125885437Y-140862009D01*
X125865225Y-140869241D01*
X125844401Y-140874457D01*
X125823166Y-140877607D01*
X125801725Y-140878660D01*
X125364225Y-140878660D01*
X125342784Y-140877607D01*
X125321549Y-140874457D01*
X125300725Y-140869241D01*
X125280513Y-140862009D01*
X125261107Y-140852830D01*
X125242694Y-140841794D01*
X125225451Y-140829006D01*
X125209545Y-140814590D01*
X125195129Y-140798684D01*
X125182341Y-140781441D01*
X125171305Y-140763028D01*
X125162126Y-140743622D01*
X125154894Y-140723410D01*
X125149678Y-140702586D01*
X125146528Y-140681351D01*
X125145475Y-140659910D01*
X125145475Y-140147410D01*
X125146528Y-140125969D01*
X125149678Y-140104734D01*
X125154894Y-140083910D01*
X125162126Y-140063698D01*
X125171305Y-140044292D01*
X125182341Y-140025879D01*
X125195129Y-140008636D01*
X125209545Y-139992730D01*
X125225451Y-139978314D01*
X125242694Y-139965526D01*
X125261107Y-139954490D01*
X125280513Y-139945311D01*
X125300725Y-139938079D01*
X125321549Y-139932863D01*
X125342784Y-139929713D01*
X125364225Y-139928660D01*
X125801725Y-139928660D01*
X125823166Y-139929713D01*
X125823166Y-139929713D01*
G37*
D11*
X125582975Y-140403660D03*
D10*
G36*
X127398166Y-139929713D02*
X127419401Y-139932863D01*
X127440225Y-139938079D01*
X127460437Y-139945311D01*
X127479843Y-139954490D01*
X127498256Y-139965526D01*
X127515499Y-139978314D01*
X127531405Y-139992730D01*
X127545821Y-140008636D01*
X127558609Y-140025879D01*
X127569645Y-140044292D01*
X127578824Y-140063698D01*
X127586056Y-140083910D01*
X127591272Y-140104734D01*
X127594422Y-140125969D01*
X127595475Y-140147410D01*
X127595475Y-140659910D01*
X127594422Y-140681351D01*
X127591272Y-140702586D01*
X127586056Y-140723410D01*
X127578824Y-140743622D01*
X127569645Y-140763028D01*
X127558609Y-140781441D01*
X127545821Y-140798684D01*
X127531405Y-140814590D01*
X127515499Y-140829006D01*
X127498256Y-140841794D01*
X127479843Y-140852830D01*
X127460437Y-140862009D01*
X127440225Y-140869241D01*
X127419401Y-140874457D01*
X127398166Y-140877607D01*
X127376725Y-140878660D01*
X126939225Y-140878660D01*
X126917784Y-140877607D01*
X126896549Y-140874457D01*
X126875725Y-140869241D01*
X126855513Y-140862009D01*
X126836107Y-140852830D01*
X126817694Y-140841794D01*
X126800451Y-140829006D01*
X126784545Y-140814590D01*
X126770129Y-140798684D01*
X126757341Y-140781441D01*
X126746305Y-140763028D01*
X126737126Y-140743622D01*
X126729894Y-140723410D01*
X126724678Y-140702586D01*
X126721528Y-140681351D01*
X126720475Y-140659910D01*
X126720475Y-140147410D01*
X126721528Y-140125969D01*
X126724678Y-140104734D01*
X126729894Y-140083910D01*
X126737126Y-140063698D01*
X126746305Y-140044292D01*
X126757341Y-140025879D01*
X126770129Y-140008636D01*
X126784545Y-139992730D01*
X126800451Y-139978314D01*
X126817694Y-139965526D01*
X126836107Y-139954490D01*
X126855513Y-139945311D01*
X126875725Y-139938079D01*
X126896549Y-139932863D01*
X126917784Y-139929713D01*
X126939225Y-139928660D01*
X127376725Y-139928660D01*
X127398166Y-139929713D01*
X127398166Y-139929713D01*
G37*
D11*
X127157975Y-140403660D03*
G04 #@! TD*
D10*
G04 #@! TO.C,C4*
G36*
X158009504Y-155082204D02*
X158033773Y-155085804D01*
X158057571Y-155091765D01*
X158080671Y-155100030D01*
X158102849Y-155110520D01*
X158123893Y-155123133D01*
X158143598Y-155137747D01*
X158161777Y-155154223D01*
X158178253Y-155172402D01*
X158192867Y-155192107D01*
X158205480Y-155213151D01*
X158215970Y-155235329D01*
X158224235Y-155258429D01*
X158230196Y-155282227D01*
X158233796Y-155306496D01*
X158235000Y-155331000D01*
X158235000Y-156581000D01*
X158233796Y-156605504D01*
X158230196Y-156629773D01*
X158224235Y-156653571D01*
X158215970Y-156676671D01*
X158205480Y-156698849D01*
X158192867Y-156719893D01*
X158178253Y-156739598D01*
X158161777Y-156757777D01*
X158143598Y-156774253D01*
X158123893Y-156788867D01*
X158102849Y-156801480D01*
X158080671Y-156811970D01*
X158057571Y-156820235D01*
X158033773Y-156826196D01*
X158009504Y-156829796D01*
X157985000Y-156831000D01*
X157235000Y-156831000D01*
X157210496Y-156829796D01*
X157186227Y-156826196D01*
X157162429Y-156820235D01*
X157139329Y-156811970D01*
X157117151Y-156801480D01*
X157096107Y-156788867D01*
X157076402Y-156774253D01*
X157058223Y-156757777D01*
X157041747Y-156739598D01*
X157027133Y-156719893D01*
X157014520Y-156698849D01*
X157004030Y-156676671D01*
X156995765Y-156653571D01*
X156989804Y-156629773D01*
X156986204Y-156605504D01*
X156985000Y-156581000D01*
X156985000Y-155331000D01*
X156986204Y-155306496D01*
X156989804Y-155282227D01*
X156995765Y-155258429D01*
X157004030Y-155235329D01*
X157014520Y-155213151D01*
X157027133Y-155192107D01*
X157041747Y-155172402D01*
X157058223Y-155154223D01*
X157076402Y-155137747D01*
X157096107Y-155123133D01*
X157117151Y-155110520D01*
X157139329Y-155100030D01*
X157162429Y-155091765D01*
X157186227Y-155085804D01*
X157210496Y-155082204D01*
X157235000Y-155081000D01*
X157985000Y-155081000D01*
X158009504Y-155082204D01*
X158009504Y-155082204D01*
G37*
D13*
X157610000Y-155956000D03*
D10*
G36*
X155209504Y-155082204D02*
X155233773Y-155085804D01*
X155257571Y-155091765D01*
X155280671Y-155100030D01*
X155302849Y-155110520D01*
X155323893Y-155123133D01*
X155343598Y-155137747D01*
X155361777Y-155154223D01*
X155378253Y-155172402D01*
X155392867Y-155192107D01*
X155405480Y-155213151D01*
X155415970Y-155235329D01*
X155424235Y-155258429D01*
X155430196Y-155282227D01*
X155433796Y-155306496D01*
X155435000Y-155331000D01*
X155435000Y-156581000D01*
X155433796Y-156605504D01*
X155430196Y-156629773D01*
X155424235Y-156653571D01*
X155415970Y-156676671D01*
X155405480Y-156698849D01*
X155392867Y-156719893D01*
X155378253Y-156739598D01*
X155361777Y-156757777D01*
X155343598Y-156774253D01*
X155323893Y-156788867D01*
X155302849Y-156801480D01*
X155280671Y-156811970D01*
X155257571Y-156820235D01*
X155233773Y-156826196D01*
X155209504Y-156829796D01*
X155185000Y-156831000D01*
X154435000Y-156831000D01*
X154410496Y-156829796D01*
X154386227Y-156826196D01*
X154362429Y-156820235D01*
X154339329Y-156811970D01*
X154317151Y-156801480D01*
X154296107Y-156788867D01*
X154276402Y-156774253D01*
X154258223Y-156757777D01*
X154241747Y-156739598D01*
X154227133Y-156719893D01*
X154214520Y-156698849D01*
X154204030Y-156676671D01*
X154195765Y-156653571D01*
X154189804Y-156629773D01*
X154186204Y-156605504D01*
X154185000Y-156581000D01*
X154185000Y-155331000D01*
X154186204Y-155306496D01*
X154189804Y-155282227D01*
X154195765Y-155258429D01*
X154204030Y-155235329D01*
X154214520Y-155213151D01*
X154227133Y-155192107D01*
X154241747Y-155172402D01*
X154258223Y-155154223D01*
X154276402Y-155137747D01*
X154296107Y-155123133D01*
X154317151Y-155110520D01*
X154339329Y-155100030D01*
X154362429Y-155091765D01*
X154386227Y-155085804D01*
X154410496Y-155082204D01*
X154435000Y-155081000D01*
X155185000Y-155081000D01*
X155209504Y-155082204D01*
X155209504Y-155082204D01*
G37*
D13*
X154810000Y-155956000D03*
G04 #@! TD*
D14*
G04 #@! TO.C,U2*
X133561000Y-145030000D03*
X133561000Y-147320000D03*
X133561000Y-149610000D03*
D15*
X140251000Y-147320000D03*
G04 #@! TD*
D10*
G04 #@! TO.C,C1*
G36*
X129272691Y-75146053D02*
X129293926Y-75149203D01*
X129314750Y-75154419D01*
X129334962Y-75161651D01*
X129354368Y-75170830D01*
X129372781Y-75181866D01*
X129390024Y-75194654D01*
X129405930Y-75209070D01*
X129420346Y-75224976D01*
X129433134Y-75242219D01*
X129444170Y-75260632D01*
X129453349Y-75280038D01*
X129460581Y-75300250D01*
X129465797Y-75321074D01*
X129468947Y-75342309D01*
X129470000Y-75363750D01*
X129470000Y-75876250D01*
X129468947Y-75897691D01*
X129465797Y-75918926D01*
X129460581Y-75939750D01*
X129453349Y-75959962D01*
X129444170Y-75979368D01*
X129433134Y-75997781D01*
X129420346Y-76015024D01*
X129405930Y-76030930D01*
X129390024Y-76045346D01*
X129372781Y-76058134D01*
X129354368Y-76069170D01*
X129334962Y-76078349D01*
X129314750Y-76085581D01*
X129293926Y-76090797D01*
X129272691Y-76093947D01*
X129251250Y-76095000D01*
X128813750Y-76095000D01*
X128792309Y-76093947D01*
X128771074Y-76090797D01*
X128750250Y-76085581D01*
X128730038Y-76078349D01*
X128710632Y-76069170D01*
X128692219Y-76058134D01*
X128674976Y-76045346D01*
X128659070Y-76030930D01*
X128644654Y-76015024D01*
X128631866Y-75997781D01*
X128620830Y-75979368D01*
X128611651Y-75959962D01*
X128604419Y-75939750D01*
X128599203Y-75918926D01*
X128596053Y-75897691D01*
X128595000Y-75876250D01*
X128595000Y-75363750D01*
X128596053Y-75342309D01*
X128599203Y-75321074D01*
X128604419Y-75300250D01*
X128611651Y-75280038D01*
X128620830Y-75260632D01*
X128631866Y-75242219D01*
X128644654Y-75224976D01*
X128659070Y-75209070D01*
X128674976Y-75194654D01*
X128692219Y-75181866D01*
X128710632Y-75170830D01*
X128730038Y-75161651D01*
X128750250Y-75154419D01*
X128771074Y-75149203D01*
X128792309Y-75146053D01*
X128813750Y-75145000D01*
X129251250Y-75145000D01*
X129272691Y-75146053D01*
X129272691Y-75146053D01*
G37*
D11*
X129032500Y-75620000D03*
D10*
G36*
X130847691Y-75146053D02*
X130868926Y-75149203D01*
X130889750Y-75154419D01*
X130909962Y-75161651D01*
X130929368Y-75170830D01*
X130947781Y-75181866D01*
X130965024Y-75194654D01*
X130980930Y-75209070D01*
X130995346Y-75224976D01*
X131008134Y-75242219D01*
X131019170Y-75260632D01*
X131028349Y-75280038D01*
X131035581Y-75300250D01*
X131040797Y-75321074D01*
X131043947Y-75342309D01*
X131045000Y-75363750D01*
X131045000Y-75876250D01*
X131043947Y-75897691D01*
X131040797Y-75918926D01*
X131035581Y-75939750D01*
X131028349Y-75959962D01*
X131019170Y-75979368D01*
X131008134Y-75997781D01*
X130995346Y-76015024D01*
X130980930Y-76030930D01*
X130965024Y-76045346D01*
X130947781Y-76058134D01*
X130929368Y-76069170D01*
X130909962Y-76078349D01*
X130889750Y-76085581D01*
X130868926Y-76090797D01*
X130847691Y-76093947D01*
X130826250Y-76095000D01*
X130388750Y-76095000D01*
X130367309Y-76093947D01*
X130346074Y-76090797D01*
X130325250Y-76085581D01*
X130305038Y-76078349D01*
X130285632Y-76069170D01*
X130267219Y-76058134D01*
X130249976Y-76045346D01*
X130234070Y-76030930D01*
X130219654Y-76015024D01*
X130206866Y-75997781D01*
X130195830Y-75979368D01*
X130186651Y-75959962D01*
X130179419Y-75939750D01*
X130174203Y-75918926D01*
X130171053Y-75897691D01*
X130170000Y-75876250D01*
X130170000Y-75363750D01*
X130171053Y-75342309D01*
X130174203Y-75321074D01*
X130179419Y-75300250D01*
X130186651Y-75280038D01*
X130195830Y-75260632D01*
X130206866Y-75242219D01*
X130219654Y-75224976D01*
X130234070Y-75209070D01*
X130249976Y-75194654D01*
X130267219Y-75181866D01*
X130285632Y-75170830D01*
X130305038Y-75161651D01*
X130325250Y-75154419D01*
X130346074Y-75149203D01*
X130367309Y-75146053D01*
X130388750Y-75145000D01*
X130826250Y-75145000D01*
X130847691Y-75146053D01*
X130847691Y-75146053D01*
G37*
D11*
X130607500Y-75620000D03*
G04 #@! TD*
D10*
G04 #@! TO.C,C2*
G36*
X129236844Y-73399352D02*
X129258079Y-73402502D01*
X129278903Y-73407718D01*
X129299115Y-73414950D01*
X129318521Y-73424129D01*
X129336934Y-73435165D01*
X129354177Y-73447953D01*
X129370083Y-73462369D01*
X129384499Y-73478275D01*
X129397287Y-73495518D01*
X129408323Y-73513931D01*
X129417502Y-73533337D01*
X129424734Y-73553549D01*
X129429950Y-73574373D01*
X129433100Y-73595608D01*
X129434153Y-73617049D01*
X129434153Y-74129549D01*
X129433100Y-74150990D01*
X129429950Y-74172225D01*
X129424734Y-74193049D01*
X129417502Y-74213261D01*
X129408323Y-74232667D01*
X129397287Y-74251080D01*
X129384499Y-74268323D01*
X129370083Y-74284229D01*
X129354177Y-74298645D01*
X129336934Y-74311433D01*
X129318521Y-74322469D01*
X129299115Y-74331648D01*
X129278903Y-74338880D01*
X129258079Y-74344096D01*
X129236844Y-74347246D01*
X129215403Y-74348299D01*
X128777903Y-74348299D01*
X128756462Y-74347246D01*
X128735227Y-74344096D01*
X128714403Y-74338880D01*
X128694191Y-74331648D01*
X128674785Y-74322469D01*
X128656372Y-74311433D01*
X128639129Y-74298645D01*
X128623223Y-74284229D01*
X128608807Y-74268323D01*
X128596019Y-74251080D01*
X128584983Y-74232667D01*
X128575804Y-74213261D01*
X128568572Y-74193049D01*
X128563356Y-74172225D01*
X128560206Y-74150990D01*
X128559153Y-74129549D01*
X128559153Y-73617049D01*
X128560206Y-73595608D01*
X128563356Y-73574373D01*
X128568572Y-73553549D01*
X128575804Y-73533337D01*
X128584983Y-73513931D01*
X128596019Y-73495518D01*
X128608807Y-73478275D01*
X128623223Y-73462369D01*
X128639129Y-73447953D01*
X128656372Y-73435165D01*
X128674785Y-73424129D01*
X128694191Y-73414950D01*
X128714403Y-73407718D01*
X128735227Y-73402502D01*
X128756462Y-73399352D01*
X128777903Y-73398299D01*
X129215403Y-73398299D01*
X129236844Y-73399352D01*
X129236844Y-73399352D01*
G37*
D11*
X128996653Y-73873299D03*
D10*
G36*
X130811844Y-73399352D02*
X130833079Y-73402502D01*
X130853903Y-73407718D01*
X130874115Y-73414950D01*
X130893521Y-73424129D01*
X130911934Y-73435165D01*
X130929177Y-73447953D01*
X130945083Y-73462369D01*
X130959499Y-73478275D01*
X130972287Y-73495518D01*
X130983323Y-73513931D01*
X130992502Y-73533337D01*
X130999734Y-73553549D01*
X131004950Y-73574373D01*
X131008100Y-73595608D01*
X131009153Y-73617049D01*
X131009153Y-74129549D01*
X131008100Y-74150990D01*
X131004950Y-74172225D01*
X130999734Y-74193049D01*
X130992502Y-74213261D01*
X130983323Y-74232667D01*
X130972287Y-74251080D01*
X130959499Y-74268323D01*
X130945083Y-74284229D01*
X130929177Y-74298645D01*
X130911934Y-74311433D01*
X130893521Y-74322469D01*
X130874115Y-74331648D01*
X130853903Y-74338880D01*
X130833079Y-74344096D01*
X130811844Y-74347246D01*
X130790403Y-74348299D01*
X130352903Y-74348299D01*
X130331462Y-74347246D01*
X130310227Y-74344096D01*
X130289403Y-74338880D01*
X130269191Y-74331648D01*
X130249785Y-74322469D01*
X130231372Y-74311433D01*
X130214129Y-74298645D01*
X130198223Y-74284229D01*
X130183807Y-74268323D01*
X130171019Y-74251080D01*
X130159983Y-74232667D01*
X130150804Y-74213261D01*
X130143572Y-74193049D01*
X130138356Y-74172225D01*
X130135206Y-74150990D01*
X130134153Y-74129549D01*
X130134153Y-73617049D01*
X130135206Y-73595608D01*
X130138356Y-73574373D01*
X130143572Y-73553549D01*
X130150804Y-73533337D01*
X130159983Y-73513931D01*
X130171019Y-73495518D01*
X130183807Y-73478275D01*
X130198223Y-73462369D01*
X130214129Y-73447953D01*
X130231372Y-73435165D01*
X130249785Y-73424129D01*
X130269191Y-73414950D01*
X130289403Y-73407718D01*
X130310227Y-73402502D01*
X130331462Y-73399352D01*
X130352903Y-73398299D01*
X130790403Y-73398299D01*
X130811844Y-73399352D01*
X130811844Y-73399352D01*
G37*
D11*
X130571653Y-73873299D03*
G04 #@! TD*
D16*
G04 #@! TO.C,J1*
X141250000Y-158790000D03*
X144500000Y-158790000D03*
D17*
X141575000Y-154240000D03*
X142225000Y-154240000D03*
X142875000Y-154240000D03*
X143525000Y-154240000D03*
X144175000Y-154240000D03*
G04 #@! TD*
D18*
G04 #@! TO.C,J2*
X159766000Y-119404000D03*
X159766000Y-122404000D03*
D19*
X158291000Y-120904000D03*
X161241000Y-120904000D03*
G04 #@! TD*
D10*
G04 #@! TO.C,R1*
G36*
X159028051Y-142086026D02*
X159049286Y-142089176D01*
X159070110Y-142094392D01*
X159090322Y-142101624D01*
X159109728Y-142110803D01*
X159128141Y-142121839D01*
X159145384Y-142134627D01*
X159161290Y-142149043D01*
X159175706Y-142164949D01*
X159188494Y-142182192D01*
X159199530Y-142200605D01*
X159208709Y-142220011D01*
X159215941Y-142240223D01*
X159221157Y-142261047D01*
X159224307Y-142282282D01*
X159225360Y-142303723D01*
X159225360Y-142816223D01*
X159224307Y-142837664D01*
X159221157Y-142858899D01*
X159215941Y-142879723D01*
X159208709Y-142899935D01*
X159199530Y-142919341D01*
X159188494Y-142937754D01*
X159175706Y-142954997D01*
X159161290Y-142970903D01*
X159145384Y-142985319D01*
X159128141Y-142998107D01*
X159109728Y-143009143D01*
X159090322Y-143018322D01*
X159070110Y-143025554D01*
X159049286Y-143030770D01*
X159028051Y-143033920D01*
X159006610Y-143034973D01*
X158569110Y-143034973D01*
X158547669Y-143033920D01*
X158526434Y-143030770D01*
X158505610Y-143025554D01*
X158485398Y-143018322D01*
X158465992Y-143009143D01*
X158447579Y-142998107D01*
X158430336Y-142985319D01*
X158414430Y-142970903D01*
X158400014Y-142954997D01*
X158387226Y-142937754D01*
X158376190Y-142919341D01*
X158367011Y-142899935D01*
X158359779Y-142879723D01*
X158354563Y-142858899D01*
X158351413Y-142837664D01*
X158350360Y-142816223D01*
X158350360Y-142303723D01*
X158351413Y-142282282D01*
X158354563Y-142261047D01*
X158359779Y-142240223D01*
X158367011Y-142220011D01*
X158376190Y-142200605D01*
X158387226Y-142182192D01*
X158400014Y-142164949D01*
X158414430Y-142149043D01*
X158430336Y-142134627D01*
X158447579Y-142121839D01*
X158465992Y-142110803D01*
X158485398Y-142101624D01*
X158505610Y-142094392D01*
X158526434Y-142089176D01*
X158547669Y-142086026D01*
X158569110Y-142084973D01*
X159006610Y-142084973D01*
X159028051Y-142086026D01*
X159028051Y-142086026D01*
G37*
D11*
X158787860Y-142559973D03*
D10*
G36*
X160603051Y-142086026D02*
X160624286Y-142089176D01*
X160645110Y-142094392D01*
X160665322Y-142101624D01*
X160684728Y-142110803D01*
X160703141Y-142121839D01*
X160720384Y-142134627D01*
X160736290Y-142149043D01*
X160750706Y-142164949D01*
X160763494Y-142182192D01*
X160774530Y-142200605D01*
X160783709Y-142220011D01*
X160790941Y-142240223D01*
X160796157Y-142261047D01*
X160799307Y-142282282D01*
X160800360Y-142303723D01*
X160800360Y-142816223D01*
X160799307Y-142837664D01*
X160796157Y-142858899D01*
X160790941Y-142879723D01*
X160783709Y-142899935D01*
X160774530Y-142919341D01*
X160763494Y-142937754D01*
X160750706Y-142954997D01*
X160736290Y-142970903D01*
X160720384Y-142985319D01*
X160703141Y-142998107D01*
X160684728Y-143009143D01*
X160665322Y-143018322D01*
X160645110Y-143025554D01*
X160624286Y-143030770D01*
X160603051Y-143033920D01*
X160581610Y-143034973D01*
X160144110Y-143034973D01*
X160122669Y-143033920D01*
X160101434Y-143030770D01*
X160080610Y-143025554D01*
X160060398Y-143018322D01*
X160040992Y-143009143D01*
X160022579Y-142998107D01*
X160005336Y-142985319D01*
X159989430Y-142970903D01*
X159975014Y-142954997D01*
X159962226Y-142937754D01*
X159951190Y-142919341D01*
X159942011Y-142899935D01*
X159934779Y-142879723D01*
X159929563Y-142858899D01*
X159926413Y-142837664D01*
X159925360Y-142816223D01*
X159925360Y-142303723D01*
X159926413Y-142282282D01*
X159929563Y-142261047D01*
X159934779Y-142240223D01*
X159942011Y-142220011D01*
X159951190Y-142200605D01*
X159962226Y-142182192D01*
X159975014Y-142164949D01*
X159989430Y-142149043D01*
X160005336Y-142134627D01*
X160022579Y-142121839D01*
X160040992Y-142110803D01*
X160060398Y-142101624D01*
X160080610Y-142094392D01*
X160101434Y-142089176D01*
X160122669Y-142086026D01*
X160144110Y-142084973D01*
X160581610Y-142084973D01*
X160603051Y-142086026D01*
X160603051Y-142086026D01*
G37*
D11*
X160362860Y-142559973D03*
G04 #@! TD*
D10*
G04 #@! TO.C,R2*
G36*
X159028051Y-143864026D02*
X159049286Y-143867176D01*
X159070110Y-143872392D01*
X159090322Y-143879624D01*
X159109728Y-143888803D01*
X159128141Y-143899839D01*
X159145384Y-143912627D01*
X159161290Y-143927043D01*
X159175706Y-143942949D01*
X159188494Y-143960192D01*
X159199530Y-143978605D01*
X159208709Y-143998011D01*
X159215941Y-144018223D01*
X159221157Y-144039047D01*
X159224307Y-144060282D01*
X159225360Y-144081723D01*
X159225360Y-144594223D01*
X159224307Y-144615664D01*
X159221157Y-144636899D01*
X159215941Y-144657723D01*
X159208709Y-144677935D01*
X159199530Y-144697341D01*
X159188494Y-144715754D01*
X159175706Y-144732997D01*
X159161290Y-144748903D01*
X159145384Y-144763319D01*
X159128141Y-144776107D01*
X159109728Y-144787143D01*
X159090322Y-144796322D01*
X159070110Y-144803554D01*
X159049286Y-144808770D01*
X159028051Y-144811920D01*
X159006610Y-144812973D01*
X158569110Y-144812973D01*
X158547669Y-144811920D01*
X158526434Y-144808770D01*
X158505610Y-144803554D01*
X158485398Y-144796322D01*
X158465992Y-144787143D01*
X158447579Y-144776107D01*
X158430336Y-144763319D01*
X158414430Y-144748903D01*
X158400014Y-144732997D01*
X158387226Y-144715754D01*
X158376190Y-144697341D01*
X158367011Y-144677935D01*
X158359779Y-144657723D01*
X158354563Y-144636899D01*
X158351413Y-144615664D01*
X158350360Y-144594223D01*
X158350360Y-144081723D01*
X158351413Y-144060282D01*
X158354563Y-144039047D01*
X158359779Y-144018223D01*
X158367011Y-143998011D01*
X158376190Y-143978605D01*
X158387226Y-143960192D01*
X158400014Y-143942949D01*
X158414430Y-143927043D01*
X158430336Y-143912627D01*
X158447579Y-143899839D01*
X158465992Y-143888803D01*
X158485398Y-143879624D01*
X158505610Y-143872392D01*
X158526434Y-143867176D01*
X158547669Y-143864026D01*
X158569110Y-143862973D01*
X159006610Y-143862973D01*
X159028051Y-143864026D01*
X159028051Y-143864026D01*
G37*
D11*
X158787860Y-144337973D03*
D10*
G36*
X160603051Y-143864026D02*
X160624286Y-143867176D01*
X160645110Y-143872392D01*
X160665322Y-143879624D01*
X160684728Y-143888803D01*
X160703141Y-143899839D01*
X160720384Y-143912627D01*
X160736290Y-143927043D01*
X160750706Y-143942949D01*
X160763494Y-143960192D01*
X160774530Y-143978605D01*
X160783709Y-143998011D01*
X160790941Y-144018223D01*
X160796157Y-144039047D01*
X160799307Y-144060282D01*
X160800360Y-144081723D01*
X160800360Y-144594223D01*
X160799307Y-144615664D01*
X160796157Y-144636899D01*
X160790941Y-144657723D01*
X160783709Y-144677935D01*
X160774530Y-144697341D01*
X160763494Y-144715754D01*
X160750706Y-144732997D01*
X160736290Y-144748903D01*
X160720384Y-144763319D01*
X160703141Y-144776107D01*
X160684728Y-144787143D01*
X160665322Y-144796322D01*
X160645110Y-144803554D01*
X160624286Y-144808770D01*
X160603051Y-144811920D01*
X160581610Y-144812973D01*
X160144110Y-144812973D01*
X160122669Y-144811920D01*
X160101434Y-144808770D01*
X160080610Y-144803554D01*
X160060398Y-144796322D01*
X160040992Y-144787143D01*
X160022579Y-144776107D01*
X160005336Y-144763319D01*
X159989430Y-144748903D01*
X159975014Y-144732997D01*
X159962226Y-144715754D01*
X159951190Y-144697341D01*
X159942011Y-144677935D01*
X159934779Y-144657723D01*
X159929563Y-144636899D01*
X159926413Y-144615664D01*
X159925360Y-144594223D01*
X159925360Y-144081723D01*
X159926413Y-144060282D01*
X159929563Y-144039047D01*
X159934779Y-144018223D01*
X159942011Y-143998011D01*
X159951190Y-143978605D01*
X159962226Y-143960192D01*
X159975014Y-143942949D01*
X159989430Y-143927043D01*
X160005336Y-143912627D01*
X160022579Y-143899839D01*
X160040992Y-143888803D01*
X160060398Y-143879624D01*
X160080610Y-143872392D01*
X160101434Y-143867176D01*
X160122669Y-143864026D01*
X160144110Y-143862973D01*
X160581610Y-143862973D01*
X160603051Y-143864026D01*
X160603051Y-143864026D01*
G37*
D11*
X160362860Y-144337973D03*
G04 #@! TD*
D12*
G04 #@! TO.C,SW1*
X155036000Y-127746000D03*
X147236000Y-127746000D03*
G04 #@! TD*
G04 #@! TO.C,SW2*
X159746000Y-127746000D03*
X167546000Y-127746000D03*
G04 #@! TD*
D20*
G04 #@! TO.C,U1*
X143080000Y-80735000D03*
D21*
X151380000Y-73325000D03*
X151380000Y-74595000D03*
X151380000Y-75865000D03*
X151380000Y-77135000D03*
X151380000Y-78405000D03*
X151380000Y-79675000D03*
X151380000Y-80945000D03*
X151380000Y-82215000D03*
X151380000Y-83485000D03*
X151380000Y-84755000D03*
X151380000Y-86025000D03*
X151380000Y-87295000D03*
X151380000Y-88565000D03*
X151380000Y-89835000D03*
D22*
X148095000Y-91335000D03*
X146825000Y-91335000D03*
X145555000Y-91335000D03*
X144285000Y-91335000D03*
X143015000Y-91335000D03*
X141745000Y-91335000D03*
X140475000Y-91335000D03*
X139205000Y-91335000D03*
X137935000Y-91335000D03*
X136665000Y-91335000D03*
D21*
X133380000Y-89835000D03*
X133380000Y-88565000D03*
X133380000Y-87295000D03*
X133380000Y-86025000D03*
X133380000Y-84755000D03*
X133380000Y-83485000D03*
X133380000Y-82215000D03*
X133380000Y-80945000D03*
X133380000Y-79675000D03*
X133380000Y-78405000D03*
X133380000Y-77135000D03*
X133380000Y-75865000D03*
X133380000Y-74595000D03*
X133380000Y-73325000D03*
G04 #@! TD*
D23*
G04 #@! TO.C,U3*
X157607000Y-153421080D03*
X156337000Y-153421080D03*
X155067000Y-153421080D03*
X153797000Y-153421080D03*
X152527000Y-153421080D03*
X151257000Y-153421080D03*
X149987000Y-153421080D03*
X148717000Y-153421080D03*
X148717000Y-147822920D03*
X149987000Y-147822920D03*
X151257000Y-147822920D03*
X152527000Y-147822920D03*
X153797000Y-147822920D03*
X155067000Y-147822920D03*
X156337000Y-147822920D03*
X157607000Y-147822920D03*
G04 #@! TD*
D24*
G04 #@! TO.C,U4*
X159544080Y-103080300D03*
X159544080Y-105079280D03*
X159544080Y-107078260D03*
X159544080Y-109079780D03*
X159544080Y-111076220D03*
X159544080Y-113077740D03*
X159544080Y-115076720D03*
X159544080Y-117075700D03*
X144547920Y-117075700D03*
X144547920Y-115076720D03*
X144547920Y-113077740D03*
X144547920Y-111076220D03*
X144547920Y-109079780D03*
X144547920Y-107078260D03*
X144547920Y-105079280D03*
X144547920Y-103080300D03*
G04 #@! TD*
G04 #@! TO.C,U5*
X148189840Y-116039520D03*
X148189840Y-114038000D03*
X148189840Y-112039020D03*
X148189840Y-110040040D03*
X148189840Y-108041060D03*
X148189840Y-106042080D03*
X148189840Y-104040560D03*
X163186000Y-104040560D03*
X163186000Y-106042080D03*
X163186000Y-108041060D03*
X163186000Y-110040040D03*
X163186000Y-112039020D03*
X163186000Y-114038000D03*
X163186000Y-116039520D03*
G04 #@! TD*
D25*
G04 #@! TO.C,U6*
X137536000Y-103058000D03*
X137536000Y-105058000D03*
X137536000Y-107058000D03*
X137536000Y-109058000D03*
X137536000Y-111058000D03*
X137536000Y-113058000D03*
X137536000Y-115058000D03*
X137536000Y-117058000D03*
X155736000Y-117058000D03*
X155736000Y-115058000D03*
X155736000Y-113058000D03*
X155736000Y-111058000D03*
X155736000Y-109058000D03*
X155736000Y-107058000D03*
X155736000Y-105058000D03*
X155736000Y-103058000D03*
G04 #@! TD*
D26*
G04 #@! TO.C,Y1*
X148152000Y-145288000D03*
X149352000Y-145288000D03*
X150552000Y-145288000D03*
G04 #@! TD*
D27*
G04 #@! TO.C,Q1*
X154257360Y-143321973D03*
X156257360Y-142371973D03*
X156257360Y-144271973D03*
G04 #@! TD*
G04 #@! TO.C,Q2*
X164893360Y-143321973D03*
X162893360Y-144271973D03*
X162893360Y-142371973D03*
G04 #@! TD*
M02*
